<?xml version="1.0" encoding="UTF-8"?>
<!DOCTYPE svg PUBLIC "-//W3C//DTD SVG 1.1//EN" "http://www.w3.org/Graphics/SVG/1.1/DTD/svg11.dtd">
<svg xmlns="http://www.w3.org/2000/svg" version="1.1" width="752px" height="752px" style="shape-rendering:geometricPrecision; text-rendering:geometricPrecision; image-rendering:optimizeQuality; fill-rule:evenodd; clip-rule:evenodd" xmlns:xlink="http://www.w3.org/1999/xlink">
<g><path style="opacity:0.947" fill="#000000" d="M 199.5,175.5 C 269.834,175.333 340.167,175.5 410.5,176C 442.882,177.878 475.215,180.045 507.5,182.5C 508.34,179.633 510.007,177.467 512.5,176C 526.167,175.333 539.833,175.333 553.5,176C 561.435,178.268 566.268,183.435 568,191.5C 568.667,200.5 568.667,209.5 568,218.5C 565.833,227.333 560.333,232.833 551.5,235C 538.833,235.667 526.167,235.667 513.5,235C 510.466,233.809 508.799,231.642 508.5,228.5C 473.838,230.666 439.172,232.833 404.5,235C 336.5,235.667 268.5,235.667 200.5,235C 186.556,230.186 180.556,220.353 182.5,205.5C 180.487,190.834 186.154,180.834 199.5,175.5 Z M 205.5,190.5 C 243.506,190.167 281.506,190.5 319.5,191.5C 325.5,200.5 331.5,209.5 337.5,218.5C 292.504,219.667 247.504,219.833 202.5,219C 201.333,217.833 200.167,216.667 199,215.5C 198.333,208.833 198.333,202.167 199,195.5C 200.272,192.508 202.438,190.841 205.5,190.5 Z M 338.5,191.5 C 357.996,190.338 377.662,190.171 397.5,191C 434.487,193.458 471.487,195.624 508.5,197.5C 508.5,202.5 508.5,207.5 508.5,212.5C 458.256,216.869 407.923,219.036 357.5,219C 351.021,209.854 344.687,200.688 338.5,191.5 Z M 523.5,190.5 C 532.582,190.086 541.582,190.586 550.5,192C 551,192.5 551.5,193 552,193.5C 552.667,201.167 552.667,208.833 552,216.5C 551.692,217.308 551.192,217.975 550.5,218.5C 541.554,219.472 532.554,219.806 523.5,219.5C 523.5,209.833 523.5,200.167 523.5,190.5 Z"/></g>
<g><path style="opacity:0.947" fill="#000000" d="M 197.5,249.5 C 211.171,249.333 224.837,249.5 238.5,250C 240.993,251.467 242.66,253.633 243.5,256.5C 275.785,254.045 308.118,251.878 340.5,250C 410.833,249.333 481.167,249.333 551.5,250C 560.781,252.281 566.281,258.114 568,267.5C 568.667,275.5 568.667,283.5 568,291.5C 565.5,300.667 559.667,306.5 550.5,309C 482.5,309.667 414.5,309.667 346.5,309C 311.828,306.833 277.162,304.666 242.5,302.5C 242.201,305.642 240.534,307.809 237.5,309C 224.833,309.667 212.167,309.667 199.5,309C 191.107,306.941 185.607,301.775 183,293.5C 182.333,284.167 182.333,274.833 183,265.5C 184.919,257.419 189.753,252.085 197.5,249.5 Z M 203.5,264.5 C 211.5,264.5 219.5,264.5 227.5,264.5C 227.5,274.167 227.5,283.833 227.5,293.5C 218.827,293.666 210.16,293.5 201.5,293C 200.692,292.692 200.025,292.192 199.5,291.5C 198.365,283.549 198.198,275.549 199,267.5C 200.409,266.219 201.909,265.219 203.5,264.5 Z M 353.5,264.5 C 366.85,264.167 380.183,264.501 393.5,265.5C 399.5,274.5 405.5,283.5 411.5,292.5C 388.841,293.666 366.174,293.833 343.5,293C 309.816,290.957 276.149,288.791 242.5,286.5C 242.5,281.5 242.5,276.5 242.5,271.5C 279.69,269.78 316.69,267.447 353.5,264.5 Z M 412.5,265.5 C 456.665,264.335 500.998,264.169 545.5,265C 548.494,265.406 550.661,266.906 552,269.5C 552.667,276.167 552.667,282.833 552,289.5C 550.833,290.667 549.667,291.833 548.5,293C 509.5,293.667 470.5,293.667 431.5,293C 425.021,283.854 418.687,274.688 412.5,265.5 Z"/></g>
<g><path style="opacity:0.946" fill="#000000" d="M 171.5,323.5 C 307.5,323.333 443.5,323.5 579.5,324C 581.487,325.319 582.654,327.152 583,329.5C 583.667,340.5 583.667,351.5 583,362.5C 582.602,365.232 581.102,367.065 578.5,368C 575.183,368.498 571.85,368.665 568.5,368.5C 568.5,378.167 568.5,387.833 568.5,397.5C 581.916,395.289 591.416,400.289 597,412.5C 597.667,436.833 597.667,461.167 597,485.5C 591.945,498.45 582.445,503.784 568.5,501.5C 568.5,511.167 568.5,520.833 568.5,530.5C 571.85,530.335 575.183,530.502 578.5,531C 581.102,531.935 582.602,533.768 583,536.5C 583.667,547.5 583.667,558.5 583,569.5C 582.654,571.848 581.487,573.681 579.5,575C 443.5,575.667 307.5,575.667 171.5,575C 169.513,573.681 168.346,571.848 168,569.5C 167.333,558.5 167.333,547.5 168,536.5C 168.398,533.768 169.898,531.935 172.5,531C 175.817,530.502 179.15,530.335 182.5,530.5C 182.5,520.833 182.5,511.167 182.5,501.5C 169.084,503.711 159.584,498.711 154,486.5C 153.333,461.833 153.333,437.167 154,412.5C 159.584,400.289 169.084,395.289 182.5,397.5C 182.5,387.833 182.5,378.167 182.5,368.5C 179.15,368.665 175.817,368.498 172.5,368C 169.898,367.065 168.398,365.232 168,362.5C 167.333,351.5 167.333,340.5 168,329.5C 168.564,327.113 169.73,325.113 171.5,323.5 Z M 183.5,338.5 C 311.5,338.5 439.5,338.5 567.5,338.5C 567.5,343.167 567.5,347.833 567.5,352.5C 439.5,352.5 311.5,352.5 183.5,352.5C 183.5,347.833 183.5,343.167 183.5,338.5 Z M 198.5,368.5 C 222.833,368.5 247.167,368.5 271.5,368.5C 271.666,378.506 271.5,388.506 271,398.5C 259.614,404.267 254.781,413.6 256.5,426.5C 237.167,426.5 217.833,426.5 198.5,426.5C 198.5,407.167 198.5,387.833 198.5,368.5 Z M 287.5,368.5 C 346.167,368.5 404.833,368.5 463.5,368.5C 463.666,378.506 463.5,388.506 463,398.5C 451.822,404.524 447.322,413.857 449.5,426.5C 438.48,426.832 427.48,426.499 416.5,425.5C 423.835,409.688 419.835,397.521 404.5,389C 386.789,381.165 368.789,380.498 350.5,387C 332.516,394.781 327.182,407.615 334.5,425.5C 323.854,426.499 313.187,426.832 302.5,426.5C 303.713,413.924 298.88,404.591 288,398.5C 287.5,388.506 287.334,378.506 287.5,368.5 Z M 479.5,368.5 C 503.833,368.5 528.167,368.5 552.5,368.5C 552.5,387.833 552.5,407.167 552.5,426.5C 533.167,426.5 513.833,426.5 494.5,426.5C 496.219,413.6 491.386,404.267 480,398.5C 479.5,388.506 479.334,378.506 479.5,368.5 Z M 366.5,398.5 C 376.104,397.717 385.437,398.884 394.5,402C 406.795,407.779 407.462,414.445 396.5,422C 383.31,427.584 369.977,427.918 356.5,423C 350.535,420.731 347.368,416.564 347,410.5C 348.458,408.04 350.291,405.873 352.5,404C 357.159,401.842 361.825,400.009 366.5,398.5 Z M 175.5,412.5 C 177.833,412.5 180.167,412.5 182.5,412.5C 182.5,437.167 182.5,461.833 182.5,486.5C 176.552,487.472 172.052,485.472 169,480.5C 168.333,459.833 168.333,439.167 169,418.5C 170.436,415.558 172.603,413.558 175.5,412.5 Z M 568.5,412.5 C 574.448,411.528 578.948,413.528 582,418.5C 582.667,439.167 582.667,459.833 582,480.5C 578.948,485.472 574.448,487.472 568.5,486.5C 568.5,461.833 568.5,437.167 568.5,412.5 Z M 275.5,413.5 C 280.439,412.352 283.939,414.019 286,418.5C 286.667,439.167 286.667,459.833 286,480.5C 283.447,485.626 279.614,486.793 274.5,484C 273.874,483.25 273.374,482.416 273,481.5C 272.333,460.167 272.333,438.833 273,417.5C 273.662,416.016 274.496,414.683 275.5,413.5 Z M 468.5,413.5 C 470.857,413.337 473.19,413.503 475.5,414C 476.701,414.903 477.535,416.069 478,417.5C 478.667,438.833 478.667,460.167 478,481.5C 475.839,485.124 472.672,486.291 468.5,485C 466.951,483.786 465.785,482.286 465,480.5C 464.333,459.833 464.333,439.167 465,418.5C 465.997,416.677 467.164,415.01 468.5,413.5 Z M 198.5,442.5 C 217.833,442.5 237.167,442.5 256.5,442.5C 256.5,447.167 256.5,451.833 256.5,456.5C 237.167,456.5 217.833,456.5 198.5,456.5C 198.5,451.833 198.5,447.167 198.5,442.5 Z M 302.5,442.5 C 351.167,442.5 399.833,442.5 448.5,442.5C 448.5,447.167 448.5,451.833 448.5,456.5C 399.833,456.5 351.167,456.5 302.5,456.5C 302.5,451.833 302.5,447.167 302.5,442.5 Z M 494.5,442.5 C 513.833,442.5 533.167,442.5 552.5,442.5C 552.5,447.167 552.5,451.833 552.5,456.5C 533.167,456.5 513.833,456.5 494.5,456.5C 494.5,451.833 494.5,447.167 494.5,442.5 Z M 198.5,472.5 C 217.833,472.5 237.167,472.5 256.5,472.5C 254.781,485.4 259.614,494.733 271,500.5C 271.5,510.494 271.666,520.494 271.5,530.5C 247.167,530.5 222.833,530.5 198.5,530.5C 198.5,511.167 198.5,491.833 198.5,472.5 Z M 302.5,472.5 C 351.5,472.5 400.5,472.5 449.5,472.5C 447.322,485.143 451.822,494.476 463,500.5C 463.5,510.494 463.666,520.494 463.5,530.5C 404.833,530.5 346.167,530.5 287.5,530.5C 287.334,520.494 287.5,510.494 288,500.5C 298.88,494.409 303.713,485.076 302.5,472.5 Z M 494.5,472.5 C 513.833,472.5 533.167,472.5 552.5,472.5C 552.5,491.833 552.5,511.167 552.5,530.5C 528.167,530.5 503.833,530.5 479.5,530.5C 479.334,520.494 479.5,510.494 480,500.5C 491.386,494.733 496.219,485.4 494.5,472.5 Z M 183.5,546.5 C 311.5,546.5 439.5,546.5 567.5,546.5C 567.5,551.167 567.5,555.833 567.5,560.5C 439.5,560.5 311.5,560.5 183.5,560.5C 183.5,555.833 183.5,551.167 183.5,546.5 Z"/></g>
</svg>
