<?xml version="1.0" encoding="UTF-8"?>
<!DOCTYPE svg PUBLIC "-//W3C//DTD SVG 1.1//EN" "http://www.w3.org/Graphics/SVG/1.1/DTD/svg11.dtd">
<svg xmlns="http://www.w3.org/2000/svg" version="1.1" width="752px" height="752px" style="shape-rendering:geometricPrecision; text-rendering:geometricPrecision; image-rendering:optimizeQuality; fill-rule:evenodd; clip-rule:evenodd" xmlns:xlink="http://www.w3.org/1999/xlink">
<g><path style="opacity:0.949" fill="#000000" d="M 296.5,138.5 C 343.835,138.333 391.168,138.5 438.5,139C 455.667,142.833 466.167,153.333 470,170.5C 470.5,183.496 470.667,196.496 470.5,209.5C 511.835,209.333 553.168,209.5 594.5,210C 603.667,212.5 609.5,218.333 612,227.5C 612.667,349.833 612.667,472.167 612,594.5C 609.5,603.667 603.667,609.5 594.5,612C 448.5,612.667 302.5,612.667 156.5,612C 147.771,609.605 141.938,604.105 139,595.5C 138.333,472.5 138.333,349.5 139,226.5C 141.929,217.904 147.763,212.404 156.5,210C 192.498,209.5 228.498,209.333 264.5,209.5C 264.333,196.829 264.5,184.162 265,171.5C 268.568,153.768 279.068,142.768 296.5,138.5 Z M 303.5,154.5 C 348.2,154.031 392.867,154.531 437.5,156C 445.766,158.599 450.932,164.099 453,172.5C 453.5,184.829 453.667,197.162 453.5,209.5C 448.833,209.5 444.167,209.5 439.5,209.5C 439.666,200.827 439.5,192.16 439,183.5C 437.833,175.667 433.333,171.167 425.5,170C 386.833,169.333 348.167,169.333 309.5,170C 303.531,171.298 299.365,174.798 297,180.5C 296.5,190.161 296.334,199.828 296.5,209.5C 291.5,209.5 286.5,209.5 281.5,209.5C 281.056,196.093 281.556,182.76 283,169.5C 287.223,160.757 294.057,155.757 303.5,154.5 Z M 312.5,186.5 C 349.167,186.5 385.833,186.5 422.5,186.5C 422.5,194.167 422.5,201.833 422.5,209.5C 385.833,209.5 349.167,209.5 312.5,209.5C 312.5,201.833 312.5,194.167 312.5,186.5 Z M 158.5,226.5 C 170.167,226.5 181.833,226.5 193.5,226.5C 199.659,258.674 186.659,271.34 154.5,264.5C 154.334,254.161 154.5,243.828 155,233.5C 155.133,230.596 156.3,228.262 158.5,226.5 Z M 210.5,226.5 C 320.5,226.5 430.5,226.5 540.5,226.5C 540.5,231.167 540.5,235.833 540.5,240.5C 430.5,240.5 320.5,240.5 210.5,240.5C 210.5,235.833 210.5,231.167 210.5,226.5 Z M 557.5,226.5 C 569.601,226.041 581.601,226.541 593.5,228C 595.004,229.491 595.837,231.324 596,233.5C 596.5,243.828 596.666,254.161 596.5,264.5C 564.341,271.34 551.341,258.674 557.5,226.5 Z M 208.5,257.5 C 319.833,257.5 431.167,257.5 542.5,257.5C 546.201,270.696 554.868,278.529 568.5,281C 577.827,281.5 587.161,281.666 596.5,281.5C 596.5,367.833 596.5,454.167 596.5,540.5C 591.5,540.5 586.5,540.5 581.5,540.5C 581.667,476.499 581.5,412.499 581,348.5C 579.601,342.1 575.767,337.934 569.5,336C 440.167,335.333 310.833,335.333 181.5,336C 175.233,337.934 171.399,342.1 170,348.5C 169.5,412.499 169.333,476.499 169.5,540.5C 164.5,540.5 159.5,540.5 154.5,540.5C 154.5,454.167 154.5,367.833 154.5,281.5C 163.839,281.666 173.173,281.5 182.5,281C 196.119,278.544 204.786,270.71 208.5,257.5 Z M 246.5,289.5 C 253.655,289.153 256.821,292.486 256,299.5C 251.965,304.364 247.632,304.698 243,300.5C 241.053,295.842 242.219,292.176 246.5,289.5 Z M 309.5,289.5 C 318.549,289.701 321.215,293.868 317.5,302C 311.159,305.207 306.826,303.54 304.5,297C 305.324,293.827 306.991,291.327 309.5,289.5 Z M 372.5,289.5 C 381.85,289.365 384.517,293.532 380.5,302C 371.956,305.322 368.123,302.489 369,293.5C 369.69,291.65 370.856,290.316 372.5,289.5 Z M 435.5,289.5 C 444.882,289.436 447.549,293.603 443.5,302C 434.956,305.322 431.123,302.489 432,293.5C 433.376,292.295 434.542,290.962 435.5,289.5 Z M 498.5,289.5 C 504.334,288.577 508,290.91 509.5,296.5C 508.185,302.649 504.518,304.815 498.5,303C 493.221,298.503 493.221,294.003 498.5,289.5 Z M 186.5,352.5 C 312.5,352.5 438.5,352.5 564.5,352.5C 564.5,415.833 564.5,479.167 564.5,542.5C 552.833,545.5 545.5,552.833 542.5,564.5C 431.167,564.5 319.833,564.5 208.5,564.5C 205.5,552.833 198.167,545.5 186.5,542.5C 186.5,479.167 186.5,415.833 186.5,352.5 Z M 154.5,557.5 C 187.167,550.833 200.167,563.833 193.5,596.5C 181.771,596.912 170.104,596.412 158.5,595C 156.232,593.442 155.066,591.276 155,588.5C 154.5,578.172 154.334,567.839 154.5,557.5 Z M 569.5,557.5 C 578.5,557.5 587.5,557.5 596.5,557.5C 596.912,569.229 596.412,580.896 595,592.5C 593.442,594.768 591.276,595.934 588.5,596C 578.172,596.5 567.839,596.666 557.5,596.5C 557.334,587.494 557.5,578.494 558,569.5C 560.019,563.65 563.852,559.65 569.5,557.5 Z M 210.5,581.5 C 320.5,581.5 430.5,581.5 540.5,581.5C 540.5,586.5 540.5,591.5 540.5,596.5C 430.5,596.5 320.5,596.5 210.5,596.5C 210.5,591.5 210.5,586.5 210.5,581.5 Z"/></g>
<g><path style="opacity:0.928" fill="#000000" d="M 243.5,272.5 C 264.106,271.363 273.94,281.03 273,301.5C 268.6,316.125 258.766,322.292 243.5,320C 226.547,313.51 221.381,301.677 228,284.5C 231.695,278.424 236.862,274.424 243.5,272.5 Z M 246.5,289.5 C 242.219,292.176 241.053,295.842 243,300.5C 247.632,304.698 251.965,304.364 256,299.5C 256.821,292.486 253.655,289.153 246.5,289.5 Z"/></g>
<g><path style="opacity:0.928" fill="#000000" d="M 306.5,272.5 C 324.265,271.026 334.265,279.026 336.5,296.5C 334.283,314.122 324.283,321.956 306.5,320C 289.544,313.497 284.377,301.663 291,284.5C 294.659,278.435 299.826,274.435 306.5,272.5 Z M 309.5,289.5 C 306.991,291.327 305.324,293.827 304.5,297C 306.826,303.54 311.159,305.207 317.5,302C 321.215,293.868 318.549,289.701 309.5,289.5 Z"/></g>
<g><path style="opacity:0.93" fill="#000000" d="M 369.5,272.5 C 390.645,271.478 400.479,281.478 399,302.5C 394.056,316.394 384.222,322.228 369.5,320C 355.606,315.056 349.772,305.222 352,290.5C 354.683,281.318 360.517,275.318 369.5,272.5 Z M 372.5,289.5 C 370.856,290.316 369.69,291.65 369,293.5C 368.123,302.489 371.956,305.322 380.5,302C 384.517,293.532 381.85,289.365 372.5,289.5 Z"/></g>
<g><path style="opacity:0.927" fill="#000000" d="M 432.5,272.5 C 457.364,272.572 466.53,284.572 460,308.5C 450.965,320.95 439.465,323.784 425.5,317C 415.49,309.485 412.323,299.651 416,287.5C 419.19,279.843 424.69,274.843 432.5,272.5 Z M 435.5,289.5 C 434.542,290.962 433.376,292.295 432,293.5C 431.123,302.489 434.956,305.322 443.5,302C 447.549,293.603 444.882,289.436 435.5,289.5 Z"/></g>
<g><path style="opacity:0.928" fill="#000000" d="M 496.5,272.5 C 517.645,272.145 527.145,282.478 525,303.5C 517.487,320.23 505.32,324.73 488.5,317C 477.149,307.921 474.649,296.754 481,283.5C 484.962,278.023 490.129,274.356 496.5,272.5 Z M 498.5,289.5 C 493.221,294.003 493.221,298.503 498.5,303C 504.518,304.815 508.185,302.649 509.5,296.5C 508,290.91 504.334,288.577 498.5,289.5 Z"/></g>
<g><path style="opacity:0.924" fill="#000000" d="M 221.5,375.5 C 224.187,375.336 226.854,375.503 229.5,376C 232.312,377.977 234.978,380.144 237.5,382.5C 239.984,380.517 242.317,378.35 244.5,376C 253.661,373.838 257.827,377.338 257,386.5C 254.872,389.63 252.372,392.463 249.5,395C 252.372,397.537 254.872,400.37 257,403.5C 258.663,412.167 255.163,416 246.5,415C 243.354,412.688 240.354,410.188 237.5,407.5C 234.646,410.188 231.646,412.688 228.5,415C 219.783,415.949 216.283,412.116 218,403.5C 220.128,400.37 222.628,397.537 225.5,395C 223,392.5 220.5,390 218,387.5C 216.593,382.599 217.76,378.599 221.5,375.5 Z"/></g>
<g><path style="opacity:0.926" fill="#000000" d="M 276.5,375.5 C 279.187,375.336 281.854,375.503 284.5,376C 287.312,377.977 289.978,380.144 292.5,382.5C 295.022,380.144 297.688,377.977 300.5,376C 310.333,373.833 314.167,377.667 312,387.5C 309.5,390 307,392.5 304.5,395C 307.372,397.537 309.872,400.37 312,403.5C 313.663,412.167 310.163,416 301.5,415C 298.354,412.688 295.354,410.188 292.5,407.5C 289.646,410.188 286.646,412.688 283.5,415C 274.837,416 271.337,412.167 273,403.5C 275.128,400.37 277.628,397.537 280.5,395C 277.628,392.463 275.128,389.63 273,386.5C 271.882,382.077 273.049,378.41 276.5,375.5 Z"/></g>
<g><path style="opacity:0.919" fill="#000000" d="M 331.5,375.5 C 334.518,375.335 337.518,375.502 340.5,376C 343,378.5 345.5,381 348,383.5C 350.5,381 353,378.5 355.5,376C 364.033,373.822 368.199,376.988 368,385.5C 366.077,389.258 363.577,392.591 360.5,395.5C 364.186,398.676 366.852,402.509 368.5,407C 367.152,413.673 363.152,416.339 356.5,415C 353.37,412.872 350.537,410.372 348,407.5C 345.463,410.372 342.63,412.872 339.5,415C 330.833,416.663 327,413.163 328,404.5C 330.312,401.354 332.812,398.354 335.5,395.5C 332.394,392.569 329.894,389.236 328,385.5C 327.182,381.469 328.349,378.136 331.5,375.5 Z"/></g>
<g><path style="opacity:0.923" fill="#000000" d="M 387.5,375.5 C 390.187,375.336 392.854,375.503 395.5,376C 398,378.5 400.5,381 403,383.5C 405.5,381 408,378.5 410.5,376C 419.61,373.784 423.777,377.284 423,386.5C 420.688,389.646 418.188,392.646 415.5,395.5C 418.188,398.354 420.688,401.354 423,404.5C 423.064,413.897 418.564,417.064 409.5,414C 407.333,411.833 405.167,409.667 403,407.5C 400.463,410.372 397.63,412.872 394.5,415C 385.131,415.637 381.631,411.471 384,402.5C 386.35,400.317 388.517,397.984 390.5,395.5C 386.626,392.295 383.96,388.295 382.5,383.5C 383.193,380.09 384.86,377.423 387.5,375.5 Z"/></g>
<g><path style="opacity:0.924" fill="#000000" d="M 442.5,375.5 C 445.187,375.336 447.854,375.503 450.5,376C 453.312,377.977 455.978,380.144 458.5,382.5C 460.984,380.517 463.317,378.35 465.5,376C 474.661,373.838 478.827,377.338 478,386.5C 475.872,389.63 473.372,392.463 470.5,395C 473.372,397.537 475.872,400.37 478,403.5C 479.663,412.167 476.163,416 467.5,415C 464.354,412.688 461.354,410.188 458.5,407.5C 455.646,410.188 452.646,412.688 449.5,415C 440.783,415.949 437.283,412.116 439,403.5C 441.128,400.37 443.628,397.537 446.5,395C 444,392.5 441.5,390 439,387.5C 437.593,382.599 438.76,378.599 442.5,375.5 Z"/></g>
<g><path style="opacity:0.926" fill="#000000" d="M 497.5,375.5 C 500.187,375.336 502.854,375.503 505.5,376C 508.312,377.977 510.978,380.144 513.5,382.5C 516.022,380.144 518.688,377.977 521.5,376C 531.333,373.833 535.167,377.667 533,387.5C 530.5,390 528,392.5 525.5,395C 528.372,397.537 530.872,400.37 533,403.5C 534.663,412.167 531.163,416 522.5,415C 519.354,412.688 516.354,410.188 513.5,407.5C 510.646,410.188 507.646,412.688 504.5,415C 495.837,416 492.337,412.167 494,403.5C 496.128,400.37 498.628,397.537 501.5,395C 498.628,392.463 496.128,389.63 494,386.5C 492.882,382.077 494.049,378.41 497.5,375.5 Z"/></g>
<g><path style="opacity:0.924" fill="#000000" d="M 221.5,430.5 C 224.187,430.336 226.854,430.503 229.5,431C 232,433.5 234.5,436 237,438.5C 239.537,435.628 242.37,433.128 245.5,431C 254.667,429.5 258.5,433.333 257,442.5C 254.317,445.016 251.817,447.683 249.5,450.5C 251.817,453.317 254.317,455.984 257,458.5C 258.5,467.667 254.667,471.5 245.5,470C 242.37,467.872 239.537,465.372 237,462.5C 234.5,465 232,467.5 229.5,470C 220.333,471.5 216.5,467.667 218,458.5C 219.977,455.688 222.144,453.022 224.5,450.5C 222.144,447.978 219.977,445.312 218,442.5C 216.593,437.643 217.76,433.643 221.5,430.5 Z"/></g>
<g><path style="opacity:0.925" fill="#000000" d="M 277.5,430.5 C 280.649,430.211 283.649,430.711 286.5,432C 288.667,434.167 290.833,436.333 293,438.5C 295.5,436 298,433.5 300.5,431C 309.667,429.5 313.5,433.333 312,442.5C 310.023,445.312 307.856,447.978 305.5,450.5C 307.856,453.022 310.023,455.688 312,458.5C 313.553,467.614 309.72,471.447 300.5,470C 298,467.5 295.5,465 293,462.5C 290.463,465.372 287.63,467.872 284.5,470C 275.386,471.553 271.553,467.72 273,458.5C 275.683,455.984 278.183,453.317 280.5,450.5C 278.517,448.016 276.35,445.683 274,443.5C 271.348,438.039 272.514,433.706 277.5,430.5 Z"/></g>
<g><path style="opacity:0.92" fill="#000000" d="M 332.5,430.5 C 335.649,430.211 338.649,430.711 341.5,432C 343.667,434.167 345.833,436.333 348,438.5C 350.5,436 353,433.5 355.5,431C 365.862,429.241 369.696,433.408 367,443.5C 364.65,445.683 362.483,448.016 360.5,450.5C 362.483,452.984 364.65,455.317 367,457.5C 369.656,466.843 366.156,471.01 356.5,470C 353.37,467.872 350.537,465.372 348,462.5C 345.463,465.372 342.63,467.872 339.5,470C 330.833,471.663 327,468.163 328,459.5C 330.312,456.354 332.812,453.354 335.5,450.5C 333.517,448.016 331.35,445.683 329,443.5C 326.628,438.127 327.795,433.794 332.5,430.5 Z"/></g>
<g><path style="opacity:0.919" fill="#000000" d="M 387.5,430.5 C 390.649,430.211 393.649,430.711 396.5,432C 398.667,434.167 400.833,436.333 403,438.5C 405.537,435.628 408.37,433.128 411.5,431C 420.167,429.337 424,432.837 423,441.5C 420.688,444.646 418.188,447.646 415.5,450.5C 418.188,453.354 420.688,456.354 423,459.5C 423.983,468.182 420.15,471.682 411.5,470C 408.37,467.872 405.537,465.372 403,462.5C 400.5,465 398,467.5 395.5,470C 387.011,472.195 382.844,469.028 383,460.5C 384.894,456.764 387.394,453.431 390.5,450.5C 388.517,448.016 386.35,445.683 384,443.5C 382.002,438.327 383.168,433.994 387.5,430.5 Z"/></g>
<g><path style="opacity:0.924" fill="#000000" d="M 442.5,430.5 C 445.187,430.336 447.854,430.503 450.5,431C 453,433.5 455.5,436 458,438.5C 460.537,435.628 463.37,433.128 466.5,431C 475.667,429.5 479.5,433.333 478,442.5C 475.317,445.016 472.817,447.683 470.5,450.5C 472.817,453.317 475.317,455.984 478,458.5C 479.5,467.667 475.667,471.5 466.5,470C 463.37,467.872 460.537,465.372 458,462.5C 455.5,465 453,467.5 450.5,470C 441.333,471.5 437.5,467.667 439,458.5C 440.977,455.688 443.144,453.022 445.5,450.5C 443.144,447.978 440.977,445.312 439,442.5C 437.593,437.643 438.76,433.643 442.5,430.5 Z"/></g>
<g><path style="opacity:0.925" fill="#000000" d="M 498.5,430.5 C 501.649,430.211 504.649,430.711 507.5,432C 509.667,434.167 511.833,436.333 514,438.5C 516.5,436 519,433.5 521.5,431C 530.667,429.5 534.5,433.333 533,442.5C 531.023,445.312 528.856,447.978 526.5,450.5C 528.856,453.022 531.023,455.688 533,458.5C 534.553,467.614 530.72,471.447 521.5,470C 519,467.5 516.5,465 514,462.5C 511.463,465.372 508.63,467.872 505.5,470C 496.386,471.553 492.553,467.72 494,458.5C 496.683,455.984 499.183,453.317 501.5,450.5C 499.517,448.016 497.35,445.683 495,443.5C 492.348,438.039 493.514,433.706 498.5,430.5 Z"/></g>
<g><path style="opacity:0.926" fill="#000000" d="M 222.5,485.5 C 225.32,485.248 227.986,485.748 230.5,487C 232.683,489.35 235.016,491.517 237.5,493.5C 240.354,490.812 243.354,488.312 246.5,486C 255.163,485 258.663,488.833 257,497.5C 254.872,500.63 252.372,503.463 249.5,506C 252.372,508.537 254.872,511.37 257,514.5C 257.949,523.217 254.116,526.717 245.5,525C 242.688,523.023 240.022,520.856 237.5,518.5C 234.978,520.856 232.312,523.023 229.5,525C 219.667,527.167 215.833,523.333 218,513.5C 220.5,511 223,508.5 225.5,506C 222.628,503.463 220.128,500.63 218,497.5C 216.474,492.239 217.974,488.239 222.5,485.5 Z"/></g>
<g><path style="opacity:0.925" fill="#000000" d="M 277.5,485.5 C 280.32,485.248 282.986,485.748 285.5,487C 287.683,489.35 290.016,491.517 292.5,493.5C 295.354,490.812 298.354,488.312 301.5,486C 310.217,485.051 313.717,488.884 312,497.5C 309.872,500.63 307.372,503.463 304.5,506C 307,508.5 309.5,511 312,513.5C 313.5,522.667 309.667,526.5 300.5,525C 297.688,523.023 295.022,520.856 292.5,518.5C 290.016,520.483 287.683,522.65 285.5,525C 276.339,527.162 272.173,523.662 273,514.5C 275.128,511.37 277.628,508.537 280.5,506C 277.628,503.463 275.128,500.63 273,497.5C 271.474,492.239 272.974,488.239 277.5,485.5 Z"/></g>
<g><path style="opacity:0.923" fill="#000000" d="M 333.5,485.5 C 336.32,485.248 338.986,485.748 341.5,487C 343.667,489.167 345.833,491.333 348,493.5C 350.537,490.628 353.37,488.128 356.5,486C 365.858,485.352 369.358,489.519 367,498.5C 364.65,500.683 362.483,503.016 360.5,505.5C 364.374,508.705 367.04,512.705 368.5,517.5C 366.945,524.615 362.612,527.115 355.5,525C 353,522.5 350.5,520 348,517.5C 345.5,520 343,522.5 340.5,525C 331.39,527.216 327.223,523.716 328,514.5C 330.312,511.354 332.812,508.354 335.5,505.5C 333.517,503.016 331.35,500.683 329,498.5C 326.542,492.757 328.042,488.424 333.5,485.5 Z"/></g>
<g><path style="opacity:0.919" fill="#000000" d="M 388.5,485.5 C 391.32,485.248 393.986,485.748 396.5,487C 398.667,489.167 400.833,491.333 403,493.5C 405.537,490.628 408.37,488.128 411.5,486C 420.118,484.285 423.951,487.785 423,496.5C 420.688,499.646 418.188,502.646 415.5,505.5C 418.188,508.354 420.688,511.354 423,514.5C 423.829,523.661 419.662,527.161 410.5,525C 408,522.5 405.5,520 403,517.5C 400.5,520 398,522.5 395.5,525C 386.903,527.387 382.736,524.221 383,515.5C 384.923,511.742 387.423,508.409 390.5,505.5C 386.814,502.324 384.148,498.491 382.5,494C 383.187,490.16 385.187,487.327 388.5,485.5 Z"/></g>
<g><path style="opacity:0.926" fill="#000000" d="M 443.5,485.5 C 446.32,485.248 448.986,485.748 451.5,487C 453.683,489.35 456.016,491.517 458.5,493.5C 461.354,490.812 464.354,488.312 467.5,486C 476.163,485 479.663,488.833 478,497.5C 475.872,500.63 473.372,503.463 470.5,506C 473.372,508.537 475.872,511.37 478,514.5C 478.949,523.217 475.116,526.717 466.5,525C 463.688,523.023 461.022,520.856 458.5,518.5C 455.978,520.856 453.312,523.023 450.5,525C 440.667,527.167 436.833,523.333 439,513.5C 441.5,511 444,508.5 446.5,506C 443.628,503.463 441.128,500.63 439,497.5C 437.474,492.239 438.974,488.239 443.5,485.5 Z"/></g>
<g><path style="opacity:0.925" fill="#000000" d="M 498.5,485.5 C 501.32,485.248 503.986,485.748 506.5,487C 508.683,489.35 511.016,491.517 513.5,493.5C 516.354,490.812 519.354,488.312 522.5,486C 531.217,485.051 534.717,488.884 533,497.5C 530.872,500.63 528.372,503.463 525.5,506C 528,508.5 530.5,511 533,513.5C 534.5,522.667 530.667,526.5 521.5,525C 518.688,523.023 516.022,520.856 513.5,518.5C 511.016,520.483 508.683,522.65 506.5,525C 497.339,527.162 493.173,523.662 494,514.5C 496.128,511.37 498.628,508.537 501.5,506C 498.628,503.463 496.128,500.63 494,497.5C 492.474,492.239 493.974,488.239 498.5,485.5 Z"/></g>
</svg>
