<?xml version="1.0" standalone="no"?>
<!DOCTYPE svg PUBLIC "-//W3C//DTD SVG 20010904//EN"
 "http://www.w3.org/TR/2001/REC-SVG-20010904/DTD/svg10.dtd">
<svg version="1.0" xmlns="http://www.w3.org/2000/svg"
 width="752.000000pt" height="752.000000pt" viewBox="0 0 752.000000 752.000000"
 preserveAspectRatio="xMidYMid meet">

<g transform="translate(0.000000,752.000000) scale(0.100000,-0.100000)"
fill="#000000" stroke="none">
<path d="M2010 5960 c-29 -29 -32 -52 -28 -223 4 -190 7 -197 103 -197 l63 0
16 -65 c21 -85 21 -85 -18 -85 -19 0 -45 -9 -60 -21 l-26 -20 0 -179 c0 -214
3 -220 93 -228 l57 -4 0 -959 0 -959 -49 0 c-34 0 -56 -6 -75 -21 l-26 -20 0
-180 c0 -166 1 -180 20 -199 14 -14 33 -20 65 -20 53 0 52 12 22 -165 l-22
-130 -45 -3 c-110 -6 -120 -22 -120 -187 l0 -115 -53 0 c-86 0 -87 -4 -87
-218 0 -174 1 -182 22 -202 22 -20 29 -20 1085 -20 1045 0 1063 0 1083 20 29
29 32 52 28 223 -4 188 -8 197 -98 197 l-57 0 5 106 5 106 834 1321 c459 727
844 1339 855 1361 16 31 19 54 16 107 -6 118 -13 124 -383 342 -405 237 -425
247 -489 247 -81 -1 -119 -26 -276 -184 l-145 -146 -72 0 -71 0 -52 158 c-61
183 -75 209 -132 248 l-43 29 -540 5 -540 5 -3 127 c-4 184 39 168 -448 168
-379 0 -395 -1 -414 -20z m710 -205 l0 -75 -292 2 -293 3 -3 73 -3 72 296 0
295 0 0 -75z m-174 -252 c-3 -21 -11 -55 -16 -76 l-11 -38 -91 3 -92 3 -11 45
c-6 25 -15 57 -18 73 l-7 27 126 0 127 0 -7 -37z m1364 22 c25 -13 35 -34 90
-202 45 -136 69 -194 86 -210 23 -21 34 -23 150 -23 89 0 133 4 152 14 15 8
94 82 177 165 127 128 154 151 180 151 21 0 133 -61 370 -199 387 -225 386
-224 343 -301 -14 -25 -402 -641 -862 -1369 l-836 -1324 0 -98 c0 -107 -11
-131 -62 -144 -13 -3 -203 -4 -423 -3 l-400 3 -3 73 -3 72 303 0 c221 0 309 4
326 13 21 11 1622 2574 1663 2662 40 86 15 193 -59 256 -76 64 -209 132 -267
137 -88 7 -118 -9 -248 -137 l-119 -116 -228 -3 c-190 -3 -234 0 -259 12 -26
14 -35 32 -76 158 -55 168 -78 207 -142 245 l-48 28 -522 3 -521 3 8 32 c5 18
14 51 20 75 l11 42 585 0 c497 0 589 -2 614 -15z m-1260 -360 l0 -75 -220 0
-220 0 0 75 0 75 220 0 220 0 0 -75z m300 -1405 l0 -1480 -118 0 -119 0 -22
133 c-29 176 -30 167 23 167 36 0 48 5 65 26 19 25 21 40 21 196 0 166 0 169
-25 193 -19 20 -34 25 -75 25 l-50 0 0 960 0 960 40 0 c51 0 85 16 99 47 6 13
11 75 11 138 l0 115 75 0 75 0 0 -1480z m290 0 l0 -1480 -75 0 -75 0 0 1480 0
1480 75 0 75 0 0 -1480z m300 111 c0 -753 4 -1371 9 -1373 15 -6 -122 -217
-141 -218 -17 0 -18 77 -18 1480 l0 1480 75 0 75 0 0 -1369z m229 1185 c29
-83 55 -155 59 -160 4 -6 5 -452 2 -991 l-5 -980 -59 -95 c-33 -52 -63 -99
-68 -104 -4 -6 -8 557 -8 1249 0 1083 2 1257 14 1245 8 -8 37 -82 65 -164z
m1163 -58 c124 -74 125 -87 22 -255 -41 -67 -77 -123 -80 -123 -2 0 -4 92 -4
205 0 113 2 205 5 205 3 0 28 -14 57 -32z m-284 -747 l-73 -116 -3 350 -2 349
72 73 73 74 3 -307 2 -307 -72 -116z m-2148 -271 l0 -960 -75 0 -75 0 0 960 0
960 75 0 75 0 0 -960z m1630 129 l0 -691 -71 -114 c-39 -63 -72 -114 -75 -114
-2 0 -4 362 -4 805 l0 805 75 0 75 0 0 -691z m298 238 l2 -447 -67 -108 c-36
-59 -70 -111 -75 -117 -4 -5 -8 246 -8 558 l0 568 73 -3 72 -3 3 -448z m-1778
-1552 l0 -75 -220 0 -220 0 0 75 0 75 220 0 220 0 0 -75z m-113 -350 c12 -71
22 -138 22 -147 1 -16 -12 -18 -132 -18 l-134 0 23 137 c13 75 26 143 29 150
3 10 25 13 87 11 l82 -3 23 -130z m183 -390 l0 -75 -292 2 -293 3 -3 73 -3 72
296 0 295 0 0 -75z m1188 -292 l3 -73 -966 0 -965 0 0 68 c0 38 3 72 7 75 3 4
437 6 962 5 l956 -3 3 -72z"/>
</g>
</svg>
