<?xml version="1.0" encoding="UTF-8"?>
<!DOCTYPE svg PUBLIC "-//W3C//DTD SVG 1.1//EN" "http://www.w3.org/Graphics/SVG/1.1/DTD/svg11.dtd">
<svg xmlns="http://www.w3.org/2000/svg" version="1.1" width="752px" height="752px" style="shape-rendering:geometricPrecision; text-rendering:geometricPrecision; image-rendering:optimizeQuality; fill-rule:evenodd; clip-rule:evenodd" xmlns:xlink="http://www.w3.org/1999/xlink">
<g><path style="opacity:0.941" fill="#000000" d="M 294.5,153.5 C 303.173,153.334 311.84,153.5 320.5,154C 324.096,157.735 325.429,162.235 324.5,167.5C 337.85,167.833 351.183,167.499 364.5,166.5C 365.932,161.799 368.266,157.633 371.5,154C 385.167,153.333 398.833,153.333 412.5,154C 424.565,159.296 429.399,168.462 427,181.5C 425.11,189.288 420.444,194.622 413,197.5C 412.5,207.494 412.334,217.494 412.5,227.5C 417.167,227.5 421.833,227.5 426.5,227.5C 425.638,221.961 426.972,217.128 430.5,213C 438.833,212.333 447.167,212.333 455.5,213C 471.974,220.42 476.141,232.253 468,248.5C 464.687,253.239 460.187,256.072 454.5,257C 446.063,257.937 437.73,257.604 429.5,256C 428.107,254.829 427.273,253.329 427,251.5C 426.502,248.518 426.335,245.518 426.5,242.5C 420.491,242.334 414.491,242.501 408.5,243C 405.333,246.167 402.167,249.333 399,252.5C 398.5,293.499 398.333,334.499 398.5,375.5C 403.167,375.5 407.833,375.5 412.5,375.5C 409.84,360.632 415.507,350.798 429.5,346C 439.228,345.109 448.894,345.443 458.5,347C 464.392,349.892 468.559,354.392 471,360.5C 472.613,378.781 472.947,397.114 472,415.5C 470.644,423.886 466.144,429.886 458.5,433.5C 457.337,438.802 457.171,444.136 458,449.5C 472.667,453.5 482,462.833 486,477.5C 492.126,515.891 481.293,548.391 453.5,575C 439.233,586.763 422.899,594.096 404.5,597C 385.167,597.667 365.833,597.667 346.5,597C 301.331,587.831 274.165,560.665 265,515.5C 264.333,502.833 264.333,490.167 265,477.5C 269,462.833 278.333,453.5 293,449.5C 293.829,444.136 293.663,438.802 292.5,433.5C 284.856,429.886 280.356,423.886 279,415.5C 278.333,388.833 278.333,362.167 279,335.5C 280.363,326.604 285.197,320.437 293.5,317C 303.508,315.031 313.508,315.031 323.5,317C 335.896,322.272 341.23,331.772 339.5,345.5C 343.833,345.5 348.167,345.5 352.5,345.5C 352.667,314.498 352.5,283.498 352,252.5C 348.833,249.333 345.667,246.167 342.5,243C 336.509,242.501 330.509,242.334 324.5,242.5C 326.223,255.273 320.723,260.273 308,257.5C 289.103,258.93 279.436,250.263 279,231.5C 279.499,226.988 281.333,223.155 284.5,220C 276.845,210.511 276.512,200.678 283.5,190.5C 274.96,174.295 278.627,161.962 294.5,153.5 Z M 300.5,168.5 C 303.167,168.5 305.833,168.5 308.5,168.5C 308.5,173.167 308.5,177.833 308.5,182.5C 305.15,182.665 301.817,182.498 298.5,182C 292.854,176.44 293.521,171.94 300.5,168.5 Z M 380.5,168.5 C 389.173,168.334 397.84,168.5 406.5,169C 411.866,171.844 412.866,175.844 409.5,181C 405.049,181.616 401.216,183.449 398,186.5C 397.667,201.5 397.333,216.5 397,231.5C 393.833,234.667 390.667,237.833 387.5,241C 379.5,241.667 371.5,241.667 363.5,241C 360.65,238.318 357.984,235.484 355.5,232.5C 364.235,211.289 372.569,189.955 380.5,168.5 Z M 324.5,183.5 C 335.52,183.168 346.52,183.501 357.5,184.5C 355.833,188.5 354.167,192.5 352.5,196.5C 343.19,197.498 333.857,197.832 324.5,197.5C 324.5,192.833 324.5,188.167 324.5,183.5 Z M 298.5,198.5 C 301.833,198.5 305.167,198.5 308.5,198.5C 308.5,203.167 308.5,207.833 308.5,212.5C 303.882,213.076 299.715,212.076 296,209.5C 293.826,205.193 294.659,201.526 298.5,198.5 Z M 324.5,213.5 C 331.532,213.17 338.532,213.503 345.5,214.5C 343.833,218.5 342.167,222.5 340.5,226.5C 335.208,227.495 329.875,227.828 324.5,227.5C 324.5,222.833 324.5,218.167 324.5,213.5 Z M 301.5,227.5 C 303.833,227.5 306.167,227.5 308.5,227.5C 308.5,232.167 308.5,236.833 308.5,241.5C 305.15,241.665 301.817,241.498 298.5,241C 292.654,234.888 293.654,230.388 301.5,227.5 Z M 442.5,227.5 C 445.941,227.301 449.274,227.801 452.5,229C 457.719,232.864 457.719,236.864 452.5,241C 449.183,241.498 445.85,241.665 442.5,241.5C 442.5,236.833 442.5,232.167 442.5,227.5 Z M 368.5,257.5 C 373.167,257.5 377.833,257.5 382.5,257.5C 382.5,306.5 382.5,355.5 382.5,404.5C 377.833,404.5 373.167,404.5 368.5,404.5C 368.5,355.5 368.5,306.5 368.5,257.5 Z M 299.5,331.5 C 305.842,331.334 312.175,331.5 318.5,332C 321.102,332.935 322.602,334.768 323,337.5C 323.586,388.536 323.919,439.536 324,490.5C 325.214,492.049 326.714,493.215 328.5,494C 336.493,494.5 344.493,494.666 352.5,494.5C 352.334,502.507 352.5,510.507 353,518.5C 353.785,520.286 354.951,521.786 356.5,523C 375.164,523.5 393.83,523.667 412.5,523.5C 409.84,538.368 415.507,548.202 429.5,553C 436.833,553.333 444.167,553.667 451.5,554C 441.029,566.233 428.029,574.4 412.5,578.5C 412.666,571.159 412.5,563.826 412,556.5C 411.167,555.667 410.333,554.833 409.5,554C 398.26,552.854 386.926,552.354 375.5,552.5C 364.833,552.667 354.167,552.833 343.5,553C 341.508,553.574 340.008,554.741 339,556.5C 338.5,563.826 338.334,571.159 338.5,578.5C 306.913,568.409 287.746,547.075 281,514.5C 279.567,504.203 279.233,493.869 280,483.5C 283.321,470.405 291.821,463.905 305.5,464C 307.049,462.786 308.215,461.286 309,459.5C 309.667,447.833 309.667,436.167 309,424.5C 308.535,423.069 307.701,421.903 306.5,421C 303.5,420 300.5,419 297.5,418C 296.299,417.097 295.465,415.931 295,414.5C 294.333,388.5 294.333,362.5 295,336.5C 296.025,334.313 297.525,332.646 299.5,331.5 Z M 339.5,361.5 C 343.833,361.5 348.167,361.5 352.5,361.5C 352.333,379.17 352.5,396.836 353,414.5C 353.707,416.081 354.54,417.581 355.5,419C 362.064,420.129 368.731,420.629 375.5,420.5C 382.269,420.629 388.936,420.129 395.5,419C 396.46,417.581 397.293,416.081 398,414.5C 398.5,406.507 398.666,398.507 398.5,390.5C 407.608,390.943 416.608,390.443 425.5,389C 426.126,388.25 426.626,387.416 427,386.5C 427.333,379.833 427.667,373.167 428,366.5C 428.785,364.714 429.951,363.214 431.5,362C 438.5,361.333 445.5,361.333 452.5,362C 454.049,363.214 455.215,364.714 456,366.5C 456.667,382.5 456.667,398.5 456,414.5C 455.535,415.931 454.701,417.097 453.5,418C 450.5,419 447.5,420 444.5,421C 443.299,421.903 442.465,423.069 442,424.5C 441.333,436.167 441.333,447.833 442,459.5C 442.785,461.286 443.951,462.786 445.5,464C 459.179,463.905 467.679,470.405 471,483.5C 471.767,493.869 471.433,504.203 470,514.5C 468.693,522.422 466.193,529.922 462.5,537C 452.167,537.667 441.833,537.667 431.5,537C 429.951,535.786 428.785,534.286 428,532.5C 427.667,510.167 427.333,487.833 427,465.5C 424.592,458.091 419.758,452.924 412.5,450C 390.167,449.667 367.833,449.333 345.5,449C 343.152,448.654 341.319,447.487 340,445.5C 339.5,417.502 339.333,389.502 339.5,361.5 Z M 339.5,464.5 C 353.833,464.5 368.167,464.5 382.5,464.5C 382.5,469.167 382.5,473.833 382.5,478.5C 368.167,478.5 353.833,478.5 339.5,478.5C 339.5,473.833 339.5,469.167 339.5,464.5 Z M 398.5,464.5 C 408.813,463.479 413.479,468.146 412.5,478.5C 407.833,478.5 403.167,478.5 398.5,478.5C 398.5,473.833 398.5,469.167 398.5,464.5 Z M 368.5,494.5 C 383.167,494.5 397.833,494.5 412.5,494.5C 412.5,499.167 412.5,503.833 412.5,508.5C 397.833,508.5 383.167,508.5 368.5,508.5C 368.5,503.833 368.5,499.167 368.5,494.5 Z M 353.5,568.5 C 368.167,568.5 382.833,568.5 397.5,568.5C 397.826,572.884 397.492,577.217 396.5,581.5C 382.5,582.833 368.5,582.833 354.5,581.5C 353.508,577.217 353.174,572.884 353.5,568.5 Z"/></g>
<g><path style="opacity:0.822" fill="#000000" d="M 446.5,478.5 C 454.658,477.823 458.158,481.49 457,489.5C 454.774,493.861 451.274,495.361 446.5,494C 442.139,491.774 440.639,488.274 442,483.5C 443.025,481.313 444.525,479.646 446.5,478.5 Z"/></g>
<g><path style="opacity:0.873" fill="#000000" d="M 445.5,508.5 C 453.614,507.121 457.447,510.454 457,518.5C 454.565,523.224 450.731,524.724 445.5,523C 440.232,518.171 440.232,513.337 445.5,508.5 Z"/></g>
</svg>
