<?xml version="1.0" standalone="no"?>
<!DOCTYPE svg PUBLIC "-//W3C//DTD SVG 20010904//EN"
 "http://www.w3.org/TR/2001/REC-SVG-20010904/DTD/svg10.dtd">
<svg version="1.0" xmlns="http://www.w3.org/2000/svg"
 width="752.000000pt" height="752.000000pt" viewBox="0 0 752.000000 752.000000"
 preserveAspectRatio="xMidYMid meet">

<g transform="translate(0.000000,752.000000) scale(0.100000,-0.100000)"
fill="#000000" stroke="none">
<path d="M3535 5965 c-51 -18 -120 -91 -134 -141 -6 -21 -11 -63 -11 -92 l0
-53 -72 3 -73 3 -3 50 c-2 35 -10 57 -25 73 -21 23 -27 23 -148 20 -118 -3
-128 -5 -167 -31 -23 -15 -54 -46 -69 -69 -24 -36 -28 -51 -28 -118 0 -67 4
-82 28 -118 15 -23 46 -54 69 -69 39 -26 49 -28 167 -31 155 -4 163 0 171 85
l5 58 73 3 72 3 0 -127 0 -126 74 -77 73 -76 -27 -703 c-15 -386 -29 -704 -31
-706 -2 -1 -35 -13 -74 -26 -506 -166 -829 -702 -740 -1226 42 -244 147 -444
322 -615 166 -161 268 -215 575 -305 64 -19 332 -19 396 0 307 90 409 144 575
305 135 131 225 274 280 446 42 132 51 193 51 345 0 152 -9 213 -51 345 -55
172 -145 315 -280 446 -130 127 -261 208 -418 259 -38 13 -72 25 -74 26 -2 2
-16 320 -31 706 l-27 703 73 76 74 77 0 126 0 127 73 -3 72 -3 5 -58 c7 -82
17 -87 157 -87 95 0 121 3 158 21 166 78 166 320 0 398 -37 18 -63 21 -158 21
-140 0 -150 -5 -157 -87 l-5 -58 -72 -3 -73 -3 0 53 c0 29 -5 71 -11 93 -15
53 -91 129 -144 144 -60 16 -390 14 -440 -4z m422 -157 c23 -21 23 -24 23
-242 l0 -220 -52 -53 -52 -53 -115 0 -115 0 -53 52 -53 52 0 223 c0 210 1 224
20 243 18 18 33 20 197 20 168 0 178 -1 200 -22z m-867 -198 l0 -70 -52 0
c-63 0 -88 19 -88 68 0 53 23 72 87 72 l53 0 0 -70z m1462 53 c23 -20 24 -80
1 -105 -12 -13 -30 -18 -70 -18 l-53 0 0 70 0 70 52 0 c34 0 58 -6 70 -17z
m-712 -620 c0 -27 14 -392 30 -813 16 -421 30 -767 30 -770 0 -3 -63 -5 -140
-5 -77 0 -140 2 -140 5 0 3 14 349 30 770 16 421 30 786 30 813 l0 47 80 0 80
0 0 -47z m-367 -1550 c-3 -43 -8 -81 -12 -84 -3 -3 -25 -14 -49 -24 l-43 -18
-49 48 c-28 27 -50 53 -50 57 0 11 175 96 202 98 3 0 4 -35 1 -77z m695 27
c45 -21 82 -43 82 -47 0 -5 -22 -31 -50 -58 l-49 -48 -43 18 c-24 10 -46 21
-49 24 -4 3 -9 41 -12 84 -6 91 -15 89 121 27z m-974 -189 l48 -49 -57 -57
-57 -58 -51 52 -52 51 55 55 c30 30 57 55 60 55 3 0 27 -22 54 -49z m1246 -6
l55 -55 -52 -51 -51 -52 -57 58 -57 57 48 49 c27 27 51 49 54 49 3 0 30 -25
60 -55z m-515 -31 c211 -51 396 -221 465 -428 95 -287 -13 -606 -262 -770 -55
-37 -78 -40 -78 -11 0 8 -10 21 -22 29 -19 13 -62 16 -268 16 -206 0 -249 -3
-268 -16 -12 -8 -22 -21 -22 -29 0 -29 -23 -26 -78 11 -208 137 -325 393 -292
635 22 157 82 279 191 388 169 169 398 232 634 175z m-931 -203 l49 -49 -32
-77 c-44 -105 -61 -191 -61 -312 0 -120 18 -216 61 -320 l32 -75 -49 -49 c-26
-27 -52 -49 -56 -49 -10 0 -52 83 -77 152 -46 126 -55 179 -56 338 0 132 3
168 23 240 25 89 95 250 109 250 5 0 31 -22 57 -49z m1636 -33 c68 -146 85
-229 84 -413 0 -145 -3 -169 -28 -250 -28 -93 -91 -235 -104 -235 -4 0 -30 22
-56 49 l-49 49 31 74 c84 204 84 432 0 636 l-31 74 49 49 c26 27 52 49 57 49
4 0 26 -37 47 -82z m-1443 -984 l56 -56 -52 -51 -51 -52 -57 57 -58 58 50 50
c27 27 51 50 53 50 2 0 29 -25 59 -56z m1258 6 l50 -50 -58 -58 -57 -57 -52
52 -51 52 54 55 c30 30 56 55 59 56 3 0 28 -23 55 -50z m-555 -107 c0 -5 -10
-70 -22 -145 l-22 -138 -86 0 -86 0 -22 138 c-12 75 -22 140 -22 145 0 4 59 7
130 7 72 0 130 -3 130 -7z m-450 -71 l55 -27 12 -74 c7 -41 11 -77 9 -78 -12
-12 -246 88 -246 104 0 12 93 103 105 102 5 0 35 -12 65 -27z m762 -19 c26
-26 48 -51 48 -55 0 -17 -234 -117 -246 -105 -2 1 2 37 9 78 l12 74 55 27 c30
15 59 27 65 27 5 1 31 -20 57 -46z"/>
<path d="M3566 3149 c-36 -28 -36 -80 0 -108 25 -19 40 -21 194 -21 154 0 169
2 194 21 19 15 26 30 26 54 0 24 -7 39 -26 54 -25 19 -40 21 -194 21 -154 0
-169 -2 -194 -21z"/>
<path d="M3410 2698 c-19 -20 -20 -34 -20 -195 0 -171 0 -174 25 -198 l24 -25
321 0 321 0 24 25 c25 24 25 27 25 198 0 161 -1 175 -20 195 -21 22 -24 22
-350 22 -326 0 -329 0 -350 -22z m570 -193 l0 -75 -220 0 -220 0 0 75 0 75
220 0 220 0 0 -75z"/>
</g>
</svg>
