<?xml version="1.0" encoding="UTF-8"?>
<!DOCTYPE svg PUBLIC "-//W3C//DTD SVG 1.1//EN" "http://www.w3.org/Graphics/SVG/1.1/DTD/svg11.dtd">
<svg xmlns="http://www.w3.org/2000/svg" version="1.1" width="752px" height="752px" style="shape-rendering:geometricPrecision; text-rendering:geometricPrecision; image-rendering:optimizeQuality; fill-rule:evenodd; clip-rule:evenodd" xmlns:xlink="http://www.w3.org/1999/xlink">
<g><path style="opacity:0.949" fill="#000000" d="M 168.5,301.5 C 187.17,301.333 205.836,301.5 224.5,302C 226.607,303.264 227.607,305.097 227.5,307.5C 259.179,305.958 290.846,304.124 322.5,302C 409.167,301.333 495.833,301.333 582.5,302C 594.874,307.745 599.874,317.412 597.5,331C 599.853,342.29 596.52,351.29 587.5,358C 584.637,359.399 581.637,360.399 578.5,361C 497.5,361.667 416.5,361.667 335.5,361C 299.506,358.667 263.506,356.5 227.5,354.5C 227.201,357.642 225.534,359.809 222.5,361C 205.833,361.667 189.167,361.667 172.5,361C 163.412,359.221 157.246,354.054 154,345.5C 153.333,335.833 153.333,326.167 154,316.5C 157.021,309.647 161.855,304.647 168.5,301.5 Z M 174.5,316.5 C 187.167,316.5 199.833,316.5 212.5,316.5C 212.5,326.167 212.5,335.833 212.5,345.5C 198.735,345.964 185.068,345.464 171.5,344C 170.107,342.829 169.273,341.329 169,339.5C 168.333,333.833 168.333,328.167 169,322.5C 170.021,319.65 171.854,317.65 174.5,316.5 Z M 335.5,316.5 C 359.842,316.167 384.176,316.5 408.5,317.5C 414.5,326.5 420.5,335.5 426.5,344.5C 395.172,345.667 363.839,345.833 332.5,345C 297.828,342.833 263.162,340.666 228.5,338.5C 228.5,333.5 228.5,328.5 228.5,323.5C 264.348,321.614 300.014,319.281 335.5,316.5 Z M 427.5,317.5 C 476.998,316.335 526.665,316.168 576.5,317C 579.333,317.833 581.167,319.667 582,322.5C 582.877,329.249 582.544,335.916 581,342.5C 580.097,343.701 578.931,344.535 577.5,345C 533.833,345.667 490.167,345.667 446.5,345C 440.021,335.854 433.687,326.688 427.5,317.5 Z"/></g>
<g><path style="opacity:0.949" fill="#000000" d="M 172.5,389.5 C 189.17,389.333 205.837,389.5 222.5,390C 225.534,391.191 227.201,393.358 227.5,396.5C 263.506,394.5 299.506,392.333 335.5,390C 416.5,389.333 497.5,389.333 578.5,390C 594.036,393.915 600.369,403.915 597.5,420C 599.874,433.588 594.874,443.255 582.5,449C 495.833,449.667 409.167,449.667 322.5,449C 290.846,446.876 259.179,445.042 227.5,443.5C 227.607,445.903 226.607,447.736 224.5,449C 205.833,449.667 187.167,449.667 168.5,449C 161.667,446.167 156.833,441.333 154,434.5C 153.333,424.833 153.333,415.167 154,405.5C 157.482,397.016 163.648,391.683 172.5,389.5 Z M 173.5,405.5 C 186.5,405.5 199.5,405.5 212.5,405.5C 212.5,415.167 212.5,424.833 212.5,434.5C 199.829,434.667 187.162,434.5 174.5,434C 171.667,433.167 169.833,431.333 169,428.5C 168.333,422.833 168.333,417.167 169,411.5C 169.599,408.746 171.099,406.746 173.5,405.5 Z M 332.5,405.5 C 357.836,405.333 383.169,405.5 408.5,406C 414.586,415.506 420.919,424.84 427.5,434C 396.833,434.667 366.167,434.667 335.5,434C 299.837,431.709 264.17,429.542 228.5,427.5C 228.5,422.5 228.5,417.5 228.5,412.5C 263.339,410.49 298.006,408.157 332.5,405.5 Z M 427.5,406.5 C 477.332,405.335 527.332,405.168 577.5,406C 580.102,406.935 581.602,408.768 582,411.5C 582.667,417.167 582.667,422.833 582,428.5C 581.167,431.333 579.333,433.167 576.5,434C 533.167,434.667 489.833,434.667 446.5,434C 440.514,424.506 434.181,415.339 427.5,406.5 Z"/></g>
</svg>
