<?xml version="1.0" encoding="UTF-8"?>
<!DOCTYPE svg PUBLIC "-//W3C//DTD SVG 1.1//EN" "http://www.w3.org/Graphics/SVG/1.1/DTD/svg11.dtd">
<svg xmlns="http://www.w3.org/2000/svg" version="1.1" width="752px" height="752px" style="shape-rendering:geometricPrecision; text-rendering:geometricPrecision; image-rendering:optimizeQuality; fill-rule:evenodd; clip-rule:evenodd" xmlns:xlink="http://www.w3.org/1999/xlink">
<g><path style="opacity:0.949" fill="#000000" d="M 238.5,153.5 C 242.603,152.769 246.103,153.769 249,156.5C 249.731,160.561 250.897,164.394 252.5,168C 271.808,167.995 290.474,171.328 308.5,178C 316.444,182.506 318.611,189.006 315,197.5C 306.291,204.965 296.124,209.132 284.5,210C 273.521,211.615 262.521,212.782 251.5,213.5C 250.502,222.81 250.168,232.143 250.5,241.5C 255.167,241.5 259.833,241.5 264.5,241.5C 265.558,235.294 269.224,233.128 275.5,235C 277.923,236.571 279.256,238.737 279.5,241.5C 294.167,241.5 308.833,241.5 323.5,241.5C 325.443,234.503 329.776,232.67 336.5,236C 337.861,237.584 338.528,239.418 338.5,241.5C 346.507,241.334 354.507,241.5 362.5,242C 364.329,242.273 365.829,243.107 367,244.5C 368.465,258.402 368.965,272.402 368.5,286.5C 373.167,286.5 377.833,286.5 382.5,286.5C 382.035,272.402 382.535,258.402 384,244.5C 385.171,243.107 386.671,242.273 388.5,242C 396.493,241.5 404.493,241.334 412.5,241.5C 413.558,235.294 417.224,233.128 423.5,235C 425.923,236.571 427.256,238.737 427.5,241.5C 442.167,241.5 456.833,241.5 471.5,241.5C 473.443,234.503 477.776,232.67 484.5,236C 485.861,237.584 486.528,239.418 486.5,241.5C 491.167,241.5 495.833,241.5 500.5,241.5C 500.832,232.143 500.498,222.81 499.5,213.5C 480.703,212.982 462.369,209.815 444.5,204C 435.899,200.631 432.732,194.465 435,185.5C 439.203,179.316 445.036,175.482 452.5,174C 467.617,170.36 482.95,168.36 498.5,168C 500.188,165.175 501.021,162.009 501,158.5C 503.435,153.776 507.269,152.276 512.5,154C 513.416,154.374 514.25,154.874 515,155.5C 516.354,159.363 516.854,163.363 516.5,167.5C 534.884,167.895 552.884,170.728 570.5,176C 584.586,182.206 586.586,190.873 576.5,202C 566.377,206.865 555.71,209.865 544.5,211C 535.158,211.917 525.825,212.75 516.5,213.5C 516.667,251.501 516.5,289.501 516,327.5C 514.786,329.049 513.286,330.215 511.5,331C 503.173,331.5 494.84,331.666 486.5,331.5C 486.433,336.399 483.933,338.732 479,338.5C 474.111,338.779 471.611,336.445 471.5,331.5C 456.833,331.5 442.167,331.5 427.5,331.5C 427.389,336.445 424.889,338.779 420,338.5C 415.067,338.732 412.567,336.399 412.5,331.5C 407.833,331.5 403.167,331.5 398.5,331.5C 398.5,336.833 398.5,342.167 398.5,347.5C 420.067,351.535 439.234,360.535 456,374.5C 456.333,366.167 456.667,357.833 457,349.5C 458.167,348.333 459.333,347.167 460.5,346C 469.16,345.5 477.827,345.334 486.5,345.5C 486.567,340.601 489.067,338.268 494,338.5C 498.889,338.221 501.389,340.555 501.5,345.5C 516.167,345.5 530.833,345.5 545.5,345.5C 545.611,340.555 548.111,338.221 553,338.5C 557.933,338.268 560.433,340.601 560.5,345.5C 568.84,345.334 577.173,345.5 585.5,346C 587.667,346.833 589.167,348.333 590,350.5C 590.667,431.5 590.667,512.5 590,593.5C 589.5,595.333 588.333,596.5 586.5,597C 573.833,597.667 561.167,597.667 548.5,597C 547.299,596.097 546.465,594.931 546,593.5C 545.5,535.834 545.333,478.168 545.5,420.5C 530.833,420.5 516.167,420.5 501.5,420.5C 501.5,425.167 499.167,427.5 494.5,427.5C 497.61,437.276 499.777,447.276 501,457.5C 505.632,501.39 510.799,545.223 516.5,589C 517,592.668 515.666,595.334 512.5,597C 499.833,597.667 487.167,597.667 474.5,597C 472.396,594.958 471.229,592.458 471,589.5C 469.749,579.156 468.415,568.823 467,558.5C 433.799,591.767 393.965,603.934 347.5,595C 322.636,589.108 301.469,576.942 284,558.5C 282.585,568.823 281.251,579.156 280,589.5C 279.697,591.888 278.863,594.055 277.5,596C 264.595,597.628 251.595,597.961 238.5,597C 235.334,595.334 234,592.668 234.5,589C 238.215,557.776 242.215,526.609 246.5,495.5C 232.85,494.501 219.183,494.167 205.5,494.5C 205.667,527.502 205.5,560.502 205,593.5C 204.5,595.333 203.333,596.5 201.5,597C 189.167,597.667 176.833,597.667 164.5,597C 162.667,596.5 161.5,595.333 161,593.5C 160.333,512.167 160.333,430.833 161,349.5C 162.167,348.333 163.333,347.167 164.5,346C 173.16,345.5 181.827,345.334 190.5,345.5C 190.699,340.797 193.199,338.131 198,337.5C 202.757,338.089 205.257,340.756 205.5,345.5C 220.167,345.5 234.833,345.5 249.5,345.5C 249.611,340.555 252.111,338.221 257,338.5C 261.933,338.268 264.433,340.601 264.5,345.5C 273.173,345.334 281.84,345.5 290.5,346C 291.667,347.167 292.833,348.333 294,349.5C 294.333,357.833 294.667,366.167 295,374.5C 311.766,360.535 330.933,351.535 352.5,347.5C 352.5,342.167 352.5,336.833 352.5,331.5C 347.833,331.5 343.167,331.5 338.5,331.5C 338.433,336.399 335.933,338.732 331,338.5C 326.111,338.779 323.611,336.445 323.5,331.5C 308.833,331.5 294.167,331.5 279.5,331.5C 279.389,336.445 276.889,338.779 272,338.5C 267.067,338.732 264.567,336.399 264.5,331.5C 255.827,331.666 247.16,331.5 238.5,331C 237.333,329.833 236.167,328.667 235,327.5C 234.5,289.501 234.333,251.501 234.5,213.5C 216.116,213.105 198.116,210.272 180.5,205C 166.414,198.794 164.414,190.127 174.5,179C 184.623,174.135 195.29,171.135 206.5,170C 215.842,169.083 225.175,168.25 234.5,167.5C 234.335,164.15 234.502,160.817 235,157.5C 235.69,155.65 236.856,154.316 238.5,153.5 Z M 226.5,183.5 C 241.192,183.28 255.859,183.78 270.5,185C 279.105,185.766 287.438,187.599 295.5,190.5C 283.187,194.475 270.52,196.641 257.5,197C 243.142,197.741 228.809,197.408 214.5,196C 205.568,195.345 196.901,193.512 188.5,190.5C 201.021,186.692 213.687,184.359 226.5,183.5 Z M 493.5,183.5 C 512.615,182.896 531.615,184.063 550.5,187C 554.751,187.726 558.751,189.059 562.5,191C 535.481,197.453 508.148,199.12 480.5,196C 471.895,195.234 463.562,193.401 455.5,190.5C 459.297,188.717 463.297,187.55 467.5,187C 476.273,185.5 484.94,184.334 493.5,183.5 Z M 250.5,257.5 C 255.167,257.5 259.833,257.5 264.5,257.5C 264.5,267.167 264.5,276.833 264.5,286.5C 259.833,286.5 255.167,286.5 250.5,286.5C 250.5,276.833 250.5,267.167 250.5,257.5 Z M 279.5,257.5 C 294.167,257.5 308.833,257.5 323.5,257.5C 323.5,267.167 323.5,276.833 323.5,286.5C 308.833,286.5 294.167,286.5 279.5,286.5C 279.5,276.833 279.5,267.167 279.5,257.5 Z M 339.5,257.5 C 343.833,257.5 348.167,257.5 352.5,257.5C 352.5,267.167 352.5,276.833 352.5,286.5C 348.167,286.5 343.833,286.5 339.5,286.5C 339.5,276.833 339.5,267.167 339.5,257.5 Z M 398.5,257.5 C 403.167,257.5 407.833,257.5 412.5,257.5C 412.5,267.167 412.5,276.833 412.5,286.5C 407.833,286.5 403.167,286.5 398.5,286.5C 398.5,276.833 398.5,267.167 398.5,257.5 Z M 427.5,257.5 C 442.167,257.5 456.833,257.5 471.5,257.5C 471.5,267.167 471.5,276.833 471.5,286.5C 456.833,286.5 442.167,286.5 427.5,286.5C 427.5,276.833 427.5,267.167 427.5,257.5 Z M 486.5,257.5 C 491.167,257.5 495.833,257.5 500.5,257.5C 500.5,267.167 500.5,276.833 500.5,286.5C 495.833,286.5 491.167,286.5 486.5,286.5C 486.5,276.833 486.5,267.167 486.5,257.5 Z M 250.5,301.5 C 255.167,301.5 259.833,301.5 264.5,301.5C 264.5,306.167 264.5,310.833 264.5,315.5C 259.833,315.5 255.167,315.5 250.5,315.5C 250.5,310.833 250.5,306.167 250.5,301.5 Z M 279.5,301.5 C 294.167,301.5 308.833,301.5 323.5,301.5C 323.5,306.167 323.5,310.833 323.5,315.5C 308.833,315.5 294.167,315.5 279.5,315.5C 279.5,310.833 279.5,306.167 279.5,301.5 Z M 339.5,301.5 C 363.833,301.5 388.167,301.5 412.5,301.5C 412.5,306.167 412.5,310.833 412.5,315.5C 388.167,315.5 363.833,315.5 339.5,315.5C 339.5,310.833 339.5,306.167 339.5,301.5 Z M 427.5,301.5 C 442.167,301.5 456.833,301.5 471.5,301.5C 471.5,306.167 471.5,310.833 471.5,315.5C 456.833,315.5 442.167,315.5 427.5,315.5C 427.5,310.833 427.5,306.167 427.5,301.5 Z M 486.5,301.5 C 491.167,301.5 495.833,301.5 500.5,301.5C 500.5,306.167 500.5,310.833 500.5,315.5C 495.833,315.5 491.167,315.5 486.5,315.5C 486.5,310.833 486.5,306.167 486.5,301.5 Z M 368.5,331.5 C 373.167,331.5 377.833,331.5 382.5,331.5C 382.5,336.167 382.5,340.833 382.5,345.5C 377.833,345.5 373.167,345.5 368.5,345.5C 368.5,340.833 368.5,336.167 368.5,331.5 Z M 176.5,361.5 C 181.167,361.5 185.833,361.5 190.5,361.5C 190.5,366.167 190.5,370.833 190.5,375.5C 185.833,375.5 181.167,375.5 176.5,375.5C 176.5,370.833 176.5,366.167 176.5,361.5 Z M 205.5,361.5 C 220.167,361.5 234.833,361.5 249.5,361.5C 249.5,366.167 249.5,370.833 249.5,375.5C 234.833,375.5 220.167,375.5 205.5,375.5C 205.5,370.833 205.5,366.167 205.5,361.5 Z M 265.5,361.5 C 269.833,361.5 274.167,361.5 278.5,361.5C 278.5,366.167 278.5,370.833 278.5,375.5C 274.167,375.5 269.833,375.5 265.5,375.5C 265.5,370.833 265.5,366.167 265.5,361.5 Z M 362.5,361.5 C 411.097,358.878 447.93,378.211 473,419.5C 495.506,468.628 488.339,512.794 451.5,552C 410.902,586.127 366.902,591.127 319.5,567C 274.737,537.082 257.903,495.582 269,442.5C 283.975,396.685 315.141,369.685 362.5,361.5 Z M 472.5,361.5 C 476.833,361.5 481.167,361.5 485.5,361.5C 485.5,366.167 485.5,370.833 485.5,375.5C 481.167,375.5 476.833,375.5 472.5,375.5C 472.5,370.833 472.5,366.167 472.5,361.5 Z M 501.5,361.5 C 516.167,361.5 530.833,361.5 545.5,361.5C 545.5,366.167 545.5,370.833 545.5,375.5C 530.833,375.5 516.167,375.5 501.5,375.5C 501.5,370.833 501.5,366.167 501.5,361.5 Z M 560.5,361.5 C 565.167,361.5 569.833,361.5 574.5,361.5C 574.5,366.167 574.5,370.833 574.5,375.5C 569.833,375.5 565.167,375.5 560.5,375.5C 560.5,370.833 560.5,366.167 560.5,361.5 Z M 176.5,390.5 C 181.167,390.5 185.833,390.5 190.5,390.5C 190.5,410.167 190.5,429.833 190.5,449.5C 185.833,449.5 181.167,449.5 176.5,449.5C 176.5,429.833 176.5,410.167 176.5,390.5 Z M 205.5,390.5 C 220.167,390.5 234.833,390.5 249.5,390.5C 249.5,410.167 249.5,429.833 249.5,449.5C 234.833,449.5 220.167,449.5 205.5,449.5C 205.5,429.833 205.5,410.167 205.5,390.5 Z M 265.5,390.5 C 269.846,390.334 274.179,390.501 278.5,391C 273.945,396.555 269.779,402.388 266,408.5C 265.501,402.509 265.334,396.509 265.5,390.5 Z M 369.5,390.5 C 407.805,390.56 434.972,407.893 451,442.5C 463.542,484.549 451.709,517.715 415.5,542C 377.429,560.294 343.596,554.461 314,524.5C 288.823,490.655 288.156,456.322 312,421.5C 327.207,403.649 346.374,393.316 369.5,390.5 Z M 472.5,391.5 C 476.97,390.514 481.637,390.181 486.5,390.5C 486.5,395.167 486.5,399.833 486.5,404.5C 485.127,404.657 483.793,404.49 482.5,404C 479.683,399.357 476.349,395.19 472.5,391.5 Z M 501.5,390.5 C 516.167,390.5 530.833,390.5 545.5,390.5C 545.5,395.167 545.5,399.833 545.5,404.5C 530.833,404.5 516.167,404.5 501.5,404.5C 501.5,399.833 501.5,395.167 501.5,390.5 Z M 560.5,390.5 C 565.167,390.5 569.833,390.5 574.5,390.5C 574.5,395.167 574.5,399.833 574.5,404.5C 569.833,404.5 565.167,404.5 560.5,404.5C 560.5,399.833 560.5,395.167 560.5,390.5 Z M 560.5,420.5 C 565.167,420.5 569.833,420.5 574.5,420.5C 574.5,474.5 574.5,528.5 574.5,582.5C 569.833,582.5 565.167,582.5 560.5,582.5C 560.5,528.5 560.5,474.5 560.5,420.5 Z M 366.5,435.5 C 375,434.934 383.333,435.767 391.5,438C 393.475,438.978 395.142,440.311 396.5,442C 393.659,445.259 389.993,447.259 385.5,448C 378.833,448.667 372.167,448.667 365.5,448C 361.007,447.259 357.341,445.259 354.5,442C 357.891,438.601 361.891,436.434 366.5,435.5 Z M 176.5,464.5 C 181.167,464.5 185.833,464.5 190.5,464.5C 190.5,469.167 190.5,473.833 190.5,478.5C 185.833,478.5 181.167,478.5 176.5,478.5C 176.5,473.833 176.5,469.167 176.5,464.5 Z M 205.5,464.5 C 220.167,464.5 234.833,464.5 249.5,464.5C 249.331,469.181 248.998,473.848 248.5,478.5C 234.167,478.5 219.833,478.5 205.5,478.5C 205.5,473.833 205.5,469.167 205.5,464.5 Z M 176.5,494.5 C 181.167,494.5 185.833,494.5 190.5,494.5C 190.5,523.833 190.5,553.167 190.5,582.5C 185.833,582.5 181.167,582.5 176.5,582.5C 176.5,553.167 176.5,523.833 176.5,494.5 Z M 258.5,520.5 C 261.45,527.061 264.95,533.394 269,539.5C 268.495,553.549 267.161,567.549 265,581.5C 260.599,582.467 256.099,582.8 251.5,582.5C 253.998,561.851 256.331,541.184 258.5,520.5 Z M 491.5,520.5 C 494.642,540.968 497.309,561.634 499.5,582.5C 494.901,582.8 490.401,582.467 486,581.5C 483.839,567.549 482.505,553.549 482,539.5C 486.238,533.691 489.404,527.358 491.5,520.5 Z"/></g>
<g><path style="opacity:0.925" fill="#000000" d="M 361.5,375.5 C 409.583,371.781 444.083,391.447 465,434.5C 479.506,475.628 471.673,511.795 441.5,543C 409.621,569.571 374.287,575.238 335.5,560C 291.411,536.654 273.244,500.154 281,450.5C 292.646,409.016 319.479,384.016 361.5,375.5 Z M 369.5,390.5 C 346.374,393.316 327.207,403.649 312,421.5C 288.156,456.322 288.823,490.655 314,524.5C 343.596,554.461 377.429,560.294 415.5,542C 451.709,517.715 463.542,484.549 451,442.5C 434.972,407.893 407.805,390.56 369.5,390.5 Z M 366.5,435.5 C 361.891,436.434 357.891,438.601 354.5,442C 357.341,445.259 361.007,447.259 365.5,448C 372.167,448.667 378.833,448.667 385.5,448C 389.993,447.259 393.659,445.259 396.5,442C 395.142,440.311 393.475,438.978 391.5,438C 383.333,435.767 375,434.934 366.5,435.5 Z"/></g>
<g><path style="opacity:0.932" fill="#000000" d="M 366.5,419.5 C 379.991,418.025 392.658,420.525 404.5,427C 412.867,433.682 414.7,441.849 410,451.5C 403.563,458.969 395.397,463.135 385.5,464C 371.591,466.283 358.591,463.95 346.5,457C 335.833,447 335.833,437 346.5,427C 352.885,423.377 359.552,420.877 366.5,419.5 Z M 366.5,435.5 C 361.891,436.434 357.891,438.601 354.5,442C 357.341,445.259 361.007,447.259 365.5,448C 372.167,448.667 378.833,448.667 385.5,448C 389.993,447.259 393.659,445.259 396.5,442C 395.142,440.311 393.475,438.978 391.5,438C 383.333,435.767 375,434.934 366.5,435.5 Z"/></g>
</svg>
