<?xml version="1.0" encoding="UTF-8"?>
<!DOCTYPE svg PUBLIC "-//W3C//DTD SVG 1.1//EN" "http://www.w3.org/Graphics/SVG/1.1/DTD/svg11.dtd">
<svg xmlns="http://www.w3.org/2000/svg" version="1.1" width="752px" height="752px" style="shape-rendering:geometricPrecision; text-rendering:geometricPrecision; image-rendering:optimizeQuality; fill-rule:evenodd; clip-rule:evenodd" xmlns:xlink="http://www.w3.org/1999/xlink">
<g><path style="opacity:0.939" fill="#000000" d="M 356.5,153.5 C 369.171,153.333 381.838,153.5 394.5,154C 396.049,155.214 397.215,156.714 398,158.5C 398.499,162.152 398.665,165.818 398.5,169.5C 434.141,173.429 465.974,186.429 494,208.5C 497.167,205.333 500.333,202.167 503.5,199C 506.03,197.578 508.697,197.245 511.5,198C 520.637,206.136 529.47,214.636 538,223.5C 538.667,226.167 538.667,228.833 538,231.5C 534.5,235 531,238.5 527.5,242C 549.42,270.063 562.587,301.897 567,337.5C 571.08,338.3 575.247,338.8 579.5,339C 581.049,340.214 582.215,341.714 583,343.5C 583.667,354.833 583.667,366.167 583,377.5C 581.272,382.451 577.772,384.451 572.5,383.5C 580.501,449.512 588.668,515.512 597,581.5C 597.667,585.833 597.667,590.167 597,594.5C 596.167,595.333 595.333,596.167 594.5,597C 581.833,597.667 569.167,597.667 556.5,597C 554.951,595.786 553.785,594.286 553,592.5C 547.503,550.522 542.169,508.522 537,466.5C 534.152,470.677 531.318,474.844 528.5,479C 530.95,482.453 533.783,485.62 537,488.5C 538.457,491.366 538.79,494.366 538,497.5C 530.531,505.97 522.698,514.137 514.5,522C 511.298,523.483 507.964,523.817 504.5,523C 501.287,519.451 497.787,516.284 494,513.5C 476.407,527.047 456.907,537.047 435.5,543.5C 435.5,546.5 435.5,549.5 435.5,552.5C 443.507,552.334 451.507,552.5 459.5,553C 461.286,553.785 462.786,554.951 464,556.5C 464.667,568.833 464.667,581.167 464,593.5C 463.626,594.416 463.126,595.25 462.5,596C 433.584,597.159 404.584,597.659 375.5,597.5C 346.416,597.659 317.416,597.159 288.5,596C 287.874,595.25 287.374,594.416 287,593.5C 286.333,581.167 286.333,568.833 287,556.5C 288.214,554.951 289.714,553.785 291.5,553C 299.493,552.5 307.493,552.334 315.5,552.5C 315.5,549.5 315.5,546.5 315.5,543.5C 294.093,537.047 274.593,527.047 257,513.5C 253.213,516.284 249.713,519.451 246.5,523C 243.036,523.817 239.702,523.483 236.5,522C 228.302,514.137 220.469,505.97 213,497.5C 212.21,494.366 212.543,491.366 214,488.5C 217.217,485.62 220.05,482.453 222.5,479C 219.682,474.844 216.848,470.677 214,466.5C 208.831,508.522 203.497,550.522 198,592.5C 197.215,594.286 196.049,595.786 194.5,597C 181.833,597.667 169.167,597.667 156.5,597C 155.667,596.167 154.833,595.333 154,594.5C 153.333,590.167 153.333,585.833 154,581.5C 162.332,515.512 170.499,449.512 178.5,383.5C 173.228,384.451 169.728,382.451 168,377.5C 167.333,366.167 167.333,354.833 168,343.5C 168.785,341.714 169.951,340.214 171.5,339C 175.753,338.8 179.92,338.3 184,337.5C 188.413,301.897 201.58,270.063 223.5,242C 220,238.5 216.5,235 213,231.5C 212.333,228.833 212.333,226.167 213,223.5C 221.53,214.636 230.363,206.136 239.5,198C 242.303,197.245 244.97,197.578 247.5,199C 250.667,202.167 253.833,205.333 257,208.5C 285.026,186.429 316.859,173.429 352.5,169.5C 351.516,163.444 352.849,158.111 356.5,153.5 Z M 368.5,168.5 C 373.167,168.5 377.833,168.5 382.5,168.5C 382.5,178.167 382.5,187.833 382.5,197.5C 377.833,197.5 373.167,197.5 368.5,197.5C 368.5,187.833 368.5,178.167 368.5,168.5 Z M 346.5,185.5 C 348.5,185.5 350.5,185.5 352.5,185.5C 352.5,190.167 352.5,194.833 352.5,199.5C 324.997,203.006 300.164,213.006 278,229.5C 274.833,226.333 271.667,223.167 268.5,220C 291.754,202.205 317.754,190.705 346.5,185.5 Z M 398.5,185.5 C 429.655,189.492 457.655,200.992 482.5,220C 479.333,223.167 476.167,226.333 473,229.5C 450.836,213.006 426.003,203.006 398.5,199.5C 398.5,194.833 398.5,190.167 398.5,185.5 Z M 360.5,213.5 C 419.872,210.439 466.372,233.105 500,281.5C 525.869,325.364 529.536,371.031 511,418.5C 495.448,453.385 470.448,479.051 436,495.5C 435.667,481.5 435.333,467.5 435,453.5C 430.916,438.528 421.083,432.194 405.5,434.5C 405.665,430.818 405.499,427.152 405,423.5C 403.833,422.333 402.667,421.167 401.5,420C 395.509,419.501 389.509,419.334 383.5,419.5C 383.5,414.5 383.5,409.5 383.5,404.5C 404.894,400.614 419.061,388.28 426,367.5C 430.774,346.16 425.274,327.994 409.5,313C 393.784,301.27 376.45,298.27 357.5,304C 339.153,311.018 327.986,324.185 324,343.5C 320.683,372.044 332.183,391.877 358.5,403C 361.432,403.953 364.432,404.453 367.5,404.5C 367.5,409.5 367.5,414.5 367.5,419.5C 361.491,419.334 355.491,419.501 349.5,420C 348.333,421.167 347.167,422.333 346,423.5C 345.501,427.152 345.335,430.818 345.5,434.5C 329.917,432.194 320.084,438.528 316,453.5C 315.667,467.5 315.333,481.5 315,495.5C 253.706,463.604 225.039,412.938 229,343.5C 239.325,280.849 274.491,239.349 334.5,219C 343.237,216.821 351.903,214.988 360.5,213.5 Z M 241.5,217.5 C 249.912,224.407 257.912,231.907 265.5,240C 261.985,243.682 258.318,247.182 254.5,250.5C 246.681,243.181 239.014,235.681 231.5,228C 235.037,224.631 238.371,221.131 241.5,217.5 Z M 507.5,217.5 C 511.905,220.396 515.905,223.896 519.5,228C 511.986,235.681 504.319,243.181 496.5,250.5C 492.682,247.182 489.015,243.682 485.5,240C 493.036,232.632 500.369,225.132 507.5,217.5 Z M 234.5,253.5 C 237.964,256.462 241.297,259.629 244.5,263C 228.274,285.298 217.94,310.131 213.5,337.5C 208.869,338.662 204.202,338.828 199.5,338C 204.067,306.774 215.734,278.607 234.5,253.5 Z M 515.5,253.5 C 535.143,278.218 547.143,306.385 551.5,338C 549.167,338.167 546.833,338.333 544.5,338.5C 541.713,338.426 539.213,337.76 537,336.5C 532.728,309.467 522.561,284.967 506.5,263C 509.704,259.964 512.704,256.797 515.5,253.5 Z M 371.5,316.5 C 399.796,318.293 412.963,333.293 411,361.5C 407.241,376.093 398.074,385.093 383.5,388.5C 383.5,384.167 383.5,379.833 383.5,375.5C 387.182,375.665 390.848,375.499 394.5,375C 396.049,373.786 397.215,372.286 398,370.5C 398.667,359.167 398.667,347.833 398,336.5C 397.315,333.943 395.815,332.109 393.5,331C 381.5,330.333 369.5,330.333 357.5,331C 355.185,332.109 353.685,333.943 353,336.5C 352.333,347.833 352.333,359.167 353,370.5C 353.785,372.286 354.951,373.786 356.5,375C 360.152,375.499 363.818,375.665 367.5,375.5C 367.5,379.833 367.5,384.167 367.5,388.5C 355.424,385.874 346.924,378.874 342,367.5C 335.422,347.805 340.922,332.305 358.5,321C 362.846,319.164 367.179,317.664 371.5,316.5 Z M 368.5,346.5 C 373.167,346.5 377.833,346.5 382.5,346.5C 382.5,351.167 382.5,355.833 382.5,360.5C 377.833,360.5 373.167,360.5 368.5,360.5C 368.5,355.833 368.5,351.167 368.5,346.5 Z M 183.5,353.5 C 193.167,353.5 202.833,353.5 212.5,353.5C 212.5,358.167 212.5,362.833 212.5,367.5C 202.833,367.5 193.167,367.5 183.5,367.5C 183.5,362.833 183.5,358.167 183.5,353.5 Z M 538.5,353.5 C 548.167,353.5 557.833,353.5 567.5,353.5C 567.5,358.167 567.5,362.833 567.5,367.5C 557.833,367.5 548.167,367.5 538.5,367.5C 538.5,362.833 538.5,358.167 538.5,353.5 Z M 199.5,384.5 C 201.641,383.837 203.975,383.503 206.5,383.5C 209.287,383.574 211.787,384.24 214,385.5C 218.153,412.317 228.319,436.484 244.5,458C 241.333,461.167 238.167,464.333 235,467.5C 216.022,442.878 204.189,415.212 199.5,384.5 Z M 537.5,383.5 C 542.179,383.334 546.845,383.501 551.5,384C 546.909,415.004 535.076,442.838 516,467.5C 512.833,464.333 509.667,461.167 506.5,458C 522.956,435.821 533.289,410.988 537.5,383.5 Z M 190.5,417.5 C 194.504,426.694 197.837,436.194 200.5,446C 196.627,476.484 192.96,506.984 189.5,537.5C 184.833,537.5 180.167,537.5 175.5,537.5C 180.5,497.5 185.5,457.5 190.5,417.5 Z M 559.5,417.5 C 565.472,457.27 570.806,497.27 575.5,537.5C 570.833,537.5 566.167,537.5 561.5,537.5C 558.04,506.984 554.373,476.484 550.5,446C 553.395,436.482 556.395,426.982 559.5,417.5 Z M 361.5,435.5 C 370.833,435.5 380.167,435.5 389.5,435.5C 389.5,440.167 389.5,444.833 389.5,449.5C 380.167,449.5 370.833,449.5 361.5,449.5C 361.5,444.833 361.5,440.167 361.5,435.5 Z M 338.5,449.5 C 340.833,449.5 343.167,449.5 345.5,449.5C 345.335,453.182 345.501,456.848 346,460.5C 347.167,461.667 348.333,462.833 349.5,464C 366.833,464.667 384.167,464.667 401.5,464C 402.667,462.833 403.833,461.667 405,460.5C 405.499,456.848 405.665,453.182 405.5,449.5C 411.008,448.722 415.508,450.389 419,454.5C 419.833,470.177 419.666,485.844 418.5,501.5C 414.342,503.29 410.009,504.29 405.5,504.5C 406.382,500.091 405.048,496.591 401.5,494C 384.167,493.333 366.833,493.333 349.5,494C 345.952,496.591 344.618,500.091 345.5,504.5C 340.991,504.29 336.658,503.29 332.5,501.5C 331.334,485.844 331.167,470.177 332,454.5C 333.563,451.977 335.73,450.31 338.5,449.5 Z M 253.5,471.5 C 257.905,474.396 261.905,477.896 265.5,482C 257.986,489.681 250.319,497.181 242.5,504.5C 238.682,501.182 235.015,497.682 231.5,494C 239.036,486.632 246.369,479.132 253.5,471.5 Z M 495.5,471.5 C 503.912,478.407 511.912,485.907 519.5,494C 516,497.5 512.5,501 509,504.5C 501.319,496.986 493.819,489.319 486.5,481.5C 489.522,478.147 492.522,474.813 495.5,471.5 Z M 277.5,491.5 C 289.026,499.767 301.359,506.767 314.5,512.5C 315.662,517.467 315.829,522.467 315,527.5C 298.693,521.099 283.526,512.766 269.5,502.5C 268.479,501.998 268.312,501.332 269,500.5C 272.038,497.631 274.871,494.631 277.5,491.5 Z M 472.5,491.5 C 475.797,494.296 478.964,497.296 482,500.5C 482.688,501.332 482.521,501.998 481.5,502.5C 467.474,512.766 452.307,521.099 436,527.5C 435.171,522.467 435.338,517.467 436.5,512.5C 449.557,507.065 461.557,500.065 472.5,491.5 Z M 361.5,509.5 C 370.833,509.5 380.167,509.5 389.5,509.5C 389.5,533.833 389.5,558.167 389.5,582.5C 380.167,582.5 370.833,582.5 361.5,582.5C 361.5,558.167 361.5,533.833 361.5,509.5 Z M 331.5,518.5 C 335.851,519.17 340.184,520.004 344.5,521C 345.635,525.748 345.802,530.581 345,535.5C 340.593,534.185 336.093,533.185 331.5,532.5C 331.5,527.833 331.5,523.167 331.5,518.5 Z M 415.5,518.5 C 416.833,518.5 418.167,518.5 419.5,518.5C 419.5,523.167 419.5,527.833 419.5,532.5C 414.907,533.185 410.407,534.185 406,535.5C 405.333,530.833 405.333,526.167 406,521.5C 409.313,520.68 412.479,519.68 415.5,518.5 Z M 331.5,548.5 C 349.849,551.655 349.849,552.989 331.5,552.5C 331.5,551.167 331.5,549.833 331.5,548.5 Z M 417.5,548.5 C 419.176,549.183 419.843,550.517 419.5,552.5C 414.821,552.666 410.155,552.499 405.5,552C 409.593,550.758 413.593,549.591 417.5,548.5 Z M 173.5,553.5 C 178.179,553.334 182.845,553.501 187.5,554C 185.884,563.423 184.551,572.923 183.5,582.5C 178.821,582.666 174.155,582.499 169.5,582C 171.116,572.577 172.449,563.077 173.5,553.5 Z M 563.5,554.5 C 567.97,553.514 572.637,553.181 577.5,553.5C 578.551,563.077 579.884,572.577 581.5,582C 576.845,582.499 572.179,582.666 567.5,582.5C 566.48,572.988 565.147,563.654 563.5,554.5 Z M 302.5,568.5 C 316.833,568.5 331.167,568.5 345.5,568.5C 345.5,573.167 345.5,577.833 345.5,582.5C 331.167,582.5 316.833,582.5 302.5,582.5C 302.5,577.833 302.5,573.167 302.5,568.5 Z M 405.5,568.5 C 420.167,568.5 434.833,568.5 449.5,568.5C 449.5,573.167 449.5,577.833 449.5,582.5C 434.833,582.5 420.167,582.5 405.5,582.5C 405.5,577.833 405.5,573.167 405.5,568.5 Z"/></g>
</svg>
