<?xml version="1.0" encoding="UTF-8"?>
<!DOCTYPE svg PUBLIC "-//W3C//DTD SVG 1.1//EN" "http://www.w3.org/Graphics/SVG/1.1/DTD/svg11.dtd">
<svg xmlns="http://www.w3.org/2000/svg" version="1.1" width="752px" height="752px" style="shape-rendering:geometricPrecision; text-rendering:geometricPrecision; image-rendering:optimizeQuality; fill-rule:evenodd; clip-rule:evenodd" xmlns:xlink="http://www.w3.org/1999/xlink">
<g><path style="opacity:0.954" fill="#000000" d="M 267.5,153.5 C 290.169,153.333 312.836,153.5 335.5,154C 338.755,157.84 340.089,162.34 339.5,167.5C 343.833,167.5 348.167,167.5 352.5,167.5C 351.571,162.235 352.904,157.735 356.5,154C 369.167,153.333 381.833,153.333 394.5,154C 398.096,157.735 399.429,162.235 398.5,167.5C 412.833,167.5 427.167,167.5 441.5,167.5C 440.571,162.235 441.904,157.735 445.5,154C 458.167,153.333 470.833,153.333 483.5,154C 484.333,154.833 485.167,155.667 486,156.5C 486.499,160.152 486.665,163.818 486.5,167.5C 507.551,166.551 517.551,176.551 516.5,197.5C 529.837,197.333 543.171,197.5 556.5,198C 557.416,198.374 558.25,198.874 559,199.5C 560.629,212.739 560.962,226.072 560,239.5C 559.097,240.701 557.931,241.535 556.5,242C 553.183,242.498 549.85,242.665 546.5,242.5C 546.5,326.167 546.5,409.833 546.5,493.5C 550.911,493.021 555.078,493.688 559,495.5C 560.13,502.232 560.63,509.065 560.5,516C 560.63,522.935 560.13,529.768 559,536.5C 555.078,538.312 550.911,538.979 546.5,538.5C 546.667,556.503 546.5,574.503 546,592.5C 545.215,594.286 544.049,595.786 542.5,597C 529.833,597.667 517.167,597.667 504.5,597C 502.951,595.786 501.785,594.286 501,592.5C 500.5,574.503 500.333,556.503 500.5,538.5C 488.533,540.533 483.533,535.533 485.5,523.5C 412.167,523.5 338.833,523.5 265.5,523.5C 267.467,535.533 262.467,540.533 250.5,538.5C 250.667,556.503 250.5,574.503 250,592.5C 249.215,594.286 248.049,595.786 246.5,597C 233.833,597.667 221.167,597.667 208.5,597C 206.951,595.786 205.785,594.286 205,592.5C 204.5,574.503 204.333,556.503 204.5,538.5C 201.15,538.665 197.817,538.498 194.5,538C 193.069,537.535 191.903,536.701 191,535.5C 190.833,529.167 190.667,522.833 190.5,516.5C 190.369,509.399 190.869,502.399 192,495.5C 195.922,493.688 200.089,493.021 204.5,493.5C 204.5,409.833 204.5,326.167 204.5,242.5C 201.15,242.665 197.817,242.498 194.5,242C 193.069,241.535 191.903,240.701 191,239.5C 190.038,226.072 190.371,212.739 192,199.5C 192.75,198.874 193.584,198.374 194.5,198C 207.829,197.5 221.163,197.333 234.5,197.5C 233.449,176.551 243.449,166.551 264.5,167.5C 264.335,163.818 264.501,160.152 265,156.5C 266.045,155.627 266.878,154.627 267.5,153.5 Z M 279.5,168.5 C 284.167,168.5 288.833,168.5 293.5,168.5C 293.5,178.167 293.5,187.833 293.5,197.5C 288.833,197.5 284.167,197.5 279.5,197.5C 279.5,187.833 279.5,178.167 279.5,168.5 Z M 309.5,168.5 C 314.167,168.5 318.833,168.5 323.5,168.5C 323.5,178.167 323.5,187.833 323.5,197.5C 318.833,197.5 314.167,197.5 309.5,197.5C 309.5,187.833 309.5,178.167 309.5,168.5 Z M 368.5,168.5 C 373.167,168.5 377.833,168.5 382.5,168.5C 382.5,178.167 382.5,187.833 382.5,197.5C 377.833,197.5 373.167,197.5 368.5,197.5C 368.5,187.833 368.5,178.167 368.5,168.5 Z M 457.5,168.5 C 462.167,168.5 466.833,168.5 471.5,168.5C 471.5,178.167 471.5,187.833 471.5,197.5C 466.833,197.5 462.167,197.5 457.5,197.5C 457.5,187.833 457.5,178.167 457.5,168.5 Z M 255.5,183.5 C 258.5,183.5 261.5,183.5 264.5,183.5C 264.5,188.167 264.5,192.833 264.5,197.5C 259.833,197.5 255.167,197.5 250.5,197.5C 250.335,194.15 250.502,190.817 251,187.5C 252.397,185.93 253.897,184.596 255.5,183.5 Z M 339.5,183.5 C 343.833,183.5 348.167,183.5 352.5,183.5C 352.5,188.167 352.5,192.833 352.5,197.5C 348.167,197.5 343.833,197.5 339.5,197.5C 339.5,192.833 339.5,188.167 339.5,183.5 Z M 398.5,183.5 C 412.833,183.5 427.167,183.5 441.5,183.5C 441.5,188.167 441.5,192.833 441.5,197.5C 427.167,197.5 412.833,197.5 398.5,197.5C 398.5,192.833 398.5,188.167 398.5,183.5 Z M 486.5,183.5 C 497.554,181.888 502.221,186.554 500.5,197.5C 495.833,197.5 491.167,197.5 486.5,197.5C 486.5,192.833 486.5,188.167 486.5,183.5 Z M 205.5,213.5 C 318.833,213.5 432.167,213.5 545.5,213.5C 545.5,218.167 545.5,222.833 545.5,227.5C 432.167,227.5 318.833,227.5 205.5,227.5C 205.5,222.833 205.5,218.167 205.5,213.5 Z M 220.5,242.5 C 225.167,242.5 229.833,242.5 234.5,242.5C 234.5,326.167 234.5,409.833 234.5,493.5C 229.833,493.5 225.167,493.5 220.5,493.5C 220.5,409.833 220.5,326.167 220.5,242.5 Z M 250.5,242.5 C 255.167,242.5 259.833,242.5 264.5,242.5C 264.5,262.167 264.5,281.833 264.5,301.5C 259.833,301.5 255.167,301.5 250.5,301.5C 250.5,281.833 250.5,262.167 250.5,242.5 Z M 279.5,242.5 C 284.167,242.5 288.833,242.5 293.5,242.5C 293.5,262.167 293.5,281.833 293.5,301.5C 288.833,301.5 284.167,301.5 279.5,301.5C 279.5,281.833 279.5,262.167 279.5,242.5 Z M 309.5,242.5 C 314.167,242.5 318.833,242.5 323.5,242.5C 323.5,262.167 323.5,281.833 323.5,301.5C 318.833,301.5 314.167,301.5 309.5,301.5C 309.5,281.833 309.5,262.167 309.5,242.5 Z M 339.5,242.5 C 343.833,242.5 348.167,242.5 352.5,242.5C 352.5,262.167 352.5,281.833 352.5,301.5C 348.167,301.5 343.833,301.5 339.5,301.5C 339.5,281.833 339.5,262.167 339.5,242.5 Z M 368.5,242.5 C 373.167,242.5 377.833,242.5 382.5,242.5C 382.5,262.167 382.5,281.833 382.5,301.5C 377.833,301.5 373.167,301.5 368.5,301.5C 368.5,281.833 368.5,262.167 368.5,242.5 Z M 398.5,242.5 C 402.833,242.5 407.167,242.5 411.5,242.5C 411.5,262.167 411.5,281.833 411.5,301.5C 407.167,301.5 402.833,301.5 398.5,301.5C 398.5,281.833 398.5,262.167 398.5,242.5 Z M 427.5,242.5 C 432.167,242.5 436.833,242.5 441.5,242.5C 441.5,262.167 441.5,281.833 441.5,301.5C 436.833,301.5 432.167,301.5 427.5,301.5C 427.5,281.833 427.5,262.167 427.5,242.5 Z M 457.5,242.5 C 462.167,242.5 466.833,242.5 471.5,242.5C 471.5,262.167 471.5,281.833 471.5,301.5C 466.833,301.5 462.167,301.5 457.5,301.5C 457.5,281.833 457.5,262.167 457.5,242.5 Z M 486.5,242.5 C 491.167,242.5 495.833,242.5 500.5,242.5C 500.5,262.167 500.5,281.833 500.5,301.5C 495.833,301.5 491.167,301.5 486.5,301.5C 486.5,281.833 486.5,262.167 486.5,242.5 Z M 516.5,242.5 C 521.167,242.5 525.833,242.5 530.5,242.5C 530.5,326.167 530.5,409.833 530.5,493.5C 525.833,493.5 521.167,493.5 516.5,493.5C 516.5,409.833 516.5,326.167 516.5,242.5 Z M 255.5,316.5 C 258.5,316.5 261.5,316.5 264.5,316.5C 264.5,331.167 264.5,345.833 264.5,360.5C 259.235,361.429 254.735,360.096 251,356.5C 250.333,344.5 250.333,332.5 251,320.5C 252.397,318.93 253.897,317.596 255.5,316.5 Z M 279.5,316.5 C 284.167,316.5 288.833,316.5 293.5,316.5C 293.5,321.167 293.5,325.833 293.5,330.5C 288.833,330.5 284.167,330.5 279.5,330.5C 279.5,325.833 279.5,321.167 279.5,316.5 Z M 309.5,316.5 C 314.167,316.5 318.833,316.5 323.5,316.5C 323.5,321.167 323.5,325.833 323.5,330.5C 318.833,330.5 314.167,330.5 309.5,330.5C 309.5,325.833 309.5,321.167 309.5,316.5 Z M 339.5,316.5 C 343.833,316.5 348.167,316.5 352.5,316.5C 352.5,321.167 352.5,325.833 352.5,330.5C 348.167,330.5 343.833,330.5 339.5,330.5C 339.5,325.833 339.5,321.167 339.5,316.5 Z M 368.5,316.5 C 373.167,316.5 377.833,316.5 382.5,316.5C 382.5,321.167 382.5,325.833 382.5,330.5C 377.833,330.5 373.167,330.5 368.5,330.5C 368.5,325.833 368.5,321.167 368.5,316.5 Z M 398.5,316.5 C 403.167,316.5 407.833,316.5 412.5,316.5C 412.5,321.167 412.5,325.833 412.5,330.5C 407.833,330.5 403.167,330.5 398.5,330.5C 398.5,325.833 398.5,321.167 398.5,316.5 Z M 427.5,316.5 C 432.167,316.5 436.833,316.5 441.5,316.5C 441.5,321.167 441.5,325.833 441.5,330.5C 436.833,330.5 432.167,330.5 427.5,330.5C 427.5,325.833 427.5,321.167 427.5,316.5 Z M 457.5,316.5 C 462.167,316.5 466.833,316.5 471.5,316.5C 471.5,321.167 471.5,325.833 471.5,330.5C 466.833,330.5 462.167,330.5 457.5,330.5C 457.5,325.833 457.5,321.167 457.5,316.5 Z M 486.5,316.5 C 491.765,315.571 496.265,316.904 500,320.5C 500.667,332.5 500.667,344.5 500,356.5C 496.265,360.096 491.765,361.429 486.5,360.5C 486.5,345.833 486.5,331.167 486.5,316.5 Z M 279.5,346.5 C 284.167,346.5 288.833,346.5 293.5,346.5C 293.5,351.167 293.5,355.833 293.5,360.5C 288.833,360.5 284.167,360.5 279.5,360.5C 279.5,355.833 279.5,351.167 279.5,346.5 Z M 309.5,346.5 C 314.167,346.5 318.833,346.5 323.5,346.5C 323.5,351.167 323.5,355.833 323.5,360.5C 318.833,360.5 314.167,360.5 309.5,360.5C 309.5,355.833 309.5,351.167 309.5,346.5 Z M 339.5,346.5 C 343.833,346.5 348.167,346.5 352.5,346.5C 352.5,351.167 352.5,355.833 352.5,360.5C 348.167,360.5 343.833,360.5 339.5,360.5C 339.5,355.833 339.5,351.167 339.5,346.5 Z M 368.5,346.5 C 373.167,346.5 377.833,346.5 382.5,346.5C 382.5,351.167 382.5,355.833 382.5,360.5C 377.833,360.5 373.167,360.5 368.5,360.5C 368.5,355.833 368.5,351.167 368.5,346.5 Z M 398.5,346.5 C 403.167,346.5 407.833,346.5 412.5,346.5C 412.5,351.167 412.5,355.833 412.5,360.5C 407.833,360.5 403.167,360.5 398.5,360.5C 398.5,355.833 398.5,351.167 398.5,346.5 Z M 427.5,346.5 C 432.167,346.5 436.833,346.5 441.5,346.5C 441.5,351.167 441.5,355.833 441.5,360.5C 436.833,360.5 432.167,360.5 427.5,360.5C 427.5,355.833 427.5,351.167 427.5,346.5 Z M 457.5,346.5 C 462.167,346.5 466.833,346.5 471.5,346.5C 471.5,351.167 471.5,355.833 471.5,360.5C 466.833,360.5 462.167,360.5 457.5,360.5C 457.5,355.833 457.5,351.167 457.5,346.5 Z M 250.5,375.5 C 255.167,375.5 259.833,375.5 264.5,375.5C 264.333,399.169 264.5,422.836 265,446.5C 265.833,447.333 266.667,448.167 267.5,449C 280.167,449.667 292.833,449.667 305.5,449C 306.333,448.167 307.167,447.333 308,446.5C 309.464,432.932 309.964,419.265 309.5,405.5C 314.167,405.5 318.833,405.5 323.5,405.5C 323.333,423.836 323.5,442.17 324,460.5C 324.5,462.333 325.667,463.5 327.5,464C 339.833,464.667 352.167,464.667 364.5,464C 365.667,462.833 366.833,461.667 368,460.5C 368.5,447.171 368.667,433.837 368.5,420.5C 373.167,420.5 377.833,420.5 382.5,420.5C 382.333,438.836 382.5,457.17 383,475.5C 383.833,476.333 384.667,477.167 385.5,478C 398.071,479.627 410.738,479.96 423.5,479C 424.667,477.833 425.833,476.667 427,475.5C 427.5,466.84 427.666,458.173 427.5,449.5C 432.167,449.5 436.833,449.5 441.5,449.5C 441.333,462.837 441.5,476.171 442,489.5C 442.465,490.931 443.299,492.097 444.5,493C 456.737,494.626 469.071,494.959 481.5,494C 483.286,493.215 484.786,492.049 486,490.5C 486.5,452.168 486.667,413.835 486.5,375.5C 491.167,375.5 495.833,375.5 500.5,375.5C 500.5,414.833 500.5,454.167 500.5,493.5C 488.376,491.38 483.709,496.38 486.5,508.5C 412.833,508.5 339.167,508.5 265.5,508.5C 267.347,496.485 262.347,491.485 250.5,493.5C 250.5,454.167 250.5,414.833 250.5,375.5 Z M 279.5,375.5 C 284.167,375.5 288.833,375.5 293.5,375.5C 293.5,395.167 293.5,414.833 293.5,434.5C 288.833,434.5 284.167,434.5 279.5,434.5C 279.5,414.833 279.5,395.167 279.5,375.5 Z M 309.5,375.5 C 314.167,375.5 318.833,375.5 323.5,375.5C 323.5,380.167 323.5,384.833 323.5,389.5C 318.833,389.5 314.167,389.5 309.5,389.5C 309.5,384.833 309.5,380.167 309.5,375.5 Z M 338.5,375.5 C 343.167,375.5 347.833,375.5 352.5,375.5C 352.5,400.167 352.5,424.833 352.5,449.5C 348.167,449.5 343.833,449.5 339.5,449.5C 338.673,425.013 338.34,400.347 338.5,375.5 Z M 368.5,375.5 C 373.167,375.5 377.833,375.5 382.5,375.5C 382.5,385.167 382.5,394.833 382.5,404.5C 377.833,404.5 373.167,404.5 368.5,404.5C 368.5,394.833 368.5,385.167 368.5,375.5 Z M 398.5,375.5 C 403.167,375.5 407.833,375.5 412.5,375.5C 412.5,404.833 412.5,434.167 412.5,463.5C 407.833,463.5 403.167,463.5 398.5,463.5C 398.5,434.167 398.5,404.833 398.5,375.5 Z M 427.5,375.5 C 432.167,375.5 436.833,375.5 441.5,375.5C 441.5,395.167 441.5,414.833 441.5,434.5C 436.833,434.5 432.167,434.5 427.5,434.5C 427.5,414.833 427.5,395.167 427.5,375.5 Z M 457.5,375.5 C 462.167,375.5 466.833,375.5 471.5,375.5C 471.5,409.833 471.5,444.167 471.5,478.5C 466.833,478.5 462.167,478.5 457.5,478.5C 457.5,444.167 457.5,409.833 457.5,375.5 Z M 205.5,509.5 C 220.167,509.5 234.833,509.5 249.5,509.5C 249.5,514.167 249.5,518.833 249.5,523.5C 234.833,523.5 220.167,523.5 205.5,523.5C 205.5,518.833 205.5,514.167 205.5,509.5 Z M 501.5,509.5 C 516.167,509.5 530.833,509.5 545.5,509.5C 545.5,514.167 545.5,518.833 545.5,523.5C 530.833,523.5 516.167,523.5 501.5,523.5C 501.5,518.833 501.5,514.167 501.5,509.5 Z M 220.5,538.5 C 225.167,538.5 229.833,538.5 234.5,538.5C 234.5,553.167 234.5,567.833 234.5,582.5C 229.833,582.5 225.167,582.5 220.5,582.5C 220.5,567.833 220.5,553.167 220.5,538.5 Z M 516.5,538.5 C 521.167,538.5 525.833,538.5 530.5,538.5C 530.5,553.167 530.5,567.833 530.5,582.5C 525.833,582.5 521.167,582.5 516.5,582.5C 516.5,567.833 516.5,553.167 516.5,538.5 Z"/></g>
</svg>
