<?xml version="1.0" encoding="UTF-8"?>
<!DOCTYPE svg PUBLIC "-//W3C//DTD SVG 1.1//EN" "http://www.w3.org/Graphics/SVG/1.1/DTD/svg11.dtd">
<svg xmlns="http://www.w3.org/2000/svg" version="1.1" width="752px" height="752px" style="shape-rendering:geometricPrecision; text-rendering:geometricPrecision; image-rendering:optimizeQuality; fill-rule:evenodd; clip-rule:evenodd" xmlns:xlink="http://www.w3.org/1999/xlink">
<g><path style="opacity:0.948" fill="#000000" d="M 183.5,153.5 C 232.501,153.333 281.501,153.5 330.5,154C 342.914,159.311 348.247,168.811 346.5,182.5C 350.911,182.021 355.078,182.688 359,184.5C 359.667,185.833 360.333,187.167 361,188.5C 361.5,196.493 361.666,204.493 361.5,212.5C 370.833,212.5 380.167,212.5 389.5,212.5C 389.334,204.493 389.5,196.493 390,188.5C 390.685,185.943 392.185,184.109 394.5,183C 397.817,182.502 401.15,182.335 404.5,182.5C 402.753,168.811 408.086,159.311 420.5,154C 469.5,153.333 518.5,153.333 567.5,154C 579.903,159.286 585.236,168.786 583.5,182.5C 588.765,181.571 593.265,182.904 597,186.5C 597.667,199.167 597.667,211.833 597,224.5C 596.167,225.333 595.333,226.167 594.5,227C 591.518,227.498 588.518,227.665 585.5,227.5C 590.424,248.289 594.258,269.289 597,290.5C 601.645,334.029 596.645,376.362 582,417.5C 572,442.167 562,466.833 552,491.5C 551.097,492.701 549.931,493.535 548.5,494C 511.415,494.987 474.415,494.654 437.5,493C 436.667,492.167 435.833,491.333 435,490.5C 422.212,459.468 410.212,428.135 399,396.5C 398.5,433.832 398.333,471.165 398.5,508.5C 411.504,508.333 424.504,508.5 437.5,509C 444.181,511.013 449.014,515.18 452,521.5C 459.137,544.411 465.97,567.411 472.5,590.5C 472.06,593.214 470.726,595.38 468.5,597C 455.833,597.667 443.167,597.667 430.5,597C 428.951,595.786 427.785,594.286 427,592.5C 422.524,579.574 418.358,566.574 414.5,553.5C 409.167,553.5 403.833,553.5 398.5,553.5C 398.964,567.265 398.464,580.932 397,594.5C 396.167,595.333 395.333,596.167 394.5,597C 381.833,597.667 369.167,597.667 356.5,597C 355.667,596.167 354.833,595.333 354,594.5C 352.536,580.932 352.036,567.265 352.5,553.5C 347.167,553.5 341.833,553.5 336.5,553.5C 332.642,566.574 328.476,579.574 324,592.5C 323.215,594.286 322.049,595.786 320.5,597C 307.833,597.667 295.167,597.667 282.5,597C 279.208,594.588 278.041,591.421 279,587.5C 285.667,565.5 292.333,543.5 299,521.5C 301.986,515.18 306.819,511.013 313.5,509C 326.496,508.5 339.496,508.333 352.5,508.5C 352.667,471.165 352.5,433.832 352,396.5C 340.788,428.135 328.788,459.468 316,490.5C 315.167,491.333 314.333,492.167 313.5,493C 276.585,494.654 239.585,494.987 202.5,494C 201.069,493.535 199.903,492.701 199,491.5C 185.835,460.168 173.501,428.501 162,396.5C 158.897,384.987 156.564,373.32 155,361.5C 153.431,337.86 153.097,314.193 154,290.5C 156.742,269.289 160.576,248.289 165.5,227.5C 162.482,227.665 159.482,227.498 156.5,227C 155.667,226.167 154.833,225.333 154,224.5C 153.333,211.833 153.333,199.167 154,186.5C 157.735,182.904 162.235,181.571 167.5,182.5C 165.892,168.696 171.225,159.029 183.5,153.5 Z M 189.5,168.5 C 234.835,168.333 280.168,168.5 325.5,169C 327.667,169.833 329.167,171.333 330,173.5C 330.498,176.482 330.665,179.482 330.5,182.5C 281.5,182.5 232.5,182.5 183.5,182.5C 183.335,179.482 183.502,176.482 184,173.5C 185.107,170.887 186.94,169.22 189.5,168.5 Z M 425.5,168.5 C 470.835,168.333 516.168,168.5 561.5,169C 564.232,169.398 566.065,170.898 567,173.5C 567.498,176.482 567.665,179.482 567.5,182.5C 518.5,182.5 469.5,182.5 420.5,182.5C 419.302,176.602 420.968,171.935 425.5,168.5 Z M 168.5,198.5 C 183.167,198.5 197.833,198.5 212.5,198.5C 212.5,203.167 212.5,207.833 212.5,212.5C 197.833,212.5 183.167,212.5 168.5,212.5C 168.5,207.833 168.5,203.167 168.5,198.5 Z M 228.5,198.5 C 247.833,198.5 267.167,198.5 286.5,198.5C 286.5,203.167 286.5,207.833 286.5,212.5C 267.167,212.5 247.833,212.5 228.5,212.5C 228.5,207.833 228.5,203.167 228.5,198.5 Z M 302.5,198.5 C 316.833,198.5 331.167,198.5 345.5,198.5C 345.5,203.167 345.5,207.833 345.5,212.5C 331.167,212.5 316.833,212.5 302.5,212.5C 302.5,207.833 302.5,203.167 302.5,198.5 Z M 405.5,198.5 C 420.167,198.5 434.833,198.5 449.5,198.5C 449.5,203.167 449.5,207.833 449.5,212.5C 434.833,212.5 420.167,212.5 405.5,212.5C 405.5,207.833 405.5,203.167 405.5,198.5 Z M 464.5,198.5 C 483.833,198.5 503.167,198.5 522.5,198.5C 522.5,203.167 522.5,207.833 522.5,212.5C 503.167,212.5 483.833,212.5 464.5,212.5C 464.5,207.833 464.5,203.167 464.5,198.5 Z M 538.5,198.5 C 553.167,198.5 567.833,198.5 582.5,198.5C 582.5,203.167 582.5,207.833 582.5,212.5C 567.833,212.5 553.167,212.5 538.5,212.5C 538.5,207.833 538.5,203.167 538.5,198.5 Z M 182.5,227.5 C 192.5,227.5 202.5,227.5 212.5,227.5C 212.5,232.167 212.5,236.833 212.5,241.5C 208.395,241.234 204.395,241.734 200.5,243C 199.299,243.903 198.465,245.069 198,246.5C 197.333,259.167 197.333,271.833 198,284.5C 202.79,298.652 212.623,304.152 227.5,301C 234.758,298.076 239.592,292.909 242,285.5C 242.667,272.167 242.667,258.833 242,245.5C 238.215,242.036 233.715,240.702 228.5,241.5C 228.5,236.833 228.5,232.167 228.5,227.5C 247.833,227.5 267.167,227.5 286.5,227.5C 286.5,232.167 286.5,236.833 286.5,241.5C 282.395,241.234 278.395,241.734 274.5,243C 273.299,243.903 272.465,245.069 272,246.5C 271.333,259.167 271.333,271.833 272,284.5C 276.79,298.652 286.623,304.152 301.5,301C 308.758,298.076 313.592,292.909 316,285.5C 316.667,272.167 316.667,258.833 316,245.5C 312.215,242.036 307.715,240.702 302.5,241.5C 302.5,236.833 302.5,232.167 302.5,227.5C 312.5,227.5 322.5,227.5 332.5,227.5C 336.78,247.4 340.613,267.4 344,287.5C 345.694,306.841 345.861,326.174 344.5,345.5C 341.482,345.335 338.482,345.502 335.5,346C 333.333,346.833 331.833,348.333 331,350.5C 328.667,359.833 326.333,369.167 324,378.5C 323.333,381.167 323.333,383.833 324,386.5C 324.5,388.333 325.667,389.5 327.5,390C 330.833,390.333 334.167,390.667 337.5,391C 330.662,410.345 323.329,429.512 315.5,448.5C 276.506,449.5 237.506,449.833 198.5,449.5C 191.912,432.241 185.412,414.908 179,397.5C 167.03,353.575 165.363,309.241 174,264.5C 176.686,252.092 179.52,239.758 182.5,227.5 Z M 348.5,227.5 C 366.5,227.5 384.5,227.5 402.5,227.5C 401.883,231.917 400.883,236.25 399.5,240.5C 383.5,241.833 367.5,241.833 351.5,240.5C 350.117,236.25 349.117,231.917 348.5,227.5 Z M 418.5,227.5 C 428.833,227.5 439.167,227.5 449.5,227.5C 449.5,232.167 449.5,236.833 449.5,241.5C 443.961,240.638 439.128,241.972 435,245.5C 434.333,258.833 434.333,272.167 435,285.5C 442.339,301.904 454.172,306.07 470.5,298C 474.734,294.361 477.568,289.861 479,284.5C 479.667,271.833 479.667,259.167 479,246.5C 478.535,245.069 477.701,243.903 476.5,243C 472.605,241.734 468.605,241.234 464.5,241.5C 464.5,236.833 464.5,232.167 464.5,227.5C 483.833,227.5 503.167,227.5 522.5,227.5C 522.5,232.167 522.5,236.833 522.5,241.5C 517.285,240.702 512.785,242.036 509,245.5C 508.333,258.833 508.333,272.167 509,285.5C 516.339,301.904 528.172,306.07 544.5,298C 548.734,294.361 551.568,289.861 553,284.5C 553.667,271.833 553.667,259.167 553,246.5C 552.535,245.069 551.701,243.903 550.5,243C 546.605,241.734 542.605,241.234 538.5,241.5C 538.5,236.833 538.5,232.167 538.5,227.5C 548.749,227.181 558.916,227.514 569,228.5C 572.333,243.833 575.667,259.167 579,274.5C 586.084,319.329 582.75,363.329 569,406.5C 563.195,420.752 557.695,435.085 552.5,449.5C 513.494,449.833 474.494,449.5 435.5,448.5C 427.671,429.512 420.338,410.345 413.5,391C 416.833,390.667 420.167,390.333 423.5,390C 425.333,389.5 426.5,388.333 427,386.5C 427.667,383.833 427.667,381.167 427,378.5C 424.667,369.167 422.333,359.833 420,350.5C 419.535,349.069 418.701,347.903 417.5,347C 413.439,346.269 409.606,345.103 406,343.5C 405.182,324.81 405.516,306.144 407,287.5C 410.387,267.401 414.22,247.401 418.5,227.5 Z M 213.5,257.5 C 218.167,257.5 222.833,257.5 227.5,257.5C 227.906,265.917 227.406,274.251 226,282.5C 222,287.833 218,287.833 214,282.5C 213.5,274.173 213.334,265.84 213.5,257.5 Z M 287.5,257.5 C 292.167,257.5 296.833,257.5 301.5,257.5C 301.906,265.917 301.406,274.251 300,282.5C 296,287.833 292,287.833 288,282.5C 287.5,274.173 287.334,265.84 287.5,257.5 Z M 355.5,257.5 C 368.833,257.5 382.167,257.5 395.5,257.5C 389.945,286.607 388.278,315.94 390.5,345.5C 380.5,345.5 370.5,345.5 360.5,345.5C 362.722,315.94 361.055,286.607 355.5,257.5 Z M 449.5,257.5 C 454.167,257.5 458.833,257.5 463.5,257.5C 463.666,265.84 463.5,274.173 463,282.5C 457.272,288.153 452.938,287.153 450,279.5C 449.5,272.174 449.334,264.841 449.5,257.5 Z M 523.5,257.5 C 528.167,257.5 532.833,257.5 537.5,257.5C 537.666,265.84 537.5,274.173 537,282.5C 531.272,288.153 526.938,287.153 524,279.5C 523.5,272.174 523.334,264.841 523.5,257.5 Z M 344.5,361.5 C 365.167,361.5 385.833,361.5 406.5,361.5C 407.5,366.167 408.5,370.833 409.5,375.5C 386.833,375.5 364.167,375.5 341.5,375.5C 342.5,370.833 343.5,366.167 344.5,361.5 Z M 368.5,390.5 C 373.167,390.5 377.833,390.5 382.5,390.5C 382.5,429.833 382.5,469.167 382.5,508.5C 377.833,508.5 373.167,508.5 368.5,508.5C 368.5,469.167 368.5,429.833 368.5,390.5 Z M 205.5,464.5 C 239.833,464.5 274.167,464.5 308.5,464.5C 307.331,469.174 305.664,473.674 303.5,478C 272.495,478.833 241.495,478.667 210.5,477.5C 208.543,473.256 206.876,468.923 205.5,464.5 Z M 442.5,464.5 C 476.84,464.167 511.173,464.5 545.5,465.5C 543.833,469.5 542.167,473.5 540.5,477.5C 509.505,478.667 478.505,478.833 447.5,478C 445.336,473.674 443.669,469.174 442.5,464.5 Z M 319.5,523.5 C 357.895,523.018 396.228,523.518 434.5,525C 435.333,525.833 436.167,526.667 437,527.5C 442.603,545.475 448.103,563.475 453.5,581.5C 449.167,582.833 444.833,582.833 440.5,581.5C 435.901,568.204 431.401,554.87 427,541.5C 426.167,540.667 425.333,539.833 424.5,539C 408.064,537.855 391.564,537.355 375,537.5C 358.745,537.347 342.578,537.847 326.5,539C 325.667,539.833 324.833,540.667 324,541.5C 319.599,554.87 315.099,568.204 310.5,581.5C 306.167,582.833 301.833,582.833 297.5,581.5C 302.897,563.475 308.397,545.475 314,527.5C 315.5,525.531 317.333,524.198 319.5,523.5 Z M 368.5,553.5 C 373.167,553.5 377.833,553.5 382.5,553.5C 382.5,563.167 382.5,572.833 382.5,582.5C 377.833,582.5 373.167,582.5 368.5,582.5C 368.5,572.833 368.5,563.167 368.5,553.5 Z"/></g>
</svg>
