<?xml version="1.0" encoding="UTF-8"?>
<!DOCTYPE svg PUBLIC "-//W3C//DTD SVG 1.1//EN" "http://www.w3.org/Graphics/SVG/1.1/DTD/svg11.dtd">
<svg xmlns="http://www.w3.org/2000/svg" version="1.1" width="752px" height="752px" style="shape-rendering:geometricPrecision; text-rendering:geometricPrecision; image-rendering:optimizeQuality; fill-rule:evenodd; clip-rule:evenodd" xmlns:xlink="http://www.w3.org/1999/xlink">
<g><path style="opacity:0.943" fill="#000000" d="M 170.5,234.5 C 182.653,232.992 191.487,237.659 197,248.5C 197.999,255.133 198.832,261.8 199.5,268.5C 217.026,281.859 234.692,295.026 252.5,308C 347.167,308.667 441.833,308.667 536.5,308C 541.58,304.376 546.747,300.876 552,297.5C 552.333,292.833 552.667,288.167 553,283.5C 554.109,281.185 555.943,279.685 558.5,279C 569.833,278.333 581.167,278.333 592.5,279C 594.286,279.785 595.786,280.951 597,282.5C 597.667,314.833 597.667,347.167 597,379.5C 596.167,380.333 595.333,381.167 594.5,382C 582.263,383.626 569.929,383.959 557.5,383C 555.333,382.167 553.833,380.667 553,378.5C 552.828,373.798 552.328,369.132 551.5,364.5C 546.302,360.803 540.969,357.303 535.5,354C 516.836,353.5 498.17,353.333 479.5,353.5C 479.667,368.17 479.5,382.837 479,397.5C 475.276,412.891 465.776,422.724 450.5,427C 440.506,427.5 430.506,427.666 420.5,427.5C 420.667,455.502 420.5,483.502 420,511.5C 418.604,514.784 416.104,516.451 412.5,516.5C 409.472,516.153 406.806,514.986 404.5,513C 394.833,505.167 385.167,497.333 375.5,489.5C 364.689,497.81 354.023,506.31 343.5,515C 339.286,517.269 335.453,516.769 332,513.5C 330.517,484.922 330.017,456.255 330.5,427.5C 320.494,427.666 310.494,427.5 300.5,427C 285.224,422.724 275.724,412.891 272,397.5C 271.5,382.837 271.333,368.17 271.5,353.5C 265.158,353.334 258.825,353.5 252.5,354C 234.398,367.136 216.564,380.636 199,394.5C 198.818,400.897 198.152,407.23 197,413.5C 188.901,427.641 177.401,431.141 162.5,424C 158.509,421.011 155.676,417.178 154,412.5C 153.333,358.5 153.333,304.5 154,250.5C 156.778,242.22 162.278,236.887 170.5,234.5 Z M 172.5,250.5 C 176.684,249.704 179.85,251.037 182,254.5C 182.667,305.5 182.667,356.5 182,407.5C 179.839,411.124 176.672,412.291 172.5,411C 170.951,409.786 169.785,408.286 169,406.5C 168.333,356.167 168.333,305.833 169,255.5C 169.997,253.677 171.164,252.01 172.5,250.5 Z M 198.5,288.5 C 214.675,300.502 231.009,312.335 247.5,324C 257.5,324.333 267.5,324.667 277.5,325C 274.561,329.042 272.894,333.542 272.5,338.5C 263.494,338.334 254.494,338.5 245.5,339C 230.025,350.308 214.692,361.808 199.5,373.5C 198.5,345.175 198.167,316.841 198.5,288.5 Z M 568.5,294.5 C 573.167,294.5 577.833,294.5 582.5,294.5C 582.5,318.833 582.5,343.167 582.5,367.5C 577.833,367.5 573.167,367.5 568.5,367.5C 568.5,343.167 568.5,318.833 568.5,294.5 Z M 551.5,316.5 C 552.658,325.991 552.825,335.658 552,345.5C 543.762,338.866 534.262,336.532 523.5,338.5C 523.5,333.833 523.5,329.167 523.5,324.5C 534.439,326.682 543.773,324.015 551.5,316.5 Z M 303.5,324.5 C 371.833,324.5 440.167,324.5 508.5,324.5C 508.5,329.167 508.5,333.833 508.5,338.5C 444.499,338.333 380.499,338.5 316.5,339C 309.667,341.833 304.833,346.667 302,353.5C 301.333,363.167 301.333,372.833 302,382.5C 307.286,394.903 316.786,400.236 330.5,398.5C 330.5,403.167 330.5,407.833 330.5,412.5C 321.116,412.816 311.782,412.316 302.5,411C 295.242,408.076 290.408,402.909 288,395.5C 287.333,377.167 287.333,358.833 288,340.5C 290.685,332.65 295.852,327.316 303.5,324.5 Z M 322.5,353.5 C 359.833,353.5 397.167,353.5 434.5,353.5C 434.91,362.25 434.41,370.916 433,379.5C 432.097,380.701 430.931,381.535 429.5,382C 426.518,382.498 423.518,382.665 420.5,382.5C 420.665,379.15 420.498,375.817 420,372.5C 419.167,370.333 417.667,368.833 415.5,368C 388.833,367.333 362.167,367.333 335.5,368C 333.333,368.833 331.833,370.333 331,372.5C 330.502,375.817 330.335,379.15 330.5,382.5C 327.482,382.665 324.482,382.498 321.5,382C 318.898,381.065 317.398,379.232 317,376.5C 316.333,370.833 316.333,365.167 317,359.5C 318.021,356.65 319.854,354.65 322.5,353.5 Z M 449.5,353.5 C 454.167,353.5 458.833,353.5 463.5,353.5C 463.667,367.504 463.5,381.504 463,395.5C 460.592,402.909 455.758,408.076 448.5,411C 439.218,412.316 429.884,412.816 420.5,412.5C 420.5,407.833 420.5,403.167 420.5,398.5C 434.214,400.236 443.714,394.903 449,382.5C 449.5,372.839 449.666,363.172 449.5,353.5 Z M 346.5,383.5 C 365.833,383.5 385.167,383.5 404.5,383.5C 404.667,419.502 404.5,455.502 404,491.5C 396.833,485.667 389.667,479.833 382.5,474C 377.833,470.667 373.167,470.667 368.5,474C 361.333,479.833 354.167,485.667 347,491.5C 346.5,455.502 346.333,419.502 346.5,383.5 Z"/></g>
</svg>
