<?xml version="1.0" encoding="UTF-8"?>
<!DOCTYPE svg PUBLIC "-//W3C//DTD SVG 1.1//EN" "http://www.w3.org/Graphics/SVG/1.1/DTD/svg11.dtd">
<svg xmlns="http://www.w3.org/2000/svg" version="1.1" width="752px" height="752px" style="shape-rendering:geometricPrecision; text-rendering:geometricPrecision; image-rendering:optimizeQuality; fill-rule:evenodd; clip-rule:evenodd" xmlns:xlink="http://www.w3.org/1999/xlink">
<g><path style="opacity:0.894" fill="#000000" d="M 421.5,219.5 C 424.649,219.211 427.649,219.711 430.5,221C 435.705,227.908 440.538,235.074 445,242.5C 446.668,248.493 444.502,250.993 438.5,250C 437.057,248.933 435.724,247.766 434.5,246.5C 431.671,247.747 429.005,249.247 426.5,251C 441.046,275.255 455.212,299.755 469,324.5C 472.534,320.631 476.367,317.131 480.5,314C 470.457,298.747 460.291,283.58 450,268.5C 448.5,262 451,259.5 457.5,261C 470.209,280.253 483.043,299.419 496,318.5C 518.553,357.488 517.553,395.821 493,433.5C 476.551,455.486 454.717,468.986 427.5,474C 405.03,477.789 382.363,480.122 359.5,481C 329.624,485.029 303.124,496.529 280,515.5C 278.421,525.743 272.421,531.076 262,531.5C 251.579,531.076 245.579,525.743 244,515.5C 243.333,494.833 243.333,474.167 244,453.5C 247.333,449.5 250.667,449.5 254,453.5C 254.333,474.833 254.667,496.167 255,517.5C 257.981,521.696 261.814,522.529 266.5,520C 267.701,519.097 268.535,517.931 269,516.5C 269.667,477.167 269.667,437.833 269,398.5C 265.508,393.404 261.175,392.404 256,395.5C 254.706,407.738 254.039,420.071 254,432.5C 250.157,436.729 246.823,436.395 244,431.5C 243.333,420.833 243.333,410.167 244,399.5C 247.445,386.023 255.945,381.189 269.5,385C 275.629,388.313 279.295,393.48 280.5,400.5C 292.379,409.944 305.379,417.611 319.5,423.5C 319.833,423.167 320.167,422.833 320.5,422.5C 300.724,380.04 305.558,340.707 335,304.5C 360.464,278.79 391.131,268.456 427,273.5C 421.512,261.534 415.178,249.867 408,238.5C 407.163,234.705 407.496,231.039 409,227.5C 413.073,224.576 417.239,221.909 421.5,219.5 Z M 422.5,230.5 C 425.553,231.713 427.887,233.88 429.5,237C 427.083,238.626 424.583,240.126 422,241.5C 420.5,239.167 419,236.833 417.5,234.5C 419.21,233.113 420.877,231.779 422.5,230.5 Z M 446.5,306.5 C 412.9,291.276 382.4,295.942 355,320.5C 335.17,343.309 329.503,369.309 338,398.5C 343.204,412.757 351.704,424.59 363.5,434C 355.072,433.583 346.739,432.25 338.5,430C 321.521,408.707 315.354,384.54 320,357.5C 331.925,310.858 361.925,285.525 410,281.5C 418.312,282.027 426.479,283.361 434.5,285.5C 438.765,292.365 442.765,299.365 446.5,306.5 Z M 407.5,307.5 C 426.447,307.645 442.78,314.145 456.5,327C 446.5,327.333 436.5,327.667 426.5,328C 416.222,330.11 410.222,336.277 408.5,346.5C 404.486,346.666 400.486,346.499 396.5,346C 388.273,334.553 379.106,333.72 369,343.5C 365.304,350.369 365.804,356.869 370.5,363C 365.167,370 365.167,377 370.5,384C 364.452,392.842 365.452,400.842 373.5,408C 383.21,412.323 390.877,409.99 396.5,401C 400.211,400.175 403.878,400.341 407.5,401.5C 408.565,406.129 410.565,410.296 413.5,414C 419.922,416.306 426.589,417.64 433.5,418C 437.625,418.704 441.125,420.537 444,423.5C 445.301,425.365 445.635,427.365 445,429.5C 435.814,435.229 425.814,438.562 415,439.5C 380.955,439.488 358.288,423.488 347,391.5C 339.897,352.867 354.397,326.034 390.5,311C 396.229,309.432 401.896,308.265 407.5,307.5 Z M 485.5,322.5 C 496.827,337.486 502.16,354.486 501.5,373.5C 500.11,412.799 481.777,440.966 446.5,458C 437.459,461.625 428.126,464.125 418.5,465.5C 417.505,460.208 417.172,454.875 417.5,449.5C 459.73,441.748 482.73,416.415 486.5,373.5C 486.212,359.009 482.212,345.675 474.5,333.5C 478.394,330.055 482.06,326.388 485.5,322.5 Z M 429.5,337.5 C 441.171,337.333 452.838,337.5 464.5,338C 467.547,342.592 470.214,347.426 472.5,352.5C 462.517,353.666 452.517,353.832 442.5,353C 440.552,350.028 437.886,348.028 434.5,347C 429.467,346.829 424.467,346.329 419.5,345.5C 421.727,341.394 425.06,338.727 429.5,337.5 Z M 380.5,347.5 C 387.968,348.674 389.301,352.174 384.5,358C 379.975,358.902 377.308,357.069 376.5,352.5C 377.16,350.185 378.493,348.519 380.5,347.5 Z M 396.5,356.5 C 408.505,356.333 420.505,356.5 432.5,357C 433.925,358.714 433.592,360.047 431.5,361C 419.486,361.833 407.486,361.666 395.5,360.5C 396.246,359.264 396.579,357.93 396.5,356.5 Z M 442.5,363.5 C 453.5,363.5 464.5,363.5 475.5,363.5C 475.5,365.167 475.5,366.833 475.5,368.5C 464.495,368.667 453.495,368.5 442.5,368C 441.587,366.586 441.587,365.086 442.5,363.5 Z M 379.5,368.5 C 386.32,368.493 388.32,371.493 385.5,377.5C 380.831,380.338 377.831,379.004 376.5,373.5C 377.092,371.577 378.092,369.911 379.5,368.5 Z M 397.5,371.5 C 409.171,371.333 420.838,371.5 432.5,372C 433.727,373.587 433.394,374.921 431.5,376C 420.172,376.5 408.838,376.667 397.5,376.5C 397.5,374.833 397.5,373.167 397.5,371.5 Z M 442.5,378.5 C 453.5,378.5 464.5,378.5 475.5,378.5C 475.5,380.167 475.5,381.833 475.5,383.5C 464.495,383.667 453.495,383.5 442.5,383C 441.587,381.586 441.587,380.086 442.5,378.5 Z M 395.5,387.5 C 407.66,386.34 419.993,386.173 432.5,387C 433.833,388 433.833,389 432.5,390C 420.505,390.5 408.505,390.667 396.5,390.5C 396.737,389.209 396.404,388.209 395.5,387.5 Z M 379.5,389.5 C 386.141,389.476 388.307,392.476 386,398.5C 381.114,401.477 377.947,400.144 376.5,394.5C 377.092,392.577 378.092,390.911 379.5,389.5 Z M 442.5,393.5 C 452.5,393.5 462.5,393.5 472.5,393.5C 469.335,404.499 463.501,413.832 455,421.5C 450.68,413.846 444.18,409.346 435.5,408C 430.511,407.251 425.511,406.585 420.5,406C 419.707,404.915 419.04,403.748 418.5,402.5C 424.53,401.808 430.53,400.975 436.5,400C 439.386,398.615 441.386,396.449 442.5,393.5 Z M 279.5,413.5 C 302.895,430.02 328.895,440.187 357.5,444C 373.845,445.209 390.179,446.542 406.5,448C 407.642,454.084 407.809,460.251 407,466.5C 405.933,467.191 404.766,467.691 403.5,468C 386.13,468.891 368.797,470.225 351.5,472C 325.47,476.355 301.803,486.188 280.5,501.5C 279.5,472.174 279.167,442.841 279.5,413.5 Z"/></g>
</svg>
