<?xml version="1.0" encoding="UTF-8"?>
<!DOCTYPE svg PUBLIC "-//W3C//DTD SVG 1.1//EN" "http://www.w3.org/Graphics/SVG/1.1/DTD/svg11.dtd">
<svg xmlns="http://www.w3.org/2000/svg" version="1.1" width="752px" height="752px" style="shape-rendering:geometricPrecision; text-rendering:geometricPrecision; image-rendering:optimizeQuality; fill-rule:evenodd; clip-rule:evenodd" xmlns:xlink="http://www.w3.org/1999/xlink">
<g><path style="opacity:0.919" fill="#000000" d="M 555.5,155.5 C 573.938,154.297 587.104,161.964 595,178.5C 599.712,193.617 596.545,206.784 585.5,218C 588.902,221.719 589.402,225.886 587,230.5C 473.833,343.667 360.667,456.833 247.5,570C 252.011,573.501 255.344,577.834 257.5,583C 255.827,590.336 251.493,592.669 244.5,590C 241.667,587.167 238.833,584.333 236,581.5C 230.711,587.796 224.544,592.962 217.5,597C 209.714,599.443 202.381,598.443 195.5,594C 192,590.5 188.5,587 185,583.5C 179,574.5 179,565.5 185,556.5C 189.349,552.318 193.515,547.985 197.5,543.5C 194.85,540.349 192.016,537.349 189,534.5C 186.71,525.211 190.21,521.378 199.5,523C 202.797,525.295 205.797,527.962 208.5,531C 209.167,531.667 209.833,531.667 210.5,531C 246.167,495.333 281.833,459.667 317.5,424C 312.652,418.985 307.652,414.152 302.5,409.5C 291.985,419.849 281.318,430.016 270.5,440C 251.652,450.702 234.818,448.202 220,432.5C 212.522,420.058 211.522,407.058 217,393.5C 227.602,380.896 238.935,368.896 251,357.5C 256.495,349.379 256.828,341.046 252,332.5C 247,327.5 242,322.5 237,317.5C 232.424,307.478 235.59,302.978 246.5,304C 254.784,311.278 261.951,319.444 268,328.5C 273.705,342.793 272.038,356.127 263,368.5C 253,378.5 243,388.5 233,398.5C 226.33,409.823 228.164,419.656 238.5,428C 246.899,431.782 254.899,431.115 262.5,426C 349.5,339 436.5,252 523.5,165C 527.446,163.065 531.113,163.565 534.5,166.5C 540.61,160.947 547.61,157.28 555.5,155.5 Z M 556.5,171.5 C 570.787,170.792 579.121,177.459 581.5,191.5C 581.015,196.969 579.015,201.802 575.5,206C 574.833,206.667 574.167,206.667 573.5,206C 564.667,197.167 555.833,188.333 547,179.5C 546.837,177.613 547.671,176.113 549.5,175C 551.925,173.787 554.259,172.621 556.5,171.5 Z M 527.5,183.5 C 541.632,197.131 555.632,210.965 569.5,225C 564.652,230.015 559.652,234.848 554.5,239.5C 540.5,226.167 526.833,212.5 513.5,198.5C 518.188,193.48 522.855,188.48 527.5,183.5 Z M 500.5,210.5 C 514.748,223.245 528.581,236.578 542,250.5C 542.667,251.167 542.667,251.833 542,252.5C 488.667,305.833 435.333,359.167 382,412.5C 368.167,398.667 354.333,384.833 340.5,371C 394.035,317.632 447.368,264.132 500.5,210.5 Z M 328.5,382.5 C 342.632,396.131 356.632,409.965 370.5,424C 365.652,429.015 360.652,433.848 355.5,438.5C 341.5,425.167 327.833,411.5 314.5,397.5C 319.188,392.48 323.855,387.48 328.5,382.5 Z M 328.5,435.5 C 334.355,440.174 339.188,445.507 343,451.5C 325,469.5 307,487.5 289,505.5C 284.333,500.833 279.667,496.167 275,491.5C 274.333,490.833 274.333,490.167 275,489.5C 293.035,471.632 310.868,453.632 328.5,435.5 Z M 261.5,502.5 C 267.242,506.735 272.575,511.568 277.5,517C 272.652,522.015 267.652,526.848 262.5,531.5C 257.348,526.848 252.348,522.015 247.5,517C 252.37,512.298 257.037,507.465 261.5,502.5 Z M 235.5,528.5 C 240.812,533.146 245.812,538.146 250.5,543.5C 245.848,548.652 241.015,553.652 236,558.5C 230.985,553.652 226.152,548.652 221.5,543.5C 226.188,538.48 230.855,533.48 235.5,528.5 Z M 208.5,555.5 C 214.242,559.735 219.575,564.568 224.5,570C 220.833,573.667 217.167,577.333 213.5,581C 211.305,582.373 208.971,582.706 206.5,582C 202.399,578.573 199.066,574.573 196.5,570C 196.862,568.775 197.362,567.609 198,566.5C 201.704,562.964 205.204,559.298 208.5,555.5 Z"/></g>
<g><path style="opacity:0.89" fill="#000000" d="M 506.5,236.5 C 515.41,237.573 517.91,242.24 514,250.5C 509.5,255 505,259.5 500.5,264C 490.11,267.601 485.943,264.101 488,253.5C 493.786,247.205 499.953,241.538 506.5,236.5 Z"/></g>
<g><path style="opacity:0.89" fill="#000000" d="M 465.5,276.5 C 475.272,277.05 478.105,281.717 474,290.5C 469.5,295 465,299.5 460.5,304C 450.32,307.66 446.154,304.16 448,293.5C 453.729,287.603 459.562,281.936 465.5,276.5 Z"/></g>
<g><path style="opacity:0.887" fill="#000000" d="M 425.5,316.5 C 435.627,316.704 438.46,321.371 434,330.5C 429.135,335.7 423.968,340.533 418.5,345C 409.836,346 406.336,342.166 408,333.5C 413.729,327.603 419.562,321.936 425.5,316.5 Z"/></g>
<g><path style="opacity:0.891" fill="#000000" d="M 385.5,356.5 C 395.719,356.598 398.552,361.264 394,370.5C 389.093,376.078 383.593,380.911 377.5,385C 369.841,385.671 366.674,382.171 368,374.5C 373.365,367.969 379.198,361.969 385.5,356.5 Z"/></g>
</svg>
