<?xml version="1.0" encoding="UTF-8"?>
<!DOCTYPE svg PUBLIC "-//W3C//DTD SVG 1.1//EN" "http://www.w3.org/Graphics/SVG/1.1/DTD/svg11.dtd">
<svg xmlns="http://www.w3.org/2000/svg" version="1.1" width="752px" height="752px" style="shape-rendering:geometricPrecision; text-rendering:geometricPrecision; image-rendering:optimizeQuality; fill-rule:evenodd; clip-rule:evenodd" xmlns:xlink="http://www.w3.org/1999/xlink">
<g><path style="opacity:0.957" fill="#000000" d="M 216.5,308.5 C 228.838,308.333 241.171,308.5 253.5,309C 254.667,310.167 255.833,311.333 257,312.5C 257.499,316.152 257.665,319.818 257.5,323.5C 285.835,323.333 314.169,323.5 342.5,324C 344.049,325.214 345.215,326.714 346,328.5C 346.498,331.817 346.665,335.15 346.5,338.5C 390.5,338.5 434.5,338.5 478.5,338.5C 478.335,335.15 478.502,331.817 479,328.5C 479.785,326.714 480.951,325.214 482.5,324C 494.833,323.333 507.167,323.333 519.5,324C 520.931,324.465 522.097,325.299 523,326.5C 523.5,332.825 523.666,339.158 523.5,345.5C 528.297,345.879 532.964,345.379 537.5,344C 546.218,336.948 555.218,330.281 564.5,324C 574.167,323.333 583.833,323.333 593.5,324C 594.931,324.465 596.097,325.299 597,326.5C 597.667,358.833 597.667,391.167 597,423.5C 596.5,425.333 595.333,426.5 593.5,427C 583.833,427.667 574.167,427.667 564.5,427C 555.218,420.719 546.218,414.052 537.5,407C 532.964,405.621 528.297,405.121 523.5,405.5C 523.666,411.509 523.499,417.509 523,423.5C 522.5,425.333 521.333,426.5 519.5,427C 507.167,427.667 494.833,427.667 482.5,427C 480.951,425.786 479.785,424.286 479,422.5C 478.502,419.183 478.335,415.85 478.5,412.5C 434.5,412.5 390.5,412.5 346.5,412.5C 346.665,415.85 346.498,419.183 346,422.5C 345.215,424.286 344.049,425.786 342.5,427C 314.169,427.5 285.835,427.667 257.5,427.5C 257.665,431.182 257.499,434.848 257,438.5C 255.833,439.667 254.667,440.833 253.5,442C 241.167,442.667 228.833,442.667 216.5,442C 215.333,440.833 214.167,439.667 213,438.5C 212.501,432.509 212.334,426.509 212.5,420.5C 204.16,420.666 195.827,420.5 187.5,420C 176.833,414.667 166.167,409.333 155.5,404C 154.874,403.25 154.374,402.416 154,401.5C 153.333,384.167 153.333,366.833 154,349.5C 154.374,348.584 154.874,347.75 155.5,347C 166.167,341.667 176.833,336.333 187.5,331C 195.827,330.5 204.16,330.334 212.5,330.5C 212.334,324.491 212.501,318.491 213,312.5C 214.376,311.295 215.542,309.962 216.5,308.5 Z M 228.5,324.5 C 232.833,324.5 237.167,324.5 241.5,324.5C 241.5,358.5 241.5,392.5 241.5,426.5C 237.167,426.5 232.833,426.5 228.5,426.5C 228.5,392.5 228.5,358.5 228.5,324.5 Z M 257.5,338.5 C 281.833,338.5 306.167,338.5 330.5,338.5C 330.5,363.167 330.5,387.833 330.5,412.5C 306.167,412.5 281.833,412.5 257.5,412.5C 257.5,387.833 257.5,363.167 257.5,338.5 Z M 494.5,338.5 C 499.167,338.5 503.833,338.5 508.5,338.5C 508.5,363.167 508.5,387.833 508.5,412.5C 503.833,412.5 499.167,412.5 494.5,412.5C 494.5,387.833 494.5,363.167 494.5,338.5 Z M 570.5,338.5 C 574.5,338.5 578.5,338.5 582.5,338.5C 582.5,363.167 582.5,387.833 582.5,412.5C 578.486,412.666 574.486,412.499 570.5,412C 560.855,404.178 550.855,396.845 540.5,390C 534.843,389.501 529.176,389.334 523.5,389.5C 523.5,380.167 523.5,370.833 523.5,361.5C 529.176,361.666 534.843,361.499 540.5,361C 551.105,354.209 561.105,346.709 570.5,338.5 Z M 191.5,346.5 C 198.5,346.5 205.5,346.5 212.5,346.5C 212.5,365.833 212.5,385.167 212.5,404.5C 205.492,404.666 198.492,404.5 191.5,404C 183.922,400.294 176.422,396.461 169,392.5C 168.333,381.167 168.333,369.833 169,358.5C 176.641,354.598 184.141,350.598 191.5,346.5 Z M 346.5,353.5 C 390.5,353.5 434.5,353.5 478.5,353.5C 478.5,368.167 478.5,382.833 478.5,397.5C 434.5,397.5 390.5,397.5 346.5,397.5C 346.5,382.833 346.5,368.167 346.5,353.5 Z M 287.5,368.5 C 292.167,368.5 296.833,368.5 301.5,368.5C 301.5,373.167 301.5,377.833 301.5,382.5C 296.833,382.5 292.167,382.5 287.5,382.5C 287.5,377.833 287.5,373.167 287.5,368.5 Z"/></g>
<g><path style="opacity:0.935" fill="#000000" d="M 277.5,352.5 C 288.505,352.333 299.505,352.5 310.5,353C 312.848,353.346 314.681,354.513 316,356.5C 316.667,369.167 316.667,381.833 316,394.5C 315.167,395.333 314.333,396.167 313.5,397C 301.571,398.604 289.571,398.937 277.5,398C 275.671,397.727 274.171,396.893 273,395.5C 271.373,382.929 271.04,370.262 272,357.5C 273.107,354.887 274.94,353.22 277.5,352.5 Z M 287.5,368.5 C 287.5,373.167 287.5,377.833 287.5,382.5C 292.167,382.5 296.833,382.5 301.5,382.5C 301.5,377.833 301.5,373.167 301.5,368.5C 296.833,368.5 292.167,368.5 287.5,368.5 Z"/></g>
<g><path style="opacity:0.872" fill="#000000" d="M 365.5,367.5 C 373.696,367.529 376.863,371.529 375,379.5C 370.333,384.833 365.667,384.833 361,379.5C 359.309,374.131 360.809,370.131 365.5,367.5 Z"/></g>
<g><path style="opacity:0.847" fill="#000000" d="M 395.5,367.5 C 403.149,367.314 406.315,370.981 405,378.5C 402.017,383.568 397.851,384.735 392.5,382C 388.073,375.889 389.073,371.055 395.5,367.5 Z"/></g>
<g><path style="opacity:0.847" fill="#000000" d="M 424.5,367.5 C 430.847,366.601 434.514,369.267 435.5,375.5C 435.051,380.749 432.218,383.415 427,383.5C 420.894,382.296 418.561,378.629 420,372.5C 421.025,370.313 422.525,368.646 424.5,367.5 Z"/></g>
<g><path style="opacity:0.872" fill="#000000" d="M 454.5,367.5 C 462.696,367.529 465.863,371.529 464,379.5C 459.333,384.833 454.667,384.833 450,379.5C 448.309,374.131 449.809,370.131 454.5,367.5 Z"/></g>
</svg>
