<?xml version="1.0" encoding="UTF-8"?>
<!DOCTYPE svg PUBLIC "-//W3C//DTD SVG 1.1//EN" "http://www.w3.org/Graphics/SVG/1.1/DTD/svg11.dtd">
<svg xmlns="http://www.w3.org/2000/svg" version="1.1" width="752px" height="752px" style="shape-rendering:geometricPrecision; text-rendering:geometricPrecision; image-rendering:optimizeQuality; fill-rule:evenodd; clip-rule:evenodd" xmlns:xlink="http://www.w3.org/1999/xlink">
<g><path style="opacity:0.931" fill="#000000" d="M 157.5,145.5 C 253.501,145.333 349.501,145.5 445.5,146C 451.667,147.5 455.5,151.333 457,157.5C 457.667,172.833 457.667,188.167 457,203.5C 453.167,220.667 442.667,231.167 425.5,235C 386.5,235.333 347.5,235.667 308.5,236C 309.497,279.761 309.83,323.594 309.5,367.5C 357.834,367.333 406.168,367.5 454.5,368C 463.875,370.364 471.375,375.531 477,383.5C 486.993,399.139 493.66,416.139 497,434.5C 503.521,472.301 502.854,509.968 495,547.5C 491.905,560.119 487.239,572.119 481,583.5C 475.4,592.434 467.9,599.268 458.5,604C 456.833,604.333 455.167,604.667 453.5,605C 366.833,605.667 280.167,605.667 193.5,605C 181.066,601.572 171.899,594.072 166,582.5C 154.999,561.164 148.665,538.497 147,514.5C 143.138,478.031 146.805,442.364 158,407.5C 162.196,394.927 169.029,384.094 178.5,375C 186.129,369.091 194.796,366.591 204.5,367.5C 204.182,323.47 204.516,279.47 205.5,235.5C 194.445,235.879 183.445,235.379 172.5,234C 157.942,228.777 149.109,218.611 146,203.5C 145.333,188.167 145.333,172.833 146,157.5C 147.683,151.319 151.517,147.319 157.5,145.5 Z M 161.5,161.5 C 254.833,161.5 348.167,161.5 441.5,161.5C 441.667,175.171 441.5,188.837 441,202.5C 438.833,211.333 433.333,216.833 424.5,219C 384.163,219.833 343.829,219.667 303.5,218.5C 290.841,196.506 271.841,187.339 246.5,191C 230.243,194.625 218.243,203.792 210.5,218.5C 199.849,219.666 189.182,219.832 178.5,219C 169.667,216.833 164.167,211.333 162,202.5C 161.5,188.837 161.333,175.171 161.5,161.5 Z M 253.5,205.5 C 272.43,205.367 285.264,214.033 292,231.5C 293.479,286.795 293.979,342.129 293.5,397.5C 269.167,397.5 244.833,397.5 220.5,397.5C 220.333,344.166 220.5,290.832 221,237.5C 225.118,219.881 235.951,209.215 253.5,205.5 Z M 254.5,235.5 C 261.771,235.036 264.604,238.369 263,245.5C 259,250.833 255,250.833 251,245.5C 249.756,241.191 250.923,237.858 254.5,235.5 Z M 194.5,383.5 C 197.833,383.5 201.167,383.5 204.5,383.5C 204.192,389.425 204.525,395.259 205.5,401C 194.513,428.398 189.513,456.898 190.5,486.5C 189.718,513.191 193.551,539.191 202,564.5C 205.386,572.941 209.553,580.941 214.5,588.5C 207.858,589.664 201.192,589.831 194.5,589C 185.832,583.998 179.665,576.831 176,567.5C 162.757,531.945 158.424,495.278 163,457.5C 164.822,435.866 170.822,415.533 181,396.5C 184.736,391.262 189.236,386.929 194.5,383.5 Z M 309.5,383.5 C 322.504,383.333 335.504,383.5 348.5,384C 339.641,396.555 333.474,410.389 330,425.5C 327.841,435.459 326.008,445.459 324.5,455.5C 285.506,456.5 246.506,456.833 207.5,456.5C 209.1,441.768 212.433,427.435 217.5,413.5C 244.827,412.667 272.161,412.167 299.5,412C 303.275,410.558 306.108,408.058 308,404.5C 309.384,397.589 309.884,390.589 309.5,383.5 Z M 372.5,383.5 C 379.175,383.334 385.842,383.5 392.5,384C 378.472,406.421 370.638,430.921 369,457.5C 364.597,496.219 368.93,533.886 382,570.5C 384.867,577.073 388.367,583.239 392.5,589C 377.223,593.474 365.723,588.974 358,575.5C 347.327,554.809 341.327,532.809 340,509.5C 336.937,477.124 340.271,445.458 350,414.5C 353.6,404.122 359.1,394.956 366.5,387C 368.432,385.541 370.432,384.375 372.5,383.5 Z M 416.5,383.5 C 418.527,383.338 420.527,383.505 422.5,384C 413.641,396.555 407.474,410.389 404,425.5C 396.14,463.03 395.473,500.696 402,538.5C 405.137,556.926 411.97,573.76 422.5,589C 418.88,589.841 415.546,589.174 412.5,587C 403.121,577.941 396.621,567.107 393,554.5C 380.333,509.167 380.333,463.833 393,418.5C 395.669,409.496 399.669,401.163 405,393.5C 408.435,389.555 412.268,386.222 416.5,383.5 Z M 446.5,383.5 C 454.68,383.677 460.846,387.344 465,394.5C 477.092,415.857 483.759,438.857 485,463.5C 488.305,497.762 484.305,531.096 473,563.5C 457.28,598.155 441.613,598.155 426,563.5C 423.456,557.703 421.623,551.703 420.5,545.5C 452.659,539.002 469.992,519.336 472.5,486.5C 469.992,453.664 452.659,433.998 420.5,427.5C 423.578,412.177 430.245,398.677 440.5,387C 442.432,385.541 444.432,384.375 446.5,383.5 Z M 416.5,442.5 C 447.384,449.934 459.884,469.267 454,500.5C 447.329,517.506 434.996,527.506 417,530.5C 412.501,501.195 412.334,471.862 416.5,442.5 Z M 206.5,472.5 C 245.5,472.5 284.5,472.5 323.5,472.5C 323.5,481.833 323.5,491.167 323.5,500.5C 284.5,500.5 245.5,500.5 206.5,500.5C 205.167,491.167 205.167,481.833 206.5,472.5 Z M 207.5,516.5 C 246.506,516.167 285.506,516.5 324.5,517.5C 326.939,539.925 333.106,561.258 343,581.5C 344.467,584.266 346.3,586.766 348.5,589C 311.107,589.981 273.773,589.648 236.5,588C 229.147,582.307 223.647,575.14 220,566.5C 213.636,550.378 209.47,533.712 207.5,516.5 Z"/></g>
<g><path style="opacity:0.926" fill="#000000" d="M 252.5,219.5 C 272.303,219.137 281.136,228.803 279,248.5C 271.661,264.904 259.828,269.07 243.5,261C 231.196,248.006 231.53,235.339 244.5,223C 247.309,221.907 249.976,220.74 252.5,219.5 Z M 254.5,235.5 C 250.923,237.858 249.756,241.191 251,245.5C 255,250.833 259,250.833 263,245.5C 264.604,238.369 261.771,235.036 254.5,235.5 Z"/></g>
<g><path style="opacity:0.903" fill="#000000" d="M 579.5,382.5 C 581.962,386.69 583.962,391.19 585.5,396C 585.355,396.772 585.022,397.439 584.5,398C 560.207,407.931 535.873,417.764 511.5,427.5C 509.308,422.925 507.308,418.258 505.5,413.5C 505.709,412.914 506.043,412.414 506.5,412C 531.053,402.434 555.387,392.6 579.5,382.5 Z"/></g>
<g><path style="opacity:0.922" fill="#000000" d="M 595.5,426.5 C 597.462,431.54 598.795,436.874 599.5,442.5C 571.814,447.392 544.147,452.392 516.5,457.5C 515.963,452.149 515.296,446.816 514.5,441.5C 541.723,437.021 568.723,432.021 595.5,426.5 Z"/></g>
<g><path style="opacity:0.883" fill="#000000" d="M 515.5,478.5 C 525.833,478.5 536.167,478.5 546.5,478.5C 546.5,483.833 546.5,489.167 546.5,494.5C 536.167,494.5 525.833,494.5 515.5,494.5C 515.5,489.167 515.5,483.833 515.5,478.5 Z"/></g>
<g><path style="opacity:0.895" fill="#000000" d="M 560.5,478.5 C 575.5,478.5 590.5,478.5 605.5,478.5C 605.5,483.833 605.5,489.167 605.5,494.5C 590.496,494.667 575.496,494.5 560.5,494C 559.19,488.834 559.19,483.667 560.5,478.5 Z"/></g>
<g><path style="opacity:0.921" fill="#000000" d="M 516.5,515.5 C 544.147,520.608 571.814,525.608 599.5,530.5C 598.654,535.914 597.487,541.248 596,546.5C 568.952,541.019 541.785,536.019 514.5,531.5C 515.167,526.167 515.833,520.833 516.5,515.5 Z"/></g>
<g><path style="opacity:0.905" fill="#000000" d="M 510.5,545.5 C 535.433,555.366 560.433,565.033 585.5,574.5C 584.536,580.103 582.702,585.437 580,590.5C 554.876,580.632 530.042,570.299 505.5,559.5C 507.572,554.95 509.238,550.283 510.5,545.5 Z"/></g>
</svg>
