<?xml version="1.0" encoding="UTF-8"?>
<!DOCTYPE svg PUBLIC "-//W3C//DTD SVG 1.1//EN" "http://www.w3.org/Graphics/SVG/1.1/DTD/svg11.dtd">
<svg xmlns="http://www.w3.org/2000/svg" version="1.1" width="752px" height="752px" style="shape-rendering:geometricPrecision; text-rendering:geometricPrecision; image-rendering:optimizeQuality; fill-rule:evenodd; clip-rule:evenodd" xmlns:xlink="http://www.w3.org/1999/xlink">
<g><path style="opacity:0.92" fill="#000000" d="M 419.5,246.5 C 446.522,243.581 465.022,254.581 475,279.5C 480.882,303.874 473.382,322.707 452.5,336C 450.35,337.411 448.016,338.245 445.5,338.5C 445.45,343.064 443.45,346.564 439.5,349C 430.718,352.48 422.051,356.147 413.5,360C 382.457,386.045 351.124,411.711 319.5,437C 311.943,439.913 305.443,438.413 300,432.5C 287.129,444.002 286.296,456.169 297.5,469C 304.608,473.366 311.941,474.032 319.5,471C 340.833,450.333 362.167,429.667 383.5,409C 398.32,400.714 413.32,400.38 428.5,408C 436.563,413.628 442.063,421.128 445,430.5C 446.614,453.458 446.947,476.458 446,499.5C 441.333,506.167 436.667,506.167 432,499.5C 431.667,478.833 431.333,458.167 431,437.5C 429.049,426.881 422.882,420.048 412.5,417C 405.246,415.595 398.579,416.928 392.5,421C 373.833,439.667 355.167,458.333 336.5,477C 321.983,488.92 306.316,490.586 289.5,482C 275.163,470.652 270.663,456.152 276,438.5C 278.969,431.525 283.469,425.692 289.5,421C 283.923,415.146 283.09,408.646 287,401.5C 312.667,370.5 338.333,339.5 364,308.5C 367.529,300.246 370.862,291.913 374,283.5C 376.907,280.295 380.407,277.962 384.5,276.5C 391.25,260.75 402.916,250.75 419.5,246.5 Z M 425.5,260.5 C 446.922,261.253 459.255,272.253 462.5,293.5C 461.317,308.199 453.984,318.532 440.5,324.5C 425.773,310.774 411.773,296.441 398.5,281.5C 403.736,269.59 412.736,262.59 425.5,260.5 Z M 386.5,293.5 C 400.965,307.465 415.299,321.631 429.5,336C 424.316,338.171 419.15,340.338 414,342.5C 403,331.5 392,320.5 381,309.5C 382.31,304.073 384.143,298.74 386.5,293.5 Z M 371.5,322.5 C 380.798,331.298 389.965,340.298 399,349.5C 399.667,350.167 399.667,350.833 399,351.5C 370.149,374.928 341.482,398.595 313,422.5C 309,418.5 305,414.5 301,410.5C 300.333,409.833 300.333,409.167 301,408.5C 324.747,379.986 348.247,351.32 371.5,322.5 Z"/></g>
</svg>
