<?xml version="1.0" encoding="UTF-8"?>
<!DOCTYPE svg PUBLIC "-//W3C//DTD SVG 1.1//EN" "http://www.w3.org/Graphics/SVG/1.1/DTD/svg11.dtd">
<svg xmlns="http://www.w3.org/2000/svg" version="1.1" width="752px" height="752px" style="shape-rendering:geometricPrecision; text-rendering:geometricPrecision; image-rendering:optimizeQuality; fill-rule:evenodd; clip-rule:evenodd" xmlns:xlink="http://www.w3.org/1999/xlink">
<g><path style="opacity:0.956" fill="#000000" d="M 356.5,153.5 C 369.171,153.333 381.838,153.5 394.5,154C 398.096,157.735 399.429,162.235 398.5,167.5C 407.25,167.09 415.916,167.59 424.5,169C 425.333,169.833 426.167,170.667 427,171.5C 427.499,175.152 427.665,178.818 427.5,182.5C 435.84,182.334 444.173,182.5 452.5,183C 454.667,183.833 456.167,185.333 457,187.5C 457.498,190.817 457.665,194.15 457.5,197.5C 466.608,197.057 475.608,197.557 484.5,199C 485.126,199.75 485.626,200.584 486,201.5C 486.499,205.152 486.665,208.818 486.5,212.5C 510.59,212.02 534.59,212.52 558.5,214C 559,214.5 559.5,215 560,215.5C 560.5,239.164 560.667,262.831 560.5,286.5C 571.505,286.333 582.505,286.5 593.5,287C 594.931,287.465 596.097,288.299 597,289.5C 597.667,302.167 597.667,314.833 597,327.5C 595.728,330.222 593.561,331.556 590.5,331.5C 590.995,419.582 590.495,507.582 589,595.5C 588.25,596.126 587.416,596.626 586.5,597C 445.833,597.667 305.167,597.667 164.5,597C 163.584,596.626 162.75,596.126 162,595.5C 160.505,507.582 160.005,419.582 160.5,331.5C 157.439,331.556 155.272,330.222 154,327.5C 153.333,314.833 153.333,302.167 154,289.5C 154.903,288.299 156.069,287.465 157.5,287C 168.495,286.5 179.495,286.333 190.5,286.5C 190.333,262.831 190.5,239.164 191,215.5C 191.903,214.299 193.069,213.465 194.5,213C 217.831,212.5 241.164,212.333 264.5,212.5C 264.335,208.818 264.501,205.152 265,201.5C 265.374,200.584 265.874,199.75 266.5,199C 275.392,197.557 284.392,197.057 293.5,197.5C 293.335,194.15 293.502,190.817 294,187.5C 294.465,186.069 295.299,184.903 296.5,184C 305.392,182.557 314.392,182.057 323.5,182.5C 323.335,178.818 323.501,175.152 324,171.5C 324.833,170.667 325.667,169.833 326.5,169C 335.084,167.59 343.75,167.09 352.5,167.5C 351.604,162.085 352.937,157.418 356.5,153.5 Z M 368.5,168.5 C 373.167,168.5 377.833,168.5 382.5,168.5C 382.5,207.833 382.5,247.167 382.5,286.5C 377.833,286.5 373.167,286.5 368.5,286.5C 368.5,247.167 368.5,207.833 368.5,168.5 Z M 339.5,183.5 C 343.833,183.5 348.167,183.5 352.5,183.5C 352.5,217.833 352.5,252.167 352.5,286.5C 348.167,286.5 343.833,286.5 339.5,286.5C 339.5,252.167 339.5,217.833 339.5,183.5 Z M 398.5,183.5 C 403.167,183.5 407.833,183.5 412.5,183.5C 412.5,217.833 412.5,252.167 412.5,286.5C 407.833,286.5 403.167,286.5 398.5,286.5C 398.5,252.167 398.5,217.833 398.5,183.5 Z M 309.5,198.5 C 314.167,198.5 318.833,198.5 323.5,198.5C 323.5,227.833 323.5,257.167 323.5,286.5C 318.833,286.5 314.167,286.5 309.5,286.5C 309.5,257.167 309.5,227.833 309.5,198.5 Z M 427.5,198.5 C 432.167,198.5 436.833,198.5 441.5,198.5C 441.5,227.833 441.5,257.167 441.5,286.5C 436.833,286.5 432.167,286.5 427.5,286.5C 427.5,257.167 427.5,227.833 427.5,198.5 Z M 279.5,213.5 C 284.167,213.5 288.833,213.5 293.5,213.5C 293.5,237.833 293.5,262.167 293.5,286.5C 288.833,286.5 284.167,286.5 279.5,286.5C 279.5,262.167 279.5,237.833 279.5,213.5 Z M 457.5,213.5 C 462.167,213.5 466.833,213.5 471.5,213.5C 471.5,237.833 471.5,262.167 471.5,286.5C 466.833,286.5 462.167,286.5 457.5,286.5C 457.5,262.167 457.5,237.833 457.5,213.5 Z M 205.5,227.5 C 225.167,227.5 244.833,227.5 264.5,227.5C 264.5,247.167 264.5,266.833 264.5,286.5C 244.833,286.5 225.167,286.5 205.5,286.5C 205.5,266.833 205.5,247.167 205.5,227.5 Z M 486.5,227.5 C 506.167,227.5 525.833,227.5 545.5,227.5C 545.5,247.167 545.5,266.833 545.5,286.5C 525.833,286.5 506.167,286.5 486.5,286.5C 486.5,266.833 486.5,247.167 486.5,227.5 Z M 168.5,301.5 C 215.167,301.5 261.833,301.5 308.5,301.5C 308.5,306.167 308.5,310.833 308.5,315.5C 261.833,315.5 215.167,315.5 168.5,315.5C 168.5,310.833 168.5,306.167 168.5,301.5 Z M 324.5,301.5 C 338.833,301.5 353.167,301.5 367.5,301.5C 367.5,321.167 367.5,340.833 367.5,360.5C 353.167,360.5 338.833,360.5 324.5,360.5C 324.5,340.833 324.5,321.167 324.5,301.5 Z M 383.5,301.5 C 397.833,301.5 412.167,301.5 426.5,301.5C 426.5,321.167 426.5,340.833 426.5,360.5C 412.167,360.5 397.833,360.5 383.5,360.5C 383.5,340.833 383.5,321.167 383.5,301.5 Z M 442.5,301.5 C 489.167,301.5 535.833,301.5 582.5,301.5C 582.5,306.167 582.5,310.833 582.5,315.5C 535.833,315.5 489.167,315.5 442.5,315.5C 442.5,310.833 442.5,306.167 442.5,301.5 Z M 176.5,331.5 C 181.167,331.5 185.833,331.5 190.5,331.5C 190.333,354.836 190.5,378.169 191,401.5C 191.5,403.333 192.667,404.5 194.5,405C 315.167,405.667 435.833,405.667 556.5,405C 558.333,404.5 559.5,403.333 560,401.5C 560.5,378.169 560.667,354.836 560.5,331.5C 565.167,331.5 569.833,331.5 574.5,331.5C 574.5,360.833 574.5,390.167 574.5,419.5C 441.833,419.5 309.167,419.5 176.5,419.5C 176.5,390.167 176.5,360.833 176.5,331.5 Z M 205.5,331.5 C 239.833,331.5 274.167,331.5 308.5,331.5C 308.5,341.167 308.5,350.833 308.5,360.5C 274.167,360.5 239.833,360.5 205.5,360.5C 205.5,350.833 205.5,341.167 205.5,331.5 Z M 442.5,331.5 C 476.833,331.5 511.167,331.5 545.5,331.5C 545.5,341.167 545.5,350.833 545.5,360.5C 511.167,360.5 476.833,360.5 442.5,360.5C 442.5,350.833 442.5,341.167 442.5,331.5 Z M 205.5,375.5 C 210.167,375.5 214.833,375.5 219.5,375.5C 219.5,380.167 219.5,384.833 219.5,389.5C 214.833,389.5 210.167,389.5 205.5,389.5C 205.5,384.833 205.5,380.167 205.5,375.5 Z M 235.5,375.5 C 240.167,375.5 244.833,375.5 249.5,375.5C 249.5,380.167 249.5,384.833 249.5,389.5C 244.833,389.5 240.167,389.5 235.5,389.5C 235.5,384.833 235.5,380.167 235.5,375.5 Z M 265.5,375.5 C 269.833,375.5 274.167,375.5 278.5,375.5C 278.5,380.167 278.5,384.833 278.5,389.5C 274.167,389.5 269.833,389.5 265.5,389.5C 265.5,384.833 265.5,380.167 265.5,375.5 Z M 294.5,375.5 C 299.167,375.5 303.833,375.5 308.5,375.5C 308.5,380.167 308.5,384.833 308.5,389.5C 303.833,389.5 299.167,389.5 294.5,389.5C 294.5,384.833 294.5,380.167 294.5,375.5 Z M 324.5,375.5 C 329.167,375.5 333.833,375.5 338.5,375.5C 338.5,380.167 338.5,384.833 338.5,389.5C 333.833,389.5 329.167,389.5 324.5,389.5C 324.5,384.833 324.5,380.167 324.5,375.5 Z M 353.5,375.5 C 358.167,375.5 362.833,375.5 367.5,375.5C 367.5,380.167 367.5,384.833 367.5,389.5C 362.833,389.5 358.167,389.5 353.5,389.5C 353.5,384.833 353.5,380.167 353.5,375.5 Z M 383.5,375.5 C 388.167,375.5 392.833,375.5 397.5,375.5C 397.5,380.167 397.5,384.833 397.5,389.5C 392.833,389.5 388.167,389.5 383.5,389.5C 383.5,384.833 383.5,380.167 383.5,375.5 Z M 412.5,375.5 C 417.167,375.5 421.833,375.5 426.5,375.5C 426.5,380.167 426.5,384.833 426.5,389.5C 421.833,389.5 417.167,389.5 412.5,389.5C 412.5,384.833 412.5,380.167 412.5,375.5 Z M 442.5,375.5 C 447.167,375.5 451.833,375.5 456.5,375.5C 456.5,380.167 456.5,384.833 456.5,389.5C 451.833,389.5 447.167,389.5 442.5,389.5C 442.5,384.833 442.5,380.167 442.5,375.5 Z M 472.5,375.5 C 476.833,375.5 481.167,375.5 485.5,375.5C 485.5,380.167 485.5,384.833 485.5,389.5C 481.167,389.5 476.833,389.5 472.5,389.5C 472.5,384.833 472.5,380.167 472.5,375.5 Z M 501.5,375.5 C 506.167,375.5 510.833,375.5 515.5,375.5C 515.5,380.167 515.5,384.833 515.5,389.5C 510.833,389.5 506.167,389.5 501.5,389.5C 501.5,384.833 501.5,380.167 501.5,375.5 Z M 531.5,375.5 C 536.167,375.5 540.833,375.5 545.5,375.5C 545.5,380.167 545.5,384.833 545.5,389.5C 540.833,389.5 536.167,389.5 531.5,389.5C 531.5,384.833 531.5,380.167 531.5,375.5 Z M 176.5,435.5 C 181.167,435.5 185.833,435.5 190.5,435.5C 190.5,440.167 190.5,444.833 190.5,449.5C 185.833,449.5 181.167,449.5 176.5,449.5C 176.5,444.833 176.5,440.167 176.5,435.5 Z M 205.5,435.5 C 318.833,435.5 432.167,435.5 545.5,435.5C 545.5,484.5 545.5,533.5 545.5,582.5C 518.5,582.5 491.5,582.5 464.5,582.5C 466.709,562.405 458.709,548.238 440.5,540C 437.576,539.012 434.576,538.346 431.5,538C 394.167,537.333 356.833,537.333 319.5,538C 301.991,540.51 291.157,550.344 287,567.5C 286.501,572.489 286.334,577.489 286.5,582.5C 259.5,582.5 232.5,582.5 205.5,582.5C 205.5,533.5 205.5,484.5 205.5,435.5 Z M 560.5,435.5 C 565.167,435.5 569.833,435.5 574.5,435.5C 574.5,440.167 574.5,444.833 574.5,449.5C 569.833,449.5 565.167,449.5 560.5,449.5C 560.5,444.833 560.5,440.167 560.5,435.5 Z M 176.5,464.5 C 181.167,464.5 185.833,464.5 190.5,464.5C 190.5,479.167 190.5,493.833 190.5,508.5C 185.833,508.5 181.167,508.5 176.5,508.5C 176.5,493.833 176.5,479.167 176.5,464.5 Z M 244.5,464.5 C 331.834,464.333 419.167,464.5 506.5,465C 509.412,466.373 512.246,467.873 515,469.5C 515.667,480.833 515.667,492.167 515,503.5C 512.246,505.127 509.412,506.627 506.5,508C 419.167,508.667 331.833,508.667 244.5,508C 241.588,506.627 238.754,505.127 236,503.5C 235.333,492.167 235.333,480.833 236,469.5C 238.979,467.933 241.812,466.266 244.5,464.5 Z M 560.5,464.5 C 565.167,464.5 569.833,464.5 574.5,464.5C 574.5,479.167 574.5,493.833 574.5,508.5C 569.833,508.5 565.167,508.5 560.5,508.5C 560.5,493.833 560.5,479.167 560.5,464.5 Z M 176.5,523.5 C 181.167,523.5 185.833,523.5 190.5,523.5C 190.5,543.167 190.5,562.833 190.5,582.5C 185.833,582.5 181.167,582.5 176.5,582.5C 176.5,562.833 176.5,543.167 176.5,523.5 Z M 560.5,523.5 C 565.167,523.5 569.833,523.5 574.5,523.5C 574.5,543.167 574.5,562.833 574.5,582.5C 569.833,582.5 565.167,582.5 560.5,582.5C 560.5,562.833 560.5,543.167 560.5,523.5 Z M 319.5,553.5 C 356.835,553.333 394.168,553.5 431.5,554C 445.192,558.559 450.858,568.059 448.5,582.5C 399.833,582.5 351.167,582.5 302.5,582.5C 300.354,568.03 306.021,558.364 319.5,553.5 Z"/></g>
<g><path style="opacity:0.9" fill="#000000" d="M 225.5,241.5 C 229.182,241.591 232.349,242.924 235,245.5C 242.087,239.397 247.254,240.73 250.5,249.5C 250.2,252.579 248.867,255.079 246.5,257C 251.269,261.391 251.603,266.057 247.5,271C 242.676,273.446 238.509,272.613 235,268.5C 230.62,273.343 225.954,273.677 221,269.5C 218.554,264.676 219.387,260.509 223.5,257C 217.723,250.844 218.39,245.677 225.5,241.5 Z"/></g>
<g><path style="opacity:0.901" fill="#000000" d="M 506.5,241.5 C 510.31,241.379 513.477,242.712 516,245.5C 520.391,240.731 525.057,240.397 530,244.5C 532.446,249.324 531.613,253.491 527.5,257C 532.343,261.38 532.677,266.046 528.5,271C 523.676,273.446 519.509,272.613 516,268.5C 512.21,272.854 507.877,273.521 503,270.5C 499.513,265.599 500.013,261.099 504.5,257C 498.792,251.001 499.459,245.835 506.5,241.5 Z"/></g>
<g><path style="opacity:0.972" fill="#000000" d="M 238.5,449.5 C 329.834,449.333 421.167,449.5 512.5,450C 517.833,452.667 523.167,455.333 528.5,458C 529.701,458.903 530.535,460.069 531,461.5C 531.667,478.167 531.667,494.833 531,511.5C 530.535,512.931 529.701,514.097 528.5,515C 523.167,517.667 517.833,520.333 512.5,523C 421.167,523.667 329.833,523.667 238.5,523C 232.427,520.215 226.594,517.048 221,513.5C 219.86,504.596 219.36,495.596 219.5,486.5C 219.36,477.404 219.86,468.404 221,459.5C 226.815,456.013 232.648,452.68 238.5,449.5 Z M 244.5,464.5 C 241.812,466.266 238.979,467.933 236,469.5C 235.333,480.833 235.333,492.167 236,503.5C 238.754,505.127 241.588,506.627 244.5,508C 331.833,508.667 419.167,508.667 506.5,508C 509.412,506.627 512.246,505.127 515,503.5C 515.667,492.167 515.667,480.833 515,469.5C 512.246,467.873 509.412,466.373 506.5,465C 419.167,464.5 331.834,464.333 244.5,464.5 Z"/></g>
</svg>
