<?xml version="1.0" encoding="UTF-8"?>
<!DOCTYPE svg PUBLIC "-//W3C//DTD SVG 1.1//EN" "http://www.w3.org/Graphics/SVG/1.1/DTD/svg11.dtd">
<svg xmlns="http://www.w3.org/2000/svg" version="1.1" width="752px" height="752px" style="shape-rendering:geometricPrecision; text-rendering:geometricPrecision; image-rendering:optimizeQuality; fill-rule:evenodd; clip-rule:evenodd" xmlns:xlink="http://www.w3.org/1999/xlink">
<g><path style="opacity:0.881" fill="#000000" d="M 328.5,180.5 C 359.835,180.333 391.168,180.5 422.5,181C 424.333,181.5 425.5,182.667 426,184.5C 426.667,192.833 426.667,201.167 426,209.5C 425.535,210.931 424.701,212.097 423.5,213C 418.845,213.499 414.179,213.666 409.5,213.5C 409.5,226.833 409.5,240.167 409.5,253.5C 428.503,253.333 447.503,253.5 466.5,254C 494.192,258.091 510.359,273.925 515,301.5C 515.667,364.167 515.667,426.833 515,489.5C 510.209,516.958 494.042,533.124 466.5,538C 459.632,562.436 443.632,572.769 418.5,569C 402.788,564.13 393.788,553.63 391.5,537.5C 380.833,537.5 370.167,537.5 359.5,537.5C 355.748,557.91 343.414,568.91 322.5,570.5C 301.993,568.826 289.327,557.993 284.5,538C 257.415,533.248 241.248,517.414 236,490.5C 235.333,427.5 235.333,364.5 236,301.5C 240.611,273.889 256.778,258.055 284.5,254C 303.497,253.5 322.497,253.333 341.5,253.5C 341.5,240.167 341.5,226.833 341.5,213.5C 336.821,213.666 332.155,213.499 327.5,213C 326.299,212.097 325.465,210.931 325,209.5C 324.333,201.167 324.333,192.833 325,184.5C 325.69,182.65 326.856,181.316 328.5,180.5 Z M 335.5,191.5 C 362.167,191.5 388.833,191.5 415.5,191.5C 415.5,195.5 415.5,199.5 415.5,203.5C 410.489,203.334 405.489,203.501 400.5,204C 399.874,204.75 399.374,205.584 399,206.5C 398.5,222.163 398.333,237.83 398.5,253.5C 396.833,253.5 395.167,253.5 393.5,253.5C 393.667,237.497 393.5,221.497 393,205.5C 392.5,205 392,204.5 391.5,204C 380.833,203.333 370.167,203.333 359.5,204C 359,204.5 358.5,205 358,205.5C 357.5,221.497 357.333,237.497 357.5,253.5C 355.833,253.5 354.167,253.5 352.5,253.5C 352.667,237.83 352.5,222.163 352,206.5C 351.626,205.584 351.126,204.75 350.5,204C 345.511,203.501 340.511,203.334 335.5,203.5C 335.5,199.5 335.5,195.5 335.5,191.5 Z M 367.5,213.5 C 372.833,213.5 378.167,213.5 383.5,213.5C 383.5,226.833 383.5,240.167 383.5,253.5C 378.167,253.5 372.833,253.5 367.5,253.5C 367.5,240.167 367.5,226.833 367.5,213.5 Z M 281.5,264.5 C 344.168,264.333 406.834,264.5 469.5,265C 487.667,269.833 499.167,281.333 504,299.5C 504.667,363.5 504.667,427.5 504,491.5C 499.167,509.667 487.667,521.167 469.5,526C 406.833,526.667 344.167,526.667 281.5,526C 263.333,521.167 251.833,509.667 247,491.5C 246.333,427.5 246.333,363.5 247,299.5C 252.016,281.318 263.516,269.652 281.5,264.5 Z M 303.5,297.5 C 319.22,300.379 323.72,309.046 317,323.5C 308.059,330.692 299.725,330.025 292,321.5C 287.54,309.422 291.373,301.422 303.5,297.5 Z M 415.5,300.5 C 418.802,303.974 421.968,307.641 425,311.5C 434.027,323.694 442.861,336.027 451.5,348.5C 437.167,359.167 422.833,369.833 408.5,380.5C 396.339,364.832 384.339,348.999 372.5,333C 386.902,322.146 401.235,311.313 415.5,300.5 Z M 319.5,379.5 C 323.354,385.354 327.354,391.187 331.5,397C 338.467,397.998 345.467,398.664 352.5,399C 348,404.167 343.5,409.333 339,414.5C 339.622,421.491 341.122,428.324 343.5,435C 337.089,432.863 330.589,430.696 324,428.5C 317.56,430.917 311.56,434.25 306,438.5C 305.971,431.781 306.304,425.114 307,418.5C 302.584,412.873 297.417,408.04 291.5,404C 298.089,402.111 304.755,400.278 311.5,398.5C 314.944,392.502 317.611,386.169 319.5,379.5 Z M 420.5,422.5 C 440.083,420.199 453.249,428.199 460,446.5C 463.253,465.829 455.753,478.996 437.5,486C 417.245,489.627 403.745,481.794 397,462.5C 394.279,442.939 402.113,429.605 420.5,422.5 Z M 295.5,537.5 C 313.503,537.333 331.503,537.5 349.5,538C 344.234,553.921 333.234,560.921 316.5,559C 305.277,555.944 298.277,548.777 295.5,537.5 Z M 401.5,538.5 C 419.338,537.173 437.338,537.173 455.5,538.5C 448.436,557.027 435.436,563.194 416.5,557C 409.226,552.589 404.226,546.422 401.5,538.5 Z"/></g>
<g><path style="opacity:0.885" fill="#000000" d="M 299.5,287.5 C 318.038,286.211 328.705,294.711 331.5,313C 327.63,334.863 314.963,342.863 293.5,337C 279.07,327.695 275.57,315.195 283,299.5C 287.245,293.641 292.745,289.641 299.5,287.5 Z M 303.5,297.5 C 291.373,301.422 287.54,309.422 292,321.5C 299.725,330.025 308.059,330.692 317,323.5C 323.72,309.046 319.22,300.379 303.5,297.5 Z"/></g>
<g><path style="opacity:0.88" fill="#000000" d="M 415.5,287.5 C 418.652,286.959 421.152,287.959 423,290.5C 435.756,308.344 448.756,326.011 462,343.5C 465.489,347.551 465.323,351.384 461.5,355C 444.552,366.948 427.885,379.281 411.5,392C 406.544,394.607 402.711,393.44 400,388.5C 388.386,371.886 376.386,355.552 364,339.5C 362.111,336.888 360.611,334.055 359.5,331C 359.903,329.527 360.57,328.194 361.5,327C 379.745,314.057 397.745,300.89 415.5,287.5 Z M 415.5,300.5 C 401.235,311.313 386.902,322.146 372.5,333C 384.339,348.999 396.339,364.832 408.5,380.5C 422.833,369.833 437.167,359.167 451.5,348.5C 442.861,336.027 434.027,323.694 425,311.5C 421.968,307.641 418.802,303.974 415.5,300.5 Z"/></g>
<g><path style="opacity:0.894" fill="#000000" d="M 316.5,361.5 C 319.157,361.162 321.49,361.829 323.5,363.5C 328.041,371.416 332.707,379.249 337.5,387C 347.173,387.953 356.84,388.953 366.5,390C 369.163,393.561 368.997,397.061 366,400.5C 360.5,406.667 355,412.833 349.5,419C 352.061,427.74 354.394,436.574 356.5,445.5C 356.368,447.601 355.368,449.101 353.5,450C 350.743,450.584 348.077,450.25 345.5,449C 338.5,445.833 331.5,442.667 324.5,439.5C 316.631,444.532 308.631,449.365 300.5,454C 297.904,454.458 295.737,453.625 294,451.5C 294.536,441.479 295.203,431.479 296,421.5C 290.592,416.88 285.092,412.38 279.5,408C 276.716,405.888 274.716,403.221 273.5,400C 273.903,398.527 274.57,397.194 275.5,396C 285.281,393.812 294.947,391.312 304.5,388.5C 307.738,379.103 311.738,370.103 316.5,361.5 Z M 319.5,379.5 C 317.611,386.169 314.944,392.502 311.5,398.5C 304.755,400.278 298.089,402.111 291.5,404C 297.417,408.04 302.584,412.873 307,418.5C 306.304,425.114 305.971,431.781 306,438.5C 311.56,434.25 317.56,430.917 324,428.5C 330.589,430.696 337.089,432.863 343.5,435C 341.122,428.324 339.622,421.491 339,414.5C 343.5,409.333 348,404.167 352.5,399C 345.467,398.664 338.467,397.998 331.5,397C 327.354,391.187 323.354,385.354 319.5,379.5 Z"/></g>
<g><path style="opacity:0.887" fill="#000000" d="M 426.5,411.5 C 460.308,415.143 474.808,433.81 470,467.5C 462.809,486.683 448.975,497.016 428.5,498.5C 402.247,495.747 387.914,481.247 385.5,455C 387.728,429.608 401.395,415.108 426.5,411.5 Z M 420.5,422.5 C 402.113,429.605 394.279,442.939 397,462.5C 403.745,481.794 417.245,489.627 437.5,486C 455.753,478.996 463.253,465.829 460,446.5C 453.249,428.199 440.083,420.199 420.5,422.5 Z"/></g>
</svg>
