<?xml version="1.0" encoding="UTF-8"?>
<!DOCTYPE svg PUBLIC "-//W3C//DTD SVG 1.1//EN" "http://www.w3.org/Graphics/SVG/1.1/DTD/svg11.dtd">
<svg xmlns="http://www.w3.org/2000/svg" version="1.1" width="752px" height="752px" style="shape-rendering:geometricPrecision; text-rendering:geometricPrecision; image-rendering:optimizeQuality; fill-rule:evenodd; clip-rule:evenodd" xmlns:xlink="http://www.w3.org/1999/xlink">
<g><path style="opacity:0.93" fill="#000000" d="M 367.5,197.5 C 395.184,195.836 414.518,207.67 425.5,233C 441.175,237.779 456.175,244.113 470.5,252C 475.745,250.736 481.078,249.402 486.5,248C 523.371,245.707 544.038,262.874 548.5,299.5C 548.066,307.902 546.066,315.902 542.5,323.5C 551.333,338.165 557.667,353.832 561.5,370.5C 580.422,376.927 592.255,389.927 597,409.5C 600.721,438.405 589.221,458.405 562.5,469.5C 554.509,497.657 541.175,522.824 522.5,545C 500.889,546.134 479.222,546.968 457.5,547.5C 456.699,550.133 455.033,551.967 452.5,553C 401.167,553.667 349.833,553.667 298.5,553C 295.967,551.967 294.301,550.133 293.5,547.5C 271.778,546.968 250.111,546.134 228.5,545C 209.825,522.824 196.491,497.657 188.5,469.5C 161.779,458.405 150.279,438.405 154,409.5C 157.89,392.282 167.723,379.782 183.5,372C 185.436,371.187 187.436,370.687 189.5,370.5C 193.333,353.832 199.667,338.165 208.5,323.5C 198.072,298.986 202.405,277.486 221.5,259C 239.426,246.289 258.593,244.122 279,252.5C 294.088,244.471 309.755,237.804 326,232.5C 333.665,213.322 347.498,201.655 367.5,197.5 Z M 368.5,213.5 C 383.931,211.58 396.265,216.747 405.5,229C 385.5,227 365.5,227 345.5,229C 351.545,221.319 359.212,216.152 368.5,213.5 Z M 366.5,242.5 C 430.518,241.761 481.684,266.761 520,317.5C 552.687,365.973 560.687,418.306 544,474.5C 537.278,494.616 527.445,512.95 514.5,529.5C 495.512,530.5 476.512,530.833 457.5,530.5C 457.5,525.833 457.5,521.167 457.5,516.5C 473.837,516.667 490.17,516.5 506.5,516C 517.617,502.61 525.784,487.443 531,470.5C 549.623,402.475 533.456,344.308 482.5,296C 428.36,253.37 369.36,245.37 305.5,272C 239.945,306.979 209.112,361.812 213,436.5C 215.961,465.071 225.627,491.071 242,514.5C 242.75,515.126 243.584,515.626 244.5,516C 260.83,516.5 277.163,516.667 293.5,516.5C 293.5,521.167 293.5,525.833 293.5,530.5C 274.488,530.833 255.488,530.5 236.5,529.5C 195.566,473.947 187.733,413.947 213,349.5C 238.233,295.602 279.733,261.436 337.5,247C 347.234,244.968 356.901,243.468 366.5,242.5 Z M 247.5,263.5 C 252.179,263.334 256.845,263.501 261.5,264C 245.667,275.833 231.833,289.667 220,305.5C 217.815,284.23 226.981,270.23 247.5,263.5 Z M 489.5,264.5 C 514.706,262.342 529.039,274.009 532.5,299.5C 532.485,301.634 531.985,303.634 531,305.5C 519.292,289.625 505.459,275.959 489.5,264.5 Z M 362.5,272.5 C 375.596,272.003 388.596,272.837 401.5,275C 384.167,290.333 366.833,290.333 349.5,275C 353.965,274.126 358.298,273.293 362.5,272.5 Z M 329.5,279.5 C 330.552,279.351 331.552,279.517 332.5,280C 350.245,301.49 372.245,307.157 398.5,297C 406.685,293.15 413.352,287.483 418.5,280C 427.506,281.577 436.006,284.743 444,289.5C 440.981,312.47 448.815,330.636 467.5,344C 479.647,350.561 492.647,353.394 506.5,352.5C 510.325,360.146 513.658,367.979 516.5,376C 492.433,395.666 487.266,419.499 501,447.5C 505.124,453.958 510.29,459.458 516.5,464C 512.309,476.549 506.642,488.382 499.5,499.5C 485.5,500.833 471.5,500.833 457.5,499.5C 456.699,496.867 455.033,495.033 452.5,494C 401.167,493.333 349.833,493.333 298.5,494C 295.967,495.033 294.301,496.867 293.5,499.5C 279.5,500.833 265.5,500.833 251.5,499.5C 244.358,488.382 238.691,476.549 234.5,464C 259.196,443.518 264.03,419.018 249,390.5C 244.833,385 240,380.167 234.5,376C 237.342,367.979 240.675,360.146 244.5,352.5C 269.806,354.598 288.972,344.931 302,323.5C 306.928,312.605 308.594,301.272 307,289.5C 314.398,285.713 321.898,282.38 329.5,279.5 Z M 289.5,299.5 C 290.725,300.152 291.392,301.319 291.5,303C 287.599,323.451 275.265,334.451 254.5,336C 264.659,322.342 276.326,310.175 289.5,299.5 Z M 459.5,299.5 C 473.937,309.436 486.27,321.603 496.5,336C 473.748,334.415 461.415,322.248 459.5,299.5 Z M 183.5,390.5 C 184.147,391.274 184.48,392.274 184.5,393.5C 183.262,402.288 182.595,411.122 182.5,420C 182.944,429.868 183.444,439.701 184,449.5C 163.506,429.879 163.339,410.212 183.5,390.5 Z M 566.5,390.5 C 582.739,403.566 586.239,419.566 577,438.5C 574.036,442.466 570.703,446.133 567,449.5C 567.556,439.701 568.056,429.868 568.5,420C 568.224,410.134 567.558,400.301 566.5,390.5 Z M 230.5,394.5 C 241.664,405.507 244.497,418.507 239,433.5C 237.118,438.044 234.451,442.044 231,445.5C 229.873,442.623 229.206,439.623 229,436.5C 228.018,422.385 228.518,408.385 230.5,394.5 Z M 519.5,394.5 C 521.109,397.149 521.943,400.149 522,403.5C 522.667,414.5 522.667,425.5 522,436.5C 521.794,439.623 521.127,442.623 520,445.5C 510.03,434.912 507.03,422.579 511,408.5C 513.078,403.339 515.911,398.672 519.5,394.5 Z M 309.5,509.5 C 353.5,509.5 397.5,509.5 441.5,509.5C 441.5,518.833 441.5,528.167 441.5,537.5C 397.5,537.5 353.5,537.5 309.5,537.5C 309.5,528.167 309.5,518.833 309.5,509.5 Z"/></g>
</svg>
