<?xml version="1.0" encoding="UTF-8"?>
<!DOCTYPE svg PUBLIC "-//W3C//DTD SVG 1.1//EN" "http://www.w3.org/Graphics/SVG/1.1/DTD/svg11.dtd">
<svg xmlns="http://www.w3.org/2000/svg" version="1.1" width="752px" height="752px" style="shape-rendering:geometricPrecision; text-rendering:geometricPrecision; image-rendering:optimizeQuality; fill-rule:evenodd; clip-rule:evenodd" xmlns:xlink="http://www.w3.org/1999/xlink">
<g><path style="opacity:0.927" fill="#000000" d="M 316.5,197.5 C 336.394,196.59 356.061,198.256 375.5,202.5C 448.07,187.635 508.904,207.635 558,262.5C 599.137,316.661 608.47,375.995 586,440.5C 563.369,494.234 524.203,529.734 468.5,547C 437.63,555.07 406.63,555.57 375.5,548.5C 306.781,562.976 247.947,545.31 199,495.5C 152.875,440.432 141.541,378.766 165,310.5C 187.379,256.453 226.546,220.953 282.5,204C 293.84,201.097 305.174,198.931 316.5,197.5 Z M 315.5,213.5 C 385.453,210.551 438.286,238.885 474,298.5C 500,349.832 500,401.165 474,452.5C 438.314,512.266 385.481,540.433 315.5,537C 247.521,527.436 201.354,490.602 177,426.5C 158.056,359.015 173.89,301.182 224.5,253C 250.918,230.805 281.251,217.639 315.5,213.5 Z M 406.5,214.5 C 473.049,211.024 524.216,237.357 560,293.5C 590,348.167 590,402.833 560,457.5C 524.35,513.412 473.183,539.912 406.5,537C 459.831,510.325 492.997,467.825 506,409.5C 517.316,332.333 491.483,271.167 428.5,226C 421.586,221.376 414.252,217.543 406.5,214.5 Z M 313.5,272.5 C 325.171,272.333 336.838,272.5 348.5,273C 352.124,275.161 353.291,278.328 352,282.5C 350.786,284.049 349.286,285.215 347.5,286C 336.5,286.667 325.5,286.667 314.5,286C 308.317,281.921 307.983,277.421 313.5,272.5 Z M 325.5,331.5 C 350.511,331.022 366.678,342.689 374,366.5C 376.806,381.957 372.806,395.29 362,406.5C 366.806,365.637 349.64,351.47 310.5,364C 306.509,366.989 303.676,370.822 302,375.5C 301.667,386.167 301.333,396.833 301,407.5C 286.195,391.385 283.529,373.385 293,353.5C 300.587,341.295 311.421,333.962 325.5,331.5 Z M 323.5,375.5 C 329.99,375.02 336.323,375.687 342.5,377.5C 343.333,378.5 344.167,379.5 345,380.5C 345.5,408.165 345.667,435.831 345.5,463.5C 335.833,463.5 326.167,463.5 316.5,463.5C 316.333,436.165 316.5,408.831 317,381.5C 318.436,378.558 320.603,376.558 323.5,375.5 Z"/></g>
<g><path style="opacity:0.923" fill="#000000" d="M 319.5,227.5 C 388.65,225.476 438.15,255.476 468,317.5C 477.186,339.615 480.853,362.615 479,386.5C 476.045,390.277 472.212,391.443 467.5,390C 465.951,388.786 464.785,387.286 464,385.5C 464.748,324.969 438.248,281.136 384.5,254C 363.67,245.584 342.003,241.584 319.5,242C 314.236,237.131 314.236,232.298 319.5,227.5 Z"/></g>
<g><path style="opacity:0.937" fill="#000000" d="M 311.5,256.5 C 324.504,256.333 337.504,256.5 350.5,257C 366.849,262.87 372.016,274.037 366,290.5C 362.957,295.877 358.457,299.377 352.5,301C 338.167,301.667 323.833,301.667 309.5,301C 297.539,296.256 292.372,287.423 294,274.5C 296.683,265.318 302.517,259.318 311.5,256.5 Z M 313.5,272.5 C 307.983,277.421 308.317,281.921 314.5,286C 325.5,286.667 336.5,286.667 347.5,286C 349.286,285.215 350.786,284.049 352,282.5C 353.291,278.328 352.124,275.161 348.5,273C 336.838,272.5 325.171,272.333 313.5,272.5 Z"/></g>
<g><path style="opacity:0.938" fill="#000000" d="M 326.5,315.5 C 360.53,316.048 381.697,332.714 390,365.5C 393.27,391.615 384.104,411.948 362.5,426.5C 361.667,442.156 361.167,457.823 361,473.5C 360.602,476.232 359.102,478.065 356.5,479C 339.5,479.667 322.5,479.667 305.5,479C 304.584,478.626 303.75,478.126 303,477.5C 301.695,460.925 301.028,444.258 301,427.5C 272.922,407.889 264.922,381.889 277,349.5C 287.674,329.655 304.174,318.322 326.5,315.5 Z M 325.5,331.5 C 311.421,333.962 300.587,341.295 293,353.5C 283.529,373.385 286.195,391.385 301,407.5C 301.333,396.833 301.667,386.167 302,375.5C 303.676,370.822 306.509,366.989 310.5,364C 349.64,351.47 366.806,365.637 362,406.5C 372.806,395.29 376.806,381.957 374,366.5C 366.678,342.689 350.511,331.022 325.5,331.5 Z M 323.5,375.5 C 320.603,376.558 318.436,378.558 317,381.5C 316.5,408.831 316.333,436.165 316.5,463.5C 326.167,463.5 335.833,463.5 345.5,463.5C 345.667,435.831 345.5,408.165 345,380.5C 344.167,379.5 343.333,378.5 342.5,377.5C 336.323,375.687 329.99,375.02 323.5,375.5 Z"/></g>
<g><path style="opacity:0.924" fill="#000000" d="M 186.5,360.5 C 191.742,359.271 195.575,360.937 198,365.5C 197.525,428.432 225.692,472.932 282.5,499C 301.874,506.007 321.874,509.34 342.5,509C 347.833,513.667 347.833,518.333 342.5,523C 281.112,525.869 234.278,501.369 202,449.5C 187.466,423.362 181.132,395.362 183,365.5C 183.997,363.677 185.164,362.01 186.5,360.5 Z"/></g>
</svg>
