<?xml version="1.0" standalone="no"?>
<!DOCTYPE svg PUBLIC "-//W3C//DTD SVG 20010904//EN"
 "http://www.w3.org/TR/2001/REC-SVG-20010904/DTD/svg10.dtd">
<svg version="1.0" xmlns="http://www.w3.org/2000/svg"
 width="752.000000pt" height="752.000000pt" viewBox="0 0 752.000000 752.000000"
 preserveAspectRatio="xMidYMid meet">

<g transform="translate(0.000000,752.000000) scale(0.100000,-0.100000)"
fill="#000000" stroke="none">
<path d="M3440 4843 c-75 -38 -112 -93 -118 -172 -2 -32 1 -75 8 -96 14 -44
62 -100 101 -121 28 -14 29 -17 29 -94 l0 -80 -44 0 c-29 0 -52 -7 -69 -20
-26 -20 -26 -25 -29 -148 l-3 -127 -247 -3 -247 -2 -421 210 -420 210 0 78 c0
91 -21 144 -71 186 -52 44 -96 59 -160 54 -81 -6 -144 -47 -181 -117 l-28 -53
0 -788 0 -788 28 -53 c83 -160 320 -156 393 6 13 27 19 64 19 117 l0 78 370
185 370 185 0 -164 c0 -90 5 -187 10 -216 23 -123 99 -223 208 -277 54 -26 65
-28 222 -32 l165 -3 30 -47 c43 -67 119 -104 198 -98 33 3 73 14 94 27 l37 22
40 -24 c57 -32 154 -32 215 0 l43 23 51 -26 c100 -50 220 -18 278 74 l30 46
162 5 c151 5 166 7 224 34 74 34 153 112 185 183 20 44 23 68 28 283 l5 235
210 3 211 2 84 -57 85 -58 3 -72 c3 -64 6 -75 29 -93 24 -18 40 -20 195 -20
166 0 169 0 193 25 l25 24 0 471 0 471 -25 24 c-24 25 -27 25 -193 25 -155 0
-171 -2 -195 -20 -23 -18 -26 -29 -29 -93 l-3 -72 -84 -57 -85 -58 -508 0
-508 0 0 129 c0 128 0 130 -26 150 -19 15 -41 21 -75 21 l-49 0 0 79 c0 78 0
79 30 91 36 15 87 71 106 116 38 91 -3 215 -89 268 -70 43 -140 47 -211 12
l-54 -27 -44 23 c-60 32 -157 32 -214 0 l-40 -24 -37 22 c-21 13 -61 24 -94
27 -50 4 -66 1 -113 -24z m148 -143 c46 -43 15 -123 -47 -123 -66 0 -101 84
-52 125 30 24 72 23 99 -2z m301 -6 c24 -30 26 -43 10 -78 -32 -70 -139 -44
-139 33 0 34 39 71 75 71 24 0 39 -7 54 -26z m291 6 c26 -26 26 -81 0 -105
-46 -42 -120 -10 -120 52 0 42 30 73 70 73 17 0 39 -9 50 -20z m-2364 -151
c18 -20 19 -48 19 -789 0 -741 -1 -769 -19 -789 -25 -27 -79 -28 -106 -1 -20
20 -20 33 -20 790 0 757 0 770 20 790 27 27 81 26 106 -1z m1911 -94 c33 -20
33 -21 33 -97 l0 -78 -75 0 -75 0 0 78 0 77 38 22 c20 12 39 21 42 20 3 -1 20
-11 37 -22z m296 0 l37 -19 0 -78 0 -78 -75 0 -75 0 0 79 c0 79 0 79 33 99 17
11 34 19 37 18 3 -1 22 -10 43 -21z m-1633 -425 l401 -200 920 0 c895 0 921
-1 958 -20 57 -28 108 -93 120 -152 14 -64 14 -472 0 -536 -12 -59 -63 -124
-120 -152 -33 -17 -59 -20 -179 -20 l-140 0 0 69 0 68 64 5 c118 10 200 72
227 172 6 23 9 89 7 151 -4 126 -23 175 -82 220 -73 56 -60 55 -952 55 l-823
0 -401 -200 c-220 -110 -403 -200 -405 -200 -3 0 -5 212 -5 470 0 259 2 470 5
470 2 0 185 -90 405 -200z m1220 25 l0 -76 -72 3 -73 3 -3 73 -3 72 76 0 75 0
0 -75z m300 0 l0 -75 -75 0 -75 0 0 75 0 75 75 0 75 0 0 -75z m290 0 l0 -75
-70 0 -70 0 0 75 0 75 70 0 70 0 0 -75z m1630 -295 l0 -370 -75 0 -75 0 0 370
0 370 75 0 75 0 0 -370z m-290 0 c0 -82 -3 -150 -8 -150 -4 0 -32 17 -62 37
-51 35 -61 38 -142 41 l-88 4 0 68 0 68 88 4 c81 3 91 6 142 41 30 20 58 37
62 37 5 0 8 -67 8 -150z m-450 0 l0 -70 -80 0 c-71 0 -80 2 -80 18 0 10 -11
41 -25 68 -14 27 -25 50 -25 52 0 1 47 2 105 2 l105 0 0 -70z m-2070 -346 c0
-143 10 -187 52 -239 41 -50 97 -75 179 -82 l69 -6 0 -69 0 -69 -153 3 c-151
3 -154 3 -196 32 -23 16 -54 50 -69 75 -27 46 -27 48 -30 264 l-3 217 75 0 76
0 0 -126z m295 -24 l0 -145 -46 -3 c-34 -2 -52 2 -72 18 -27 21 -27 22 -27
151 l0 130 73 -3 72 -3 0 -145z m295 -197 c0 -342 0 -347 -22 -370 -26 -28
-67 -30 -99 -4 l-24 19 -3 338 c-1 186 0 343 2 351 4 9 27 13 76 13 l70 0 0
-347z m300 2 l0 -346 -25 -24 c-33 -34 -77 -33 -104 1 -20 26 -21 38 -21 370
l0 344 75 0 75 0 0 -345z m290 -5 c0 -337 -1 -351 -20 -370 -11 -11 -33 -20
-50 -20 -17 0 -39 9 -50 20 -19 19 -20 33 -20 370 l0 350 70 0 70 0 0 -350z
m275 325 c23 -22 25 -31 25 -125 0 -94 -2 -103 -25 -125 -19 -20 -34 -25 -75
-25 l-50 0 0 150 0 150 50 0 c41 0 56 -5 75 -25z"/>
</g>
</svg>
