<?xml version="1.0" encoding="UTF-8"?>
<!DOCTYPE svg PUBLIC "-//W3C//DTD SVG 1.1//EN" "http://www.w3.org/Graphics/SVG/1.1/DTD/svg11.dtd">
<svg xmlns="http://www.w3.org/2000/svg" version="1.1" width="752px" height="752px" style="shape-rendering:geometricPrecision; text-rendering:geometricPrecision; image-rendering:optimizeQuality; fill-rule:evenodd; clip-rule:evenodd" xmlns:xlink="http://www.w3.org/1999/xlink">
<g><path style="opacity:0.944" fill="#000000" d="M 168.5,153.5 C 222.501,153.333 276.501,153.5 330.5,154C 345.01,160.534 349.51,171.367 344,186.5C 341.5,190.333 338.333,193.5 334.5,196C 327.763,197.895 320.929,199.062 314,199.5C 302.472,226.419 291.138,253.419 280,280.5C 279.565,285.907 279.232,291.24 279,296.5C 311.938,267.63 350.438,254.464 394.5,257C 450.973,262.846 493.14,290.346 521,339.5C 543.194,385.704 544.194,432.371 524,479.5C 515.826,495.68 505.326,510.18 492.5,523C 506.833,523.667 521.167,523.667 535.5,523C 540.969,519.697 546.302,516.197 551.5,512.5C 552.328,507.868 552.828,503.202 553,498.5C 553.833,496.333 555.333,494.833 557.5,494C 570.262,493.04 582.929,493.373 595.5,495C 596.126,495.75 596.626,496.584 597,497.5C 597.667,529.833 597.667,562.167 597,594.5C 596.167,595.333 595.333,596.167 594.5,597C 581.833,597.667 569.167,597.667 556.5,597C 554.951,595.786 553.785,594.286 553,592.5C 552.667,588.167 552.333,583.833 552,579.5C 547.093,575.629 541.926,572.129 536.5,569C 481.5,568.667 426.5,568.333 371.5,568C 305.861,560.672 260.694,526.505 236,465.5C 231.931,454.157 229.265,442.49 228,430.5C 225.406,380.135 222.406,329.801 219,279.5C 207.931,252.793 196.764,226.126 185.5,199.5C 174.996,200.256 165.829,197.256 158,190.5C 149.077,174.507 152.577,162.173 168.5,153.5 Z M 174.5,168.5 C 224.834,168.333 275.168,168.5 325.5,169C 331.617,172.913 331.951,177.246 326.5,182C 275.5,182.667 224.5,182.667 173.5,182C 168.532,179.578 167.532,176.078 170.5,171.5C 171.901,170.479 173.235,169.479 174.5,168.5 Z M 202.5,199.5 C 233.669,198.17 265.003,198.17 296.5,199.5C 285.37,226.058 274.537,252.724 264,279.5C 261.574,323.838 259.074,368.171 256.5,412.5C 258.804,467.475 284.804,506.475 334.5,529.5C 339.392,535.445 345.725,538.445 353.5,538.5C 375.173,538.528 396.84,538.362 418.5,538C 423.914,536.59 428.247,533.59 431.5,529C 468.689,512.469 493.189,484.636 505,445.5C 517.25,387.223 499.416,340.723 451.5,306C 415.728,284.614 378.061,280.614 338.5,294C 312.621,303.885 292.121,320.385 277,343.5C 276.565,335.48 276.899,327.48 278,319.5C 322.944,273.725 375.777,261.558 436.5,283C 497.24,312.285 525.74,360.785 522,428.5C 512.864,486.631 480.698,525.798 425.5,546C 368.195,561.552 319.028,548.052 278,505.5C 256.773,480.84 245.106,452.173 243,419.5C 240.666,371.814 237.999,324.148 235,276.5C 224.239,250.692 213.406,225.025 202.5,199.5 Z M 380.5,301.5 C 400.391,301.639 419.058,306.473 436.5,316C 429.457,318.379 424.29,322.879 421,329.5C 419.574,339.754 419.074,350.088 419.5,360.5C 414.833,360.5 410.167,360.5 405.5,360.5C 407.606,343.124 400.106,333.124 383,330.5C 371.71,331.136 364.376,336.802 361,347.5C 360.501,351.821 360.334,356.154 360.5,360.5C 355.833,360.5 351.167,360.5 346.5,360.5C 346.923,350.42 346.423,340.42 345,330.5C 342.101,323.268 336.934,318.435 329.5,316C 345.491,307.255 362.491,302.422 380.5,301.5 Z M 321.5,331.5 C 325.025,331.346 327.859,332.679 330,335.5C 330.5,343.827 330.666,352.16 330.5,360.5C 325.833,360.5 321.167,360.5 316.5,360.5C 316.334,352.826 316.5,345.159 317,337.5C 317.599,334.746 319.099,332.746 321.5,331.5 Z M 440.5,331.5 C 445.558,331.114 448.391,333.448 449,338.5C 449.5,345.826 449.666,353.159 449.5,360.5C 444.833,360.5 440.167,360.5 435.5,360.5C 435.334,352.16 435.5,343.827 436,335.5C 437.397,333.93 438.897,332.596 440.5,331.5 Z M 300.5,338.5 C 301.492,345.648 301.825,352.981 301.5,360.5C 295.887,360.582 290.554,360.582 285.5,360.5C 289.744,352.6 294.744,345.267 300.5,338.5 Z M 479.5,360.5 C 474.5,360.5 469.5,360.5 464.5,360.5C 464.334,353.159 464.5,345.826 465,338.5C 471.097,345.034 475.93,352.367 479.5,360.5 Z M 380.5,346.5 C 383.272,346.22 385.772,346.887 388,348.5C 389.354,352.363 389.854,356.363 389.5,360.5C 384.833,360.5 380.167,360.5 375.5,360.5C 375.392,356.753 375.892,353.086 377,349.5C 378.145,348.364 379.312,347.364 380.5,346.5 Z M 293.5,375.5 C 353.168,375.333 412.834,375.5 472.5,376C 487.883,378.543 494.716,387.71 493,403.5C 494.212,416.132 492.879,428.465 489,440.5C 484.682,445.576 479.182,448.409 472.5,449C 459.838,449.5 447.171,449.667 434.5,449.5C 435.741,444.823 435.741,440.157 434.5,435.5C 444.557,435.865 454.557,435.365 464.5,434C 477.828,427.837 482.328,417.67 478,403.5C 475.108,397.608 470.608,393.441 464.5,391C 411.545,389.351 358.545,389.018 305.5,390C 289.404,394.685 283.571,405.185 288,421.5C 291.528,429.032 297.361,433.532 305.5,435C 314.186,435.168 322.852,435.668 331.5,436.5C 330.311,440.817 330.311,445.15 331.5,449.5C 318.829,449.667 306.162,449.5 293.5,449C 282.104,447.936 275.604,441.769 274,430.5C 271.891,416.446 272.225,402.446 275,388.5C 278.906,380.809 285.073,376.475 293.5,375.5 Z M 316.5,405.5 C 321.167,405.5 325.833,405.5 330.5,405.5C 330.5,410.167 330.5,414.833 330.5,419.5C 325.833,419.5 321.167,419.5 316.5,419.5C 316.5,414.833 316.5,410.167 316.5,405.5 Z M 346.5,405.5 C 351.167,405.5 355.833,405.5 360.5,405.5C 360.5,410.167 360.5,414.833 360.5,419.5C 355.833,419.5 351.167,419.5 346.5,419.5C 346.5,414.833 346.5,410.167 346.5,405.5 Z M 375.5,405.5 C 380.167,405.5 384.833,405.5 389.5,405.5C 389.5,410.167 389.5,414.833 389.5,419.5C 384.833,419.5 380.167,419.5 375.5,419.5C 375.5,414.833 375.5,410.167 375.5,405.5 Z M 405.5,405.5 C 410.167,405.5 414.833,405.5 419.5,405.5C 419.5,410.167 419.5,414.833 419.5,419.5C 414.833,419.5 410.167,419.5 405.5,419.5C 405.5,414.833 405.5,410.167 405.5,405.5 Z M 435.5,405.5 C 440.167,405.5 444.833,405.5 449.5,405.5C 449.5,410.167 449.5,414.833 449.5,419.5C 444.833,419.5 440.167,419.5 435.5,419.5C 435.5,414.833 435.5,410.167 435.5,405.5 Z M 350.5,435.5 C 356.641,434.816 359.808,437.483 360,443.5C 358.287,448.038 355.12,449.538 350.5,448C 345.232,443.837 345.232,439.671 350.5,435.5 Z M 379.5,435.5 C 387.33,434.495 390.496,437.828 389,445.5C 385,450.833 381,450.833 377,445.5C 375.861,441.579 376.695,438.246 379.5,435.5 Z M 409.5,435.5 C 415.02,434.684 418.353,437.017 419.5,442.5C 417.02,448.729 412.853,450.062 407,446.5C 404.826,442.193 405.659,438.526 409.5,435.5 Z M 285.5,463.5 C 305.424,464.487 325.424,464.821 345.5,464.5C 345.5,469.167 345.5,473.833 345.5,478.5C 342.15,478.335 338.817,478.502 335.5,479C 334.069,479.465 332.903,480.299 332,481.5C 330.72,490.733 330.053,500.066 330,509.5C 310.545,498.547 295.712,483.213 285.5,463.5 Z M 361.5,464.5 C 366.167,464.5 370.833,464.5 375.5,464.5C 375.5,469.167 375.5,473.833 375.5,478.5C 370.833,478.5 366.167,478.5 361.5,478.5C 361.5,473.833 361.5,469.167 361.5,464.5 Z M 390.5,464.5 C 395.167,464.5 399.833,464.5 404.5,464.5C 404.5,469.167 404.5,473.833 404.5,478.5C 399.833,478.5 395.167,478.5 390.5,478.5C 390.5,473.833 390.5,469.167 390.5,464.5 Z M 479.5,464.5 C 469.622,483.879 455.122,498.879 436,509.5C 435.667,501.167 435.333,492.833 435,484.5C 434.315,481.943 432.815,480.109 430.5,479C 427.183,478.502 423.85,478.335 420.5,478.5C 420.5,473.833 420.5,469.167 420.5,464.5C 440.167,464.5 459.833,464.5 479.5,464.5 Z M 346.5,494.5 C 351.167,494.5 355.833,494.5 360.5,494.5C 360.666,502.174 360.5,509.841 360,517.5C 357.447,522.626 353.614,523.793 348.5,521C 347.874,520.25 347.374,519.416 347,518.5C 346.5,510.507 346.334,502.507 346.5,494.5 Z M 375.5,494.5 C 380.167,494.5 384.833,494.5 389.5,494.5C 389.666,502.507 389.5,510.507 389,518.5C 386.947,522.292 383.781,523.458 379.5,522C 378.667,521.167 377.833,520.333 377,519.5C 376.666,511.147 376.166,502.814 375.5,494.5 Z M 405.5,494.5 C 410.167,494.5 414.833,494.5 419.5,494.5C 419.666,502.507 419.5,510.507 419,518.5C 415.975,522.701 412.141,523.535 407.5,521C 406.874,520.25 406.374,519.416 406,518.5C 405.5,510.507 405.334,502.507 405.5,494.5 Z M 568.5,509.5 C 573.167,509.5 577.833,509.5 582.5,509.5C 582.5,533.833 582.5,558.167 582.5,582.5C 577.833,582.5 573.167,582.5 568.5,582.5C 568.5,558.167 568.5,533.833 568.5,509.5 Z M 551.5,531.5 C 552.822,540.675 552.822,550.008 551.5,559.5C 543.399,552.911 534.066,550.577 523.5,552.5C 523.5,547.833 523.5,543.167 523.5,538.5C 529.842,538.666 536.175,538.5 542.5,538C 545.567,535.812 548.567,533.645 551.5,531.5 Z M 474.5,538.5 C 485.833,538.5 497.167,538.5 508.5,538.5C 508.5,543.167 508.5,547.833 508.5,552.5C 489.83,552.667 471.164,552.5 452.5,552C 460.399,548.227 467.732,543.727 474.5,538.5 Z"/></g>
</svg>
