<?xml version="1.0" encoding="UTF-8"?>
<!DOCTYPE svg PUBLIC "-//W3C//DTD SVG 1.1//EN" "http://www.w3.org/Graphics/SVG/1.1/DTD/svg11.dtd">
<svg xmlns="http://www.w3.org/2000/svg" version="1.1" width="752px" height="752px" style="shape-rendering:geometricPrecision; text-rendering:geometricPrecision; image-rendering:optimizeQuality; fill-rule:evenodd; clip-rule:evenodd" xmlns:xlink="http://www.w3.org/1999/xlink">
<g><path style="opacity:0.947" fill="#000000" d="M 392.5,234.5 C 406.762,232.873 415.928,238.873 420,252.5C 420.82,305.862 420.654,359.195 419.5,412.5C 469.501,412.333 519.501,412.5 569.5,413C 584,416.833 593.167,426 597,440.5C 597.667,456.167 597.667,471.833 597,487.5C 592.759,502.74 582.925,512.24 567.5,516C 448.833,516.667 330.167,516.667 211.5,516C 180.347,510.514 161.18,492.347 154,461.5C 153.333,428.833 153.333,396.167 154,363.5C 161.053,333.113 179.886,314.947 210.5,309C 242.833,308.667 275.167,308.333 307.5,308C 329.833,294.5 352.167,281 374.5,267.5C 375.33,261.862 375.83,256.196 376,250.5C 378.778,242.22 384.278,236.887 392.5,234.5 Z M 394.5,250.5 C 398.684,249.704 401.85,251.037 404,254.5C 404.667,305.5 404.667,356.5 404,407.5C 401.839,411.124 398.672,412.291 394.5,411C 392.951,409.786 391.785,408.286 391,406.5C 390.333,356.167 390.333,305.833 391,255.5C 391.997,253.677 393.164,252.01 394.5,250.5 Z M 373.5,286.5 C 374.833,301.151 375.499,316.151 375.5,331.5C 375.333,346.5 375.167,361.5 375,376.5C 354.5,364 334,351.5 313.5,339C 279.5,338.333 245.5,338.333 211.5,339C 195.822,343.346 186.322,353.512 183,369.5C 182.333,398.167 182.333,426.833 183,455.5C 186.295,471.462 195.795,481.628 211.5,486C 325.167,486.667 438.833,486.667 552.5,486C 562.452,482.118 567.786,474.785 568.5,464C 567.634,452.467 561.634,445.134 550.5,442C 497.168,441.5 443.834,441.333 390.5,441.5C 390.5,436.833 390.5,432.167 390.5,427.5C 449.546,427.016 508.546,427.516 567.5,429C 574,431.5 578.5,436 581,442.5C 582.589,455.443 582.922,468.443 582,481.5C 580.305,491.054 574.805,497.221 565.5,500C 447.5,500.667 329.5,500.667 211.5,500C 186.896,494.062 172.73,478.562 169,453.5C 168.057,423.803 168.391,394.136 170,364.5C 176.048,343.118 189.881,329.951 211.5,325C 244.5,324.667 277.5,324.333 310.5,324C 331.861,311.991 352.861,299.491 373.5,286.5 Z M 217.5,353.5 C 223.167,353.5 228.833,353.5 234.5,353.5C 234.832,363.522 234.499,373.522 233.5,383.5C 212.736,393.176 207.236,408.509 217,429.5C 221.262,435.27 226.762,439.27 233.5,441.5C 234.499,451.478 234.832,461.478 234.5,471.5C 226.332,472.05 218.332,471.217 210.5,469C 204.797,465.632 200.963,460.799 199,454.5C 198.333,426.5 198.333,398.5 199,370.5C 202.215,361.445 208.382,355.778 217.5,353.5 Z M 250.5,353.5 C 269.17,353.333 287.836,353.5 306.5,354C 329.297,367.301 351.964,380.801 374.5,394.5C 375.496,400.463 375.829,406.463 375.5,412.5C 371.486,412.666 367.486,412.499 363.5,412C 358.031,408.697 352.698,405.197 347.5,401.5C 346.672,396.868 346.172,392.202 346,387.5C 345.167,385.333 343.667,383.833 341.5,383C 328.738,382.04 316.071,382.373 303.5,384C 302.874,384.75 302.374,385.584 302,386.5C 301.5,414.831 301.333,443.165 301.5,471.5C 284.5,471.5 267.5,471.5 250.5,471.5C 250.168,461.478 250.501,451.478 251.5,441.5C 269.613,433.272 275.779,419.605 270,400.5C 266.24,392.241 260.073,386.574 251.5,383.5C 250.501,373.522 250.168,363.522 250.5,353.5 Z M 237.5,398.5 C 253.256,398.401 258.756,405.734 254,420.5C 247.522,427.405 240.355,428.238 232.5,423C 225.906,413.014 227.573,404.848 237.5,398.5 Z M 316.5,398.5 C 321.167,398.5 325.833,398.5 330.5,398.5C 330.5,422.833 330.5,447.167 330.5,471.5C 325.833,471.5 321.167,471.5 316.5,471.5C 316.5,447.167 316.5,422.833 316.5,398.5 Z M 346.5,420.5 C 349.975,422.407 353.309,424.574 356.5,427C 362.825,427.5 369.158,427.666 375.5,427.5C 375.5,432.167 375.5,436.833 375.5,441.5C 364.934,439.577 355.601,441.911 347.5,448.5C 346.502,439.19 346.168,429.857 346.5,420.5 Z M 362.5,457.5 C 366.833,457.5 371.167,457.5 375.5,457.5C 375.5,462.167 375.5,466.833 375.5,471.5C 365.833,471.5 356.167,471.5 346.5,471.5C 346.297,469.61 346.963,468.11 348.5,467C 353.406,464.058 358.072,460.891 362.5,457.5 Z M 390.5,457.5 C 400.167,457.5 409.833,457.5 419.5,457.5C 419.5,462.167 419.5,466.833 419.5,471.5C 409.833,471.5 400.167,471.5 390.5,471.5C 390.5,466.833 390.5,462.167 390.5,457.5 Z M 435.5,457.5 C 473.168,457.333 510.835,457.5 548.5,458C 553.951,462.754 553.617,467.087 547.5,471C 510.168,471.5 472.835,471.667 435.5,471.5C 435.5,466.833 435.5,462.167 435.5,457.5 Z"/></g>
</svg>
