<?xml version="1.0" standalone="no"?>
<!DOCTYPE svg PUBLIC "-//W3C//DTD SVG 20010904//EN"
 "http://www.w3.org/TR/2001/REC-SVG-20010904/DTD/svg10.dtd">
<svg version="1.0" xmlns="http://www.w3.org/2000/svg"
 width="752.000000pt" height="752.000000pt" viewBox="0 0 752.000000 752.000000"
 preserveAspectRatio="xMidYMid meet">

<g transform="translate(0.000000,752.000000) scale(0.100000,-0.100000)"
fill="#000000" stroke="none">
<path d="M1659 5432 c-39 -20 -62 -41 -84 -77 l-30 -48 -3 -1537 -2 -1537 28
-54 c20 -39 41 -62 77 -84 l48 -30 576 -3 575 -2 54 26 c41 20 62 39 85 75
l30 49 95 0 96 0 77 -75 c99 -97 116 -98 200 -18 l59 56 59 -56 c79 -75 97
-75 173 0 l57 56 61 -56 c82 -76 102 -76 181 0 l59 56 59 -56 c83 -80 99 -78
200 18 l78 75 94 0 94 0 23 -40 c27 -48 74 -84 127 -100 28 -8 182 -10 531 -8
l491 3 48 30 c36 22 57 45 77 84 l28 53 0 1528 0 1528 -28 53 c-20 39 -41 62
-77 84 l-48 30 -517 0 -516 0 -43 -28 c-23 -16 -55 -48 -69 -72 l-27 -44 -94
-1 -94 0 -78 75 c-101 96 -117 98 -200 18 l-59 -56 -59 56 c-80 77 -102 77
-182 0 l-60 -57 -57 57 c-77 76 -97 76 -174 0 l-57 -57 -60 57 c-84 80 -101
79 -200 -18 l-77 -75 -96 0 -95 0 -30 48 c-22 36 -44 56 -84 75 l-53 27 -567
0 -567 0 -53 -28z m771 -192 l0 -70 -370 0 -370 0 0 50 c0 37 5 55 20 70 19
19 33 20 370 20 l350 0 0 -70z m420 50 c20 -20 20 -33 20 -1530 0 -1497 0
-1510 -20 -1530 -18 -18 -33 -20 -145 -20 l-125 0 0 1550 0 1550 125 0 c112 0
127 -2 145 -20z m2960 0 c15 -15 20 -33 20 -69 l0 -50 -357 -3 c-353 -3 -359
-3 -406 -27 -56 -27 -93 -72 -113 -137 -21 -70 -21 -2418 0 -2488 20 -65 57
-110 113 -137 47 -24 53 -24 406 -27 l357 -3 0 -50 c0 -36 -5 -54 -20 -69 -19
-19 -33 -20 -497 -20 -429 0 -478 2 -495 17 -17 15 -18 76 -18 1531 0 1396 1
1517 17 1534 15 17 44 18 495 18 465 0 479 -1 498 -20z m-2383 -42 l33 -32 0
-1456 0 -1456 -35 -34 -35 -34 -35 34 -35 34 0 1455 0 1455 32 33 c18 18 34
33 37 33 3 0 20 -14 38 -32z m333 -1487 l0 -1445 -37 -38 -37 -38 -38 37 -38
37 0 1445 0 1445 37 38 37 38 38 -37 38 -37 0 -1445z m262 1482 l38 -37 0
-1446 0 -1446 -40 -39 -40 -39 -35 34 -35 34 0 1455 0 1455 32 33 c18 18 34
33 37 33 3 0 22 -17 43 -37z m295 5 l33 -32 0 -1456 0 -1456 -35 -34 -35 -34
-40 39 -40 39 0 1445 0 1445 37 38 c20 21 39 38 42 38 3 0 20 -14 38 -32z
m-1152 -1488 l0 -1405 -72 -3 -73 -3 0 1411 0 1411 73 -3 72 -3 0 -1405z
m1480 0 l0 -1405 -72 -3 -73 -3 0 1411 0 1411 73 -3 72 -3 0 -1405z m-2215
1185 l0 -75 -194 0 c-107 0 -202 -3 -211 -6 -24 -9 -45 -58 -45 -104 l0 -40
-145 0 -145 0 0 150 0 150 370 0 370 0 0 -75z m3400 -1185 l0 -1261 -350 3
c-320 3 -351 5 -367 21 -17 17 -18 82 -21 1228 -1 850 1 1216 9 1230 5 11 20
24 32 29 12 5 174 9 360 9 l337 1 0 -1260z m-3402 888 l-3 -73 -145 0 -145 0
-3 73 -3 72 151 0 151 0 -3 -72z m-446 -128 c9 -89 10 -89 242 -92 l201 -3 3
-72 3 -73 -371 0 -370 0 0 145 0 145 144 0 143 0 5 -50z m448 -465 l0 -75
-199 0 c-237 0 -241 -1 -249 -93 l-4 -57 -144 0 -144 0 0 150 0 150 370 0 370
0 0 -75z m0 -295 l0 -70 -150 0 -150 0 0 70 0 70 150 0 150 0 0 -70z m-448
-127 c8 -92 12 -93 249 -93 l199 0 0 -75 0 -75 -370 0 -370 0 0 150 0 150 144
0 144 0 4 -57z m446 -465 l-3 -73 -201 -3 c-232 -3 -233 -3 -242 -92 l-5 -50
-143 0 -144 0 0 145 0 145 370 0 371 0 -3 -72z m0 -295 l3 -73 -151 0 -150 0
0 68 c0 38 3 72 7 76 4 3 70 5 147 4 l141 -3 3 -72z m-448 -113 c0 -46 21 -95
45 -104 9 -3 104 -6 211 -6 l194 0 0 -75 0 -75 -370 0 -370 0 0 150 0 150 145
0 145 0 0 -40z m450 -480 l0 -70 -350 0 c-337 0 -351 1 -370 20 -15 15 -20 33
-20 70 l0 50 370 0 370 0 0 -70z"/>
<path d="M5265 4845 c-32 -31 -32 -69 1 -102 20 -20 31 -24 57 -19 40 8 55 23
63 63 5 26 1 37 -19 57 -33 33 -71 33 -102 1z"/>
<path d="M5560 4700 c-26 -26 -26 -81 0 -105 46 -42 120 -10 120 52 0 42 -30
73 -70 73 -17 0 -39 -9 -50 -20z"/>
<path d="M5260 4548 c-43 -46 -10 -118 55 -118 36 0 75 36 75 70 0 10 -9 29
-21 44 -27 34 -79 36 -109 4z"/>
<path d="M5590 4423 c-51 -19 -68 -85 -30 -123 45 -45 120 -11 120 53 0 47
-49 85 -90 70z"/>
<path d="M5266 4257 c-33 -33 -33 -71 -1 -102 31 -32 69 -32 102 1 20 20 24
31 19 57 -8 40 -23 55 -63 63 -26 5 -37 1 -57 -19z"/>
<path d="M5562 4110 c-32 -30 -30 -82 4 -109 15 -12 34 -21 44 -21 33 0 70 39
70 74 0 64 -72 98 -118 56z"/>
<path d="M5261 3954 c-34 -43 -26 -86 19 -109 36 -19 83 -4 99 31 16 37 14 52
-14 79 -33 34 -77 33 -104 -1z"/>
<path d="M5562 3814 c-29 -20 -30 -76 -2 -104 43 -43 120 -11 120 50 0 59 -67
90 -118 54z"/>
<path d="M5285 3678 c-49 -26 -58 -69 -24 -112 27 -34 71 -35 104 -1 14 13 25
31 25 39 0 31 -24 65 -53 76 -16 5 -30 10 -31 10 -1 0 -10 -6 -21 -12z"/>
<path d="M5566 3519 c-52 -41 -22 -129 44 -129 35 0 70 38 70 77 0 34 -38 73
-70 73 -10 0 -29 -9 -44 -21z"/>
<path d="M5265 3365 c-32 -31 -32 -69 1 -102 20 -20 31 -24 57 -19 40 8 55 23
63 63 5 26 1 37 -19 57 -33 33 -71 33 -102 1z"/>
<path d="M5560 3220 c-26 -26 -26 -81 0 -105 46 -42 120 -10 120 52 0 42 -30
73 -70 73 -17 0 -39 -9 -50 -20z"/>
<path d="M5260 3068 c-43 -46 -10 -118 55 -118 36 0 75 36 75 70 0 10 -9 29
-21 44 -27 34 -79 36 -109 4z"/>
<path d="M5590 2943 c-51 -19 -68 -85 -30 -123 45 -45 120 -11 120 53 0 47
-49 85 -90 70z"/>
<path d="M5266 2777 c-33 -33 -33 -71 -1 -102 31 -32 69 -32 102 1 20 20 24
31 19 57 -8 40 -23 55 -63 63 -26 5 -37 1 -57 -19z"/>
</g>
</svg>
