<?xml version="1.0" encoding="UTF-8"?>
<!DOCTYPE svg PUBLIC "-//W3C//DTD SVG 1.1//EN" "http://www.w3.org/Graphics/SVG/1.1/DTD/svg11.dtd">
<svg xmlns="http://www.w3.org/2000/svg" version="1.1" width="752px" height="752px" style="shape-rendering:geometricPrecision; text-rendering:geometricPrecision; image-rendering:optimizeQuality; fill-rule:evenodd; clip-rule:evenodd" xmlns:xlink="http://www.w3.org/1999/xlink">
<g><path style="opacity:0.946" fill="#000000" d="M 283.5,185.5 C 344.834,185.333 406.168,185.5 467.5,186C 489.88,190.046 503.38,203.213 508,225.5C 508.667,325.5 508.667,425.5 508,525.5C 503.389,547.778 489.889,560.945 467.5,565C 406.167,565.667 344.833,565.667 283.5,565C 261.111,560.945 247.611,547.778 243,525.5C 242.333,425.5 242.333,325.5 243,225.5C 247.798,203.201 261.298,189.867 283.5,185.5 Z M 285.5,205.5 C 345.501,205.333 405.501,205.5 465.5,206C 477.25,208.75 484.75,215.917 488,227.5C 488.667,326.167 488.667,424.833 488,523.5C 484.75,535.083 477.25,542.25 465.5,545C 405.5,545.667 345.5,545.667 285.5,545C 273.75,542.25 266.25,535.083 263,523.5C 262.333,424.833 262.333,326.167 263,227.5C 266.429,215.903 273.929,208.57 285.5,205.5 Z M 370.5,262.5 C 389.823,262.835 396.656,272.169 391,290.5C 382.371,301.103 372.704,302.103 362,293.5C 353.803,280.03 356.637,269.697 370.5,262.5 Z M 365.5,376.5 C 400.371,374.227 422.204,389.893 431,423.5C 433.137,458.348 417.304,479.848 383.5,488C 349.609,489.765 328.442,474.265 320,441.5C 317.838,407.523 333.004,385.856 365.5,376.5 Z"/></g>
<g><path style="opacity:0.94" fill="#000000" d="M 368.5,242.5 C 400.304,242.137 415.138,257.804 413,289.5C 402.97,316.263 384.47,324.763 357.5,315C 337.572,301.542 332.406,283.708 342,261.5C 348.205,251.456 357.038,245.123 368.5,242.5 Z M 370.5,262.5 C 356.637,269.697 353.803,280.03 362,293.5C 372.704,302.103 382.371,301.103 391,290.5C 396.656,272.169 389.823,262.835 370.5,262.5 Z"/></g>
<g><path style="opacity:0.941" fill="#000000" d="M 363.5,356.5 C 403.921,353.192 431.921,370.025 447.5,407C 458.053,444.344 447.72,474.344 416.5,497C 378.799,516.633 345.299,511.133 316,480.5C 298.298,456.585 294.632,430.585 305,402.5C 316.751,377.243 336.251,361.91 363.5,356.5 Z M 365.5,376.5 C 333.004,385.856 317.838,407.523 320,441.5C 328.442,474.265 349.609,489.765 383.5,488C 417.304,479.848 433.137,458.348 431,423.5C 422.204,389.893 400.371,374.227 365.5,376.5 Z"/></g>
</svg>
