<?xml version="1.0" encoding="UTF-8"?>
<!DOCTYPE svg PUBLIC "-//W3C//DTD SVG 1.1//EN" "http://www.w3.org/Graphics/SVG/1.1/DTD/svg11.dtd">
<svg xmlns="http://www.w3.org/2000/svg" version="1.1" width="752px" height="752px" style="shape-rendering:geometricPrecision; text-rendering:geometricPrecision; image-rendering:optimizeQuality; fill-rule:evenodd; clip-rule:evenodd" xmlns:xlink="http://www.w3.org/1999/xlink">
<g><path style="opacity:0.946" fill="#000000" d="M 172.5,278.5 C 307.834,278.333 443.167,278.5 578.5,279C 587.588,280.779 593.754,285.946 597,294.5C 597.667,352.5 597.667,410.5 597,468.5C 595.786,470.049 594.286,471.215 592.5,472C 447.833,472.667 303.167,472.667 158.5,472C 156.714,471.215 155.214,470.049 154,468.5C 153.333,410.5 153.333,352.5 154,294.5C 157.482,286.016 163.648,280.683 172.5,278.5 Z M 173.5,294.5 C 196.5,294.5 219.5,294.5 242.5,294.5C 241.771,299.13 241.437,303.797 241.5,308.5C 227.496,308.333 213.496,308.5 199.5,309C 192.481,311.351 187.314,315.851 184,322.5C 182.403,336.778 182.07,351.111 183,365.5C 185.5,374.667 191.333,380.5 200.5,383C 214.163,383.5 227.829,383.667 241.5,383.5C 241.437,388.203 241.771,392.87 242.5,397.5C 217.833,397.5 193.167,397.5 168.5,397.5C 168.333,365.165 168.5,332.832 169,300.5C 169.599,297.746 171.099,295.746 173.5,294.5 Z M 262.5,294.5 C 337.834,294.333 413.167,294.5 488.5,295C 490.667,295.833 492.167,297.333 493,299.5C 493.667,330.5 493.667,361.5 493,392.5C 492.065,395.102 490.232,396.602 487.5,397C 411.776,397.991 336.11,397.657 260.5,396C 259.299,395.097 258.465,393.931 258,392.5C 257.333,361.5 257.333,330.5 258,299.5C 259.025,297.313 260.525,295.646 262.5,294.5 Z M 508.5,294.5 C 531.502,294.333 554.502,294.5 577.5,295C 578.931,295.465 580.097,296.299 581,297.5C 582.479,330.771 582.979,364.104 582.5,397.5C 557.833,397.5 533.167,397.5 508.5,397.5C 509.229,392.87 509.563,388.203 509.5,383.5C 523.171,383.667 536.837,383.5 550.5,383C 559.667,380.5 565.5,374.667 568,365.5C 568.667,352.5 568.667,339.5 568,326.5C 565.596,317.763 560.096,311.929 551.5,309C 537.504,308.5 523.504,308.333 509.5,308.5C 509.563,303.797 509.229,299.13 508.5,294.5 Z M 202.5,324.5 C 215.5,324.5 228.5,324.5 241.5,324.5C 241.5,338.833 241.5,353.167 241.5,367.5C 228.496,367.667 215.496,367.5 202.5,367C 201.333,365.833 200.167,364.667 199,363.5C 198.333,351.833 198.333,340.167 199,328.5C 199.69,326.65 200.856,325.316 202.5,324.5 Z M 291.5,324.5 C 347.501,324.333 403.501,324.5 459.5,325C 461.333,325.5 462.5,326.667 463,328.5C 463.667,340.167 463.667,351.833 463,363.5C 462.5,365.333 461.333,366.5 459.5,367C 403.5,367.667 347.5,367.667 291.5,367C 289.667,366.5 288.5,365.333 288,363.5C 287.333,351.833 287.333,340.167 288,328.5C 288.69,326.65 289.856,325.316 291.5,324.5 Z M 509.5,324.5 C 522.504,324.333 535.504,324.5 548.5,325C 550.333,325.5 551.5,326.667 552,328.5C 552.667,340.167 552.667,351.833 552,363.5C 550.833,364.667 549.667,365.833 548.5,367C 535.504,367.5 522.504,367.667 509.5,367.5C 509.5,353.167 509.5,338.833 509.5,324.5 Z M 168.5,412.5 C 306.5,412.5 444.5,412.5 582.5,412.5C 582.5,417.167 582.5,421.833 582.5,426.5C 444.5,426.5 306.5,426.5 168.5,426.5C 168.5,421.833 168.5,417.167 168.5,412.5 Z M 168.5,442.5 C 178.167,442.5 187.833,442.5 197.5,442.5C 197.5,447.167 197.5,451.833 197.5,456.5C 187.833,456.5 178.167,456.5 168.5,456.5C 168.5,451.833 168.5,447.167 168.5,442.5 Z M 213.5,442.5 C 222.833,442.5 232.167,442.5 241.5,442.5C 241.5,447.167 241.5,451.833 241.5,456.5C 232.167,456.5 222.833,456.5 213.5,456.5C 213.5,451.833 213.5,447.167 213.5,442.5 Z M 257.5,442.5 C 262.167,442.5 266.833,442.5 271.5,442.5C 271.5,447.167 271.5,451.833 271.5,456.5C 266.833,456.5 262.167,456.5 257.5,456.5C 257.5,451.833 257.5,447.167 257.5,442.5 Z M 287.5,442.5 C 296.833,442.5 306.167,442.5 315.5,442.5C 315.5,447.167 315.5,451.833 315.5,456.5C 306.167,456.5 296.833,456.5 287.5,456.5C 287.5,451.833 287.5,447.167 287.5,442.5 Z M 331.5,442.5 C 336.167,442.5 340.833,442.5 345.5,442.5C 345.5,447.167 345.5,451.833 345.5,456.5C 340.833,456.5 336.167,456.5 331.5,456.5C 331.5,451.833 331.5,447.167 331.5,442.5 Z M 361.5,442.5 C 370.833,442.5 380.167,442.5 389.5,442.5C 389.5,447.167 389.5,451.833 389.5,456.5C 380.167,456.5 370.833,456.5 361.5,456.5C 361.5,451.833 361.5,447.167 361.5,442.5 Z M 405.5,442.5 C 410.167,442.5 414.833,442.5 419.5,442.5C 419.5,447.167 419.5,451.833 419.5,456.5C 414.833,456.5 410.167,456.5 405.5,456.5C 405.5,451.833 405.5,447.167 405.5,442.5 Z M 435.5,442.5 C 444.833,442.5 454.167,442.5 463.5,442.5C 463.5,447.167 463.5,451.833 463.5,456.5C 454.167,456.5 444.833,456.5 435.5,456.5C 435.5,451.833 435.5,447.167 435.5,442.5 Z M 479.5,442.5 C 484.167,442.5 488.833,442.5 493.5,442.5C 493.5,447.167 493.5,451.833 493.5,456.5C 488.833,456.5 484.167,456.5 479.5,456.5C 479.5,451.833 479.5,447.167 479.5,442.5 Z M 509.5,442.5 C 518.833,442.5 528.167,442.5 537.5,442.5C 537.5,447.167 537.5,451.833 537.5,456.5C 528.167,456.5 518.833,456.5 509.5,456.5C 509.5,451.833 509.5,447.167 509.5,442.5 Z M 553.5,442.5 C 563.167,442.5 572.833,442.5 582.5,442.5C 582.5,447.167 582.5,451.833 582.5,456.5C 572.833,456.5 563.167,456.5 553.5,456.5C 553.5,451.833 553.5,447.167 553.5,442.5 Z"/></g>
<g><path style="opacity:0.925" fill="#000000" d="M 288.5,308.5 C 346.501,308.333 404.501,308.5 462.5,309C 471.333,311.167 476.833,316.667 479,325.5C 479.667,339.167 479.667,352.833 479,366.5C 476.071,375.096 470.237,380.596 461.5,383C 402.789,383.984 344.122,383.651 285.5,382C 278.851,378.686 274.351,373.519 272,366.5C 271.333,352.833 271.333,339.167 272,325.5C 274.349,316.652 279.849,310.986 288.5,308.5 Z M 291.5,324.5 C 289.856,325.316 288.69,326.65 288,328.5C 287.333,340.167 287.333,351.833 288,363.5C 288.5,365.333 289.667,366.5 291.5,367C 347.5,367.667 403.5,367.667 459.5,367C 461.333,366.5 462.5,365.333 463,363.5C 463.667,351.833 463.667,340.167 463,328.5C 462.5,326.667 461.333,325.5 459.5,325C 403.501,324.5 347.501,324.333 291.5,324.5 Z"/></g>
<g><path style="opacity:0.877" fill="#000000" d="M 216.5,338.5 C 227.25,337.757 230.25,342.257 225.5,352C 215.961,355.66 211.794,352.493 213,342.5C 213.69,340.65 214.856,339.316 216.5,338.5 Z"/></g>
<g><path style="opacity:0.877" fill="#000000" d="M 526.5,338.5 C 537.528,337.401 540.861,341.901 536.5,352C 526.32,355.66 522.154,352.16 524,341.5C 525.045,340.627 525.878,339.627 526.5,338.5 Z"/></g>
</svg>
