<?xml version="1.0" encoding="UTF-8"?>
<!DOCTYPE svg PUBLIC "-//W3C//DTD SVG 1.1//EN" "http://www.w3.org/Graphics/SVG/1.1/DTD/svg11.dtd">
<svg xmlns="http://www.w3.org/2000/svg" version="1.1" width="752px" height="752px" style="shape-rendering:geometricPrecision; text-rendering:geometricPrecision; image-rendering:optimizeQuality; fill-rule:evenodd; clip-rule:evenodd" xmlns:xlink="http://www.w3.org/1999/xlink">
<g><path style="opacity:0.96" fill="#000000" d="M 471.5,169.5 C 476.449,168.959 481.116,169.792 485.5,172C 489.333,175.833 493.167,179.667 497,183.5C 500.167,180.333 503.333,177.167 506.5,174C 514.167,173.333 521.833,173.333 529.5,174C 543,187.5 556.5,201 570,214.5C 570.667,222.5 570.667,230.5 570,238.5C 566.984,241.349 564.15,244.349 561.5,247.5C 566.564,252.394 571.064,257.727 575,263.5C 575.717,280.781 567.884,286.614 551.5,281C 547.833,277.333 544.167,273.667 540.5,270C 539.833,269.333 539.167,269.333 538.5,270C 503,305.5 467.5,341 432,376.5C 433.597,381.735 435.264,387.068 437,392.5C 438.819,403.889 436.819,414.555 431,424.5C 425.756,432.414 419.756,439.748 413,446.5C 411.333,449.833 409.667,453.167 408,456.5C 406.138,466.421 404.805,476.421 404,486.5C 399.975,501.218 393.308,514.551 384,526.5C 371.796,541.704 357.963,555.204 342.5,567C 318.028,580.546 292.361,583.212 265.5,575C 216.599,558.432 184.099,525.599 168,476.5C 158.893,443.689 165.227,414.356 187,388.5C 202.157,372.331 219.324,358.831 238.5,348C 252.078,341.488 266.411,338.488 281.5,339C 293.205,336.313 302.872,330.313 310.5,321C 327.887,306.307 346.887,303.641 367.5,313C 403,277.5 438.5,242 474,206.5C 474.667,205.833 474.667,205.167 474,204.5C 470.667,201.167 467.333,197.833 464,194.5C 458.322,183.519 460.822,175.185 471.5,169.5 Z M 517.5,206.5 C 524.479,212.812 531.146,219.479 537.5,226.5C 531.181,233.319 524.681,239.986 518,246.5C 511.319,239.986 504.819,233.319 498.5,226.5C 504.855,219.813 511.188,213.146 517.5,206.5 Z M 475.5,249.5 C 482.911,255.405 489.911,261.905 496.5,269C 464.028,300.472 431.861,332.305 400,364.5C 399.699,370.52 399.199,376.52 398.5,382.5C 399.974,386.825 402.141,390.825 405,394.5C 407.351,400.728 406.351,406.395 402,411.5C 382.535,429.872 373.202,452.539 374,479.5C 364.589,504.257 349.089,524.424 327.5,540C 306.081,552.22 284.414,552.553 262.5,541C 228.786,524.734 206.952,498.567 197,462.5C 192.986,443.571 196.986,426.571 209,411.5C 220.329,399.496 232.829,388.996 246.5,380C 258.099,372.6 270.765,369.267 284.5,370C 303.245,366.796 318.912,358.13 331.5,344C 335.879,340.318 340.879,338.651 346.5,339C 351.893,341.114 357.06,343.614 362,346.5C 368.143,345.772 374.309,345.272 380.5,345C 412.368,313.299 444.035,281.465 475.5,249.5 Z M 305.5,419.5 C 314.846,419.993 320.18,424.826 321.5,434C 320.683,442.817 315.849,447.651 307,448.5C 294.531,445.552 290.531,438.219 295,426.5C 297.701,422.748 301.201,420.415 305.5,419.5 Z"/></g>
<g><path style="opacity:0.962" fill="#000000" d="M 300.5,389.5 C 331.245,388.749 348.578,403.583 352.5,434C 348.245,465.592 330.245,480.258 298.5,478C 272.131,470.451 260.298,452.951 263,425.5C 267.875,405.457 280.375,393.457 300.5,389.5 Z M 305.5,419.5 C 301.201,420.415 297.701,422.748 295,426.5C 290.531,438.219 294.531,445.552 307,448.5C 315.849,447.651 320.683,442.817 321.5,434C 320.18,424.826 314.846,419.993 305.5,419.5 Z"/></g>
<g><path style="opacity:0.94" fill="#000000" d="M 228.5,471.5 C 233.777,470.931 238.777,471.765 243.5,474C 251.333,481.833 259.167,489.667 267,497.5C 272.256,506.64 270.756,514.473 262.5,521C 257.5,523 252.5,523 247.5,521C 236.589,512.091 227.089,501.924 219,490.5C 217.411,481.678 220.577,475.345 228.5,471.5 Z"/></g>
</svg>
