<?xml version="1.0" encoding="UTF-8"?>
<!DOCTYPE svg PUBLIC "-//W3C//DTD SVG 1.1//EN" "http://www.w3.org/Graphics/SVG/1.1/DTD/svg11.dtd">
<svg xmlns="http://www.w3.org/2000/svg" version="1.1" width="752px" height="752px" style="shape-rendering:geometricPrecision; text-rendering:geometricPrecision; image-rendering:optimizeQuality; fill-rule:evenodd; clip-rule:evenodd" xmlns:xlink="http://www.w3.org/1999/xlink">
<g><path style="opacity:0.899" fill="#000000" d="M 298.5,147.5 C 301.044,147.104 303.211,147.771 305,149.5C 305.5,159.494 305.666,169.494 305.5,179.5C 333.87,175.38 362.203,175.546 390.5,180C 408.737,183.202 424.57,191.035 438,203.5C 449.355,216.608 452.688,231.608 448,248.5C 444.126,259.253 438.459,268.919 431,277.5C 404.601,303.505 373.435,321.672 337.5,332C 326.967,335.133 316.301,337.633 305.5,339.5C 305.167,413.503 305.5,487.503 306.5,561.5C 313.658,563.654 317.991,568.321 319.5,575.5C 357.167,575.5 394.833,575.5 432.5,575.5C 434.009,568.321 438.342,563.654 445.5,561.5C 446.498,552.19 446.832,542.857 446.5,533.5C 413.392,531.061 382.726,521.227 354.5,504C 342.797,496.299 333.964,486.132 328,473.5C 325.676,465.651 325.009,457.651 326,449.5C 327.168,433.818 328.501,418.152 330,402.5C 332.053,393.223 336.553,385.39 343.5,379C 360.625,365.776 379.958,357.443 401.5,354C 446.143,346.664 489.476,351.331 531.5,368C 548.464,375.219 562.964,385.719 575,399.5C 581.145,407.601 584.312,416.767 584.5,427C 583.226,446.568 581.392,466.068 579,485.5C 575.767,495.446 569.933,503.612 561.5,510C 537.485,525.259 511.152,533.259 482.5,534C 473.84,534.5 465.173,534.666 456.5,534.5C 456.168,543.525 456.502,552.525 457.5,561.5C 463.5,564.167 467.833,568.5 470.5,574.5C 501.5,575.833 532.5,575.833 563.5,574.5C 568.711,563.061 577.377,558.894 589.5,562C 602.697,568.929 605.864,579.096 599,592.5C 593.164,599.779 585.664,602.279 576.5,600C 569.477,597.482 565.143,592.648 563.5,585.5C 532.5,585.5 501.5,585.5 470.5,585.5C 468.027,595.3 461.693,600.3 451.5,600.5C 441.332,600.33 434.999,595.33 432.5,585.5C 394.833,585.5 357.167,585.5 319.5,585.5C 317.001,595.33 310.668,600.33 300.5,600.5C 290.307,600.3 283.973,595.3 281.5,585.5C 249.833,585.5 218.167,585.5 186.5,585.5C 184.857,592.648 180.523,597.482 173.5,600C 162.18,602.679 154.013,598.846 149,588.5C 145.323,572.675 151.489,563.342 167.5,560.5C 176.657,561.322 182.99,565.989 186.5,574.5C 195.81,575.498 205.143,575.832 214.5,575.5C 214.5,564.167 214.5,552.833 214.5,541.5C 200.829,541.667 187.163,541.5 173.5,541C 168.333,539.167 164.833,535.667 163,530.5C 162.333,490.167 162.333,449.833 163,409.5C 164.406,404.427 167.572,400.927 172.5,399C 203.5,398.333 234.5,398.333 265.5,399C 271.616,401.451 275.116,405.951 276,412.5C 276.976,452.213 276.643,491.88 275,531.5C 273.073,536.428 269.573,539.594 264.5,541C 251.171,541.5 237.837,541.667 224.5,541.5C 224.5,552.833 224.5,564.167 224.5,575.5C 243.512,575.833 262.512,575.5 281.5,574.5C 284.167,568.5 288.5,564.167 294.5,561.5C 295.5,488.17 295.833,414.836 295.5,341.5C 267.413,345.908 239.413,345.408 211.5,340C 193.776,336.391 178.609,328.224 166,315.5C 152.712,296.745 152.046,277.411 164,257.5C 176.96,239.209 193.126,224.375 212.5,213C 238.238,198.531 265.571,188.197 294.5,182C 295.321,171.577 295.821,161.077 296,150.5C 296.698,149.309 297.531,148.309 298.5,147.5 Z M 332.5,186.5 C 358.185,184.502 383.185,187.669 407.5,196C 443.965,213.37 449.465,237.87 424,269.5C 401.99,291.598 376.157,307.765 346.5,318C 304.935,333.53 262.269,337.863 218.5,331C 200.858,327.764 185.691,319.93 173,307.5C 164.329,295.12 163.329,282.12 170,268.5C 178.69,252.808 190.524,239.975 205.5,230C 233.053,211.756 263.053,199.256 295.5,192.5C 295.666,202.839 295.5,213.172 295,223.5C 283.189,226.656 272.356,231.823 262.5,239C 252.329,246.835 249.496,256.668 254,268.5C 262.701,277.517 273.368,281.517 286,280.5C 307.903,280.426 326.903,273.092 343,258.5C 354.181,240.343 349.348,228.51 328.5,223C 320.971,221.392 313.471,221.225 306,222.5C 305.168,211.818 305.334,201.151 306.5,190.5C 315.253,188.87 323.92,187.537 332.5,186.5 Z M 309.5,231.5 C 317.404,231.151 325.071,232.317 332.5,235C 339.709,238.936 340.876,244.102 336,250.5C 321.947,263.413 305.28,270.079 286,270.5C 279.159,270.399 272.659,268.899 266.5,266C 260.412,261.739 259.912,256.906 265,251.5C 273.214,243.139 283.047,237.473 294.5,234.5C 295.331,241.142 295.831,247.809 296,254.5C 298.528,258.085 301.528,258.418 305,255.5C 305.5,247.841 305.666,240.174 305.5,232.5C 307.099,232.768 308.432,232.434 309.5,231.5 Z M 430.5,360.5 C 470.546,358.874 508.213,367.374 543.5,386C 556.053,392.886 565.553,402.72 572,415.5C 575.433,424.123 574.767,432.457 570,440.5C 561.807,451.351 551.307,459.184 538.5,464C 489.548,479.854 440.881,478.854 392.5,461C 375.244,454.73 360.41,444.897 348,431.5C 334.745,412.334 337.578,395.834 356.5,382C 369.425,373.8 383.425,368.133 398.5,365C 409.257,363.058 419.923,361.558 430.5,360.5 Z M 428.5,392.5 C 455.283,391.159 481.283,394.993 506.5,404C 513.934,406.795 520.434,410.962 526,416.5C 529.516,422.025 528.35,426.525 522.5,430C 512.451,435.144 501.784,438.144 490.5,439C 465.719,441.209 441.386,438.876 417.5,432C 405.717,428.862 395.55,423.029 387,414.5C 384.771,409.758 385.938,405.925 390.5,403C 402.603,397.021 415.269,393.521 428.5,392.5 Z M 176.5,408.5 C 205.169,408.333 233.835,408.5 262.5,409C 263.333,409.833 264.167,410.667 265,411.5C 265.667,450.5 265.667,489.5 265,528.5C 264.5,529 264,529.5 263.5,530C 234.586,531.65 205.586,531.983 176.5,531C 175.5,530.167 174.5,529.333 173.5,528.5C 172.34,489.875 172.173,451.208 173,412.5C 173.69,410.65 174.856,409.316 176.5,408.5 Z M 337.5,435.5 C 351.635,451.766 368.968,463.599 389.5,471C 434.398,486.992 480.065,489.658 526.5,479C 543.439,474.949 558.272,467.116 571,455.5C 574.278,474.27 568.778,489.77 554.5,502C 537.736,512.812 519.402,519.479 499.5,522C 460.742,527.114 423.075,522.78 386.5,509C 369.079,502.05 354.246,491.55 342,477.5C 337.988,471.637 335.821,465.137 335.5,458C 336.25,450.501 336.917,443.001 337.5,435.5 Z M 220.5,449.5 C 228.167,449.5 235.833,449.5 243.5,449.5C 243.5,462.833 243.5,476.167 243.5,489.5C 235.833,489.5 228.167,489.5 220.5,489.5C 220.5,476.167 220.5,462.833 220.5,449.5 Z M 163.5,571.5 C 170.994,570.493 175.66,573.659 177.5,581C 173.461,591.642 167.295,593.142 159,585.5C 156.773,579.623 158.273,574.956 163.5,571.5 Z M 296.5,571.5 C 307.311,570.47 311.477,575.136 309,585.5C 300.357,593.251 294.19,591.584 290.5,580.5C 291.745,576.935 293.745,573.935 296.5,571.5 Z M 447.5,571.5 C 454.994,570.493 459.66,573.659 461.5,581C 459.349,589.241 454.349,591.907 446.5,589C 439.78,582.765 440.114,576.931 447.5,571.5 Z M 579.5,571.5 C 589.754,571.036 593.587,575.703 591,585.5C 584.833,592.412 579.167,592.079 574,584.5C 573.333,581.833 573.333,579.167 574,576.5C 575.73,574.598 577.563,572.931 579.5,571.5 Z"/></g>
<g><path style="opacity:0.875" fill="#000000" d="M 412.5,163.5 C 444.298,166.63 462.965,183.963 468.5,215.5C 467.323,221.568 464.156,222.902 459,219.5C 456.477,199.324 445.977,185.157 427.5,177C 421.836,175.383 416.336,173.549 411,171.5C 410.109,168.502 410.609,165.836 412.5,163.5 Z"/></g>
<g><path style="opacity:0.884" fill="#000000" d="M 162.5,334.5 C 164.527,334.338 166.527,334.505 168.5,335C 187.388,349.075 208.721,356.408 232.5,357C 241.511,357.273 250.511,357.273 259.5,357C 263.072,359.626 263.405,362.626 260.5,366C 235.187,369.336 210.521,366.669 186.5,358C 178.347,354.426 170.68,350.093 163.5,345C 159.842,341.862 159.509,338.362 162.5,334.5 Z"/></g>
<g><path style="opacity:0.892" fill="#000000" d="M 424.5,382.5 C 453.643,380.547 481.977,384.38 509.5,394C 518.732,397.53 526.898,402.696 534,409.5C 541.164,420.355 539.664,429.855 529.5,438C 517.966,444.301 505.633,447.967 492.5,449C 463.891,451.784 435.891,448.784 408.5,440C 397.099,436.222 387.266,430.056 379,421.5C 372.523,407.599 376.356,397.432 390.5,391C 401.594,386.687 412.927,383.854 424.5,382.5 Z M 428.5,392.5 C 415.269,393.521 402.603,397.021 390.5,403C 385.938,405.925 384.771,409.758 387,414.5C 395.55,423.029 405.717,428.862 417.5,432C 441.386,438.876 465.719,441.209 490.5,439C 501.784,438.144 512.451,435.144 522.5,430C 528.35,426.525 529.516,422.025 526,416.5C 520.434,410.962 513.934,406.795 506.5,404C 481.283,394.993 455.283,391.159 428.5,392.5 Z"/></g>
<g><path style="opacity:0.815" fill="#000000" d="M 190.5,438.5 C 197.574,439.482 199.24,442.982 195.5,449C 188.495,450.324 185.995,447.49 188,440.5C 188.995,439.934 189.828,439.267 190.5,438.5 Z"/></g>
<g><path style="opacity:0.925" fill="#000000" d="M 213.5,439.5 C 225.838,439.333 238.171,439.5 250.5,440C 251.416,440.374 252.25,440.874 253,441.5C 253.667,460.167 253.667,478.833 253,497.5C 252.5,498 252,498.5 251.5,499C 238.5,499.667 225.5,499.667 212.5,499C 212,498.5 211.5,498 211,497.5C 210.333,479.167 210.333,460.833 211,442.5C 211.698,441.309 212.531,440.309 213.5,439.5 Z M 220.5,449.5 C 220.5,462.833 220.5,476.167 220.5,489.5C 228.167,489.5 235.833,489.5 243.5,489.5C 243.5,476.167 243.5,462.833 243.5,449.5C 235.833,449.5 228.167,449.5 220.5,449.5 Z"/></g>
<g><path style="opacity:0.797" fill="#000000" d="M 189.5,464.5 C 197.558,464.145 199.558,467.479 195.5,474.5C 188.478,476.309 185.978,473.642 188,466.5C 188.717,465.956 189.217,465.289 189.5,464.5 Z"/></g>
<g><path style="opacity:0.798" fill="#000000" d="M 190.5,489.5 C 196.546,489.573 198.713,492.573 197,498.5C 189.478,502.325 186.478,499.992 188,491.5C 188.995,490.934 189.828,490.267 190.5,489.5 Z"/></g>
</svg>
