<?xml version="1.0" encoding="UTF-8"?>
<!DOCTYPE svg PUBLIC "-//W3C//DTD SVG 1.1//EN" "http://www.w3.org/Graphics/SVG/1.1/DTD/svg11.dtd">
<svg xmlns="http://www.w3.org/2000/svg" version="1.1" width="752px" height="752px" style="shape-rendering:geometricPrecision; text-rendering:geometricPrecision; image-rendering:optimizeQuality; fill-rule:evenodd; clip-rule:evenodd" xmlns:xlink="http://www.w3.org/1999/xlink">
<g><path style="opacity:0.956" fill="#000000" d="M 183.5,264.5 C 232.501,264.333 281.501,264.5 330.5,265C 342.914,270.311 348.247,279.811 346.5,293.5C 350.911,293.021 355.078,293.688 359,295.5C 359.667,296.833 360.333,298.167 361,299.5C 361.167,305.167 361.333,310.833 361.5,316.5C 361.627,322.937 361.127,329.27 360,335.5C 359.167,336.333 358.333,337.167 357.5,338C 353.514,338.499 349.514,338.666 345.5,338.5C 345.563,343.203 345.229,347.87 344.5,352.5C 365.167,352.5 385.833,352.5 406.5,352.5C 405.771,347.87 405.437,343.203 405.5,338.5C 401.486,338.666 397.486,338.499 393.5,338C 392.667,337.167 391.833,336.333 391,335.5C 389.873,329.27 389.373,322.937 389.5,316.5C 389.667,310.833 389.833,305.167 390,299.5C 390.685,296.943 392.185,295.109 394.5,294C 397.817,293.502 401.15,293.335 404.5,293.5C 402.753,279.811 408.086,270.311 420.5,265C 469.5,264.333 518.5,264.333 567.5,265C 579.903,270.286 585.236,279.786 583.5,293.5C 588.765,292.571 593.265,293.904 597,297.5C 597.667,310.167 597.667,322.833 597,335.5C 596.167,336.333 595.333,337.167 594.5,338C 590.514,338.499 586.514,338.666 582.5,338.5C 579.559,372.465 577.059,406.465 575,440.5C 571.544,450.783 564.377,456.45 553.5,457.5C 553.943,466.608 553.443,475.608 552,484.5C 551.25,485.126 550.416,485.626 549.5,486C 536.833,486.667 524.167,486.667 511.5,486C 511,485.5 510.5,485 510,484.5C 508.557,475.608 508.057,466.608 508.5,457.5C 498.833,457.5 489.167,457.5 479.5,457.5C 479.943,466.608 479.443,475.608 478,484.5C 477.25,485.126 476.416,485.626 475.5,486C 462.833,486.667 450.167,486.667 437.5,486C 437,485.5 436.5,485 436,484.5C 434.557,475.608 434.057,466.608 434.5,457.5C 417.471,454.819 410.138,444.819 412.5,427.5C 388.167,427.5 363.833,427.5 339.5,427.5C 341.152,440.704 336.152,450.204 324.5,456C 321.883,456.822 319.216,457.322 316.5,457.5C 316.943,466.608 316.443,475.608 315,484.5C 314.5,485 314,485.5 313.5,486C 300.833,486.667 288.167,486.667 275.5,486C 274.584,485.626 273.75,485.126 273,484.5C 271.557,475.608 271.057,466.608 271.5,457.5C 261.833,457.5 252.167,457.5 242.5,457.5C 242.943,466.608 242.443,475.608 241,484.5C 240.5,485 240,485.5 239.5,486C 226.833,486.667 214.167,486.667 201.5,486C 200.584,485.626 199.75,485.126 199,484.5C 197.557,475.608 197.057,466.608 197.5,457.5C 186.421,456.718 179.255,451.051 176,440.5C 174.052,406.457 171.552,372.457 168.5,338.5C 164.486,338.666 160.486,338.499 156.5,338C 155.667,337.167 154.833,336.333 154,335.5C 153.333,322.833 153.333,310.167 154,297.5C 157.735,293.904 162.235,292.571 167.5,293.5C 165.892,279.696 171.225,270.029 183.5,264.5 Z M 189.5,279.5 C 234.835,279.333 280.168,279.5 325.5,280C 327.667,280.833 329.167,282.333 330,284.5C 330.498,287.482 330.665,290.482 330.5,293.5C 281.5,293.5 232.5,293.5 183.5,293.5C 183.335,290.482 183.502,287.482 184,284.5C 185.107,281.887 186.94,280.22 189.5,279.5 Z M 425.5,279.5 C 470.835,279.333 516.168,279.5 561.5,280C 564.232,280.398 566.065,281.898 567,284.5C 567.498,287.482 567.665,290.482 567.5,293.5C 518.5,293.5 469.5,293.5 420.5,293.5C 419.302,287.602 420.968,282.935 425.5,279.5 Z M 168.5,309.5 C 173.167,309.5 177.833,309.5 182.5,309.5C 182.5,314.167 182.5,318.833 182.5,323.5C 177.833,323.5 173.167,323.5 168.5,323.5C 168.5,318.833 168.5,314.167 168.5,309.5 Z M 198.5,309.5 C 203.167,309.5 207.833,309.5 212.5,309.5C 212.666,317.174 212.5,324.841 212,332.5C 209.447,337.626 205.614,338.793 200.5,336C 199.874,335.25 199.374,334.416 199,333.5C 198.5,325.507 198.334,317.507 198.5,309.5 Z M 228.5,309.5 C 247.833,309.5 267.167,309.5 286.5,309.5C 286.5,314.167 286.5,318.833 286.5,323.5C 267.167,323.5 247.833,323.5 228.5,323.5C 228.5,318.833 228.5,314.167 228.5,309.5 Z M 302.5,309.5 C 306.833,309.5 311.167,309.5 315.5,309.5C 315.666,317.84 315.5,326.173 315,334.5C 311,339.833 307,339.833 303,334.5C 302.5,326.173 302.334,317.84 302.5,309.5 Z M 331.5,309.5 C 336.167,309.5 340.833,309.5 345.5,309.5C 345.5,314.167 345.5,318.833 345.5,323.5C 340.833,323.5 336.167,323.5 331.5,323.5C 331.5,318.833 331.5,314.167 331.5,309.5 Z M 405.5,309.5 C 410.167,309.5 414.833,309.5 419.5,309.5C 419.5,314.167 419.5,318.833 419.5,323.5C 414.833,323.5 410.167,323.5 405.5,323.5C 405.5,318.833 405.5,314.167 405.5,309.5 Z M 435.5,309.5 C 440.167,309.5 444.833,309.5 449.5,309.5C 449.87,317.903 449.37,326.236 448,334.5C 444,339.833 440,339.833 436,334.5C 435.5,326.173 435.334,317.84 435.5,309.5 Z M 464.5,309.5 C 483.833,309.5 503.167,309.5 522.5,309.5C 522.5,314.167 522.5,318.833 522.5,323.5C 503.167,323.5 483.833,323.5 464.5,323.5C 464.5,318.833 464.5,314.167 464.5,309.5 Z M 538.5,309.5 C 543.167,309.5 547.833,309.5 552.5,309.5C 552.666,317.507 552.5,325.507 552,333.5C 549.839,337.124 546.672,338.291 542.5,337C 540.951,335.786 539.785,334.286 539,332.5C 538.5,324.841 538.334,317.174 538.5,309.5 Z M 568.5,309.5 C 573.167,309.5 577.833,309.5 582.5,309.5C 582.5,314.167 582.5,318.833 582.5,323.5C 577.833,323.5 573.167,323.5 568.5,323.5C 568.5,318.833 568.5,314.167 568.5,309.5 Z M 226.5,338.5 C 246.844,338.167 267.178,338.5 287.5,339.5C 290.167,345.5 294.5,349.833 300.5,352.5C 301.5,372.489 301.833,392.489 301.5,412.5C 272.167,412.5 242.833,412.5 213.5,412.5C 213.333,392.497 213.5,372.497 214,352.5C 220.137,349.533 224.304,344.866 226.5,338.5 Z M 463.5,338.5 C 483.844,338.167 504.178,338.5 524.5,339.5C 527.138,345.305 531.305,349.638 537,352.5C 537.5,372.497 537.667,392.497 537.5,412.5C 508.167,412.5 478.833,412.5 449.5,412.5C 449.167,392.489 449.5,372.489 450.5,352.5C 456.942,349.727 461.275,345.06 463.5,338.5 Z M 184.5,341.5 C 187.251,346.648 191.418,350.315 197,352.5C 197.5,372.497 197.667,392.497 197.5,412.5C 195.167,412.5 192.833,412.5 190.5,412.5C 188.445,388.84 186.445,365.173 184.5,341.5 Z M 328.5,341.5 C 327.79,365.046 326.124,388.712 323.5,412.5C 321.167,412.5 318.833,412.5 316.5,412.5C 316.167,392.489 316.5,372.489 317.5,352.5C 322.877,350.456 326.544,346.789 328.5,341.5 Z M 421.5,341.5 C 424.175,346.504 428.175,350.171 433.5,352.5C 434.5,372.489 434.833,392.489 434.5,412.5C 432.167,412.5 429.833,412.5 427.5,412.5C 425.225,388.867 423.225,365.201 421.5,341.5 Z M 565.5,341.5 C 564.571,365.016 562.904,388.683 560.5,412.5C 558.167,412.5 555.833,412.5 553.5,412.5C 553.333,392.497 553.5,372.497 554,352.5C 559.549,350.502 563.383,346.835 565.5,341.5 Z M 343.5,368.5 C 364.833,368.5 386.167,368.5 407.5,368.5C 408.833,383.167 410.167,397.833 411.5,412.5C 387.5,412.5 363.5,412.5 339.5,412.5C 340.833,397.833 342.167,383.167 343.5,368.5 Z M 489.5,368.5 C 496.891,367.76 503.224,369.926 508.5,375C 506.016,379.081 502.35,381.415 497.5,382C 490.674,383.169 484.841,381.335 480,376.5C 480.195,374.255 481.362,372.422 483.5,371C 485.723,370.434 487.723,369.6 489.5,368.5 Z M 191.5,427.5 C 235.5,427.5 279.5,427.5 323.5,427.5C 323.665,430.518 323.498,433.518 323,436.5C 322.167,438.667 320.667,440.167 318.5,441C 277.5,441.667 236.5,441.667 195.5,441C 193.667,440.5 192.5,439.333 192,437.5C 191.502,434.183 191.335,430.85 191.5,427.5 Z M 427.5,427.5 C 471.5,427.5 515.5,427.5 559.5,427.5C 559.665,430.85 559.498,434.183 559,437.5C 558.5,439.333 557.333,440.5 555.5,441C 514.5,441.667 473.5,441.667 432.5,441C 430.333,440.167 428.833,438.667 428,436.5C 427.502,433.518 427.335,430.518 427.5,427.5 Z M 213.5,457.5 C 218.167,457.5 222.833,457.5 227.5,457.5C 227.5,462.167 227.5,466.833 227.5,471.5C 222.833,471.5 218.167,471.5 213.5,471.5C 213.5,466.833 213.5,462.167 213.5,457.5 Z M 287.5,457.5 C 292.167,457.5 296.833,457.5 301.5,457.5C 301.5,462.167 301.5,466.833 301.5,471.5C 296.833,471.5 292.167,471.5 287.5,471.5C 287.5,466.833 287.5,462.167 287.5,457.5 Z M 449.5,457.5 C 454.167,457.5 458.833,457.5 463.5,457.5C 463.5,462.167 463.5,466.833 463.5,471.5C 458.833,471.5 454.167,471.5 449.5,471.5C 449.5,466.833 449.5,462.167 449.5,457.5 Z M 523.5,457.5 C 528.167,457.5 532.833,457.5 537.5,457.5C 537.5,462.167 537.5,466.833 537.5,471.5C 532.833,471.5 528.167,471.5 523.5,471.5C 523.5,466.833 523.5,462.167 523.5,457.5 Z"/></g>
<g><path style="opacity:0.924" fill="#000000" d="M 489.5,352.5 C 502.99,351.336 513.824,356.002 522,366.5C 526.133,380.733 521.3,390.567 507.5,396C 492.002,401.005 478.502,397.838 467,386.5C 461.04,374.179 463.873,364.346 475.5,357C 480.127,354.956 484.794,353.456 489.5,352.5 Z M 489.5,368.5 C 487.723,369.6 485.723,370.434 483.5,371C 481.362,372.422 480.195,374.255 480,376.5C 484.841,381.335 490.674,383.169 497.5,382C 502.35,381.415 506.016,379.081 508.5,375C 503.224,369.926 496.891,367.76 489.5,368.5 Z"/></g>
</svg>
