<?xml version="1.0" encoding="UTF-8"?>
<!DOCTYPE svg PUBLIC "-//W3C//DTD SVG 1.1//EN" "http://www.w3.org/Graphics/SVG/1.1/DTD/svg11.dtd">
<svg xmlns="http://www.w3.org/2000/svg" version="1.1" width="752px" height="752px" style="shape-rendering:geometricPrecision; text-rendering:geometricPrecision; image-rendering:optimizeQuality; fill-rule:evenodd; clip-rule:evenodd" xmlns:xlink="http://www.w3.org/1999/xlink">
<g><path style="opacity:0.942" fill="#000000" d="M 309.5,153.5 C 323.837,153.333 338.171,153.5 352.5,154C 360.766,156.599 365.932,162.099 368,170.5C 368.667,178.833 368.667,187.167 368,195.5C 367.304,199.893 365.304,203.56 362,206.5C 361.505,208.473 361.338,210.473 361.5,212.5C 366.167,212.5 370.833,212.5 375.5,212.5C 375.335,208.818 375.501,205.152 376,201.5C 376.374,200.584 376.874,199.75 377.5,199C 386.064,197.393 394.73,197.06 403.5,198C 417.82,203.473 422.987,213.64 419,228.5C 417.953,230.762 416.787,232.929 415.5,235C 423.153,247.122 421.82,258.122 411.5,268C 408.785,269.908 405.785,271.241 402.5,272C 395.167,272.667 387.833,272.667 380.5,272C 378.714,271.215 377.214,270.049 376,268.5C 375.501,264.848 375.335,261.182 375.5,257.5C 370.833,257.5 366.167,257.5 361.5,257.5C 362.007,262.121 361.174,266.454 359,270.5C 357.416,271.861 355.582,272.528 353.5,272.5C 353.5,282.167 353.5,291.833 353.5,301.5C 385.099,306.931 404.599,325.265 412,356.5C 412.667,366.833 412.667,377.167 412,387.5C 408.855,389.736 405.355,391.236 401.5,392C 400.667,392.833 399.833,393.667 399,394.5C 398.333,401.5 398.333,408.5 399,415.5C 400.214,417.049 401.714,418.215 403.5,419C 410.167,419.333 416.833,419.667 423.5,420C 424.667,421.167 425.833,422.333 427,423.5C 427.667,438.833 427.667,454.167 427,469.5C 418.953,514.607 392.62,542.273 348,552.5C 347.226,556.147 346.559,559.814 346,563.5C 344.967,566.033 343.133,567.699 340.5,568.5C 339.878,577.205 339.045,585.872 338,594.5C 334.743,597.428 330.909,598.262 326.5,597C 325.299,596.097 324.465,594.931 324,593.5C 323.5,585.173 323.334,576.84 323.5,568.5C 321.418,568.528 319.584,567.861 318,566.5C 316.13,561.773 314.63,556.939 313.5,552C 275.339,543.507 250.173,520.674 238,483.5C 236.615,478.239 235.615,472.906 235,467.5C 234.333,452.833 234.333,438.167 235,423.5C 236.167,422.333 237.333,421.167 238.5,420C 245.5,419.667 252.5,419.333 259.5,419C 262.108,417.622 263.608,415.455 264,412.5C 264.861,406.415 264.527,400.415 263,394.5C 259.784,391.449 255.951,389.616 251.5,389C 244.58,360.343 251.913,336.01 273.5,316C 283.775,307.864 295.442,303.031 308.5,301.5C 308.5,291.833 308.5,282.167 308.5,272.5C 301.5,272.5 294.5,272.5 287.5,272.5C 288.161,277.284 287.161,281.618 284.5,285.5C 283.5,286 282.5,286.5 281.5,287C 274.833,287.667 268.167,287.667 261.5,287C 245.527,282.901 239.361,272.734 243,256.5C 244.047,254.238 245.213,252.071 246.5,250C 238.754,237.22 240.421,225.887 251.5,216C 253.717,214.725 256.051,213.725 258.5,213C 266.833,212.333 275.167,212.333 283.5,213C 287.028,217.128 288.362,221.961 287.5,227.5C 292.167,227.5 296.833,227.5 301.5,227.5C 301.666,220.825 301.5,214.158 301,207.5C 297.644,204.124 295.31,200.124 294,195.5C 293.333,187.5 293.333,179.5 294,171.5C 295.839,162.503 301.006,156.503 309.5,153.5 Z M 314.5,168.5 C 326.268,168.043 337.935,168.543 349.5,170C 350.333,170.833 351.167,171.667 352,172.5C 352.667,179.5 352.667,186.5 352,193.5C 350.786,195.049 349.286,196.215 347.5,197C 335.736,197.957 324.07,197.623 312.5,196C 311.667,195.167 310.833,194.333 310,193.5C 309.333,186.833 309.333,180.167 310,173.5C 311.025,171.313 312.525,169.646 314.5,168.5 Z M 316.5,213.5 C 326.167,213.5 335.833,213.5 345.5,213.5C 345.5,227.833 345.5,242.167 345.5,256.5C 335.833,256.5 326.167,256.5 316.5,256.5C 316.5,242.167 316.5,227.833 316.5,213.5 Z M 390.5,213.5 C 394.911,213.021 399.078,213.688 403,215.5C 405.074,218.791 404.908,221.957 402.5,225C 398.747,226.989 394.747,227.822 390.5,227.5C 390.5,222.833 390.5,218.167 390.5,213.5 Z M 264.5,227.5 C 266.833,227.5 269.167,227.5 271.5,227.5C 271.5,232.167 271.5,236.833 271.5,241.5C 268.15,241.665 264.817,241.498 261.5,241C 255.654,234.888 256.654,230.388 264.5,227.5 Z M 361.5,227.5 C 366.167,227.5 370.833,227.5 375.5,227.5C 375.5,232.167 375.5,236.833 375.5,241.5C 370.833,241.5 366.167,241.5 361.5,241.5C 361.5,236.833 361.5,232.167 361.5,227.5 Z M 287.5,242.5 C 292.167,242.5 296.833,242.5 301.5,242.5C 301.5,247.167 301.5,251.833 301.5,256.5C 296.833,256.5 292.167,256.5 287.5,256.5C 287.5,251.833 287.5,247.167 287.5,242.5 Z M 390.5,242.5 C 394.308,242.163 397.974,242.663 401.5,244C 405.756,248.385 405.423,252.385 400.5,256C 397.183,256.498 393.85,256.665 390.5,256.5C 390.5,251.833 390.5,247.167 390.5,242.5 Z M 262.5,257.5 C 265.5,257.5 268.5,257.5 271.5,257.5C 271.5,262.167 271.5,266.833 271.5,271.5C 268.482,271.665 265.482,271.498 262.5,271C 255.914,266.507 255.914,262.007 262.5,257.5 Z M 324.5,272.5 C 329.167,272.5 333.833,272.5 338.5,272.5C 338.5,311.5 338.5,350.5 338.5,389.5C 333.833,389.5 329.167,389.5 324.5,389.5C 324.5,350.5 324.5,311.5 324.5,272.5 Z M 305.5,317.5 C 306.5,317.5 307.5,317.5 308.5,317.5C 308.333,345.502 308.5,373.502 309,401.5C 310.167,402.667 311.333,403.833 312.5,405C 324.833,405.667 337.167,405.667 349.5,405C 350.667,403.833 351.833,402.667 353,401.5C 353.5,373.502 353.667,345.502 353.5,317.5C 376.094,321.88 390.261,335.214 396,357.5C 397.525,363.813 397.692,370.146 396.5,376.5C 390.862,378.971 386.695,382.971 384,388.5C 382.443,398.106 382.109,407.772 383,417.5C 384.966,425.469 389.799,430.969 397.5,434C 402.434,435.16 407.434,435.66 412.5,435.5C 415.881,463.997 408.714,489.331 391,511.5C 379.681,522.828 366.347,530.828 351,535.5C 353.272,523.006 353.938,510.339 353,497.5C 351.833,496.333 350.667,495.167 349.5,494C 337.167,493.333 324.833,493.333 312.5,494C 311.333,495.167 310.167,496.333 309,497.5C 308.333,505.167 308.333,512.833 309,520.5C 310.005,525.518 310.672,530.518 311,535.5C 277.531,524.698 257.531,502.032 251,467.5C 250.5,456.839 250.333,446.172 250.5,435.5C 264.424,437.048 273.924,431.382 279,418.5C 279.667,409.5 279.667,400.5 279,391.5C 276.818,384.65 272.484,379.65 266,376.5C 263.718,346.376 276.885,326.71 305.5,317.5 Z M 316.5,449.5 C 326.167,449.5 335.833,449.5 345.5,449.5C 345.5,454.167 345.5,458.833 345.5,463.5C 335.833,463.5 326.167,463.5 316.5,463.5C 316.5,458.833 316.5,454.167 316.5,449.5 Z M 324.5,509.5 C 329.167,509.5 333.833,509.5 338.5,509.5C 336.853,524.054 334.353,538.387 331,552.5C 327.749,538.325 325.582,523.992 324.5,509.5 Z"/></g>
<g><path style="opacity:0.948" fill="#000000" d="M 474.5,375.5 C 487.171,375.333 499.838,375.5 512.5,376C 514.333,376.5 515.5,377.667 516,379.5C 516.667,450.833 516.667,522.167 516,593.5C 515.5,595.333 514.333,596.5 512.5,597C 499.833,597.667 487.167,597.667 474.5,597C 473.299,596.097 472.465,594.931 472,593.5C 471.502,590.183 471.335,586.85 471.5,583.5C 456.771,585.23 446.937,579.23 442,565.5C 441.333,512.833 441.333,460.167 442,407.5C 446.937,393.77 456.771,387.77 471.5,389.5C 470.803,384.36 471.803,379.693 474.5,375.5 Z M 486.5,390.5 C 491.167,390.5 495.833,390.5 500.5,390.5C 500.5,454.5 500.5,518.5 500.5,582.5C 495.833,582.5 491.167,582.5 486.5,582.5C 486.5,518.5 486.5,454.5 486.5,390.5 Z M 462.5,405.5 C 465.5,405.5 468.5,405.5 471.5,405.5C 471.5,459.5 471.5,513.5 471.5,567.5C 466.235,568.429 461.735,567.096 458,563.5C 457.333,512.167 457.333,460.833 458,409.5C 459.397,407.93 460.897,406.596 462.5,405.5 Z"/></g>
<g><path style="opacity:0.921" fill="#000000" d="M 305.5,434.5 C 304.508,434.328 303.842,434.662 303.5,435.5C 301.549,435.227 300.049,435.893 299,437.5C 294.742,451.278 289.909,464.778 284.5,478C 278.5,480 272.5,480 266.5,478C 261.967,469.433 264.467,464.266 274,462.5C 278.333,449.5 282.667,436.5 287,423.5C 288.167,422.333 289.333,421.167 290.5,420C 295.949,419.104 301.282,419.437 306.5,421C 310.695,425.956 310.361,430.456 305.5,434.5 Z"/></g>
<g><path style="opacity:0.936" fill="#000000" d="M 358.5,435.5 C 359.801,436.882 360.634,438.548 361,440.5C 361.937,452.571 361.604,464.571 360,476.5C 359.097,477.701 357.931,478.535 356.5,479C 339.5,479.667 322.5,479.667 305.5,479C 304.584,478.626 303.75,478.126 303,477.5C 301.869,470.601 301.369,463.601 301.5,456.5C 301.667,450.167 301.833,443.833 302,437.5C 302.717,436.956 303.217,436.289 303.5,435.5C 304.492,435.672 305.158,435.338 305.5,434.5C 322.503,434.667 339.503,434.5 356.5,434C 351.58,429.997 351.247,425.663 355.5,421C 361.5,419 367.5,419 373.5,421C 378.919,434.255 383.753,447.755 388,461.5C 390.227,463.199 392.727,464.532 395.5,465.5C 399.417,469.667 399.417,473.833 395.5,478C 392.625,479.065 389.625,479.565 386.5,479.5C 383.094,479.704 379.928,479.038 377,477.5C 371.939,464.317 367.272,450.984 363,437.5C 361.951,435.893 360.451,435.227 358.5,435.5 Z M 316.5,449.5 C 316.5,454.167 316.5,458.833 316.5,463.5C 326.167,463.5 335.833,463.5 345.5,463.5C 345.5,458.833 345.5,454.167 345.5,449.5C 335.833,449.5 326.167,449.5 316.5,449.5 Z"/></g>
</svg>
