<?xml version="1.0" encoding="UTF-8"?>
<!DOCTYPE svg PUBLIC "-//W3C//DTD SVG 1.1//EN" "http://www.w3.org/Graphics/SVG/1.1/DTD/svg11.dtd">
<svg xmlns="http://www.w3.org/2000/svg" version="1.1" width="752px" height="752px" style="shape-rendering:geometricPrecision; text-rendering:geometricPrecision; image-rendering:optimizeQuality; fill-rule:evenodd; clip-rule:evenodd" xmlns:xlink="http://www.w3.org/1999/xlink">
<g><path style="opacity:0.955" fill="#000000" d="M 569.5,286.5 C 582.528,284.595 591.695,289.595 597,301.5C 597.667,350.833 597.667,400.167 597,449.5C 591.704,461.565 582.538,466.399 569.5,464C 558.242,460.06 552.242,452.06 551.5,440C 524.5,431 497.5,422 470.5,413C 365.833,412.667 261.167,412.333 156.5,412C 155.667,411.167 154.833,410.333 154,409.5C 153.063,401.063 153.396,392.73 155,384.5C 167.833,374.333 180.667,364.167 193.5,354C 199.715,352.584 206.048,352.084 212.5,352.5C 210.398,340.27 215.398,335.603 227.5,338.5C 225.964,315.864 236.297,306.364 258.5,310C 260.664,310.914 262.664,312.081 264.5,313.5C 276.753,305.871 287.919,307.204 298,317.5C 301.144,324.123 302.311,331.123 301.5,338.5C 306.167,338.5 310.833,338.5 315.5,338.5C 314.044,327.803 317.377,318.97 325.5,312C 327.957,310.438 330.624,309.438 333.5,309C 356.833,308.333 380.167,308.333 403.5,309C 417.009,314.173 422.676,324.006 420.5,338.5C 437.17,338.667 453.837,338.5 470.5,338C 497.5,329 524.5,320 551.5,311C 552.444,298.918 558.444,290.751 569.5,286.5 Z M 571.5,302.5 C 576.439,301.352 579.939,303.019 582,307.5C 582.667,352.833 582.667,398.167 582,443.5C 579.447,448.626 575.614,449.793 570.5,447C 569.874,446.25 569.374,445.416 569,444.5C 568.333,398.5 568.333,352.5 569,306.5C 569.662,305.016 570.496,303.683 571.5,302.5 Z M 246.5,324.5 C 255.523,324.062 258.189,327.895 254.5,336C 248.482,339.111 244.482,337.445 242.5,331C 243.25,328.429 244.583,326.262 246.5,324.5 Z M 276.5,324.5 C 282.641,323.816 285.808,326.483 286,332.5C 283.928,337.143 280.428,338.643 275.5,337C 271.334,332.368 271.667,328.202 276.5,324.5 Z M 335.5,324.5 C 348.833,324.5 362.167,324.5 375.5,324.5C 375.5,329.167 375.5,333.833 375.5,338.5C 360.833,338.5 346.167,338.5 331.5,338.5C 330.604,333.085 331.937,328.418 335.5,324.5 Z M 390.5,324.5 C 402.167,322.167 406.833,326.833 404.5,338.5C 399.833,338.5 395.167,338.5 390.5,338.5C 390.5,333.833 390.5,329.167 390.5,324.5 Z M 550.5,327.5 C 551.833,343.152 552.499,359.152 552.5,375.5C 552.167,391.5 551.833,407.5 551.5,423.5C 537.833,418.833 524.167,414.167 510.5,409.5C 509.167,386.833 509.167,364.167 510.5,341.5C 524.007,337 537.34,332.333 550.5,327.5 Z M 490.5,347.5 C 491.5,347.5 492.5,347.5 493.5,347.5C 493.5,366.167 493.5,384.833 493.5,403.5C 487.428,401.977 481.428,400.143 475.5,398C 471.848,397.501 468.182,397.335 464.5,397.5C 464.5,382.833 464.5,368.167 464.5,353.5C 473.767,353.736 482.434,351.736 490.5,347.5 Z M 228.5,353.5 C 232.833,353.5 237.167,353.5 241.5,353.5C 241.5,368.167 241.5,382.833 241.5,397.5C 237.167,397.5 232.833,397.5 228.5,397.5C 228.5,382.833 228.5,368.167 228.5,353.5 Z M 257.5,353.5 C 262.167,353.5 266.833,353.5 271.5,353.5C 271.5,368.167 271.5,382.833 271.5,397.5C 266.833,397.5 262.167,397.5 257.5,397.5C 257.5,382.833 257.5,368.167 257.5,353.5 Z M 287.5,353.5 C 296.833,353.5 306.167,353.5 315.5,353.5C 315.828,358.875 315.495,364.208 314.5,369.5C 303.281,375.438 298.948,384.771 301.5,397.5C 296.833,397.5 292.167,397.5 287.5,397.5C 287.5,382.833 287.5,368.167 287.5,353.5 Z M 331.5,353.5 C 346.167,353.5 360.833,353.5 375.5,353.5C 375.666,358.511 375.499,363.511 375,368.5C 363.089,374.49 358.589,383.99 361.5,397C 356.177,397.499 350.844,397.666 345.5,397.5C 348.597,384.054 343.93,374.721 331.5,369.5C 331.5,364.167 331.5,358.833 331.5,353.5 Z M 390.5,353.5 C 395.167,353.5 399.833,353.5 404.5,353.5C 404.828,358.875 404.495,364.208 403.5,369.5C 401.5,370.5 399.5,371.5 397.5,372.5C 395.417,371.041 393.25,369.708 391,368.5C 390.501,363.511 390.334,358.511 390.5,353.5 Z M 420.5,353.5 C 430.167,353.5 439.833,353.5 449.5,353.5C 449.5,368.167 449.5,382.833 449.5,397.5C 444.5,397.5 439.5,397.5 434.5,397.5C 437.169,384.842 432.836,375.508 421.5,369.5C 420.505,364.208 420.172,358.875 420.5,353.5 Z M 200.5,368.5 C 204.5,368.5 208.5,368.5 212.5,368.5C 212.5,378.167 212.5,387.833 212.5,397.5C 197.833,397.5 183.167,397.5 168.5,397.5C 168.744,394.737 170.077,392.571 172.5,391C 182.021,383.636 191.355,376.136 200.5,368.5 Z M 321.5,383.5 C 329.045,383.863 331.545,387.529 329,394.5C 323.072,398.638 318.905,397.138 316.5,390C 317.283,387.062 318.95,384.896 321.5,383.5 Z M 380.5,383.5 C 387.771,383.036 390.604,386.369 389,393.5C 385,398.833 381,398.833 377,393.5C 375.581,389.082 376.748,385.749 380.5,383.5 Z M 409.5,383.5 C 415.02,382.684 418.353,385.017 419.5,390.5C 418.838,394.495 416.505,396.829 412.5,397.5C 404.547,394.351 403.547,389.684 409.5,383.5 Z"/></g>
</svg>
