<?xml version="1.0" encoding="UTF-8"?>
<!DOCTYPE svg PUBLIC "-//W3C//DTD SVG 1.1//EN" "http://www.w3.org/Graphics/SVG/1.1/DTD/svg11.dtd">
<svg xmlns="http://www.w3.org/2000/svg" version="1.1" width="752px" height="752px" style="shape-rendering:geometricPrecision; text-rendering:geometricPrecision; image-rendering:optimizeQuality; fill-rule:evenodd; clip-rule:evenodd" xmlns:xlink="http://www.w3.org/1999/xlink">
<g><path style="opacity:0.94" fill="#000000" d="M 309.5,153.5 C 323.837,153.333 338.171,153.5 352.5,154C 359.684,156.02 364.351,160.52 366.5,167.5C 389.483,165.647 399.65,175.981 397,198.5C 390.62,210.773 380.453,215.773 366.5,213.5C 364.648,219.69 360.648,224.023 354.5,226.5C 353.506,231.456 353.173,236.456 353.5,241.5C 356.518,241.335 359.518,241.502 362.5,242C 364.329,242.273 365.829,243.107 367,244.5C 368.129,251.064 368.629,257.731 368.5,264.5C 368.629,271.269 368.129,277.936 367,284.5C 365.829,285.893 364.329,286.727 362.5,287C 359.518,287.498 356.518,287.665 353.5,287.5C 353.5,292.167 353.5,296.833 353.5,301.5C 359.842,301.334 366.175,301.5 372.5,302C 373.333,302.833 374.167,303.667 375,304.5C 377.642,313.401 379.809,322.401 381.5,331.5C 395.924,333.749 405.757,341.749 411,355.5C 412.602,370.779 412.935,386.112 412,401.5C 410.151,404.677 407.318,406.177 403.5,406C 396.833,410.333 396.833,414.667 403.5,419C 412.5,419.333 421.5,419.667 430.5,420C 431.931,420.465 433.097,421.299 434,422.5C 435.113,429.759 435.613,437.092 435.5,444.5C 438.04,485.583 422.374,517.417 388.5,540C 376.07,547.199 362.737,551.699 348.5,553.5C 347.227,557.474 346.06,561.474 345,565.5C 343.758,566.872 342.258,567.872 340.5,568.5C 339.878,577.205 339.045,585.872 338,594.5C 334.743,597.428 330.909,598.262 326.5,597C 325.299,596.097 324.465,594.931 324,593.5C 323.5,585.173 323.334,576.84 323.5,568.5C 321.418,568.528 319.584,567.861 318,566.5C 316.29,562.227 314.79,557.894 313.5,553.5C 266.196,545.695 237.696,518.362 228,471.5C 227.03,454.742 227.363,438.075 229,421.5C 229.75,420.874 230.584,420.374 231.5,420C 240.833,419.667 250.167,419.333 259.5,419C 263.701,415.975 264.535,412.141 262,407.5C 259.404,405.98 256.571,405.147 253.5,405C 252.333,403.833 251.167,402.667 250,401.5C 249.333,387.833 249.333,374.167 250,360.5C 253.872,344.126 264.039,334.46 280.5,331.5C 282.375,322 284.875,312.667 288,303.5C 288.5,303 289,302.5 289.5,302C 295.825,301.5 302.158,301.334 308.5,301.5C 308.5,296.833 308.5,292.167 308.5,287.5C 303.592,288.126 299.092,287.126 295,284.5C 293.871,277.936 293.371,271.269 293.5,264.5C 293.371,257.731 293.871,251.064 295,244.5C 299.092,241.874 303.592,240.874 308.5,241.5C 308.827,236.456 308.494,231.456 307.5,226.5C 301.833,224.167 297.833,220.167 295.5,214.5C 286.857,214.507 278.857,212.34 271.5,208C 264.428,200 262.594,190.834 266,180.5C 268.659,174.508 273.159,170.675 279.5,169C 284.809,168.057 290.142,167.224 295.5,166.5C 298.304,160.025 302.971,155.691 309.5,153.5 Z M 314.5,168.5 C 325.505,168.333 336.505,168.5 347.5,169C 349.286,169.785 350.786,170.951 352,172.5C 352.667,184.5 352.667,196.5 352,208.5C 351.167,209.333 350.333,210.167 349.5,211C 337.93,212.623 326.264,212.957 314.5,212C 313.069,211.535 311.903,210.701 311,209.5C 309.375,197.596 309.042,185.596 310,173.5C 311.025,171.313 312.525,169.646 314.5,168.5 Z M 284.5,183.5 C 287.5,183.5 290.5,183.5 293.5,183.5C 293.5,188.167 293.5,192.833 293.5,197.5C 290.482,197.665 287.482,197.498 284.5,197C 277.982,192.524 277.982,188.024 284.5,183.5 Z M 368.5,183.5 C 371.518,183.335 374.518,183.502 377.5,184C 383.136,187.203 383.802,191.203 379.5,196C 375.974,197.337 372.308,197.837 368.5,197.5C 368.5,192.833 368.5,188.167 368.5,183.5 Z M 324.5,227.5 C 329.167,227.5 333.833,227.5 338.5,227.5C 338.5,232.167 338.5,236.833 338.5,241.5C 333.833,241.5 329.167,241.5 324.5,241.5C 324.5,236.833 324.5,232.167 324.5,227.5 Z M 309.5,257.5 C 323.833,257.5 338.167,257.5 352.5,257.5C 352.5,262.167 352.5,266.833 352.5,271.5C 338.167,271.5 323.833,271.5 309.5,271.5C 309.5,266.833 309.5,262.167 309.5,257.5 Z M 324.5,287.5 C 329.167,287.5 333.833,287.5 338.5,287.5C 338.5,321.5 338.5,355.5 338.5,389.5C 333.833,389.5 329.167,389.5 324.5,389.5C 324.5,355.5 324.5,321.5 324.5,287.5 Z M 300.5,316.5 C 303.167,316.5 305.833,316.5 308.5,316.5C 308.333,344.835 308.5,373.169 309,401.5C 310.167,402.667 311.333,403.833 312.5,405C 324.833,405.667 337.167,405.667 349.5,405C 350.667,403.833 351.833,402.667 353,401.5C 353.5,373.169 353.667,344.835 353.5,316.5C 356.448,316.223 359.281,316.556 362,317.5C 364.024,326.265 366.358,334.932 369,343.5C 369.903,344.701 371.069,345.535 372.5,346C 391.719,348.215 400.052,359.048 397.5,378.5C 397.167,382.833 396.833,387.167 396.5,391.5C 382.257,399.4 378.757,410.733 386,425.5C 388.989,429.491 392.822,432.324 397.5,434C 404.761,435.348 412.094,435.848 419.5,435.5C 424.245,469.11 414.245,497.277 389.5,520C 377.98,528.899 364.98,534.399 350.5,536.5C 353.245,523.639 354.078,510.639 353,497.5C 351.833,496.333 350.667,495.167 349.5,494C 337.167,493.333 324.833,493.333 312.5,494C 311.333,495.167 310.167,496.333 309,497.5C 307.969,510.63 308.803,523.63 311.5,536.5C 271.21,528.042 248.377,503.375 243,462.5C 242.5,453.506 242.334,444.506 242.5,435.5C 251,436.066 259.333,435.233 267.5,433C 280.047,424.374 282.88,413.207 276,399.5C 273.273,396.269 270.106,393.603 266.5,391.5C 265.334,381.517 265.168,371.517 266,361.5C 270.245,350.957 278.079,345.79 289.5,346C 290.931,345.535 292.097,344.701 293,343.5C 295.968,334.626 298.468,325.626 300.5,316.5 Z M 316.5,449.5 C 326.167,449.5 335.833,449.5 345.5,449.5C 345.5,454.167 345.5,458.833 345.5,463.5C 335.833,463.5 326.167,463.5 316.5,463.5C 316.5,458.833 316.5,454.167 316.5,449.5 Z M 324.5,509.5 C 329.167,509.5 333.833,509.5 338.5,509.5C 336.853,524.054 334.353,538.387 331,552.5C 327.749,538.325 325.582,523.992 324.5,509.5 Z"/></g>
<g><path style="opacity:0.96" fill="#000000" d="M 484.5,389.5 C 495.838,389.333 507.172,389.5 518.5,390C 520.286,390.785 521.786,391.951 523,393.5C 523.667,460.5 523.667,527.5 523,594.5C 522.167,595.333 521.333,596.167 520.5,597C 507.833,597.667 495.167,597.667 482.5,597C 478.904,593.265 477.571,588.765 478.5,583.5C 464.786,585.236 455.286,579.903 450,567.5C 449.333,518.5 449.333,469.5 450,420.5C 455.311,408.086 464.811,402.753 478.5,404.5C 478.335,401.15 478.502,397.817 479,394.5C 480.352,392.251 482.185,390.584 484.5,389.5 Z M 494.5,405.5 C 499.167,405.5 503.833,405.5 508.5,405.5C 508.5,464.5 508.5,523.5 508.5,582.5C 503.833,582.5 499.167,582.5 494.5,582.5C 494.5,523.5 494.5,464.5 494.5,405.5 Z M 469.5,420.5 C 472.5,420.5 475.5,420.5 478.5,420.5C 478.5,469.5 478.5,518.5 478.5,567.5C 475.482,567.665 472.482,567.498 469.5,567C 466.898,566.065 465.398,564.232 465,561.5C 464.333,516.167 464.333,470.833 465,425.5C 466.025,423.313 467.525,421.646 469.5,420.5 Z"/></g>
<g><path style="opacity:0.921" fill="#000000" d="M 283.5,419.5 C 288.959,419.103 294.292,419.603 299.5,421C 304.033,429.567 301.533,434.734 292,436.5C 287.667,449.5 283.333,462.5 279,475.5C 277.833,476.667 276.667,477.833 275.5,479C 270.833,479.667 266.167,479.667 261.5,479C 256.226,475.702 255.226,471.369 258.5,466C 261.055,464.556 263.721,463.389 266.5,462.5C 271.099,449.204 275.599,435.87 280,422.5C 281.145,421.364 282.312,420.364 283.5,419.5 Z"/></g>
<g><path style="opacity:0.913" fill="#000000" d="M 364.5,419.5 C 369.179,419.334 373.845,419.501 378.5,420C 379.931,420.465 381.097,421.299 382,422.5C 387.006,436.018 391.506,449.685 395.5,463.5C 403.662,463.498 406.828,467.498 405,475.5C 404.167,476.333 403.333,477.167 402.5,478C 397.618,479.555 392.618,479.888 387.5,479C 385.714,478.215 384.214,477.049 383,475.5C 378.667,462.5 374.333,449.5 370,436.5C 359.595,433.568 357.762,427.902 364.5,419.5 Z"/></g>
<g><path style="opacity:0.951" fill="#000000" d="M 305.5,434.5 C 322.837,434.333 340.17,434.5 357.5,435C 359.487,436.319 360.654,438.152 361,440.5C 361.937,452.571 361.604,464.571 360,476.5C 359.097,477.701 357.931,478.535 356.5,479C 338.742,479.972 321.076,479.639 303.5,478C 302.874,477.25 302.374,476.416 302,475.5C 301.333,462.833 301.333,450.167 302,437.5C 303.145,436.364 304.312,435.364 305.5,434.5 Z M 316.5,449.5 C 316.5,454.167 316.5,458.833 316.5,463.5C 326.167,463.5 335.833,463.5 345.5,463.5C 345.5,458.833 345.5,454.167 345.5,449.5C 335.833,449.5 326.167,449.5 316.5,449.5 Z"/></g>
</svg>
