<?xml version="1.0" encoding="UTF-8"?>
<!DOCTYPE svg PUBLIC "-//W3C//DTD SVG 1.1//EN" "http://www.w3.org/Graphics/SVG/1.1/DTD/svg11.dtd">
<svg xmlns="http://www.w3.org/2000/svg" version="1.1" width="752px" height="752px" style="shape-rendering:geometricPrecision; text-rendering:geometricPrecision; image-rendering:optimizeQuality; fill-rule:evenodd; clip-rule:evenodd" xmlns:xlink="http://www.w3.org/1999/xlink">
<g><path style="opacity:0.952" fill="#000000" d="M 272.5,153.5 C 341.167,153.333 409.834,153.5 478.5,154C 490.914,159.311 496.247,168.811 494.5,182.5C 498.911,182.021 503.078,182.688 507,184.5C 507.667,185.833 508.333,187.167 509,188.5C 509.167,194.167 509.333,199.833 509.5,205.5C 509.627,211.937 509.127,218.27 508,224.5C 507.167,225.333 506.333,226.167 505.5,227C 501.848,227.499 498.182,227.665 494.5,227.5C 494.5,237.167 494.5,246.833 494.5,256.5C 498.911,256.021 503.078,256.688 507,258.5C 507.667,259.833 508.333,261.167 509,262.5C 509.167,268.167 509.333,273.833 509.5,279.5C 509.627,285.937 509.127,292.27 508,298.5C 507.167,299.333 506.333,300.167 505.5,301C 501.848,301.499 498.182,301.665 494.5,301.5C 493.201,321.598 484.868,338.098 469.5,351C 451.428,360.075 440.595,374.575 437,394.5C 438.364,440.179 440.364,485.846 443,531.5C 448.474,551.725 453.141,572.058 457,592.5C 456.215,594.286 455.049,595.786 453.5,597C 401.5,597.667 349.5,597.667 297.5,597C 294.208,594.588 293.041,591.421 294,587.5C 298.667,568.833 303.333,550.167 308,531.5C 310.636,485.846 312.636,440.179 314,394.5C 310.405,374.575 299.572,360.075 281.5,351C 266.132,338.098 257.799,321.598 256.5,301.5C 252.818,301.665 249.152,301.499 245.5,301C 244.667,300.167 243.833,299.333 243,298.5C 241.873,292.27 241.373,285.937 241.5,279.5C 241.667,273.833 241.833,268.167 242,262.5C 242.685,259.943 244.185,258.109 246.5,257C 249.817,256.502 253.15,256.335 256.5,256.5C 256.5,246.833 256.5,237.167 256.5,227.5C 252.818,227.665 249.152,227.499 245.5,227C 244.667,226.167 243.833,225.333 243,224.5C 241.873,218.27 241.373,211.937 241.5,205.5C 241.667,199.833 241.833,194.167 242,188.5C 242.685,185.943 244.185,184.109 246.5,183C 249.817,182.502 253.15,182.335 256.5,182.5C 254.881,168.72 260.214,159.053 272.5,153.5 Z M 277.5,168.5 C 342.834,168.333 408.168,168.5 473.5,169C 475.667,169.833 477.167,171.333 478,173.5C 478.498,176.482 478.665,179.482 478.5,182.5C 409.833,182.5 341.167,182.5 272.5,182.5C 271.302,176.602 272.968,171.935 277.5,168.5 Z M 257.5,198.5 C 267.167,198.5 276.833,198.5 286.5,198.5C 286.5,203.167 286.5,207.833 286.5,212.5C 276.833,212.5 267.167,212.5 257.5,212.5C 257.5,207.833 257.5,203.167 257.5,198.5 Z M 302.5,198.5 C 306.833,198.5 311.167,198.5 315.5,198.5C 315.5,203.167 315.5,207.833 315.5,212.5C 311.167,212.5 306.833,212.5 302.5,212.5C 302.5,207.833 302.5,203.167 302.5,198.5 Z M 331.5,198.5 C 360.833,198.5 390.167,198.5 419.5,198.5C 419.5,203.167 419.5,207.833 419.5,212.5C 390.167,212.5 360.833,212.5 331.5,212.5C 331.5,207.833 331.5,203.167 331.5,198.5 Z M 435.5,198.5 C 440.167,198.5 444.833,198.5 449.5,198.5C 449.5,203.167 449.5,207.833 449.5,212.5C 444.833,212.5 440.167,212.5 435.5,212.5C 435.5,207.833 435.5,203.167 435.5,198.5 Z M 464.5,198.5 C 474.167,198.5 483.833,198.5 493.5,198.5C 493.5,203.167 493.5,207.833 493.5,212.5C 483.833,212.5 474.167,212.5 464.5,212.5C 464.5,207.833 464.5,203.167 464.5,198.5 Z M 272.5,227.5 C 282.167,227.5 291.833,227.5 301.5,227.5C 301.5,237.167 301.5,246.833 301.5,256.5C 291.833,256.5 282.167,256.5 272.5,256.5C 272.5,246.833 272.5,237.167 272.5,227.5 Z M 316.5,227.5 C 355.833,227.5 395.167,227.5 434.5,227.5C 434.5,237.167 434.5,246.833 434.5,256.5C 395.167,256.5 355.833,256.5 316.5,256.5C 316.5,246.833 316.5,237.167 316.5,227.5 Z M 449.5,227.5 C 459.167,227.5 468.833,227.5 478.5,227.5C 478.5,237.167 478.5,246.833 478.5,256.5C 468.833,256.5 459.167,256.5 449.5,256.5C 449.5,246.833 449.5,237.167 449.5,227.5 Z M 257.5,272.5 C 267.167,272.5 276.833,272.5 286.5,272.5C 286.5,277.167 286.5,281.833 286.5,286.5C 276.833,286.5 267.167,286.5 257.5,286.5C 257.5,281.833 257.5,277.167 257.5,272.5 Z M 302.5,272.5 C 306.833,272.5 311.167,272.5 315.5,272.5C 315.5,277.167 315.5,281.833 315.5,286.5C 311.167,286.5 306.833,286.5 302.5,286.5C 302.5,281.833 302.5,277.167 302.5,272.5 Z M 331.5,272.5 C 360.833,272.5 390.167,272.5 419.5,272.5C 419.5,277.167 419.5,281.833 419.5,286.5C 390.167,286.5 360.833,286.5 331.5,286.5C 331.5,281.833 331.5,277.167 331.5,272.5 Z M 435.5,272.5 C 440.167,272.5 444.833,272.5 449.5,272.5C 449.5,277.167 449.5,281.833 449.5,286.5C 444.833,286.5 440.167,286.5 435.5,286.5C 435.5,281.833 435.5,277.167 435.5,272.5 Z M 464.5,272.5 C 474.167,272.5 483.833,272.5 493.5,272.5C 493.5,277.167 493.5,281.833 493.5,286.5C 483.833,286.5 474.167,286.5 464.5,286.5C 464.5,281.833 464.5,277.167 464.5,272.5 Z M 272.5,301.5 C 282.839,301.334 293.172,301.5 303.5,302C 298.127,312.579 292.627,323.079 287,333.5C 278.219,324.67 273.386,314.004 272.5,301.5 Z M 329.5,301.5 C 340.52,301.168 351.52,301.501 362.5,302.5C 357,313.5 351.5,324.5 346,335.5C 340.216,324.267 334.716,312.934 329.5,301.5 Z M 388.5,301.5 C 399.52,301.168 410.52,301.501 421.5,302.5C 416,313.5 410.5,324.5 405,335.5C 399.216,324.267 393.716,312.934 388.5,301.5 Z M 447.5,302.5 C 457.653,301.506 467.986,301.172 478.5,301.5C 477.614,314.004 472.781,324.67 464,333.5C 458.471,323.105 452.971,312.772 447.5,302.5 Z M 315.5,312.5 C 321.647,322.788 327.314,333.455 332.5,344.5C 321.939,345.819 311.439,345.819 301,344.5C 305.509,333.805 310.343,323.139 315.5,312.5 Z M 434.5,312.5 C 440.059,322.615 445.392,332.949 450.5,343.5C 450.291,344.086 449.957,344.586 449.5,345C 439.151,345.832 428.817,345.666 418.5,344.5C 423.847,333.807 429.18,323.14 434.5,312.5 Z M 374.5,313.5 C 375.376,313.369 376.043,313.702 376.5,314.5C 381.5,324.5 386.5,334.5 391.5,344.5C 380.833,345.833 370.167,345.833 359.5,344.5C 364.784,334.267 369.784,323.934 374.5,313.5 Z M 318.5,362.5 C 356.331,361.336 394.331,361.169 432.5,362C 423.968,374.797 420.301,388.797 421.5,404C 390.833,404.667 360.167,404.667 329.5,404C 330.753,388.844 327.086,375.011 318.5,362.5 Z M 329.5,420.5 C 360.167,420.5 390.833,420.5 421.5,420.5C 422.713,444.528 424.046,468.528 425.5,492.5C 392.167,493.833 358.833,493.833 325.5,492.5C 326.954,468.528 328.287,444.528 329.5,420.5 Z M 325.5,509.5 C 358.833,509.5 392.167,509.5 425.5,509.5C 426.229,514.13 426.563,518.797 426.5,523.5C 392.5,523.5 358.5,523.5 324.5,523.5C 324.437,518.797 324.771,514.13 325.5,509.5 Z M 322.5,538.5 C 357.84,538.167 393.173,538.5 428.5,539.5C 432.167,553.5 435.833,567.5 439.5,581.5C 396.833,582.833 354.167,582.833 311.5,581.5C 315.326,567.197 318.992,552.863 322.5,538.5 Z"/></g>
<g><path style="opacity:0.864" fill="#000000" d="M 349.5,375.5 C 360.472,374.968 363.472,379.468 358.5,389C 349.406,392.235 345.239,389.068 346,379.5C 346.69,377.65 347.856,376.316 349.5,375.5 Z"/></g>
<g><path style="opacity:0.864" fill="#000000" d="M 393.5,375.5 C 402.791,373.702 406.624,377.368 405,386.5C 400.7,391.446 396.033,391.779 391,387.5C 388.668,382.83 389.501,378.83 393.5,375.5 Z"/></g>
</svg>
