<?xml version="1.0" encoding="UTF-8"?>
<!DOCTYPE svg PUBLIC "-//W3C//DTD SVG 1.1//EN" "http://www.w3.org/Graphics/SVG/1.1/DTD/svg11.dtd">
<svg xmlns="http://www.w3.org/2000/svg" version="1.1" width="752px" height="752px" style="shape-rendering:geometricPrecision; text-rendering:geometricPrecision; image-rendering:optimizeQuality; fill-rule:evenodd; clip-rule:evenodd" xmlns:xlink="http://www.w3.org/1999/xlink">
<g><path style="opacity:0.954" fill="#000000" d="M 257.5,153.5 C 336.167,153.333 414.834,153.5 493.5,154C 505.903,159.286 511.236,168.786 509.5,182.5C 514.765,181.571 519.265,182.904 523,186.5C 523.667,199.167 523.667,211.833 523,224.5C 522.167,225.333 521.333,226.167 520.5,227C 516.179,227.499 511.846,227.666 507.5,227.5C 498.954,269.066 489.454,310.4 479,351.5C 470.041,370.401 455.541,382.901 435.5,389C 443.397,456.74 450.564,524.574 457,592.5C 456.215,594.286 455.049,595.786 453.5,597C 401.5,597.667 349.5,597.667 297.5,597C 295.951,595.786 294.785,594.286 294,592.5C 300.436,524.574 307.603,456.74 315.5,389C 290.797,380.965 274.964,364.465 268,339.5C 259.639,302.193 251.472,264.86 243.5,227.5C 239.154,227.666 234.821,227.499 230.5,227C 229.667,226.167 228.833,225.333 228,224.5C 227.333,211.833 227.333,199.167 228,186.5C 231.735,182.904 236.235,181.571 241.5,182.5C 239.892,168.696 245.225,159.029 257.5,153.5 Z M 263.5,168.5 C 338.167,168.333 412.834,168.5 487.5,169C 490.232,169.398 492.065,170.898 493,173.5C 493.498,176.482 493.665,179.482 493.5,182.5C 414.833,182.5 336.167,182.5 257.5,182.5C 257.335,179.482 257.502,176.482 258,173.5C 259.107,170.887 260.94,169.22 263.5,168.5 Z M 242.5,198.5 C 252.506,198.334 262.506,198.5 272.5,199C 271.191,203.136 271.191,207.302 272.5,211.5C 262.522,212.499 252.522,212.832 242.5,212.5C 242.5,207.833 242.5,203.167 242.5,198.5 Z M 291.5,198.5 C 298.771,198.036 301.604,201.369 300,208.5C 296,213.833 292,213.833 288,208.5C 286.756,204.191 287.923,200.858 291.5,198.5 Z M 315.5,199.5 C 327.989,198.505 340.656,198.171 353.5,198.5C 352.259,203.157 352.259,207.823 353.5,212.5C 340.829,212.667 328.162,212.5 315.5,212C 316.822,207.733 316.822,203.566 315.5,199.5 Z M 372.5,198.5 C 378.02,197.684 381.353,200.017 382.5,205.5C 381.838,209.495 379.505,211.829 375.5,212.5C 367.547,209.351 366.547,204.684 372.5,198.5 Z M 397.5,198.5 C 410.171,198.333 422.838,198.5 435.5,199C 434.167,203.333 434.167,207.667 435.5,212C 422.838,212.5 410.171,212.667 397.5,212.5C 398.833,207.833 398.833,203.167 397.5,198.5 Z M 454.5,198.5 C 461.771,198.036 464.604,201.369 463,208.5C 459,213.833 455,213.833 451,208.5C 449.581,204.082 450.748,200.749 454.5,198.5 Z M 478.5,199.5 C 488.319,198.506 498.319,198.173 508.5,198.5C 508.5,203.167 508.5,207.833 508.5,212.5C 498.478,212.832 488.478,212.499 478.5,211.5C 479.796,207.369 479.796,203.369 478.5,199.5 Z M 259.5,227.5 C 263.167,227.5 266.833,227.5 270.5,227.5C 270.666,231.846 270.499,236.179 270,240.5C 267.619,241.435 265.119,241.768 262.5,241.5C 261.499,236.829 260.499,232.162 259.5,227.5 Z M 286.5,227.5 C 291.5,227.5 296.5,227.5 301.5,227.5C 302.229,232.13 302.563,236.797 302.5,241.5C 296.833,241.5 291.167,241.5 285.5,241.5C 286.314,236.881 286.647,232.214 286.5,227.5 Z M 317.5,227.5 C 329.167,227.5 340.833,227.5 352.5,227.5C 352.563,232.203 352.229,236.87 351.5,241.5C 340.5,241.5 329.5,241.5 318.5,241.5C 318.46,236.807 318.127,232.141 317.5,227.5 Z M 368.5,227.5 C 373.167,227.5 377.833,227.5 382.5,227.5C 382.998,232.152 383.331,236.819 383.5,241.5C 378.167,241.5 372.833,241.5 367.5,241.5C 367.669,236.819 368.002,232.152 368.5,227.5 Z M 398.5,227.5 C 410.167,227.5 421.833,227.5 433.5,227.5C 432.873,232.141 432.54,236.807 432.5,241.5C 421.5,241.5 410.5,241.5 399.5,241.5C 398.771,236.87 398.437,232.203 398.5,227.5 Z M 449.5,227.5 C 454.5,227.5 459.5,227.5 464.5,227.5C 464.353,232.214 464.686,236.881 465.5,241.5C 459.833,241.5 454.167,241.5 448.5,241.5C 448.437,236.797 448.771,232.13 449.5,227.5 Z M 480.5,227.5 C 484.226,227.177 487.893,227.511 491.5,228.5C 490.341,232.801 489.341,237.134 488.5,241.5C 485.881,241.768 483.381,241.435 481,240.5C 480.501,236.179 480.334,231.846 480.5,227.5 Z M 266.5,257.5 C 267.748,258.334 268.415,259.667 268.5,261.5C 268.333,262.833 268.167,264.167 268,265.5C 267.178,262.883 266.678,260.216 266.5,257.5 Z M 284.5,257.5 C 291.167,257.5 297.833,257.5 304.5,257.5C 306.987,286.854 309.653,316.188 312.5,345.5C 303.808,345.831 295.141,345.498 286.5,344.5C 283.418,336.255 281.418,327.755 280.5,319C 282.077,298.512 283.41,278.012 284.5,257.5 Z M 320.5,257.5 C 330.855,257.168 341.188,257.501 351.5,258.5C 349.593,287.445 348.26,316.445 347.5,345.5C 341.167,345.5 334.833,345.5 328.5,345.5C 325.534,316.204 322.867,286.87 320.5,257.5 Z M 366.5,257.5 C 372.5,257.5 378.5,257.5 384.5,257.5C 385.26,286.555 386.593,315.555 388.5,344.5C 379.833,345.833 371.167,345.833 362.5,344.5C 364.407,315.555 365.74,286.555 366.5,257.5 Z M 399.5,257.5 C 409.833,257.5 420.167,257.5 430.5,257.5C 428.133,286.87 425.466,316.204 422.5,345.5C 416.167,345.5 409.833,345.5 403.5,345.5C 402.71,316.113 401.376,286.78 399.5,257.5 Z M 446.5,257.5 C 453.167,257.5 459.833,257.5 466.5,257.5C 467.59,278.012 468.923,298.512 470.5,319C 469.582,327.755 467.582,336.255 464.5,344.5C 455.859,345.498 447.192,345.831 438.5,345.5C 441.347,316.188 444.013,286.854 446.5,257.5 Z M 482.5,257.5 C 483.586,257.62 484.253,258.287 484.5,259.5C 484,261.5 483.5,263.5 483,265.5C 482.503,262.854 482.336,260.187 482.5,257.5 Z M 299.5,362.5 C 304.015,361.188 308.682,361.188 313.5,362.5C 314.575,365.438 314.741,368.438 314,371.5C 309.017,368.671 304.183,365.671 299.5,362.5 Z M 329.5,361.5 C 335.167,361.5 340.833,361.5 346.5,361.5C 346.331,366.181 345.998,370.848 345.5,375.5C 340.767,375.777 336.1,375.443 331.5,374.5C 330.636,370.184 329.969,365.851 329.5,361.5 Z M 362.5,361.5 C 371.167,361.5 379.833,361.5 388.5,361.5C 389.229,366.13 389.563,370.797 389.5,375.5C 380.167,375.5 370.833,375.5 361.5,375.5C 361.437,370.797 361.771,366.13 362.5,361.5 Z M 404.5,361.5 C 410.167,361.5 415.833,361.5 421.5,361.5C 421.031,365.851 420.364,370.184 419.5,374.5C 414.9,375.443 410.233,375.777 405.5,375.5C 405.002,370.848 404.669,366.181 404.5,361.5 Z M 437.5,361.5 C 442.179,361.334 446.845,361.501 451.5,362C 446.937,365.56 442.104,368.727 437,371.5C 436.341,368.112 436.508,364.779 437.5,361.5 Z M 330.5,390.5 C 360.5,390.5 390.5,390.5 420.5,390.5C 421.063,399.896 422.063,409.229 423.5,418.5C 391.5,419.833 359.5,419.833 327.5,418.5C 328.937,409.229 329.937,399.896 330.5,390.5 Z M 325.5,435.5 C 358.833,435.5 392.167,435.5 425.5,435.5C 426.908,454.577 428.908,473.577 431.5,492.5C 394.167,493.833 356.833,493.833 319.5,492.5C 322.092,473.577 324.092,454.577 325.5,435.5 Z M 318.5,509.5 C 356.501,509.333 394.501,509.5 432.5,510C 433.419,514.426 434.086,518.926 434.5,523.5C 395.167,523.5 355.833,523.5 316.5,523.5C 316.951,518.763 317.618,514.097 318.5,509.5 Z M 314.5,538.5 C 355.167,538.5 395.833,538.5 436.5,538.5C 437.613,553.187 438.947,567.854 440.5,582.5C 397.167,582.5 353.833,582.5 310.5,582.5C 312.053,567.854 313.387,553.187 314.5,538.5 Z"/></g>
<g><path style="opacity:0.872" fill="#000000" d="M 343.5,552.5 C 351.696,552.529 354.863,556.529 353,564.5C 348.333,569.833 343.667,569.833 339,564.5C 337.309,559.131 338.809,555.131 343.5,552.5 Z"/></g>
<g><path style="opacity:0.822" fill="#000000" d="M 372.5,552.5 C 380.658,551.823 384.158,555.49 383,563.5C 380.774,567.861 377.274,569.361 372.5,568C 368.139,565.774 366.639,562.274 368,557.5C 369.025,555.313 370.525,553.646 372.5,552.5 Z"/></g>
<g><path style="opacity:0.873" fill="#000000" d="M 402.5,552.5 C 410.696,552.529 413.863,556.529 412,564.5C 407.333,569.833 402.667,569.833 398,564.5C 396.309,559.131 397.809,555.131 402.5,552.5 Z"/></g>
</svg>
