<?xml version="1.0" encoding="UTF-8"?>
<!DOCTYPE svg PUBLIC "-//W3C//DTD SVG 1.1//EN" "http://www.w3.org/Graphics/SVG/1.1/DTD/svg11.dtd">
<svg xmlns="http://www.w3.org/2000/svg" version="1.1" width="752px" height="752px" style="shape-rendering:geometricPrecision; text-rendering:geometricPrecision; image-rendering:optimizeQuality; fill-rule:evenodd; clip-rule:evenodd" xmlns:xlink="http://www.w3.org/1999/xlink">
<g><path style="opacity:0.962" fill="#000000" d="M 186.5,323.5 C 208.836,323.333 231.169,323.5 253.5,324C 254.667,325.167 255.833,326.333 257,327.5C 257.499,331.152 257.665,334.818 257.5,338.5C 262.167,338.5 266.833,338.5 271.5,338.5C 268.996,327.857 272.996,323.024 283.5,324C 287.028,328.128 288.362,332.961 287.5,338.5C 292.167,338.5 296.833,338.5 301.5,338.5C 301.334,334.486 301.501,330.486 302,326.5C 306.076,322.966 310.409,322.633 315,325.5C 316.367,329.7 316.867,334.033 316.5,338.5C 366.834,338.667 417.168,338.5 467.5,338C 478.938,322.626 493.271,319.293 510.5,328C 512.609,329.141 514.442,330.641 516,332.5C 524.314,324.628 534.147,321.794 545.5,324C 553.797,325.984 560.13,330.65 564.5,338C 574.5,338.333 584.5,338.667 594.5,339C 595.333,339.833 596.167,340.667 597,341.5C 597.667,364.167 597.667,386.833 597,409.5C 596.167,410.333 595.333,411.167 594.5,412C 501.834,412.5 409.167,412.667 316.5,412.5C 316.665,416.182 316.499,419.848 316,423.5C 314.607,426.366 312.274,427.699 309,427.5C 306.186,427.592 303.853,426.592 302,424.5C 301.501,420.514 301.334,416.514 301.5,412.5C 296.833,412.5 292.167,412.5 287.5,412.5C 288.362,418.039 287.028,422.872 283.5,427C 272.996,427.976 268.996,423.143 271.5,412.5C 266.833,412.5 262.167,412.5 257.5,412.5C 257.665,416.182 257.499,419.848 257,423.5C 255.833,424.667 254.667,425.833 253.5,427C 231.167,427.667 208.833,427.667 186.5,427C 184.951,425.786 183.785,424.286 183,422.5C 182.502,419.183 182.335,415.85 182.5,412.5C 173.827,412.666 165.16,412.5 156.5,412C 155.667,411.167 154.833,410.333 154,409.5C 153.333,386.833 153.333,364.167 154,341.5C 154.833,340.667 155.667,339.833 156.5,339C 165.16,338.5 173.827,338.334 182.5,338.5C 181.555,332.764 182.889,327.764 186.5,323.5 Z M 198.5,338.5 C 212.833,338.5 227.167,338.5 241.5,338.5C 241.666,347.839 241.5,357.173 241,366.5C 232.543,352.51 221.043,349.343 206.5,357C 203.238,359.592 200.738,362.759 199,366.5C 198.5,357.173 198.334,347.839 198.5,338.5 Z M 493.5,338.5 C 508.311,342.607 511.645,351.107 503.5,364C 494.544,369.627 487.044,368.127 481,359.5C 478.007,348.144 482.174,341.144 493.5,338.5 Z M 537.5,338.5 C 550.607,341.384 554.774,349.051 550,361.5C 541.697,369.715 533.697,369.382 526,360.5C 522.229,349.039 526.062,341.705 537.5,338.5 Z M 168.5,353.5 C 173.167,353.5 177.833,353.5 182.5,353.5C 182.5,368.167 182.5,382.833 182.5,397.5C 177.833,397.5 173.167,397.5 168.5,397.5C 168.5,382.833 168.5,368.167 168.5,353.5 Z M 257.5,353.5 C 262.167,353.5 266.833,353.5 271.5,353.5C 271.5,368.167 271.5,382.833 271.5,397.5C 266.833,397.5 262.167,397.5 257.5,397.5C 257.5,382.833 257.5,368.167 257.5,353.5 Z M 287.5,353.5 C 292.167,353.5 296.833,353.5 301.5,353.5C 301.5,368.167 301.5,382.833 301.5,397.5C 296.833,397.5 292.167,397.5 287.5,397.5C 287.5,382.833 287.5,368.167 287.5,353.5 Z M 316.5,353.5 C 326.522,353.168 336.522,353.501 346.5,354.5C 343.729,367.293 348.229,376.626 360,382.5C 360.499,387.489 360.666,392.489 360.5,397.5C 345.833,397.5 331.167,397.5 316.5,397.5C 316.5,382.833 316.5,368.167 316.5,353.5 Z M 366.5,353.5 C 372.67,354.162 375.17,357.495 374,363.5C 372.179,366.991 369.346,368.157 365.5,367C 359.954,362.097 360.288,357.597 366.5,353.5 Z M 396.5,353.5 C 402.618,354.118 405.118,357.452 404,363.5C 398.357,369.239 393.857,368.405 390.5,361C 391.274,357.405 393.274,354.905 396.5,353.5 Z M 425.5,353.5 C 432.545,354.286 435.045,357.952 433,364.5C 428.615,368.756 424.615,368.423 421,363.5C 420.077,359.017 421.577,355.683 425.5,353.5 Z M 449.5,353.5 C 454.167,353.5 458.833,353.5 463.5,353.5C 464.768,367.594 471.935,377.26 485,382.5C 485.499,387.489 485.666,392.489 485.5,397.5C 468.833,397.5 452.167,397.5 435.5,397.5C 435.172,392.125 435.505,386.792 436.5,381.5C 447.719,375.562 452.052,366.229 449.5,353.5 Z M 568.5,353.5 C 573.167,353.5 577.833,353.5 582.5,353.5C 582.5,368.167 582.5,382.833 582.5,397.5C 570.5,397.5 558.5,397.5 546.5,397.5C 546.334,392.489 546.501,387.489 547,382.5C 560.477,377.557 567.644,367.89 568.5,353.5 Z M 218.5,368.5 C 225.592,369.002 227.925,372.669 225.5,379.5C 219.679,383.93 215.679,382.597 213.5,375.5C 214.014,372.323 215.681,369.989 218.5,368.5 Z M 515.5,373.5 C 519.458,377.487 524.125,380.487 529.5,382.5C 530.494,387.456 530.827,392.456 530.5,397.5C 520.833,397.5 511.167,397.5 501.5,397.5C 501.173,392.456 501.506,387.456 502.5,382.5C 507.738,380.722 512.071,377.722 515.5,373.5 Z M 381.5,378.5 C 384.005,378.98 386.338,379.98 388.5,381.5C 389.495,386.792 389.828,392.125 389.5,397.5C 384.833,397.5 380.167,397.5 375.5,397.5C 375.334,392.489 375.501,387.489 376,382.5C 378.167,381.512 380,380.179 381.5,378.5 Z M 411.5,378.5 C 414.193,379.552 416.86,380.552 419.5,381.5C 419.5,386.833 419.5,392.167 419.5,397.5C 414.833,397.5 410.167,397.5 405.5,397.5C 405.5,392.167 405.5,386.833 405.5,381.5C 407.97,381.346 409.97,380.346 411.5,378.5 Z M 198.5,384.5 C 207.234,398.434 218.901,401.6 233.5,394C 236.762,391.408 239.262,388.241 241,384.5C 241.5,393.827 241.666,403.161 241.5,412.5C 227.167,412.5 212.833,412.5 198.5,412.5C 198.5,403.167 198.5,393.833 198.5,384.5 Z"/></g>
</svg>
