<?xml version="1.0" encoding="UTF-8"?>
<!DOCTYPE svg PUBLIC "-//W3C//DTD SVG 1.1//EN" "http://www.w3.org/Graphics/SVG/1.1/DTD/svg11.dtd">
<svg xmlns="http://www.w3.org/2000/svg" version="1.1" width="752px" height="752px" style="shape-rendering:geometricPrecision; text-rendering:geometricPrecision; image-rendering:optimizeQuality; fill-rule:evenodd; clip-rule:evenodd" xmlns:xlink="http://www.w3.org/1999/xlink">
<g><path style="opacity:0.949" fill="#000000" d="M 349.5,153.5 C 366.837,153.333 384.17,153.5 401.5,154C 403.333,154.5 404.5,155.667 405,157.5C 405.667,169.5 405.667,181.5 405,193.5C 403.967,196.033 402.133,197.699 399.5,198.5C 398.167,217.833 398.167,237.167 399.5,256.5C 402.133,257.301 403.967,258.967 405,261.5C 405.667,273.5 405.667,285.5 405,297.5C 403.728,300.222 401.561,301.556 398.5,301.5C 398.334,306.179 398.501,310.845 399,315.5C 401.903,316.069 403.903,317.735 405,320.5C 405.5,333.829 405.667,347.163 405.5,360.5C 410.167,360.5 414.833,360.5 419.5,360.5C 419.333,347.163 419.5,333.829 420,320.5C 421.097,317.735 423.097,316.069 426,315.5C 426.499,310.845 426.666,306.179 426.5,301.5C 423.439,301.556 421.272,300.222 420,297.5C 419.333,285.5 419.333,273.5 420,261.5C 421.033,258.967 422.867,257.301 425.5,256.5C 426.498,246.856 426.832,237.19 426.5,227.5C 423.439,227.556 421.272,226.222 420,223.5C 419.04,210.738 419.373,198.071 421,185.5C 421.903,184.299 423.069,183.465 424.5,183C 441.167,182.333 457.833,182.333 474.5,183C 475.931,183.465 477.097,184.299 478,185.5C 479.627,198.071 479.96,210.738 479,223.5C 477.728,226.222 475.561,227.556 472.5,227.5C 472.168,237.19 472.502,246.856 473.5,256.5C 476.133,257.301 477.967,258.967 479,261.5C 479.667,273.5 479.667,285.5 479,297.5C 477.728,300.222 475.561,301.556 472.5,301.5C 472.334,306.179 472.501,310.845 473,315.5C 475.903,316.069 477.903,317.735 479,320.5C 479.5,333.829 479.667,347.163 479.5,360.5C 484.167,360.5 488.833,360.5 493.5,360.5C 493.333,347.163 493.5,333.829 494,320.5C 495.097,317.735 497.097,316.069 500,315.5C 500.499,310.845 500.666,306.179 500.5,301.5C 497.439,301.556 495.272,300.222 494,297.5C 493.333,285.5 493.333,273.5 494,261.5C 495.033,258.967 496.867,257.301 499.5,256.5C 500.498,246.856 500.832,237.19 500.5,227.5C 497.439,227.556 495.272,226.222 494,223.5C 493.04,210.738 493.373,198.071 495,185.5C 495.903,184.299 497.069,183.465 498.5,183C 515.167,182.333 531.833,182.333 548.5,183C 549.931,183.465 551.097,184.299 552,185.5C 553.627,198.071 553.96,210.738 553,223.5C 551.728,226.222 549.561,227.556 546.5,227.5C 546.168,237.19 546.502,246.856 547.5,256.5C 550.133,257.301 551.967,258.967 553,261.5C 553.667,273.5 553.667,285.5 553,297.5C 551.728,300.222 549.561,301.556 546.5,301.5C 546.334,306.179 546.501,310.845 547,315.5C 549.903,316.069 551.903,317.735 553,320.5C 553.5,333.829 553.667,347.163 553.5,360.5C 575.314,358.648 589.814,367.981 597,388.5C 597.667,433.833 597.667,479.167 597,524.5C 592.759,539.74 582.925,549.24 567.5,553C 474.167,553.667 380.833,553.667 287.5,553C 270.24,549.406 260.074,538.906 257,521.5C 256.667,489.167 256.333,456.833 256,424.5C 254.833,423.333 253.667,422.167 252.5,421C 245.833,420.333 239.167,420.333 232.5,421C 231.069,421.465 229.903,422.299 229,423.5C 228.501,427.152 228.335,430.818 228.5,434.5C 232.911,434.021 237.078,434.688 241,436.5C 242.13,443.232 242.63,450.065 242.5,457C 242.333,463.167 242.167,469.333 242,475.5C 238.349,479.205 233.849,480.539 228.5,479.5C 228.333,498.836 228.5,518.17 229,537.5C 232.362,542.03 235.529,546.697 238.5,551.5C 243.132,552.328 247.798,552.828 252.5,553C 253.931,553.465 255.097,554.299 256,555.5C 257.627,568.071 257.96,580.738 257,593.5C 256.5,595.333 255.333,596.5 253.5,597C 221.167,597.667 188.833,597.667 156.5,597C 155.667,596.167 154.833,595.333 154,594.5C 153.333,581.833 153.333,569.167 154,556.5C 155.008,554.741 156.508,553.574 158.5,553C 162.833,552.667 167.167,552.333 171.5,552C 175.371,547.093 178.871,541.926 182,536.5C 182.5,517.503 182.667,498.503 182.5,479.5C 179.15,479.665 175.817,479.498 172.5,479C 171.069,478.535 169.903,477.701 169,476.5C 167.895,470.077 167.395,463.577 167.5,457C 167.395,450.423 167.895,443.923 169,437.5C 169.833,436.667 170.667,435.833 171.5,435C 175.152,434.501 178.818,434.335 182.5,434.5C 172.19,374.81 196.857,350.143 256.5,360.5C 256.333,347.163 256.5,333.829 257,320.5C 258.456,318.01 260.623,316.343 263.5,315.5C 264.493,310.88 264.827,306.214 264.5,301.5C 259.786,301.289 257.12,298.789 256.5,294C 257.12,289.211 259.786,286.711 264.5,286.5C 264.334,277.494 264.5,268.494 265,259.5C 267.333,250.167 269.667,240.833 272,231.5C 272.5,229.667 273.667,228.5 275.5,228C 283.167,227.333 290.833,227.333 298.5,228C 299.333,228.833 300.167,229.667 301,230.5C 303.823,240.791 306.489,251.124 309,261.5C 309.5,269.827 309.666,278.16 309.5,286.5C 314.396,286.563 316.729,289.063 316.5,294C 316.683,298.981 314.35,301.481 309.5,301.5C 309.334,306.179 309.501,310.845 310,315.5C 312.468,316.104 314.468,317.438 316,319.5C 316.5,333.163 316.667,346.829 316.5,360.5C 326.167,360.5 335.833,360.5 345.5,360.5C 345.333,347.163 345.5,333.829 346,320.5C 347.097,317.735 349.097,316.069 352,315.5C 352.499,310.845 352.666,306.179 352.5,301.5C 349.439,301.556 347.272,300.222 346,297.5C 345.333,285.5 345.333,273.5 346,261.5C 347.033,258.967 348.867,257.301 351.5,256.5C 352.833,237.167 352.833,217.833 351.5,198.5C 348.867,197.699 347.033,196.033 346,193.5C 345.333,181.5 345.333,169.5 346,157.5C 346.69,155.65 347.856,154.316 349.5,153.5 Z M 361.5,168.5 C 370.833,168.5 380.167,168.5 389.5,168.5C 389.5,173.167 389.5,177.833 389.5,182.5C 380.167,182.5 370.833,182.5 361.5,182.5C 361.5,177.833 361.5,173.167 361.5,168.5 Z M 368.5,198.5 C 373.167,198.5 377.833,198.5 382.5,198.5C 382.5,217.833 382.5,237.167 382.5,256.5C 377.833,256.5 373.167,256.5 368.5,256.5C 368.5,237.167 368.5,217.833 368.5,198.5 Z M 435.5,198.5 C 444.833,198.5 454.167,198.5 463.5,198.5C 463.5,203.167 463.5,207.833 463.5,212.5C 454.167,212.5 444.833,212.5 435.5,212.5C 435.5,207.833 435.5,203.167 435.5,198.5 Z M 509.5,198.5 C 518.833,198.5 528.167,198.5 537.5,198.5C 537.5,203.167 537.5,207.833 537.5,212.5C 528.167,212.5 518.833,212.5 509.5,212.5C 509.5,207.833 509.5,203.167 509.5,198.5 Z M 442.5,227.5 C 447.167,227.5 451.833,227.5 456.5,227.5C 456.5,237.167 456.5,246.833 456.5,256.5C 451.833,256.5 447.167,256.5 442.5,256.5C 442.5,246.833 442.5,237.167 442.5,227.5 Z M 516.5,227.5 C 521.167,227.5 525.833,227.5 530.5,227.5C 530.5,237.167 530.5,246.833 530.5,256.5C 525.833,256.5 521.167,256.5 516.5,256.5C 516.5,246.833 516.5,237.167 516.5,227.5 Z M 285.5,242.5 C 286.496,242.414 287.329,242.748 288,243.5C 289.667,250.167 291.333,256.833 293,263.5C 293.5,271.159 293.666,278.826 293.5,286.5C 288.833,286.5 284.167,286.5 279.5,286.5C 279.334,279.492 279.5,272.492 280,265.5C 281.995,257.856 283.828,250.189 285.5,242.5 Z M 361.5,272.5 C 370.833,272.5 380.167,272.5 389.5,272.5C 389.5,277.167 389.5,281.833 389.5,286.5C 380.167,286.5 370.833,286.5 361.5,286.5C 361.5,281.833 361.5,277.167 361.5,272.5 Z M 435.5,272.5 C 444.833,272.5 454.167,272.5 463.5,272.5C 463.5,277.167 463.5,281.833 463.5,286.5C 454.167,286.5 444.833,286.5 435.5,286.5C 435.5,281.833 435.5,277.167 435.5,272.5 Z M 509.5,272.5 C 518.833,272.5 528.167,272.5 537.5,272.5C 537.5,277.167 537.5,281.833 537.5,286.5C 528.167,286.5 518.833,286.5 509.5,286.5C 509.5,281.833 509.5,277.167 509.5,272.5 Z M 279.5,301.5 C 284.167,301.5 288.833,301.5 293.5,301.5C 293.5,306.167 293.5,310.833 293.5,315.5C 288.833,315.5 284.167,315.5 279.5,315.5C 279.5,310.833 279.5,306.167 279.5,301.5 Z M 368.5,301.5 C 373.167,301.5 377.833,301.5 382.5,301.5C 382.5,306.167 382.5,310.833 382.5,315.5C 377.833,315.5 373.167,315.5 368.5,315.5C 368.5,310.833 368.5,306.167 368.5,301.5 Z M 442.5,301.5 C 447.167,301.5 451.833,301.5 456.5,301.5C 456.5,306.167 456.5,310.833 456.5,315.5C 451.833,315.5 447.167,315.5 442.5,315.5C 442.5,310.833 442.5,306.167 442.5,301.5 Z M 516.5,301.5 C 521.167,301.5 525.833,301.5 530.5,301.5C 530.5,306.167 530.5,310.833 530.5,315.5C 525.833,315.5 521.167,315.5 516.5,315.5C 516.5,310.833 516.5,306.167 516.5,301.5 Z M 272.5,331.5 C 282.167,331.5 291.833,331.5 301.5,331.5C 301.5,341.167 301.5,350.833 301.5,360.5C 291.833,360.5 282.167,360.5 272.5,360.5C 272.5,350.833 272.5,341.167 272.5,331.5 Z M 361.5,331.5 C 370.833,331.5 380.167,331.5 389.5,331.5C 389.5,341.167 389.5,350.833 389.5,360.5C 380.167,360.5 370.833,360.5 361.5,360.5C 361.5,350.833 361.5,341.167 361.5,331.5 Z M 435.5,331.5 C 444.833,331.5 454.167,331.5 463.5,331.5C 463.5,341.167 463.5,350.833 463.5,360.5C 454.167,360.5 444.833,360.5 435.5,360.5C 435.5,350.833 435.5,341.167 435.5,331.5 Z M 509.5,331.5 C 518.833,331.5 528.167,331.5 537.5,331.5C 537.5,341.167 537.5,350.833 537.5,360.5C 528.167,360.5 518.833,360.5 509.5,360.5C 509.5,350.833 509.5,341.167 509.5,331.5 Z M 219.5,375.5 C 261.5,375.5 303.5,375.5 345.5,375.5C 345.5,385.167 345.5,394.833 345.5,404.5C 307.165,404.333 268.832,404.5 230.5,405C 221.114,406.719 215.281,412.219 213,421.5C 212.501,425.821 212.334,430.154 212.5,434.5C 207.833,434.5 203.167,434.5 198.5,434.5C 198.049,419.428 198.549,404.428 200,389.5C 204.048,381.242 210.548,376.575 219.5,375.5 Z M 361.5,375.5 C 366.167,375.5 370.833,375.5 375.5,375.5C 375.5,385.167 375.5,394.833 375.5,404.5C 370.833,404.5 366.167,404.5 361.5,404.5C 361.5,394.833 361.5,385.167 361.5,375.5 Z M 390.5,375.5 C 400.167,375.5 409.833,375.5 419.5,375.5C 419.5,385.167 419.5,394.833 419.5,404.5C 409.833,404.5 400.167,404.5 390.5,404.5C 390.5,394.833 390.5,385.167 390.5,375.5 Z M 435.5,375.5 C 444.833,375.5 454.167,375.5 463.5,375.5C 463.5,385.167 463.5,394.833 463.5,404.5C 454.167,404.5 444.833,404.5 435.5,404.5C 435.5,394.833 435.5,385.167 435.5,375.5 Z M 479.5,375.5 C 484.167,375.5 488.833,375.5 493.5,375.5C 493.5,385.167 493.5,394.833 493.5,404.5C 488.833,404.5 484.167,404.5 479.5,404.5C 479.5,394.833 479.5,385.167 479.5,375.5 Z M 509.5,375.5 C 518.833,375.5 528.167,375.5 537.5,375.5C 537.5,385.167 537.5,394.833 537.5,404.5C 528.167,404.5 518.833,404.5 509.5,404.5C 509.5,394.833 509.5,385.167 509.5,375.5 Z M 553.5,375.5 C 573.52,374.854 583.187,384.52 582.5,404.5C 572.833,404.5 563.167,404.5 553.5,404.5C 553.5,394.833 553.5,385.167 553.5,375.5 Z M 271.5,420.5 C 296.167,420.5 320.833,420.5 345.5,420.5C 345.5,425.167 345.5,429.833 345.5,434.5C 321.167,434.5 296.833,434.5 272.5,434.5C 272.717,429.77 272.383,425.103 271.5,420.5 Z M 361.5,420.5 C 366.167,420.5 370.833,420.5 375.5,420.5C 375.5,425.167 375.5,429.833 375.5,434.5C 370.833,434.5 366.167,434.5 361.5,434.5C 361.5,429.833 361.5,425.167 361.5,420.5 Z M 390.5,420.5 C 400.167,420.5 409.833,420.5 419.5,420.5C 419.5,425.167 419.5,429.833 419.5,434.5C 409.833,434.5 400.167,434.5 390.5,434.5C 390.5,429.833 390.5,425.167 390.5,420.5 Z M 435.5,420.5 C 444.833,420.5 454.167,420.5 463.5,420.5C 463.5,425.167 463.5,429.833 463.5,434.5C 454.167,434.5 444.833,434.5 435.5,434.5C 435.5,429.833 435.5,425.167 435.5,420.5 Z M 479.5,420.5 C 484.167,420.5 488.833,420.5 493.5,420.5C 493.5,425.167 493.5,429.833 493.5,434.5C 488.833,434.5 484.167,434.5 479.5,434.5C 479.5,429.833 479.5,425.167 479.5,420.5 Z M 509.5,420.5 C 518.833,420.5 528.167,420.5 537.5,420.5C 537.5,425.167 537.5,429.833 537.5,434.5C 528.167,434.5 518.833,434.5 509.5,434.5C 509.5,429.833 509.5,425.167 509.5,420.5 Z M 553.5,420.5 C 563.167,420.5 572.833,420.5 582.5,420.5C 582.5,425.167 582.5,429.833 582.5,434.5C 572.833,434.5 563.167,434.5 553.5,434.5C 553.5,429.833 553.5,425.167 553.5,420.5 Z M 183.5,449.5 C 198.167,449.5 212.833,449.5 227.5,449.5C 227.5,454.167 227.5,458.833 227.5,463.5C 212.833,463.5 198.167,463.5 183.5,463.5C 183.5,458.833 183.5,454.167 183.5,449.5 Z M 272.5,449.5 C 296.833,449.5 321.167,449.5 345.5,449.5C 345.5,459.167 345.5,468.833 345.5,478.5C 321.167,478.5 296.833,478.5 272.5,478.5C 272.5,468.833 272.5,459.167 272.5,449.5 Z M 361.5,449.5 C 366.167,449.5 370.833,449.5 375.5,449.5C 375.5,459.167 375.5,468.833 375.5,478.5C 370.833,478.5 366.167,478.5 361.5,478.5C 361.5,468.833 361.5,459.167 361.5,449.5 Z M 390.5,449.5 C 400.167,449.5 409.833,449.5 419.5,449.5C 419.5,459.167 419.5,468.833 419.5,478.5C 409.833,478.5 400.167,478.5 390.5,478.5C 390.5,468.833 390.5,459.167 390.5,449.5 Z M 435.5,449.5 C 444.833,449.5 454.167,449.5 463.5,449.5C 463.5,459.167 463.5,468.833 463.5,478.5C 454.167,478.5 444.833,478.5 435.5,478.5C 435.5,468.833 435.5,459.167 435.5,449.5 Z M 479.5,449.5 C 484.167,449.5 488.833,449.5 493.5,449.5C 493.5,459.167 493.5,468.833 493.5,478.5C 488.833,478.5 484.167,478.5 479.5,478.5C 479.5,468.833 479.5,459.167 479.5,449.5 Z M 509.5,449.5 C 518.833,449.5 528.167,449.5 537.5,449.5C 537.5,459.167 537.5,468.833 537.5,478.5C 528.167,478.5 518.833,478.5 509.5,478.5C 509.5,468.833 509.5,459.167 509.5,449.5 Z M 553.5,449.5 C 563.167,449.5 572.833,449.5 582.5,449.5C 582.5,459.167 582.5,468.833 582.5,478.5C 572.833,478.5 563.167,478.5 553.5,478.5C 553.5,468.833 553.5,459.167 553.5,449.5 Z M 198.5,479.5 C 203.167,479.5 207.833,479.5 212.5,479.5C 212.333,500.503 212.5,521.503 213,542.5C 215.29,545.58 217.457,548.747 219.5,552C 210.149,552.832 200.816,552.665 191.5,551.5C 193.864,548.301 196.03,544.968 198,541.5C 198.5,520.836 198.667,500.169 198.5,479.5 Z M 272.5,494.5 C 296.833,494.5 321.167,494.5 345.5,494.5C 345.5,508.833 345.5,523.167 345.5,537.5C 326.497,537.667 307.497,537.5 288.5,537C 280.234,534.401 275.068,528.901 273,520.5C 272.5,511.84 272.334,503.173 272.5,494.5 Z M 361.5,494.5 C 366.167,494.5 370.833,494.5 375.5,494.5C 375.5,508.833 375.5,523.167 375.5,537.5C 370.833,537.5 366.167,537.5 361.5,537.5C 361.5,523.167 361.5,508.833 361.5,494.5 Z M 390.5,494.5 C 400.167,494.5 409.833,494.5 419.5,494.5C 419.5,508.833 419.5,523.167 419.5,537.5C 409.833,537.5 400.167,537.5 390.5,537.5C 390.5,523.167 390.5,508.833 390.5,494.5 Z M 435.5,494.5 C 444.833,494.5 454.167,494.5 463.5,494.5C 463.5,508.833 463.5,523.167 463.5,537.5C 454.167,537.5 444.833,537.5 435.5,537.5C 435.5,523.167 435.5,508.833 435.5,494.5 Z M 479.5,494.5 C 484.167,494.5 488.833,494.5 493.5,494.5C 493.5,508.833 493.5,523.167 493.5,537.5C 488.833,537.5 484.167,537.5 479.5,537.5C 479.5,523.167 479.5,508.833 479.5,494.5 Z M 509.5,494.5 C 518.833,494.5 528.167,494.5 537.5,494.5C 537.5,508.833 537.5,523.167 537.5,537.5C 528.167,537.5 518.833,537.5 509.5,537.5C 509.5,523.167 509.5,508.833 509.5,494.5 Z M 553.5,494.5 C 563.167,494.5 572.833,494.5 582.5,494.5C 582.666,502.507 582.5,510.507 582,518.5C 578.241,533.146 568.741,539.48 553.5,537.5C 553.5,523.167 553.5,508.833 553.5,494.5 Z M 168.5,568.5 C 192.833,568.5 217.167,568.5 241.5,568.5C 241.5,573.167 241.5,577.833 241.5,582.5C 217.167,582.5 192.833,582.5 168.5,582.5C 168.5,577.833 168.5,573.167 168.5,568.5 Z"/></g>
</svg>
