<?xml version="1.0" encoding="UTF-8"?>
<!DOCTYPE svg PUBLIC "-//W3C//DTD SVG 1.1//EN" "http://www.w3.org/Graphics/SVG/1.1/DTD/svg11.dtd">
<svg xmlns="http://www.w3.org/2000/svg" version="1.1" width="752px" height="752px" style="shape-rendering:geometricPrecision; text-rendering:geometricPrecision; image-rendering:optimizeQuality; fill-rule:evenodd; clip-rule:evenodd" xmlns:xlink="http://www.w3.org/1999/xlink">
<g><path style="opacity:0.943" fill="#000000" d="M 156.5,153.5 C 302.5,153.333 448.5,153.5 594.5,154C 597.428,157.257 598.262,161.091 597,165.5C 592.197,180.241 587.197,194.908 582,209.5C 580.786,211.049 579.286,212.215 577.5,213C 567.172,213.5 556.839,213.666 546.5,213.5C 546.5,296.833 546.5,380.167 546.5,463.5C 554.174,463.334 561.841,463.5 569.5,464C 573.802,464.965 575.802,467.632 575.5,472C 574.457,479.173 572.79,486.173 570.5,493C 572,494.5 573.5,496 575,497.5C 575.667,509.833 575.667,522.167 575,534.5C 574.5,536.333 573.333,537.5 571.5,538C 563.173,538.5 554.84,538.666 546.5,538.5C 546.5,543.167 546.5,547.833 546.5,552.5C 554.507,552.334 562.507,552.5 570.5,553C 572.286,553.785 573.786,554.951 575,556.5C 575.961,569.595 575.628,582.595 574,595.5C 573.25,596.126 572.416,596.626 571.5,597C 539.167,597.667 506.833,597.667 474.5,597C 474,596.5 473.5,596 473,595.5C 471.372,582.595 471.039,569.595 472,556.5C 473.214,554.951 474.714,553.785 476.5,553C 484.493,552.5 492.493,552.334 500.5,552.5C 500.5,547.833 500.5,543.167 500.5,538.5C 417.167,538.5 333.833,538.5 250.5,538.5C 250.5,543.167 250.5,547.833 250.5,552.5C 258.507,552.334 266.507,552.5 274.5,553C 276.286,553.785 277.786,554.951 279,556.5C 279.961,569.595 279.628,582.595 278,595.5C 277.25,596.126 276.416,596.626 275.5,597C 243.5,597.667 211.5,597.667 179.5,597C 178.584,596.626 177.75,596.126 177,595.5C 175.372,582.595 175.039,569.595 176,556.5C 177.214,554.951 178.714,553.785 180.5,553C 188.493,552.5 196.493,552.334 204.5,552.5C 204.5,547.833 204.5,543.167 204.5,538.5C 195.392,538.943 186.392,538.443 177.5,537C 176.874,536.25 176.374,535.416 176,534.5C 175.333,522.167 175.333,509.833 176,497.5C 177.5,496 179,494.5 180.5,493C 177.319,484.782 175.819,476.282 176,467.5C 177.319,465.513 179.152,464.346 181.5,464C 189.159,463.5 196.826,463.334 204.5,463.5C 204.5,380.167 204.5,296.833 204.5,213.5C 194.161,213.666 183.828,213.5 173.5,213C 171.998,212.417 170.665,211.584 169.5,210.5C 164.037,195.612 158.871,180.612 154,165.5C 152.773,160.938 153.607,156.938 156.5,153.5 Z M 172.5,168.5 C 307.833,168.5 443.167,168.5 578.5,168.5C 575.908,177.944 572.908,187.277 569.5,196.5C 527.172,197.5 484.839,197.833 442.5,197.5C 442.854,193.363 442.354,189.363 441,185.5C 435.035,180.825 430.368,181.825 427,188.5C 426.502,191.482 426.335,194.482 426.5,197.5C 392.5,197.5 358.5,197.5 324.5,197.5C 325.007,192.879 324.174,188.546 322,184.5C 317.736,181.655 313.736,181.988 310,185.5C 308.646,189.363 308.146,193.363 308.5,197.5C 266.161,197.833 223.828,197.5 181.5,196.5C 178.092,187.277 175.092,177.944 172.5,168.5 Z M 220.5,213.5 C 225.167,213.5 229.833,213.5 234.5,213.5C 234.5,306.833 234.5,400.167 234.5,493.5C 229.833,493.5 225.167,493.5 220.5,493.5C 220.5,400.167 220.5,306.833 220.5,213.5 Z M 250.5,213.5 C 269.833,213.5 289.167,213.5 308.5,213.5C 308.667,230.503 308.5,247.503 308,264.5C 270.24,295.845 256.907,335.511 268,383.5C 285.343,435.006 321.176,462.006 375.5,464.5C 429.824,462.006 465.657,435.006 483,383.5C 494.063,335.344 480.73,295.677 443,264.5C 442.5,247.503 442.333,230.503 442.5,213.5C 461.833,213.5 481.167,213.5 500.5,213.5C 500.5,306.833 500.5,400.167 500.5,493.5C 417.167,493.5 333.833,493.5 250.5,493.5C 250.5,400.167 250.5,306.833 250.5,213.5 Z M 324.5,213.5 C 358.5,213.5 392.5,213.5 426.5,213.5C 426.833,226.85 426.499,240.183 425.5,253.5C 392.167,237.5 358.833,237.5 325.5,253.5C 324.501,240.183 324.167,226.85 324.5,213.5 Z M 516.5,213.5 C 521.167,213.5 525.833,213.5 530.5,213.5C 530.5,306.833 530.5,400.167 530.5,493.5C 525.833,493.5 521.167,493.5 516.5,493.5C 516.5,400.167 516.5,306.833 516.5,213.5 Z M 366.5,257.5 C 387.989,256.164 407.823,261.164 426,272.5C 426.333,280.5 426.667,288.5 427,296.5C 429.435,301.224 433.269,302.724 438.5,301C 439.416,300.626 440.25,300.126 441,299.5C 442.215,294.949 442.881,290.282 443,285.5C 472.873,318.544 478.873,355.544 461,396.5C 436.08,438.373 399.58,454.873 351.5,446C 315.022,434.523 291.855,410.356 282,373.5C 275.785,339.679 284.452,310.346 308,285.5C 308.119,290.282 308.785,294.949 310,299.5C 313.256,301.429 316.756,301.929 320.5,301C 322.049,299.786 323.215,298.286 324,296.5C 324.333,288.5 324.667,280.5 325,272.5C 337.879,264.598 351.712,259.598 366.5,257.5 Z M 374.5,301.5 C 410.186,305.682 427.353,325.682 426,361.5C 422.137,380.022 411.637,393.189 394.5,401C 364.39,409.689 342.224,400.189 328,372.5C 319.227,342.803 328.393,320.636 355.5,306C 361.785,303.677 368.118,302.177 374.5,301.5 Z M 372.5,346.5 C 378.02,345.684 381.353,348.017 382.5,353.5C 381.838,357.495 379.505,359.829 375.5,360.5C 367.547,357.351 366.547,352.684 372.5,346.5 Z M 193.5,479.5 C 197.167,479.5 200.833,479.5 204.5,479.5C 204.5,484.167 204.5,488.833 204.5,493.5C 201.833,493.5 199.167,493.5 196.5,493.5C 195.5,488.833 194.5,484.167 193.5,479.5 Z M 546.5,479.5 C 550.167,479.5 553.833,479.5 557.5,479.5C 556.5,484.167 555.5,488.833 554.5,493.5C 551.833,493.5 549.167,493.5 546.5,493.5C 546.5,488.833 546.5,484.167 546.5,479.5 Z M 191.5,509.5 C 314.167,509.5 436.833,509.5 559.5,509.5C 559.5,514.167 559.5,518.833 559.5,523.5C 436.833,523.5 314.167,523.5 191.5,523.5C 191.5,518.833 191.5,514.167 191.5,509.5 Z M 220.5,538.5 C 225.167,538.5 229.833,538.5 234.5,538.5C 234.5,543.167 234.5,547.833 234.5,552.5C 229.833,552.5 225.167,552.5 220.5,552.5C 220.5,547.833 220.5,543.167 220.5,538.5 Z M 516.5,538.5 C 521.167,538.5 525.833,538.5 530.5,538.5C 530.5,543.167 530.5,547.833 530.5,552.5C 525.833,552.5 521.167,552.5 516.5,552.5C 516.5,547.833 516.5,543.167 516.5,538.5 Z M 191.5,568.5 C 215.833,568.5 240.167,568.5 264.5,568.5C 264.5,573.167 264.5,577.833 264.5,582.5C 240.167,582.5 215.833,582.5 191.5,582.5C 191.5,577.833 191.5,573.167 191.5,568.5 Z M 486.5,568.5 C 510.833,568.5 535.167,568.5 559.5,568.5C 559.5,573.167 559.5,577.833 559.5,582.5C 535.167,582.5 510.833,582.5 486.5,582.5C 486.5,577.833 486.5,573.167 486.5,568.5 Z"/></g>
<g><path style="opacity:0.925" fill="#000000" d="M 364.5,286.5 C 392.991,283.481 415.491,293.481 432,316.5C 446.814,343.16 445.814,369.16 429,394.5C 403.668,421.978 374.168,427.478 340.5,411C 311.364,390.259 302.197,362.759 313,328.5C 323.157,305.838 340.324,291.838 364.5,286.5 Z M 374.5,301.5 C 368.118,302.177 361.785,303.677 355.5,306C 328.393,320.636 319.227,342.803 328,372.5C 342.224,400.189 364.39,409.689 394.5,401C 411.637,393.189 422.137,380.022 426,361.5C 427.353,325.682 410.186,305.682 374.5,301.5 Z M 372.5,346.5 C 366.547,352.684 367.547,357.351 375.5,360.5C 379.505,359.829 381.838,357.495 382.5,353.5C 381.353,348.017 378.02,345.684 372.5,346.5 Z"/></g>
<g><path style="opacity:0.925" fill="#000000" d="M 370.5,330.5 C 392.805,330.961 401.305,341.961 396,363.5C 388.043,375.756 377.21,378.923 363.5,373C 352.054,363.704 349.887,352.538 357,339.5C 360.826,335.348 365.326,332.348 370.5,330.5 Z M 372.5,346.5 C 366.547,352.684 367.547,357.351 375.5,360.5C 379.505,359.829 381.838,357.495 382.5,353.5C 381.353,348.017 378.02,345.684 372.5,346.5 Z"/></g>
</svg>
