<?xml version="1.0" encoding="UTF-8"?>
<!DOCTYPE svg PUBLIC "-//W3C//DTD SVG 1.1//EN" "http://www.w3.org/Graphics/SVG/1.1/DTD/svg11.dtd">
<svg xmlns="http://www.w3.org/2000/svg" version="1.1" width="752px" height="752px" style="shape-rendering:geometricPrecision; text-rendering:geometricPrecision; image-rendering:optimizeQuality; fill-rule:evenodd; clip-rule:evenodd" xmlns:xlink="http://www.w3.org/1999/xlink">
<g><path style="opacity:0.938" fill="#000000" d="M 353.5,153.5 C 368.17,153.333 382.837,153.5 397.5,154C 403.775,156.609 408.442,160.942 411.5,167C 416.489,167.499 421.489,167.666 426.5,167.5C 425.571,162.235 426.904,157.735 430.5,154C 439.167,153.333 447.833,153.333 456.5,154C 469.706,159.58 474.539,169.413 471,183.5C 469.833,185.833 468.667,188.167 467.5,190.5C 474.576,201.528 473.909,212.028 465.5,222C 462.952,224.442 459.952,226.108 456.5,227C 447.833,227.667 439.167,227.667 430.5,227C 426.904,223.265 425.571,218.765 426.5,213.5C 421.833,213.5 417.167,213.5 412.5,213.5C 412.666,222.173 412.5,230.84 412,239.5C 407.667,243.833 403.333,248.167 399,252.5C 398.5,274.831 398.333,297.164 398.5,319.5C 432.654,330.494 452.154,353.828 457,389.5C 457.455,396.53 457.455,403.53 457,410.5C 484.153,441.114 492.82,476.448 483,516.5C 469.162,559.338 440.329,585.838 396.5,596C 344.106,603.225 304.272,584.391 277,539.5C 260.333,504.167 260.333,468.833 277,433.5C 281.895,425.27 287.562,417.604 294,410.5C 290.635,374.734 303.802,346.9 333.5,327C 339.417,323.372 345.75,320.872 352.5,319.5C 352.667,297.164 352.5,274.831 352,252.5C 347.667,248.167 343.333,243.833 339,239.5C 338.51,238.207 338.343,236.873 338.5,235.5C 333.833,235.5 329.167,235.5 324.5,235.5C 325.161,240.284 324.161,244.618 321.5,248.5C 320.5,249 319.5,249.5 318.5,250C 311.833,250.667 305.167,250.667 298.5,250C 282.527,245.901 276.361,235.734 280,219.5C 281.047,217.238 282.213,215.071 283.5,213C 275.754,200.22 277.421,188.887 288.5,179C 290.717,177.725 293.051,176.725 295.5,176C 303.833,175.333 312.167,175.333 320.5,176C 324.028,180.128 325.362,184.961 324.5,190.5C 329.167,190.5 333.833,190.5 338.5,190.5C 334.055,173.96 339.055,161.627 353.5,153.5 Z M 359.5,168.5 C 370.172,168.333 380.839,168.5 391.5,169C 394.333,169.833 396.167,171.667 397,174.5C 397.667,193.5 397.667,212.5 397,231.5C 393.833,234.667 390.667,237.833 387.5,241C 379.5,241.667 371.5,241.667 363.5,241C 360.333,237.833 357.167,234.667 354,231.5C 353.333,212.5 353.333,193.5 354,174.5C 355.021,171.65 356.854,169.65 359.5,168.5 Z M 442.5,168.5 C 446.273,168.263 449.94,168.763 453.5,170C 457.601,174.294 457.268,178.294 452.5,182C 449.183,182.498 445.85,182.665 442.5,182.5C 442.5,177.833 442.5,173.167 442.5,168.5 Z M 412.5,183.5 C 417.167,183.5 421.833,183.5 426.5,183.5C 426.5,188.167 426.5,192.833 426.5,197.5C 421.833,197.5 417.167,197.5 412.5,197.5C 412.5,192.833 412.5,188.167 412.5,183.5 Z M 301.5,190.5 C 303.833,190.5 306.167,190.5 308.5,190.5C 308.5,195.167 308.5,199.833 308.5,204.5C 305.15,204.665 301.817,204.498 298.5,204C 292.654,197.888 293.654,193.388 301.5,190.5 Z M 442.5,198.5 C 445.85,198.335 449.183,198.502 452.5,199C 457.268,202.706 457.601,206.706 453.5,211C 449.94,212.237 446.273,212.737 442.5,212.5C 442.5,207.833 442.5,203.167 442.5,198.5 Z M 324.5,205.5 C 329.167,205.5 333.833,205.5 338.5,205.5C 338.5,210.167 338.5,214.833 338.5,219.5C 333.833,219.5 329.167,219.5 324.5,219.5C 324.5,214.833 324.5,210.167 324.5,205.5 Z M 299.5,220.5 C 302.5,220.5 305.5,220.5 308.5,220.5C 308.5,225.167 308.5,229.833 308.5,234.5C 305.482,234.665 302.482,234.498 299.5,234C 292.914,229.507 292.914,225.007 299.5,220.5 Z M 368.5,257.5 C 373.167,257.5 377.833,257.5 382.5,257.5C 382.833,301.838 382.5,346.172 381.5,390.5C 377.5,389.167 373.5,389.167 369.5,390.5C 368.5,346.172 368.167,301.838 368.5,257.5 Z M 349.5,336.5 C 350.5,336.5 351.5,336.5 352.5,336.5C 352.833,356.178 352.5,375.845 351.5,395.5C 328.247,409.389 319.414,429.722 325,456.5C 329.273,470.94 338.106,481.606 351.5,488.5C 352.497,495.134 352.83,501.8 352.5,508.5C 344.16,508.334 335.827,508.5 327.5,509C 326.584,509.374 325.75,509.874 325,510.5C 323.372,523.405 323.039,536.405 324,549.5C 325.167,550.667 326.333,551.833 327.5,553C 359.5,553.667 391.5,553.667 423.5,553C 424.667,551.833 425.833,550.667 427,549.5C 427.961,536.405 427.628,523.405 426,510.5C 425.25,509.874 424.416,509.374 423.5,509C 415.173,508.5 406.84,508.334 398.5,508.5C 398.17,501.8 398.503,495.134 399.5,488.5C 417.744,478.411 427.078,462.911 427.5,442C 426.992,421.146 417.659,405.646 399.5,395.5C 398.5,375.845 398.167,356.178 398.5,336.5C 422.71,345.898 436.876,363.565 441,389.5C 441.273,398.511 441.273,407.511 441,416.5C 471.879,448.899 478.879,485.899 462,527.5C 440.23,567.806 406.397,585.639 360.5,581C 322.557,573.052 297.057,550.885 284,514.5C 274.244,476.851 282.911,444.185 310,416.5C 304.879,380.41 318.046,353.743 349.5,336.5 Z M 370.5,405.5 C 390.821,405.07 404.321,414.403 411,433.5C 413.803,456.732 403.969,471.565 381.5,478C 360.462,479.73 346.629,470.563 340,450.5C 337.264,426.614 347.431,411.614 370.5,405.5 Z M 372.5,435.5 C 378.02,434.684 381.353,437.017 382.5,442.5C 380.02,448.729 375.853,450.062 370,446.5C 367.826,442.193 368.659,438.526 372.5,435.5 Z M 381.5,493.5 C 382.487,498.305 382.821,503.305 382.5,508.5C 377.833,508.5 373.167,508.5 368.5,508.5C 368.5,503.833 368.5,499.167 368.5,494.5C 373.032,494.818 377.366,494.485 381.5,493.5 Z M 339.5,523.5 C 363.833,523.5 388.167,523.5 412.5,523.5C 412.5,528.167 412.5,532.833 412.5,537.5C 388.167,537.5 363.833,537.5 339.5,537.5C 339.5,532.833 339.5,528.167 339.5,523.5 Z"/></g>
<g><path style="opacity:0.924" fill="#000000" d="M 369.5,419.5 C 386.333,417.839 396,425.339 398.5,442C 396.036,458.795 386.369,466.128 369.5,464C 357.113,459.948 351.613,451.448 353,438.5C 355.178,429.163 360.678,422.83 369.5,419.5 Z M 372.5,435.5 C 368.659,438.526 367.826,442.193 370,446.5C 375.853,450.062 380.02,448.729 382.5,442.5C 381.353,437.017 378.02,434.684 372.5,435.5 Z"/></g>
</svg>
