<?xml version="1.0" encoding="UTF-8"?>
<!DOCTYPE svg PUBLIC "-//W3C//DTD SVG 1.1//EN" "http://www.w3.org/Graphics/SVG/1.1/DTD/svg11.dtd">
<svg xmlns="http://www.w3.org/2000/svg" version="1.1" width="752px" height="752px" style="shape-rendering:geometricPrecision; text-rendering:geometricPrecision; image-rendering:optimizeQuality; fill-rule:evenodd; clip-rule:evenodd" xmlns:xlink="http://www.w3.org/1999/xlink">
<g><path style="opacity:0.939" fill="#000000" d="M 294.5,153.5 C 303.173,153.334 311.84,153.5 320.5,154C 324.096,157.735 325.429,162.235 324.5,167.5C 337.85,167.833 351.183,167.499 364.5,166.5C 365.932,161.799 368.266,157.633 371.5,154C 380.167,153.333 388.833,153.333 397.5,154C 404.333,156.833 409.167,161.667 412,168.5C 412.667,192.167 412.667,215.833 412,239.5C 407.667,243.833 403.333,248.167 399,252.5C 398.5,293.499 398.333,334.499 398.5,375.5C 403.167,375.5 407.833,375.5 412.5,375.5C 409.84,360.632 415.507,350.798 429.5,346C 439.228,345.109 448.894,345.443 458.5,347C 464.392,349.892 468.559,354.392 471,360.5C 472.613,378.781 472.947,397.114 472,415.5C 470.644,423.886 466.144,429.886 458.5,433.5C 457.337,438.802 457.171,444.136 458,449.5C 472.667,453.5 482,462.833 486,477.5C 492.126,515.891 481.293,548.391 453.5,575C 439.233,586.763 422.899,594.096 404.5,597C 385.167,597.667 365.833,597.667 346.5,597C 301.331,587.831 274.165,560.665 265,515.5C 264.333,502.833 264.333,490.167 265,477.5C 269,462.833 278.333,453.5 293,449.5C 293.829,444.136 293.663,438.802 292.5,433.5C 284.856,429.886 280.356,423.886 279,415.5C 278.333,403.167 278.333,390.833 279,378.5C 281.806,360.698 291.973,349.864 309.5,346C 323.829,345.5 338.163,345.333 352.5,345.5C 352.667,314.498 352.5,283.498 352,252.5C 348.833,249.333 345.667,246.167 342.5,243C 336.509,242.501 330.509,242.334 324.5,242.5C 326.223,255.273 320.723,260.273 308,257.5C 289.103,258.93 279.436,250.263 279,231.5C 279.499,226.988 281.333,223.155 284.5,220C 276.845,210.511 276.512,200.678 283.5,190.5C 274.96,174.295 278.627,161.962 294.5,153.5 Z M 300.5,168.5 C 303.167,168.5 305.833,168.5 308.5,168.5C 308.5,173.167 308.5,177.833 308.5,182.5C 305.15,182.665 301.817,182.498 298.5,182C 292.854,176.44 293.521,171.94 300.5,168.5 Z M 380.5,168.5 C 385.37,168.032 390.036,168.698 394.5,170.5C 395.584,171.665 396.417,172.998 397,174.5C 397.667,193.5 397.667,212.5 397,231.5C 393.833,234.667 390.667,237.833 387.5,241C 379.5,241.667 371.5,241.667 363.5,241C 360.65,238.318 357.984,235.484 355.5,232.5C 364.235,211.289 372.569,189.955 380.5,168.5 Z M 324.5,183.5 C 335.52,183.168 346.52,183.501 357.5,184.5C 355.833,188.5 354.167,192.5 352.5,196.5C 343.19,197.498 333.857,197.832 324.5,197.5C 324.5,192.833 324.5,188.167 324.5,183.5 Z M 298.5,198.5 C 301.833,198.5 305.167,198.5 308.5,198.5C 308.5,203.167 308.5,207.833 308.5,212.5C 303.882,213.076 299.715,212.076 296,209.5C 293.826,205.193 294.659,201.526 298.5,198.5 Z M 324.5,213.5 C 331.532,213.17 338.532,213.503 345.5,214.5C 343.833,218.5 342.167,222.5 340.5,226.5C 335.208,227.495 329.875,227.828 324.5,227.5C 324.5,222.833 324.5,218.167 324.5,213.5 Z M 301.5,227.5 C 303.833,227.5 306.167,227.5 308.5,227.5C 308.5,232.167 308.5,236.833 308.5,241.5C 305.15,241.665 301.817,241.498 298.5,241C 292.654,234.888 293.654,230.388 301.5,227.5 Z M 368.5,257.5 C 373.167,257.5 377.833,257.5 382.5,257.5C 382.5,311.5 382.5,365.5 382.5,419.5C 377.833,419.5 373.167,419.5 368.5,419.5C 368.5,365.5 368.5,311.5 368.5,257.5 Z M 310.5,361.5 C 324.5,361.5 338.5,361.5 352.5,361.5C 352.666,370.506 352.5,379.506 352,388.5C 346.048,377.443 336.882,373.277 324.5,376C 311.758,380.772 306.592,389.939 309,403.5C 314.473,417.82 324.64,422.987 339.5,419C 345.667,416.833 349.833,412.667 352,406.5C 352.499,410.821 352.666,415.154 352.5,419.5C 349.15,419.335 345.817,419.502 342.5,420C 340.667,420.5 339.5,421.667 339,423.5C 338.333,436.167 338.333,448.833 339,461.5C 339.903,462.701 341.069,463.535 342.5,464C 364.5,464.667 386.5,464.667 408.5,464C 409.931,463.535 411.097,462.701 412,461.5C 412.667,448.833 412.667,436.167 412,423.5C 411.5,421.667 410.333,420.5 408.5,420C 405.183,419.502 401.85,419.335 398.5,419.5C 398.5,409.833 398.5,400.167 398.5,390.5C 407.608,390.943 416.608,390.443 425.5,389C 426.126,388.25 426.626,387.416 427,386.5C 427.333,379.833 427.667,373.167 428,366.5C 428.785,364.714 429.951,363.214 431.5,362C 438.5,361.333 445.5,361.333 452.5,362C 453.333,362.833 454.167,363.667 455,364.5C 456.637,381.075 456.97,397.742 456,414.5C 455.535,415.931 454.701,417.097 453.5,418C 450.5,419 447.5,420 444.5,421C 443.299,421.903 442.465,423.069 442,424.5C 441.333,436.167 441.333,447.833 442,459.5C 442.785,461.286 443.951,462.786 445.5,464C 457.048,464.014 465.214,469.181 470,479.5C 475.842,512.974 466.342,541.141 441.5,564C 427.962,574.43 412.629,580.43 395.5,582C 382.167,582.667 368.833,582.667 355.5,582C 315.136,576.636 290.303,554.136 281,514.5C 279.567,504.203 279.233,493.869 280,483.5C 283.321,470.405 291.821,463.905 305.5,464C 307.049,462.786 308.215,461.286 309,459.5C 309.667,447.833 309.667,436.167 309,424.5C 308.535,423.069 307.701,421.903 306.5,421C 302.645,420.236 299.145,418.736 296,416.5C 294.872,410.103 294.372,403.603 294.5,397C 294.41,389.772 294.91,382.606 296,375.5C 298.774,368.557 303.607,363.89 310.5,361.5 Z M 329.5,390.5 C 335.67,391.162 338.17,394.495 337,400.5C 335.179,403.991 332.346,405.157 328.5,404C 322.954,399.097 323.288,394.597 329.5,390.5 Z M 353.5,435.5 C 368.167,435.5 382.833,435.5 397.5,435.5C 397.5,440.167 397.5,444.833 397.5,449.5C 382.833,449.5 368.167,449.5 353.5,449.5C 353.5,444.833 353.5,440.167 353.5,435.5 Z M 353.5,494.5 C 368.167,494.5 382.833,494.5 397.5,494.5C 397.5,499.167 397.5,503.833 397.5,508.5C 382.833,508.5 368.167,508.5 353.5,508.5C 353.5,503.833 353.5,499.167 353.5,494.5 Z"/></g>
<g><path style="opacity:0.963" fill="#000000" d="M 343.5,478.5 C 365.591,478.022 387.591,478.522 409.5,480C 410.333,480.833 411.167,481.667 412,482.5C 412.667,495.167 412.667,507.833 412,520.5C 411.167,521.333 410.333,522.167 409.5,523C 386.833,523.667 364.167,523.667 341.5,523C 340.667,522.167 339.833,521.333 339,520.5C 338.333,507.833 338.333,495.167 339,482.5C 340.25,480.807 341.75,479.473 343.5,478.5 Z M 353.5,494.5 C 353.5,499.167 353.5,503.833 353.5,508.5C 368.167,508.5 382.833,508.5 397.5,508.5C 397.5,503.833 397.5,499.167 397.5,494.5C 382.833,494.5 368.167,494.5 353.5,494.5 Z"/></g>
<g><path style="opacity:0.822" fill="#000000" d="M 446.5,478.5 C 454.658,477.823 458.158,481.49 457,489.5C 454.774,493.861 451.274,495.361 446.5,494C 442.139,491.774 440.639,488.274 442,483.5C 443.025,481.313 444.525,479.646 446.5,478.5 Z"/></g>
<g><path style="opacity:0.842" fill="#000000" d="M 431.5,493.5 C 442.566,493.729 445.233,498.562 439.5,508C 431.517,510.675 427.35,507.842 427,499.5C 427.599,496.746 429.099,494.746 431.5,493.5 Z"/></g>
<g><path style="opacity:0.873" fill="#000000" d="M 445.5,508.5 C 453.614,507.121 457.447,510.454 457,518.5C 454.565,523.224 450.731,524.724 445.5,523C 440.232,518.171 440.232,513.337 445.5,508.5 Z"/></g>
<g><path style="opacity:0.863" fill="#000000" d="M 430.5,523.5 C 439.791,521.702 443.624,525.368 442,534.5C 437.7,539.446 433.033,539.779 428,535.5C 425.668,530.83 426.501,526.83 430.5,523.5 Z"/></g>
<g><path style="opacity:0.915" fill="#000000" d="M 343.5,537.5 C 364.836,537.333 386.169,537.5 407.5,538C 412.224,540.435 413.724,544.269 412,549.5C 411.5,551.333 410.333,552.5 408.5,553C 386.5,553.667 364.5,553.667 342.5,553C 339.484,551.471 338.151,548.971 338.5,545.5C 338.546,541.793 340.213,539.127 343.5,537.5 Z"/></g>
</svg>
