<?xml version="1.0" encoding="UTF-8"?>
<!DOCTYPE svg PUBLIC "-//W3C//DTD SVG 1.1//EN" "http://www.w3.org/Graphics/SVG/1.1/DTD/svg11.dtd">
<svg xmlns="http://www.w3.org/2000/svg" version="1.1" width="752px" height="752px" style="shape-rendering:geometricPrecision; text-rendering:geometricPrecision; image-rendering:optimizeQuality; fill-rule:evenodd; clip-rule:evenodd" xmlns:xlink="http://www.w3.org/1999/xlink">
<g><path style="opacity:0.887" fill="#000000" d="M 433.5,185.5 C 462.961,186.128 476.461,201.128 474,230.5C 472.059,239.401 467.392,246.401 460,251.5C 459.667,270.833 459.333,290.167 459,309.5C 456.663,316.422 451.829,320.089 444.5,320.5C 447.942,342.74 460.942,354.74 483.5,356.5C 502.623,355.852 515.457,346.518 522,328.5C 522.822,325.883 523.322,323.216 523.5,320.5C 516.379,320.52 511.546,317.187 509,310.5C 508.667,290.833 508.333,271.167 508,251.5C 494.016,240.208 489.683,225.874 495,208.5C 505.152,188.677 520.985,181.844 542.5,188C 562.323,198.152 569.156,213.985 563,235.5C 560.46,241.906 556.46,247.24 551,251.5C 550.667,269.833 550.333,288.167 550,306.5C 548.21,315.29 542.877,320.29 534,321.5C 530.019,347.314 515.186,362.314 489.5,366.5C 489.667,415.168 489.5,463.834 489,512.5C 487.322,537.351 474.822,554.184 451.5,563C 421.459,569.726 399.293,559.56 385,532.5C 382.558,526.4 381.225,520.067 381,513.5C 380.667,477.167 380.333,440.833 380,404.5C 373.839,382.906 359.506,371.239 337,369.5C 313.144,372.024 298.81,385.024 294,408.5C 293.667,418.833 293.333,429.167 293,439.5C 286.747,468.251 268.913,483.584 239.5,485.5C 210.036,482.88 192.203,467.213 186,438.5C 185.333,418.833 185.333,399.167 186,379.5C 190.439,375.054 193.773,375.721 196,381.5C 196.333,400.833 196.667,420.167 197,439.5C 204.56,464.533 221.393,476.033 247.5,474C 267.989,469.176 279.823,456.343 283,435.5C 283.109,423.452 283.775,411.452 285,399.5C 297.465,366.098 321.132,353.765 356,362.5C 376.207,370.373 387.873,385.04 391,406.5C 391.333,443.833 391.667,481.167 392,518.5C 400.081,546.629 418.581,558.129 447.5,553C 462.427,547.74 472.261,537.573 477,522.5C 478.478,470.538 478.978,418.538 478.5,366.5C 452.085,362.418 437.085,347.085 433.5,320.5C 425.563,320.061 420.396,316.061 418,308.5C 417.667,289.5 417.333,270.5 417,251.5C 403.03,239.626 399.03,224.959 405,207.5C 410.912,195.411 420.412,188.077 433.5,185.5 Z M 431.5,196.5 C 446.413,194.204 456.913,199.87 463,213.5C 466.619,230.098 460.452,241.264 444.5,247C 425.947,248.782 415.28,240.448 412.5,222C 413.748,209.601 420.081,201.101 431.5,196.5 Z M 522.5,196.5 C 544.978,195.477 555.478,206.144 554,228.5C 546.43,246.531 533.596,251.697 515.5,244C 502.945,234.581 500.112,222.748 507,208.5C 511.02,202.919 516.186,198.919 522.5,196.5 Z M 448.5,256.5 C 449.662,272.661 449.828,288.995 449,305.5C 446.787,309.689 443.287,311.356 438.5,310.5C 434.82,310.941 431.653,309.941 429,307.5C 428.5,290.837 428.333,274.17 428.5,257.5C 435.401,259.137 442.068,258.804 448.5,256.5 Z M 518.5,256.5 C 525.334,259.13 532.168,259.13 539,256.5C 539.667,273.167 539.667,289.833 539,306.5C 538.5,308.333 537.333,309.5 535.5,310C 531.167,310.667 526.833,310.667 522.5,310C 520.667,309.5 519.5,308.333 519,306.5C 518.5,289.837 518.333,273.17 518.5,256.5 Z"/></g>
</svg>
