<?xml version="1.0" encoding="UTF-8"?>
<!DOCTYPE svg PUBLIC "-//W3C//DTD SVG 1.1//EN" "http://www.w3.org/Graphics/SVG/1.1/DTD/svg11.dtd">
<svg xmlns="http://www.w3.org/2000/svg" version="1.1" width="752px" height="752px" style="shape-rendering:geometricPrecision; text-rendering:geometricPrecision; image-rendering:optimizeQuality; fill-rule:evenodd; clip-rule:evenodd" xmlns:xlink="http://www.w3.org/1999/xlink">
<g><path style="opacity:0.854" fill="#000000" d="M 474.5,229.5 C 480.541,228.593 485.874,230.093 490.5,234C 497.789,240.283 503.956,247.449 509,255.5C 511,258.833 511,262.167 509,265.5C 505.31,269.689 501.81,274.022 498.5,278.5C 500.192,280.359 501.692,282.359 503,284.5C 503.486,289.992 500.986,291.825 495.5,290C 494.315,288.647 492.981,287.48 491.5,286.5C 490.461,289.047 491.295,291.047 494,292.5C 495.489,296.833 493.989,299.167 489.5,299.5C 487.063,299.402 485.063,298.402 483.5,296.5C 483.167,296.833 482.833,297.167 482.5,297.5C 485.963,300.759 486.296,304.259 483.5,308C 480.258,308.986 477.592,308.152 475.5,305.5C 472.7,306.646 469.867,306.646 467,305.5C 464.366,305.934 461.866,306.767 459.5,308C 430,337.5 400.5,367 371,396.5C 366.774,422.188 362.441,447.855 358,473.5C 345.441,509.706 319.941,527.539 281.5,527C 249.851,523.431 228.018,506.931 216,477.5C 205.899,440.46 216.399,410.96 247.5,389C 253.589,385.748 259.922,383.082 266.5,381C 291.882,376.881 317.215,372.548 342.5,368C 373.083,337.752 403.249,307.252 433,276.5C 433.105,272.263 433.272,268.096 433.5,264C 432.73,262.225 431.563,260.725 430,259.5C 428.975,255.55 430.475,253.217 434.5,252.5C 437.068,253.559 439.235,255.226 441,257.5C 441.75,256.874 442.584,256.374 443.5,256C 442,254.5 440.5,253 439,251.5C 437.409,244.923 439.909,242.756 446.5,245C 448,246.5 449.5,248 451,249.5C 451.692,248.975 452.192,248.308 452.5,247.5C 451.185,245.684 449.685,244.017 448,242.5C 446.167,236.333 448.333,234.167 454.5,236C 456.96,237.458 459.127,239.291 461,241.5C 465.694,237.635 470.194,233.635 474.5,229.5 Z M 460.5,296.5 C 462.113,293.26 464.78,291.76 468.5,292C 469.536,286.964 472.536,283.964 477.5,283C 479,277.5 482.5,274 488,272.5C 489.668,266.507 487.502,264.007 481.5,265C 479.462,266.236 478.295,268.069 478,270.5C 476.355,272.662 474.188,273.995 471.5,274.5C 469.339,278.826 466.006,281.992 461.5,284C 458.345,288.654 454.345,292.487 449.5,295.5C 446.58,293.778 444.747,291.445 444,288.5C 447.735,284.596 451.568,280.929 455.5,277.5C 456.959,272.882 459.959,269.882 464.5,268.5C 465.906,263.593 469.072,260.593 474,259.5C 475.973,252.138 473.473,249.638 466.5,252C 465.5,257 462.5,260 457.5,261C 456.298,266.202 453.131,269.369 448,270.5C 447.467,274.391 445.634,277.391 442.5,279.5C 442.335,275.818 442.501,272.152 443,268.5C 455.185,258.738 467.185,248.738 479,238.5C 486.513,243.485 493.179,249.485 499,256.5C 499.982,257.759 500.315,259.092 500,260.5C 490.167,272.333 480.333,284.167 470.5,296C 467.183,296.498 463.85,296.665 460.5,296.5 Z M 325.5,380.5 C 326.873,380.343 328.207,380.51 329.5,381C 327.703,382.594 326.703,384.594 326.5,387C 327.8,389.574 328.967,392.074 330,394.5C 314.833,409.667 299.667,424.833 284.5,440C 283.833,440.667 283.167,440.667 282.5,440C 278.907,435.734 274.741,432.234 270,429.5C 265.794,430.593 264.461,433.26 266,437.5C 269.5,441 273,444.5 276.5,448C 267.5,457 258.5,466 249.5,475C 247.833,475.333 246.167,475.667 244.5,476C 240.833,479.667 237.167,483.333 233.5,487C 232.833,487.667 232.167,487.667 231.5,487C 216.51,459.691 218.676,433.857 238,409.5C 247.059,400.121 257.893,393.621 270.5,390C 288.995,386.957 307.328,383.79 325.5,380.5 Z M 358.5,409.5 C 355.791,430.959 352.291,452.292 348,473.5C 336.834,501.16 316.334,515.827 286.5,517.5C 273.753,517.528 262.087,514.028 251.5,507C 255.333,503.167 259.167,499.333 263,495.5C 263.973,493.608 264.64,491.608 265,489.5C 273.5,481 282,472.5 290.5,464C 291.167,463.333 291.833,463.333 292.5,464C 296.056,468.059 300.056,471.559 304.5,474.5C 309.47,472.945 310.637,469.945 308,465.5C 304.833,462.333 301.667,459.167 298.5,456C 314.333,440.167 330.167,424.333 346,408.5C 349.862,413.397 354.028,413.73 358.5,409.5 Z M 248.5,485.5 C 252.533,485.691 254.033,487.691 253,491.5C 249.985,494.683 246.818,497.683 243.5,500.5C 241.684,499.185 240.017,497.685 238.5,496C 242.037,492.631 245.371,489.131 248.5,485.5 Z"/></g>
<g><path style="opacity:0.661" fill="#000000" d="M 330.5,494.5 C 330.5,493.833 330.167,493.5 329.5,493.5C 329.5,491.833 329.5,490.167 329.5,488.5C 334.667,487.492 336.334,489.325 334.5,494C 333.207,494.49 331.873,494.657 330.5,494.5 Z"/></g>
<g><path style="opacity:0.802" fill="#000000" d="M 329.5,493.5 C 330.167,493.5 330.5,493.833 330.5,494.5C 330.822,496.722 330.155,498.556 328.5,500C 313.358,511.716 296.358,516.049 277.5,513C 276.167,511.333 276.167,509.667 277.5,508C 295.124,509.567 310.791,504.9 324.5,494C 326.134,493.506 327.801,493.34 329.5,493.5 Z"/></g>
</svg>
