<?xml version="1.0" encoding="UTF-8"?>
<!DOCTYPE svg PUBLIC "-//W3C//DTD SVG 1.1//EN" "http://www.w3.org/Graphics/SVG/1.1/DTD/svg11.dtd">
<svg xmlns="http://www.w3.org/2000/svg" version="1.1" width="752px" height="752px" style="shape-rendering:geometricPrecision; text-rendering:geometricPrecision; image-rendering:optimizeQuality; fill-rule:evenodd; clip-rule:evenodd" xmlns:xlink="http://www.w3.org/1999/xlink">
<g><path style="opacity:0.943" fill="#000000" d="M 274.5,153.5 C 303.964,150.823 328.464,160.49 348,182.5C 369.666,209.197 381.332,239.864 383,274.5C 386.266,316.793 375.266,354.793 350,388.5C 341.195,398.308 331.028,406.308 319.5,412.5C 319.167,417 318.833,421.5 318.5,426C 320.206,474.526 322.206,523.026 324.5,571.5C 323.399,581.21 319.065,589.043 311.5,595C 309.913,595.862 308.246,596.529 306.5,597C 293.167,597.667 279.833,597.667 266.5,597C 253.551,590.776 247.884,580.442 249.5,566C 251.654,515.161 253.487,464.327 255,413.5C 231.004,399.83 213.671,380.163 203,354.5C 190.27,321.801 186.937,288.134 193,253.5C 198.423,220.14 213.59,192.307 238.5,170C 249.46,162.017 261.46,156.517 274.5,153.5 Z M 282.5,168.5 C 305.731,168.782 324.397,178.115 338.5,196.5C 303.838,197.667 269.171,197.833 234.5,197C 246.732,181.055 262.732,171.555 282.5,168.5 Z M 223.5,213.5 C 265.839,213.167 308.172,213.5 350.5,214.5C 354.866,223.062 358.532,231.896 361.5,241C 311.834,241.5 262.168,241.667 212.5,241.5C 214.989,231.699 218.656,222.366 223.5,213.5 Z M 208.5,257.5 C 260.833,257.5 313.167,257.5 365.5,257.5C 367.49,272.021 367.823,286.521 366.5,301C 313.168,301.5 259.834,301.667 206.5,301.5C 205.09,286.73 205.757,272.064 208.5,257.5 Z M 208.5,316.5 C 260.5,316.5 312.5,316.5 364.5,316.5C 364.206,321.175 363.206,325.675 361.5,330C 311.501,330.5 261.501,330.667 211.5,330.5C 210.5,325.833 209.5,321.167 208.5,316.5 Z M 217.5,346.5 C 263.835,346.333 310.168,346.5 356.5,347C 352.05,356.74 346.717,365.907 340.5,374.5C 304.838,375.667 269.171,375.833 233.5,375C 226.735,366.303 221.402,356.803 217.5,346.5 Z M 249.5,391.5 C 274.33,390.337 299.33,390.17 324.5,391C 318.154,395.174 311.488,398.841 304.5,402C 302.98,403.885 301.98,406.051 301.5,408.5C 303.344,441.783 304.678,475.116 305.5,508.5C 292.833,508.5 280.167,508.5 267.5,508.5C 269.077,474.17 270.244,439.837 271,405.5C 270.215,403.714 269.049,402.214 267.5,401C 261.03,398.6 255.03,395.433 249.5,391.5 Z M 266.5,523.5 C 279.833,523.5 293.167,523.5 306.5,523.5C 306.5,528.167 306.5,532.833 306.5,537.5C 293.167,537.5 279.833,537.5 266.5,537.5C 266.5,532.833 266.5,528.167 266.5,523.5 Z M 265.5,553.5 C 279.5,553.5 293.5,553.5 307.5,553.5C 307.391,558.86 307.724,564.193 308.5,569.5C 306.513,581.763 299.346,586.096 287,582.5C 282.167,582.333 277.333,582.167 272.5,582C 270.061,581.226 268.227,579.726 267,577.5C 265.565,569.611 265.065,561.611 265.5,553.5 Z"/></g>
<g><path style="opacity:0.943" fill="#000000" d="M 444.5,153.5 C 457.837,153.333 471.171,153.5 484.5,154C 497.449,160.224 503.116,170.558 501.5,185C 499.346,235.839 497.513,286.673 496,337.5C 520.018,351.152 537.351,370.819 548,396.5C 560.73,429.199 564.063,462.866 558,497.5C 552.7,530.274 537.867,557.774 513.5,580C 490.593,598.113 465.259,602.446 437.5,593C 415.192,583.027 398.359,567.194 387,545.5C 363.382,496.391 361.382,446.391 381,395.5C 388.68,377.487 399.846,361.987 414.5,349C 419.832,344.999 425.498,341.499 431.5,338.5C 431.833,334 432.167,329.5 432.5,325C 430.781,276.311 428.781,227.645 426.5,179C 427.769,166.899 433.769,158.399 444.5,153.5 Z M 449.5,168.5 C 459.172,168.334 468.839,168.5 478.5,169C 481.667,170.167 483.833,172.333 485,175.5C 485.5,182.826 485.666,190.159 485.5,197.5C 471.5,197.5 457.5,197.5 443.5,197.5C 443.22,190.816 443.053,184.15 443,177.5C 444.222,173.686 446.389,170.686 449.5,168.5 Z M 444.5,213.5 C 457.833,213.5 471.167,213.5 484.5,213.5C 484.5,218.167 484.5,222.833 484.5,227.5C 471.167,227.5 457.833,227.5 444.5,227.5C 444.5,222.833 444.5,218.167 444.5,213.5 Z M 445.5,242.5 C 458.167,242.5 470.833,242.5 483.5,242.5C 481.923,276.83 480.756,311.163 480,345.5C 480.785,347.286 481.951,348.786 483.5,350C 490.113,352.305 496.113,355.638 501.5,360C 476.5,360.667 451.5,360.667 426.5,360C 432.877,355.811 439.544,352.145 446.5,349C 447.786,346.978 448.786,344.811 449.5,342.5C 447.656,309.217 446.322,275.884 445.5,242.5 Z M 410.5,375.5 C 446.168,375.333 481.835,375.5 517.5,376C 523.983,384.461 529.316,393.628 533.5,403.5C 487.17,404.667 440.837,404.833 394.5,404C 399.224,394.041 404.557,384.541 410.5,375.5 Z M 389.5,420.5 C 439.5,420.5 489.5,420.5 539.5,420.5C 540.5,425.167 541.5,429.833 542.5,434.5C 490.5,434.5 438.5,434.5 386.5,434.5C 386.874,429.675 387.874,425.008 389.5,420.5 Z M 384.5,449.5 C 437.833,449.5 491.167,449.5 544.5,449.5C 545.952,463.939 545.285,478.272 542.5,492.5C 490.171,493.5 437.838,493.833 385.5,493.5C 383.498,478.812 383.165,464.146 384.5,449.5 Z M 389.5,510.5 C 438.997,509.501 488.664,509.168 538.5,509.5C 536.111,519.166 532.444,528.332 527.5,537C 485.163,537.833 442.829,537.667 400.5,536.5C 396.23,527.975 392.563,519.308 389.5,510.5 Z M 412.5,553.5 C 447.168,553.333 481.835,553.5 516.5,554C 494.287,582.054 466.954,588.72 434.5,574C 425.692,568.69 418.359,561.857 412.5,553.5 Z"/></g>
<g><path style="opacity:0.842" fill="#000000" d="M 239.5,271.5 C 249.197,271.29 252.197,275.623 248.5,284.5C 243.241,288.725 238.741,288.058 235,282.5C 233.393,277.438 234.893,273.772 239.5,271.5 Z"/></g>
<g><path style="opacity:0.842" fill="#000000" d="M 283.5,271.5 C 294.632,271.782 297.299,276.616 291.5,286C 281.333,288.5 277.5,284.667 280,274.5C 281.145,273.364 282.312,272.364 283.5,271.5 Z"/></g>
<g><path style="opacity:0.863" fill="#000000" d="M 327.5,271.5 C 336.778,270.376 340.278,274.376 338,283.5C 332.889,288.885 328.223,288.552 324,282.5C 322.662,277.96 323.829,274.293 327.5,271.5 Z"/></g>
<g><path style="opacity:0.86" fill="#000000" d="M 417.5,463.5 C 425.717,463.547 428.883,467.547 427,475.5C 422.239,480.812 417.572,480.812 413,475.5C 411.309,470.131 412.809,466.131 417.5,463.5 Z"/></g>
<g><path style="opacity:0.842" fill="#000000" d="M 462.5,463.5 C 470.867,464.237 473.701,468.57 471,476.5C 466.046,480.677 461.38,480.343 457,475.5C 455.393,469.721 457.227,465.721 462.5,463.5 Z"/></g>
<g><path style="opacity:0.847" fill="#000000" d="M 506.5,463.5 C 514.168,463.332 517.335,466.999 516,474.5C 512.987,479.535 508.82,480.702 503.5,478C 499.038,472.018 500.038,467.185 506.5,463.5 Z"/></g>
</svg>
