<?xml version="1.0" encoding="UTF-8"?>
<!DOCTYPE svg PUBLIC "-//W3C//DTD SVG 1.1//EN" "http://www.w3.org/Graphics/SVG/1.1/DTD/svg11.dtd">
<svg xmlns="http://www.w3.org/2000/svg" version="1.1" width="752px" height="752px" style="shape-rendering:geometricPrecision; text-rendering:geometricPrecision; image-rendering:optimizeQuality; fill-rule:evenodd; clip-rule:evenodd" xmlns:xlink="http://www.w3.org/1999/xlink">
<g><path style="opacity:0.952" fill="#000000" d="M 467.5,249.5 C 480.171,249.333 492.838,249.5 505.5,250C 507.562,251.532 508.896,253.532 509.5,256C 527.5,256.333 545.5,256.667 563.5,257C 565.667,257.833 567.167,259.333 568,261.5C 568.667,270.833 568.667,280.167 568,289.5C 566.833,292 565,293.833 562.5,295C 550.668,301.748 539.001,308.748 527.5,316C 521.472,316.17 515.472,316.67 509.5,317.5C 508.363,320.47 506.363,322.636 503.5,324C 492.167,324.667 480.833,324.667 469.5,324C 466.667,323.167 464.833,321.333 464,318.5C 463.502,315.518 463.335,312.518 463.5,309.5C 458.833,309.5 454.167,309.5 449.5,309.5C 449.481,314.35 446.981,316.683 442,316.5C 437.063,316.729 434.563,314.396 434.5,309.5C 357.166,309.333 279.833,309.5 202.5,310C 201.333,311.167 200.167,312.333 199,313.5C 198.333,344.833 198.333,376.167 199,407.5C 199.903,406.299 201.069,405.465 202.5,405C 210.76,403.06 218.927,400.894 227,398.5C 227.333,383.5 227.667,368.5 228,353.5C 230.833,346.667 235.667,341.833 242.5,339C 345.833,338.333 449.167,338.333 552.5,339C 561.186,341.687 566.353,347.521 568,356.5C 568.333,375.5 568.667,394.5 569,413.5C 577.073,415.894 585.24,418.06 593.5,420C 595.333,420.5 596.5,421.667 597,423.5C 597.667,435.833 597.667,448.167 597,460.5C 596.5,462.333 595.333,463.5 593.5,464C 585.494,466.168 577.494,468.335 569.5,470.5C 569.985,480.079 567.319,488.579 561.5,496C 558.446,498.194 555.112,499.861 551.5,501C 448.833,501.667 346.167,501.667 243.5,501C 236.091,498.592 230.924,493.758 228,486.5C 227.501,481.177 227.334,475.844 227.5,470.5C 218.768,468.65 210.101,466.484 201.5,464C 199.077,462.429 197.744,460.263 197.5,457.5C 175.293,459.091 160.793,449.425 154,428.5C 153.333,383.167 153.333,337.833 154,292.5C 157.833,278 167,268.833 181.5,265C 265.833,264.5 350.166,264.333 434.5,264.5C 434.711,259.786 437.211,257.12 442,256.5C 446.789,257.12 449.289,259.786 449.5,264.5C 454.167,264.5 458.833,264.5 463.5,264.5C 462.555,258.764 463.889,253.764 467.5,249.5 Z M 479.5,264.5 C 484.167,264.5 488.833,264.5 493.5,264.5C 493.5,279.167 493.5,293.833 493.5,308.5C 488.833,308.5 484.167,308.5 479.5,308.5C 479.5,293.833 479.5,279.167 479.5,264.5 Z M 509.5,272.5 C 523.833,272.5 538.167,272.5 552.5,272.5C 552.789,276.106 552.456,279.606 551.5,283C 541.5,289 531.5,295 521.5,301C 517.514,301.499 513.514,301.666 509.5,301.5C 509.5,291.833 509.5,282.167 509.5,272.5 Z M 187.5,279.5 C 269.833,279.5 352.167,279.5 434.5,279.5C 434.5,284.167 434.5,288.833 434.5,293.5C 356.499,293.333 278.499,293.5 200.5,294C 191.333,296.5 185.5,302.333 183,311.5C 182.333,348.5 182.333,385.5 183,422.5C 183.785,424.286 184.951,425.786 186.5,427C 190.152,427.499 193.818,427.665 197.5,427.5C 197.5,432.167 197.5,436.833 197.5,441.5C 182.301,443.496 172.801,437.163 169,422.5C 168.333,381.167 168.333,339.833 169,298.5C 171.348,288.32 177.515,281.987 187.5,279.5 Z M 449.5,279.5 C 454.167,279.5 458.833,279.5 463.5,279.5C 463.5,284.167 463.5,288.833 463.5,293.5C 458.833,293.5 454.167,293.5 449.5,293.5C 449.5,288.833 449.5,284.167 449.5,279.5 Z M 248.5,353.5 C 348.167,353.333 447.834,353.5 547.5,354C 549.667,354.833 551.167,356.333 552,358.5C 552.667,399.5 552.667,440.5 552,481.5C 551.5,483.333 550.333,484.5 548.5,485C 545.274,486.199 541.941,486.699 538.5,486.5C 538.667,448.165 538.5,409.832 538,371.5C 537.167,370.667 536.333,369.833 535.5,369C 489.582,367.838 443.582,367.338 397.5,367.5C 351.418,367.338 305.418,367.838 259.5,369C 258.299,369.903 257.465,371.069 257,372.5C 256.5,410.499 256.333,448.499 256.5,486.5C 250.552,487.472 246.052,485.472 243,480.5C 242.333,440.167 242.333,399.833 243,359.5C 244.021,356.65 245.854,354.65 248.5,353.5 Z M 272.5,383.5 C 277.167,383.5 281.833,383.5 286.5,383.5C 286.333,401.836 286.5,420.17 287,438.5C 288.167,439.667 289.333,440.833 290.5,442C 294.152,442.499 297.818,442.665 301.5,442.5C 301.5,457.167 301.5,471.833 301.5,486.5C 291.833,486.5 282.167,486.5 272.5,486.5C 272.5,452.167 272.5,417.833 272.5,383.5 Z M 302.5,383.5 C 306.833,383.5 311.167,383.5 315.5,383.5C 315.5,397.833 315.5,412.167 315.5,426.5C 311.167,426.5 306.833,426.5 302.5,426.5C 302.5,412.167 302.5,397.833 302.5,383.5 Z M 331.5,383.5 C 336.167,383.5 340.833,383.5 345.5,383.5C 345.5,417.833 345.5,452.167 345.5,486.5C 335.833,486.5 326.167,486.5 316.5,486.5C 316.5,471.833 316.5,457.167 316.5,442.5C 319.85,442.665 323.183,442.498 326.5,442C 328.286,441.215 329.786,440.049 331,438.5C 331.5,420.17 331.667,401.836 331.5,383.5 Z M 361.5,383.5 C 366.167,383.5 370.833,383.5 375.5,383.5C 375.333,401.836 375.5,420.17 376,438.5C 376.5,440.333 377.667,441.5 379.5,442C 382.817,442.498 386.15,442.665 389.5,442.5C 389.5,457.167 389.5,471.833 389.5,486.5C 380.167,486.5 370.833,486.5 361.5,486.5C 361.5,452.167 361.5,417.833 361.5,383.5 Z M 390.5,383.5 C 395.167,383.5 399.833,383.5 404.5,383.5C 404.5,397.833 404.5,412.167 404.5,426.5C 399.833,426.5 395.167,426.5 390.5,426.5C 390.5,412.167 390.5,397.833 390.5,383.5 Z M 420.5,383.5 C 425.167,383.5 429.833,383.5 434.5,383.5C 434.5,417.833 434.5,452.167 434.5,486.5C 424.833,486.5 415.167,486.5 405.5,486.5C 405.5,471.833 405.5,457.167 405.5,442.5C 408.85,442.665 412.183,442.498 415.5,442C 417.667,441.167 419.167,439.667 420,437.5C 420.5,419.503 420.667,401.503 420.5,383.5 Z M 449.5,383.5 C 454.167,383.5 458.833,383.5 463.5,383.5C 463.333,401.17 463.5,418.836 464,436.5C 464.398,439.232 465.898,441.065 468.5,442C 471.817,442.498 475.15,442.665 478.5,442.5C 478.5,457.167 478.5,471.833 478.5,486.5C 468.833,486.5 459.167,486.5 449.5,486.5C 449.5,452.167 449.5,417.833 449.5,383.5 Z M 479.5,383.5 C 484.167,383.5 488.833,383.5 493.5,383.5C 493.5,397.833 493.5,412.167 493.5,426.5C 488.833,426.5 484.167,426.5 479.5,426.5C 479.5,412.167 479.5,397.833 479.5,383.5 Z M 509.5,383.5 C 513.833,383.5 518.167,383.5 522.5,383.5C 522.5,417.833 522.5,452.167 522.5,486.5C 513.167,486.5 503.833,486.5 494.5,486.5C 494.5,471.833 494.5,457.167 494.5,442.5C 497.85,442.665 501.183,442.498 504.5,442C 507.102,441.065 508.602,439.232 509,436.5C 509.5,418.836 509.667,401.17 509.5,383.5 Z M 224.5,415.5 C 225.5,415.5 226.5,415.5 227.5,415.5C 227.667,428.504 227.5,441.504 227,454.5C 222.667,453.167 218.333,451.833 214,450.5C 213.5,439.839 213.333,429.172 213.5,418.5C 217.397,417.945 221.063,416.945 224.5,415.5 Z M 568.5,430.5 C 572.936,431.026 577.269,432.026 581.5,433.5C 582.833,439.167 582.833,444.833 581.5,450.5C 577.269,451.974 572.936,452.974 568.5,453.5C 568.5,445.833 568.5,438.167 568.5,430.5 Z"/></g>
</svg>
