<?xml version="1.0" encoding="UTF-8"?>
<!DOCTYPE svg PUBLIC "-//W3C//DTD SVG 1.1//EN" "http://www.w3.org/Graphics/SVG/1.1/DTD/svg11.dtd">
<svg xmlns="http://www.w3.org/2000/svg" version="1.1" width="752px" height="752px" style="shape-rendering:geometricPrecision; text-rendering:geometricPrecision; image-rendering:optimizeQuality; fill-rule:evenodd; clip-rule:evenodd" xmlns:xlink="http://www.w3.org/1999/xlink">
<g><path style="opacity:0.934" fill="#000000" d="M 576.5,138.5 C 579.649,138.211 582.649,138.711 585.5,140C 591.333,145.833 597.167,151.667 603,157.5C 604.483,160.702 604.817,164.036 604,167.5C 591,183.833 578,200.167 565,216.5C 559.333,229.833 553.667,243.167 548,256.5C 541.667,262.833 535.333,269.167 529,275.5C 528.667,283.5 528.333,291.5 528,299.5C 527.004,305.159 523.838,308.993 518.5,311C 509.828,312.55 501.162,312.884 492.5,312C 488.333,316.167 484.167,320.333 480,324.5C 479.667,332.833 479.333,341.167 479,349.5C 477.598,355.236 474.098,359.069 468.5,361C 459.833,361.333 451.167,361.667 442.5,362C 438,366.5 433.5,371 429,375.5C 428.667,384.167 428.333,392.833 428,401.5C 426.217,407.157 422.384,410.657 416.5,412C 408.587,412.814 400.754,412.647 393,411.5C 357.639,446.528 322.639,481.861 288,517.5C 275.741,531.675 265.741,547.341 258,564.5C 255.681,570.124 254.181,575.958 253.5,582C 254.556,587.599 256.556,592.766 259.5,597.5C 258.82,600.36 257.487,602.86 255.5,605C 243.142,613.78 230.142,614.78 216.5,608C 194.305,586.139 172.471,563.972 151,541.5C 144.139,526.835 146.305,513.669 157.5,502C 162.017,499.642 166.017,500.308 169.5,504C 175.152,505.936 180.818,505.936 186.5,504C 201.449,499.359 215.116,492.359 227.5,483C 234.5,477.333 241.5,471.667 248.5,466C 312.942,400.225 377.942,335.225 443.5,271C 487.674,226.659 532.008,182.492 576.5,138.5 Z M 579.5,158.5 C 582.532,159.999 584.032,162.332 584,165.5C 574.619,176.545 565.619,187.879 557,199.5C 553.833,196.333 550.667,193.167 547.5,190C 558.672,179.994 569.339,169.494 579.5,158.5 Z M 534.5,203.5 C 539.01,207.177 543.01,211.343 546.5,216C 542.195,226.582 537.695,237.082 533,247.5C 527.333,253.167 521.667,258.833 516,264.5C 508.246,263.353 500.413,263.186 492.5,264C 485.667,265.5 481.5,269.667 480,276.5C 479.667,284.833 479.333,293.167 479,301.5C 475.167,305.333 471.333,309.167 467.5,313C 437,307.5 424.5,320 430,350.5C 425.5,355 421,359.5 416.5,364C 409.886,363.457 403.219,363.457 396.5,364C 388.051,364.117 382.884,368.284 381,376.5C 380.667,384.5 380.333,392.5 380,400.5C 352.167,428.333 324.333,456.167 296.5,484C 295.833,484.667 295.167,484.667 294.5,484C 288,477.5 281.5,471 275,464.5C 274.333,463.833 274.333,463.167 275,462.5C 298.361,438.805 322.028,415.472 346,392.5C 350.286,398.473 355.786,399.973 362.5,397C 366.026,390.23 364.692,384.563 358.5,380C 370.833,367.667 383.167,355.333 395.5,343C 398.993,345.43 402.826,347.597 407,349.5C 414.674,347.485 417.007,342.819 414,335.5C 412.167,333.667 410.333,331.833 408.5,330C 420.833,317.667 433.167,305.333 445.5,293C 446.167,292.333 446.833,292.333 447.5,293C 451.419,298.463 456.419,299.796 462.5,297C 466.795,290.185 465.462,284.518 458.5,280C 472.833,265.667 487.167,251.333 501.5,237C 502.167,236.333 502.833,236.333 503.5,237C 507.697,242.692 512.864,243.859 519,240.5C 522.645,233.75 521.145,228.25 514.5,224C 521.369,217.298 528.036,210.465 534.5,203.5 Z M 496.5,282.5 C 501.5,282.5 506.5,282.5 511.5,282.5C 511.5,286.833 511.5,291.167 511.5,295.5C 506.5,295.5 501.5,295.5 496.5,295.5C 496.5,291.167 496.5,286.833 496.5,282.5 Z M 447.5,330.5 C 452.179,330.334 456.845,330.501 461.5,331C 462.469,335.737 462.803,340.57 462.5,345.5C 457.5,345.5 452.5,345.5 447.5,345.5C 447.5,340.5 447.5,335.5 447.5,330.5 Z M 397.5,380.5 C 402.5,380.5 407.5,380.5 412.5,380.5C 412.5,385.5 412.5,390.5 412.5,395.5C 407.5,395.5 402.5,395.5 397.5,395.5C 397.5,390.5 397.5,385.5 397.5,380.5 Z M 261.5,476.5 C 269.008,483.174 276.008,490.341 282.5,498C 267.667,514.154 255.167,531.987 245,551.5C 238.677,563.791 236.343,576.791 238,590.5C 238.273,592.101 238.773,593.601 239.5,595C 235.045,596.859 230.711,596.525 226.5,594C 206.333,573.833 186.167,553.667 166,533.5C 163.099,529.205 162.932,524.872 165.5,520.5C 179.693,523.248 193.36,521.415 206.5,515C 226.999,505.099 245.332,492.265 261.5,476.5 Z"/></g>
</svg>
