<?xml version="1.0" encoding="UTF-8"?>
<!DOCTYPE svg PUBLIC "-//W3C//DTD SVG 1.1//EN" "http://www.w3.org/Graphics/SVG/1.1/DTD/svg11.dtd">
<svg xmlns="http://www.w3.org/2000/svg" version="1.1" width="752px" height="752px" style="shape-rendering:geometricPrecision; text-rendering:geometricPrecision; image-rendering:optimizeQuality; fill-rule:evenodd; clip-rule:evenodd" xmlns:xlink="http://www.w3.org/1999/xlink">
<g><path style="opacity:0.939" fill="#000000" d="M 175.5,167.5 C 308.834,167.333 442.167,167.5 575.5,168C 579.333,169.167 581.833,171.667 583,175.5C 583.667,308.833 583.667,442.167 583,575.5C 581.833,579.333 579.333,581.833 575.5,583C 442.167,583.667 308.833,583.667 175.5,583C 171.667,581.833 169.167,579.333 168,575.5C 167.333,442.167 167.333,308.833 168,175.5C 169.353,171.65 171.853,168.983 175.5,167.5 Z M 188.5,188.5 C 313.167,188.5 437.833,188.5 562.5,188.5C 562.5,313.167 562.5,437.833 562.5,562.5C 437.833,562.5 313.167,562.5 188.5,562.5C 188.5,437.833 188.5,313.167 188.5,188.5 Z M 256.5,227.5 C 274.13,229.797 284.13,239.797 286.5,257.5C 284.433,275.067 274.6,284.733 257,286.5C 235.873,283.044 226.539,270.711 229,249.5C 233.655,236.329 242.822,228.995 256.5,227.5 Z M 374.5,227.5 C 397.187,230.876 406.687,243.876 403,266.5C 393.752,285.138 379.585,290.305 360.5,282C 344.933,269.79 342.433,255.29 353,238.5C 358.845,232.064 366.012,228.397 374.5,227.5 Z M 493.5,227.5 C 514.855,230.69 524.355,243.023 522,264.5C 515.45,281.358 503.283,288.191 485.5,285C 472.838,279.994 465.838,270.661 464.5,257C 467.044,239.957 476.71,230.124 493.5,227.5 Z M 228.5,346.5 C 247.833,346.5 267.167,346.5 286.5,346.5C 286.5,365.833 286.5,385.167 286.5,404.5C 267.167,404.5 247.833,404.5 228.5,404.5C 228.5,385.167 228.5,365.833 228.5,346.5 Z M 346.5,346.5 C 365.833,346.5 385.167,346.5 404.5,346.5C 404.5,365.833 404.5,385.167 404.5,404.5C 385.167,404.5 365.833,404.5 346.5,404.5C 346.5,385.167 346.5,365.833 346.5,346.5 Z M 464.5,346.5 C 483.833,346.5 503.167,346.5 522.5,346.5C 522.5,365.833 522.5,385.167 522.5,404.5C 503.167,404.5 483.833,404.5 464.5,404.5C 464.5,385.167 464.5,365.833 464.5,346.5 Z M 228.5,464.5 C 247.833,464.5 267.167,464.5 286.5,464.5C 286.5,484.167 286.5,503.833 286.5,523.5C 267.167,523.5 247.833,523.5 228.5,523.5C 228.5,503.833 228.5,484.167 228.5,464.5 Z M 346.5,464.5 C 365.833,464.5 385.167,464.5 404.5,464.5C 404.5,484.167 404.5,503.833 404.5,523.5C 385.167,523.5 365.833,523.5 346.5,523.5C 346.5,503.833 346.5,484.167 346.5,464.5 Z M 464.5,464.5 C 483.833,464.5 503.167,464.5 522.5,464.5C 522.5,484.167 522.5,503.833 522.5,523.5C 503.167,523.5 483.833,523.5 464.5,523.5C 464.5,503.833 464.5,484.167 464.5,464.5 Z"/></g>
<g><path style="opacity:0.944" fill="#000000" d="M 248.5,207.5 C 278.558,205.418 297.725,218.751 306,247.5C 309.21,275.59 297.71,294.757 271.5,305C 248.042,310.603 229.209,303.77 215,284.5C 202.102,259.646 205.602,237.479 225.5,218C 232.506,212.827 240.173,209.327 248.5,207.5 Z M 256.5,227.5 C 242.822,228.995 233.655,236.329 229,249.5C 226.539,270.711 235.873,283.044 257,286.5C 274.6,284.733 284.433,275.067 286.5,257.5C 284.13,239.797 274.13,229.797 256.5,227.5 Z"/></g>
<g><path style="opacity:0.943" fill="#000000" d="M 366.5,207.5 C 395.749,205.295 414.916,217.961 424,245.5C 428.208,271.584 418.708,290.751 395.5,303C 365.395,312.531 343.229,303.365 329,275.5C 320.434,240.951 332.934,218.284 366.5,207.5 Z M 374.5,227.5 C 366.012,228.397 358.845,232.064 353,238.5C 342.433,255.29 344.933,269.79 360.5,282C 379.585,290.305 393.752,285.138 403,266.5C 406.687,243.876 397.187,230.876 374.5,227.5 Z"/></g>
<g><path style="opacity:0.944" fill="#000000" d="M 485.5,207.5 C 515.999,205.524 535.166,219.191 543,248.5C 545.567,278.582 532.401,297.749 503.5,306C 473.343,309.152 453.843,296.319 445,267.5C 441.761,235.947 455.261,215.947 485.5,207.5 Z M 493.5,227.5 C 476.71,230.124 467.044,239.957 464.5,257C 465.838,270.661 472.838,279.994 485.5,285C 503.283,288.191 515.45,281.358 522,264.5C 524.355,243.023 514.855,230.69 493.5,227.5 Z"/></g>
<g><path style="opacity:0.89" fill="#000000" d="M 383.5,236.5 C 393.095,237.008 396.928,242.008 395,251.5C 392.081,257.025 387.581,258.858 381.5,257C 375.891,253.723 374.058,248.89 376,242.5C 377.707,239.41 380.207,237.41 383.5,236.5 Z"/></g>
<g><path style="opacity:0.881" fill="#000000" d="M 243.5,256.5 C 256.15,256.792 259.983,262.792 255,274.5C 245.339,279.891 239.173,277.225 236.5,266.5C 237.304,262.04 239.637,258.707 243.5,256.5 Z"/></g>
<g><path style="opacity:0.881" fill="#000000" d="M 480.5,256.5 C 493.114,256.941 496.947,262.941 492,274.5C 482.585,279.809 476.419,277.309 473.5,267C 474.074,262.271 476.407,258.771 480.5,256.5 Z"/></g>
<g><path style="opacity:0.952" fill="#000000" d="M 214.5,325.5 C 242.835,325.333 271.169,325.5 299.5,326C 301.587,326.792 303.421,327.959 305,329.5C 306.651,359.414 306.984,389.414 306,419.5C 304.749,422.381 302.583,424.214 299.5,425C 271.167,425.667 242.833,425.667 214.5,425C 211.417,424.214 209.251,422.381 208,419.5C 207.333,390.167 207.333,360.833 208,331.5C 209.494,328.686 211.66,326.686 214.5,325.5 Z M 228.5,346.5 C 228.5,365.833 228.5,385.167 228.5,404.5C 247.833,404.5 267.167,404.5 286.5,404.5C 286.5,385.167 286.5,365.833 286.5,346.5C 267.167,346.5 247.833,346.5 228.5,346.5 Z"/></g>
<g><path style="opacity:0.94" fill="#000000" d="M 333.5,325.5 C 361.502,325.333 389.502,325.5 417.5,326C 420.196,326.69 422.363,328.19 424,330.5C 425.642,359.438 425.975,388.438 425,417.5C 424.31,420.196 422.81,422.363 420.5,424C 391.562,425.642 362.562,425.975 333.5,425C 330.804,424.31 328.637,422.81 327,420.5C 325.358,391.562 325.025,362.562 326,333.5C 327.353,329.65 329.853,326.983 333.5,325.5 Z M 346.5,346.5 C 346.5,365.833 346.5,385.167 346.5,404.5C 365.833,404.5 385.167,404.5 404.5,404.5C 404.5,385.167 404.5,365.833 404.5,346.5C 385.167,346.5 365.833,346.5 346.5,346.5 Z"/></g>
<g><path style="opacity:0.952" fill="#000000" d="M 451.5,325.5 C 479.835,325.333 508.169,325.5 536.5,326C 539.583,326.786 541.749,328.619 543,331.5C 543.667,360.833 543.667,390.167 543,419.5C 541.749,422.381 539.583,424.214 536.5,425C 508.167,425.667 479.833,425.667 451.5,425C 449.413,424.208 447.579,423.041 446,421.5C 444.349,391.586 444.016,361.586 445,331.5C 446.494,328.686 448.66,326.686 451.5,325.5 Z M 464.5,346.5 C 464.5,365.833 464.5,385.167 464.5,404.5C 483.833,404.5 503.167,404.5 522.5,404.5C 522.5,385.167 522.5,365.833 522.5,346.5C 503.167,346.5 483.833,346.5 464.5,346.5 Z"/></g>
<g><path style="opacity:0.925" fill="#000000" d="M 243.5,355.5 C 250.284,355.08 256.95,355.58 263.5,357C 269.376,363.854 268.709,369.854 261.5,375C 254.392,375.924 247.392,375.591 240.5,374C 234.716,366.654 235.716,360.488 243.5,355.5 Z"/></g>
<g><path style="opacity:0.934" fill="#000000" d="M 361.5,355.5 C 368.284,355.08 374.95,355.58 381.5,357C 385.259,360.743 386.426,365.243 385,370.5C 383.833,372.333 382.333,373.833 380.5,375C 373.833,375.667 367.167,375.667 360.5,375C 353.606,368.024 353.939,361.524 361.5,355.5 Z"/></g>
<g><path style="opacity:0.924" fill="#000000" d="M 479.5,355.5 C 485.842,355.334 492.175,355.5 498.5,356C 504.633,360.409 505.8,365.909 502,372.5C 501.097,373.701 499.931,374.535 498.5,375C 491.392,375.924 484.392,375.591 477.5,374C 471.787,367.119 472.453,360.952 479.5,355.5 Z"/></g>
<g><path style="opacity:0.973" fill="#000000" d="M 213.5,444.5 C 242.835,444.333 272.169,444.5 301.5,445C 303.333,446.167 304.833,447.667 306,449.5C 306.667,478.833 306.667,508.167 306,537.5C 305.215,539.286 304.049,540.786 302.5,542C 272.919,543.65 243.253,543.984 213.5,543C 211.714,542.215 210.214,541.049 209,539.5C 207.35,509.919 207.016,480.253 208,450.5C 209.36,447.977 211.193,445.977 213.5,444.5 Z M 228.5,464.5 C 228.5,484.167 228.5,503.833 228.5,523.5C 247.833,523.5 267.167,523.5 286.5,523.5C 286.5,503.833 286.5,484.167 286.5,464.5C 267.167,464.5 247.833,464.5 228.5,464.5 Z"/></g>
<g><path style="opacity:0.96" fill="#000000" d="M 331.5,444.5 C 360.835,444.333 390.169,444.5 419.5,445C 422.381,446.251 424.214,448.417 425,451.5C 425.667,479.833 425.667,508.167 425,536.5C 424.214,539.583 422.381,541.749 419.5,543C 390.167,543.667 360.833,543.667 331.5,543C 328.619,541.749 326.786,539.583 326,536.5C 325.333,508.167 325.333,479.833 326,451.5C 326.967,448.379 328.8,446.046 331.5,444.5 Z M 346.5,464.5 C 346.5,484.167 346.5,503.833 346.5,523.5C 365.833,523.5 385.167,523.5 404.5,523.5C 404.5,503.833 404.5,484.167 404.5,464.5C 385.167,464.5 365.833,464.5 346.5,464.5 Z"/></g>
<g><path style="opacity:0.973" fill="#000000" d="M 449.5,444.5 C 478.835,444.333 508.169,444.5 537.5,445C 539.286,445.785 540.786,446.951 542,448.5C 543.65,478.081 543.984,507.747 543,537.5C 542.215,539.286 541.049,540.786 539.5,542C 509.919,543.65 480.253,543.984 450.5,543C 448.714,542.215 447.214,541.049 446,539.5C 444.349,509.586 444.016,479.586 445,449.5C 446.366,447.638 447.866,445.972 449.5,444.5 Z M 464.5,464.5 C 464.5,484.167 464.5,503.833 464.5,523.5C 483.833,523.5 503.167,523.5 522.5,523.5C 522.5,503.833 522.5,484.167 522.5,464.5C 503.167,464.5 483.833,464.5 464.5,464.5 Z"/></g>
<g><path style="opacity:0.907" fill="#000000" d="M 244.5,473.5 C 250.621,473.09 256.621,473.59 262.5,475C 269.622,482.146 268.955,488.48 260.5,494C 254.083,494.87 247.749,494.536 241.5,493C 234.576,485.275 235.576,478.775 244.5,473.5 Z"/></g>
<g><path style="opacity:0.905" fill="#000000" d="M 362.5,473.5 C 367.844,473.334 373.177,473.501 378.5,474C 383.55,475.434 385.883,478.767 385.5,484C 385.883,489.233 383.55,492.566 378.5,494C 373.167,494.667 367.833,494.667 362.5,494C 355.947,491.27 353.78,486.437 356,479.5C 357.494,476.686 359.66,474.686 362.5,473.5 Z"/></g>
<g><path style="opacity:0.907" fill="#000000" d="M 481.5,473.5 C 487.593,473.139 493.593,473.639 499.5,475C 504.354,478.936 505.521,483.769 503,489.5C 501.363,491.81 499.196,493.31 496.5,494C 490.388,494.909 484.388,494.576 478.5,493C 471.305,485.153 472.305,478.653 481.5,473.5 Z"/></g>
</svg>
