<?xml version="1.0" encoding="UTF-8"?>
<!DOCTYPE svg PUBLIC "-//W3C//DTD SVG 1.1//EN" "http://www.w3.org/Graphics/SVG/1.1/DTD/svg11.dtd">
<svg xmlns="http://www.w3.org/2000/svg" version="1.1" width="752px" height="752px" style="shape-rendering:geometricPrecision; text-rendering:geometricPrecision; image-rendering:optimizeQuality; fill-rule:evenodd; clip-rule:evenodd" xmlns:xlink="http://www.w3.org/1999/xlink">
<g><path style="opacity:0.95" fill="#000000" d="M 540.5,153.5 C 544.584,153.043 548.417,153.71 552,155.5C 556.426,168.193 559.092,181.193 560,194.5C 559.167,195.333 558.333,196.167 557.5,197C 546.966,200.733 536.299,204.067 525.5,207C 524.978,207.561 524.645,208.228 524.5,209C 529.104,234.793 533.438,260.626 537.5,286.5C 543.842,286.334 550.175,286.5 556.5,287C 557.931,287.465 559.097,288.299 560,289.5C 560.5,308.164 560.667,326.83 560.5,345.5C 568.84,345.334 577.173,345.5 585.5,346C 587.667,346.833 589.167,348.333 590,350.5C 590.667,431.5 590.667,512.5 590,593.5C 589.5,595.333 588.333,596.5 586.5,597C 573.833,597.667 561.167,597.667 548.5,597C 547.299,596.097 546.465,594.931 546,593.5C 545.5,540.834 545.333,488.168 545.5,435.5C 506.167,435.5 466.833,435.5 427.5,435.5C 427.5,474.5 427.5,513.5 427.5,552.5C 435.84,552.334 444.173,552.5 452.5,553C 453.931,553.465 455.097,554.299 456,555.5C 457.626,567.737 457.959,580.071 457,592.5C 456.215,594.286 455.049,595.786 453.5,597C 401.5,597.667 349.5,597.667 297.5,597C 295.951,595.786 294.785,594.286 294,592.5C 293.041,580.071 293.374,567.737 295,555.5C 295.903,554.299 297.069,553.465 298.5,553C 306.827,552.5 315.16,552.334 323.5,552.5C 323.5,513.5 323.5,474.5 323.5,435.5C 284.167,435.5 244.833,435.5 205.5,435.5C 205.667,488.168 205.5,540.834 205,593.5C 204.5,595.333 203.333,596.5 201.5,597C 189.167,597.667 176.833,597.667 164.5,597C 162.667,596.5 161.5,595.333 161,593.5C 160.333,512.167 160.333,430.833 161,349.5C 162.167,348.333 163.333,347.167 164.5,346C 173.16,345.5 181.827,345.334 190.5,345.5C 190.333,326.83 190.5,308.164 191,289.5C 192.41,288.213 193.91,287.046 195.5,286C 193.21,279.173 191.543,272.173 190.5,265C 190.34,262.53 191.007,260.364 192.5,258.5C 308.597,223.465 424.597,188.465 540.5,153.5 Z M 539.5,170.5 C 540.808,175.05 542.142,179.717 543.5,184.5C 432.729,218.276 321.729,251.276 210.5,283.5C 209.974,279.064 208.974,274.731 207.5,270.5C 318.314,237.337 428.98,204.004 539.5,170.5 Z M 508.5,211.5 C 513.138,236.32 517.471,261.32 521.5,286.5C 495.167,286.5 468.833,286.5 442.5,286.5C 442.665,283.15 442.498,279.817 442,276.5C 441.215,274.714 440.049,273.214 438.5,272C 396.5,271.333 354.5,271.333 312.5,272C 311.333,273.167 310.167,274.333 309,275.5C 308.501,279.152 308.335,282.818 308.5,286.5C 292.497,286.667 276.497,286.5 260.5,286C 343.377,261.453 426.043,236.62 508.5,211.5 Z M 324.5,287.5 C 338.833,287.5 353.167,287.5 367.5,287.5C 367.5,301.833 367.5,316.167 367.5,330.5C 353.167,330.5 338.833,330.5 324.5,330.5C 324.5,316.167 324.5,301.833 324.5,287.5 Z M 383.5,287.5 C 397.833,287.5 412.167,287.5 426.5,287.5C 426.5,301.833 426.5,316.167 426.5,330.5C 412.167,330.5 397.833,330.5 383.5,330.5C 383.5,316.167 383.5,301.833 383.5,287.5 Z M 205.5,301.5 C 239.833,301.5 274.167,301.5 308.5,301.5C 308.5,311.167 308.5,320.833 308.5,330.5C 305.15,330.335 301.817,330.502 298.5,331C 297.069,331.465 295.903,332.299 295,333.5C 293.557,342.392 293.057,351.392 293.5,360.5C 264.167,360.5 234.833,360.5 205.5,360.5C 205.5,340.833 205.5,321.167 205.5,301.5 Z M 442.5,301.5 C 476.833,301.5 511.167,301.5 545.5,301.5C 545.5,321.167 545.5,340.833 545.5,360.5C 516.167,360.5 486.833,360.5 457.5,360.5C 457.666,352.16 457.5,343.827 457,335.5C 456.167,333.333 454.667,331.833 452.5,331C 449.183,330.502 445.85,330.335 442.5,330.5C 442.5,320.833 442.5,311.167 442.5,301.5 Z M 309.5,346.5 C 353.5,346.5 397.5,346.5 441.5,346.5C 441.5,351.167 441.5,355.833 441.5,360.5C 397.5,360.5 353.5,360.5 309.5,360.5C 309.5,355.833 309.5,351.167 309.5,346.5 Z M 176.5,361.5 C 181.167,361.5 185.833,361.5 190.5,361.5C 190.333,374.837 190.5,388.171 191,401.5C 191.5,403.333 192.667,404.5 194.5,405C 315.167,405.667 435.833,405.667 556.5,405C 558.333,404.5 559.5,403.333 560,401.5C 560.5,388.171 560.667,374.837 560.5,361.5C 565.167,361.5 569.833,361.5 574.5,361.5C 574.5,380.833 574.5,400.167 574.5,419.5C 441.833,419.5 309.167,419.5 176.5,419.5C 176.5,400.167 176.5,380.833 176.5,361.5 Z M 205.5,375.5 C 210.167,375.5 214.833,375.5 219.5,375.5C 219.5,380.167 219.5,384.833 219.5,389.5C 214.833,389.5 210.167,389.5 205.5,389.5C 205.5,384.833 205.5,380.167 205.5,375.5 Z M 235.5,375.5 C 240.167,375.5 244.833,375.5 249.5,375.5C 249.5,380.167 249.5,384.833 249.5,389.5C 244.833,389.5 240.167,389.5 235.5,389.5C 235.5,384.833 235.5,380.167 235.5,375.5 Z M 265.5,375.5 C 269.833,375.5 274.167,375.5 278.5,375.5C 278.5,380.167 278.5,384.833 278.5,389.5C 274.167,389.5 269.833,389.5 265.5,389.5C 265.5,384.833 265.5,380.167 265.5,375.5 Z M 294.5,375.5 C 299.167,375.5 303.833,375.5 308.5,375.5C 308.5,380.167 308.5,384.833 308.5,389.5C 303.833,389.5 299.167,389.5 294.5,389.5C 294.5,384.833 294.5,380.167 294.5,375.5 Z M 324.5,375.5 C 329.167,375.5 333.833,375.5 338.5,375.5C 338.5,380.167 338.5,384.833 338.5,389.5C 333.833,389.5 329.167,389.5 324.5,389.5C 324.5,384.833 324.5,380.167 324.5,375.5 Z M 353.5,375.5 C 358.167,375.5 362.833,375.5 367.5,375.5C 367.5,380.167 367.5,384.833 367.5,389.5C 362.833,389.5 358.167,389.5 353.5,389.5C 353.5,384.833 353.5,380.167 353.5,375.5 Z M 383.5,375.5 C 388.167,375.5 392.833,375.5 397.5,375.5C 397.5,380.167 397.5,384.833 397.5,389.5C 392.833,389.5 388.167,389.5 383.5,389.5C 383.5,384.833 383.5,380.167 383.5,375.5 Z M 412.5,375.5 C 417.167,375.5 421.833,375.5 426.5,375.5C 426.5,380.167 426.5,384.833 426.5,389.5C 421.833,389.5 417.167,389.5 412.5,389.5C 412.5,384.833 412.5,380.167 412.5,375.5 Z M 442.5,375.5 C 447.167,375.5 451.833,375.5 456.5,375.5C 456.5,380.167 456.5,384.833 456.5,389.5C 451.833,389.5 447.167,389.5 442.5,389.5C 442.5,384.833 442.5,380.167 442.5,375.5 Z M 472.5,375.5 C 476.833,375.5 481.167,375.5 485.5,375.5C 485.5,380.167 485.5,384.833 485.5,389.5C 481.167,389.5 476.833,389.5 472.5,389.5C 472.5,384.833 472.5,380.167 472.5,375.5 Z M 501.5,375.5 C 506.167,375.5 510.833,375.5 515.5,375.5C 515.5,380.167 515.5,384.833 515.5,389.5C 510.833,389.5 506.167,389.5 501.5,389.5C 501.5,384.833 501.5,380.167 501.5,375.5 Z M 531.5,375.5 C 536.167,375.5 540.833,375.5 545.5,375.5C 545.5,380.167 545.5,384.833 545.5,389.5C 540.833,389.5 536.167,389.5 531.5,389.5C 531.5,384.833 531.5,380.167 531.5,375.5 Z M 176.5,435.5 C 181.167,435.5 185.833,435.5 190.5,435.5C 190.5,484.5 190.5,533.5 190.5,582.5C 185.833,582.5 181.167,582.5 176.5,582.5C 176.5,533.5 176.5,484.5 176.5,435.5 Z M 339.5,435.5 C 363.833,435.5 388.167,435.5 412.5,435.5C 412.5,474.5 412.5,513.5 412.5,552.5C 388.167,552.5 363.833,552.5 339.5,552.5C 339.5,513.5 339.5,474.5 339.5,435.5 Z M 560.5,435.5 C 565.167,435.5 569.833,435.5 574.5,435.5C 574.5,484.5 574.5,533.5 574.5,582.5C 569.833,582.5 565.167,582.5 560.5,582.5C 560.5,533.5 560.5,484.5 560.5,435.5 Z M 309.5,568.5 C 314.167,568.5 318.833,568.5 323.5,568.5C 323.5,573.167 323.5,577.833 323.5,582.5C 318.833,582.5 314.167,582.5 309.5,582.5C 309.5,577.833 309.5,573.167 309.5,568.5 Z M 339.5,568.5 C 343.833,568.5 348.167,568.5 352.5,568.5C 352.5,573.167 352.5,577.833 352.5,582.5C 348.167,582.5 343.833,582.5 339.5,582.5C 339.5,577.833 339.5,573.167 339.5,568.5 Z M 368.5,568.5 C 373.167,568.5 377.833,568.5 382.5,568.5C 382.5,573.167 382.5,577.833 382.5,582.5C 377.833,582.5 373.167,582.5 368.5,582.5C 368.5,577.833 368.5,573.167 368.5,568.5 Z M 398.5,568.5 C 403.167,568.5 407.833,568.5 412.5,568.5C 412.5,573.167 412.5,577.833 412.5,582.5C 407.833,582.5 403.167,582.5 398.5,582.5C 398.5,577.833 398.5,573.167 398.5,568.5 Z M 427.5,568.5 C 432.167,568.5 436.833,568.5 441.5,568.5C 441.5,573.167 441.5,577.833 441.5,582.5C 436.833,582.5 432.167,582.5 427.5,582.5C 427.5,577.833 427.5,573.167 427.5,568.5 Z"/></g>
</svg>
