<?xml version="1.0" encoding="UTF-8"?>
<!DOCTYPE svg PUBLIC "-//W3C//DTD SVG 1.1//EN" "http://www.w3.org/Graphics/SVG/1.1/DTD/svg11.dtd">
<svg xmlns="http://www.w3.org/2000/svg" version="1.1" width="752px" height="752px" style="shape-rendering:geometricPrecision; text-rendering:geometricPrecision; image-rendering:optimizeQuality; fill-rule:evenodd; clip-rule:evenodd" xmlns:xlink="http://www.w3.org/1999/xlink">
<g><path style="opacity:0.869" fill="#000000" d="M 369.5,289.5 C 380.244,287.93 389.244,291.096 396.5,299C 436.986,299.747 476.319,306.747 514.5,320C 525.031,324.208 534.198,330.375 542,338.5C 548.23,348.088 547.896,357.421 541,366.5C 531.511,375.165 520.677,381.665 508.5,386C 468.818,398.544 428.152,404.711 386.5,404.5C 386.667,420.837 386.5,437.17 386,453.5C 382.776,461.346 377.276,463.513 369.5,460C 367.383,458.269 365.883,456.102 365,453.5C 364.5,437.17 364.333,420.837 364.5,404.5C 326.136,404.33 288.47,399.163 251.5,389C 238.074,385.089 225.74,379.089 214.5,371C 200.718,357.013 201.385,343.68 216.5,331C 238.412,317.917 262.079,309.583 287.5,306C 309.693,302.346 332.026,300.013 354.5,299C 358.629,294.279 363.629,291.112 369.5,289.5 Z M 369.5,298.5 C 382.74,296.106 391.073,301.273 394.5,314C 405.761,315.481 416.427,318.814 426.5,324C 431.488,327.825 431.155,331.491 425.5,335C 412.957,341.377 399.624,344.71 385.5,345C 366.992,346.35 348.992,344.017 331.5,338C 316.891,331.526 317.225,325.526 332.5,320C 340.352,317.37 348.352,315.37 356.5,314C 358.18,306.496 362.513,301.329 369.5,298.5 Z M 334.5,309.5 C 326.53,311.909 319.697,316.242 314,322.5C 310.706,331.418 313.206,338.251 321.5,343C 332.88,348.512 344.88,351.845 357.5,353C 376.734,354.606 395.734,353.272 414.5,349C 422.764,347.119 429.931,343.286 436,337.5C 440.429,329.343 438.929,322.51 431.5,317C 425.597,313.364 419.263,310.697 412.5,309C 445.378,310.258 477.378,316.258 508.5,327C 547.452,344.086 547.119,360.752 507.5,377C 486.741,384.419 465.407,389.419 443.5,392C 386.502,399.145 329.835,397.145 273.5,386C 255.281,382.264 238.281,375.597 222.5,366C 218.908,363.079 216.075,359.579 214,355.5C 212.906,350.119 214.239,345.452 218,341.5C 230.519,331.428 244.685,324.595 260.5,321C 284.753,314.458 309.419,310.624 334.5,309.5 Z M 373.5,404.5 C 374.833,404.5 376.167,404.5 377.5,404.5C 377.5,420.5 377.5,436.5 377.5,452.5C 376.167,452.5 374.833,452.5 373.5,452.5C 373.5,436.5 373.5,420.5 373.5,404.5 Z"/></g>
</svg>
