<?xml version="1.0" encoding="UTF-8"?>
<!DOCTYPE svg PUBLIC "-//W3C//DTD SVG 1.1//EN" "http://www.w3.org/Graphics/SVG/1.1/DTD/svg11.dtd">
<svg xmlns="http://www.w3.org/2000/svg" version="1.1" width="752px" height="752px" style="shape-rendering:geometricPrecision; text-rendering:geometricPrecision; image-rendering:optimizeQuality; fill-rule:evenodd; clip-rule:evenodd" xmlns:xlink="http://www.w3.org/1999/xlink">
<g><path style="opacity:0.939" fill="#000000" d="M 230.5,153.5 C 240.839,153.334 251.172,153.5 261.5,154C 264.755,157.84 266.089,162.34 265.5,167.5C 283.836,167.333 302.17,167.5 320.5,168C 335.963,170.469 346.463,178.969 352,193.5C 353.969,204.738 354.802,216.071 354.5,227.5C 357.85,227.335 361.183,227.502 364.5,228C 366.333,228.5 367.5,229.667 368,231.5C 368.667,243.5 368.667,255.5 368,267.5C 365.78,271.692 362.28,273.359 357.5,272.5C 357.334,277.844 357.501,283.177 358,288.5C 369.663,298.64 371.497,310.307 363.5,323.5C 370.555,334.256 370.055,344.59 362,354.5C 361.667,363.845 362,373.179 363,382.5C 369.443,391.377 370.109,400.71 365,410.5C 364.39,418.519 364.557,426.519 365.5,434.5C 370.179,434.334 374.845,434.501 379.5,435C 381.049,436.214 382.215,437.714 383,439.5C 383.667,451.167 383.667,462.833 383,474.5C 382.167,476.667 380.667,478.167 378.5,479C 374.848,479.499 371.182,479.665 367.5,479.5C 366.411,485.158 368.078,489.658 372.5,493C 379.949,494.219 383.782,491.052 384,483.5C 388.598,438.523 392.598,393.523 396,348.5C 385.139,334.91 386.306,322.41 399.5,311C 408.167,306.333 416.833,306.333 425.5,311C 462.333,347.833 499.167,384.667 536,421.5C 542.572,433.654 540.738,444.488 530.5,454C 520.847,460.154 511.347,459.987 502,453.5C 501.922,475.865 501.255,498.199 500,520.5C 489.267,563.567 462.101,589.067 418.5,597C 377.49,604.219 342.99,592.719 315,562.5C 297.075,537.805 289.908,510.138 293.5,479.5C 290.15,479.665 286.817,479.498 283.5,479C 282.069,478.535 280.903,477.701 280,476.5C 278.895,470.077 278.395,463.577 278.5,457C 278.395,450.423 278.895,443.923 280,437.5C 280.833,436.667 281.667,435.833 282.5,435C 286.152,434.501 289.818,434.335 293.5,434.5C 293.5,424.833 293.5,415.167 293.5,405.5C 279.558,407.713 270.058,402.38 265,389.5C 264.333,365.167 264.333,340.833 265,316.5C 270.609,304.278 280.109,299.278 293.5,301.5C 293.5,291.833 293.5,282.167 293.5,272.5C 289.089,272.979 284.922,272.312 281,270.5C 280.333,269.167 279.667,267.833 279,266.5C 278.833,260.833 278.667,255.167 278.5,249.5C 278.373,243.063 278.873,236.73 280,230.5C 280.833,229.667 281.667,228.833 282.5,228C 286.152,227.501 289.818,227.335 293.5,227.5C 293.665,224.15 293.498,220.817 293,217.5C 292.5,215.667 291.333,214.5 289.5,214C 258.167,213.667 226.833,213.333 195.5,213C 193.714,212.215 192.214,211.049 191,209.5C 190.333,201.833 190.333,194.167 191,186.5C 204.065,175.259 217.231,164.259 230.5,153.5 Z M 237.5,168.5 C 241.5,168.5 245.5,168.5 249.5,168.5C 249.5,178.167 249.5,187.833 249.5,197.5C 234.833,197.5 220.167,197.5 205.5,197.5C 205.393,195.097 206.393,193.264 208.5,192C 218.355,184.303 228.022,176.469 237.5,168.5 Z M 265.5,183.5 C 283.836,183.333 302.17,183.5 320.5,184C 328.927,186.095 334.427,191.261 337,199.5C 337.999,208.506 338.833,217.506 339.5,226.5C 329.522,227.499 319.522,227.832 309.5,227.5C 311.676,213.006 306.009,203.173 292.5,198C 283.506,197.5 274.506,197.334 265.5,197.5C 265.5,192.833 265.5,188.167 265.5,183.5 Z M 294.5,242.5 C 313.833,242.5 333.167,242.5 352.5,242.5C 352.5,247.167 352.5,251.833 352.5,256.5C 333.167,256.5 313.833,256.5 294.5,256.5C 294.5,251.833 294.5,247.167 294.5,242.5 Z M 309.5,272.5 C 320.167,272.5 330.833,272.5 341.5,272.5C 341.2,277.099 341.533,281.599 342.5,286C 333.996,287.749 327.996,292.582 324.5,300.5C 319.544,301.494 314.544,301.827 309.5,301.5C 309.5,291.833 309.5,282.167 309.5,272.5 Z M 345.5,301.5 C 352.39,303.13 354.223,307.13 351,313.5C 342.58,317.415 338.913,314.749 340,305.5C 341.5,303.531 343.333,302.198 345.5,301.5 Z M 285.5,316.5 C 288.167,316.5 290.833,316.5 293.5,316.5C 293.5,321.167 293.5,325.833 293.5,330.5C 288.833,330.5 284.167,330.5 279.5,330.5C 278.289,324.272 280.289,319.606 285.5,316.5 Z M 309.5,316.5 C 314.544,316.173 319.544,316.506 324.5,317.5C 325.635,319.799 326.968,321.966 328.5,324C 326.919,325.828 325.585,327.828 324.5,330C 319.511,330.499 314.511,330.666 309.5,330.5C 309.5,325.833 309.5,321.167 309.5,316.5 Z M 411.5,322.5 C 413.593,323.045 415.593,323.878 417.5,325C 452.667,360.167 487.833,395.333 523,430.5C 525.221,435.254 524.055,439.087 519.5,442C 516.697,442.755 514.03,442.422 511.5,441C 476.333,405.833 441.167,370.667 406,335.5C 403.429,329.308 405.262,324.975 411.5,322.5 Z M 343.5,331.5 C 350.193,331.685 353.026,335.019 352,341.5C 345.986,347.455 341.819,346.455 339.5,338.5C 339.577,335.335 340.91,333.001 343.5,331.5 Z M 279.5,346.5 C 284.167,346.5 288.833,346.5 293.5,346.5C 293.5,360.833 293.5,375.167 293.5,389.5C 290.15,389.665 286.817,389.498 283.5,389C 281.951,387.786 280.785,386.286 280,384.5C 279.5,371.838 279.333,359.171 279.5,346.5 Z M 309.5,346.5 C 314.511,346.334 319.511,346.501 324.5,347C 328.783,355.805 335.783,360.639 345.5,361.5C 346.229,366.13 346.563,370.797 346.5,375.5C 336.214,375.145 328.88,379.645 324.5,389C 319.511,389.499 314.511,389.666 309.5,389.5C 309.5,375.167 309.5,360.833 309.5,346.5 Z M 411.5,364.5 C 436.132,388.632 460.632,412.965 485,437.5C 485.667,462.833 485.667,488.167 485,513.5C 476.109,553.726 451.275,576.56 410.5,582C 376.437,586.696 348.271,576.196 326,550.5C 311.542,529.063 306.042,505.397 309.5,479.5C 323.5,479.5 337.5,479.5 351.5,479.5C 351.331,502.068 362.331,511.568 384.5,508C 392.201,504.969 397.034,499.469 399,491.5C 411.819,510.597 427.986,514.097 447.5,502C 458.019,490.992 460.185,478.492 454,464.5C 452.207,461.705 450.04,459.205 447.5,457C 459.338,444.114 460.505,430.28 451,415.5C 437.141,402.113 422.475,401.113 407,412.5C 408.166,396.511 409.666,380.511 411.5,364.5 Z M 344.5,390.5 C 350.67,391.162 353.17,394.495 352,400.5C 350.179,403.991 347.346,405.157 343.5,404C 337.954,399.097 338.288,394.597 344.5,390.5 Z M 309.5,405.5 C 314.511,405.334 319.511,405.501 324.5,406C 329.173,416.176 337.173,421.009 348.5,420.5C 349.127,425.141 349.46,429.807 349.5,434.5C 336.167,434.5 322.833,434.5 309.5,434.5C 309.5,424.833 309.5,415.167 309.5,405.5 Z M 423.5,420.5 C 438.749,420.898 443.915,428.231 439,442.5C 433.016,449.5 426.183,450.667 418.5,446C 410.528,435.481 412.194,426.981 423.5,420.5 Z M 294.5,449.5 C 318.833,449.5 343.167,449.5 367.5,449.5C 367.5,454.167 367.5,458.833 367.5,463.5C 343.167,463.5 318.833,463.5 294.5,463.5C 294.5,458.833 294.5,454.167 294.5,449.5 Z M 402.5,452.5 C 403.933,453.833 405.267,455.333 406.5,457C 404.951,458.214 403.785,459.714 403,461.5C 402.502,458.518 402.335,455.518 402.5,452.5 Z M 425.5,464.5 C 439.464,466.628 443.964,474.294 439,487.5C 430.701,495.677 422.701,495.344 415,486.5C 411.203,475.759 414.703,468.426 425.5,464.5 Z"/></g>
</svg>
