<?xml version="1.0" encoding="UTF-8"?>
<!DOCTYPE svg PUBLIC "-//W3C//DTD SVG 1.1//EN" "http://www.w3.org/Graphics/SVG/1.1/DTD/svg11.dtd">
<svg xmlns="http://www.w3.org/2000/svg" version="1.1" width="752px" height="752px" style="shape-rendering:geometricPrecision; text-rendering:geometricPrecision; image-rendering:optimizeQuality; fill-rule:evenodd; clip-rule:evenodd" xmlns:xlink="http://www.w3.org/1999/xlink">
<g><path style="opacity:0.95" fill="#000000" d="M 292.5,204.5 C 347.834,204.333 403.168,204.5 458.5,205C 460.848,205.346 462.681,206.513 464,208.5C 464.499,212.152 464.665,215.818 464.5,219.5C 479.35,217.552 489.183,223.552 494,237.5C 494.5,261.164 494.667,284.831 494.5,308.5C 523.169,308.333 551.835,308.5 580.5,309C 587.745,310.577 592.911,314.744 596,321.5C 597.157,356.775 597.657,392.108 597.5,427.5C 597.657,462.892 597.157,498.225 596,533.5C 592.14,540.35 586.307,544.517 578.5,546C 443.167,546.667 307.833,546.667 172.5,546C 163.412,544.221 157.246,539.054 154,530.5C 153.833,496.167 153.667,461.833 153.5,427.5C 153.343,392.108 153.843,356.775 155,321.5C 158.089,314.744 163.255,310.577 170.5,309C 199.165,308.5 227.831,308.333 256.5,308.5C 256.333,284.831 256.5,261.164 257,237.5C 261.817,223.552 271.65,217.552 286.5,219.5C 286.335,215.818 286.501,212.152 287,208.5C 288.5,206.531 290.333,205.198 292.5,204.5 Z M 302.5,220.5 C 351.5,220.5 400.5,220.5 449.5,220.5C 449.5,249.833 449.5,279.167 449.5,308.5C 400.5,308.5 351.5,308.5 302.5,308.5C 302.5,279.167 302.5,249.833 302.5,220.5 Z M 276.5,235.5 C 279.833,235.5 283.167,235.5 286.5,235.5C 286.5,259.833 286.5,284.167 286.5,308.5C 281.833,308.5 277.167,308.5 272.5,308.5C 272.333,285.498 272.5,262.498 273,239.5C 274.376,238.295 275.542,236.962 276.5,235.5 Z M 464.5,235.5 C 469.849,234.461 474.349,235.795 478,239.5C 478.5,262.498 478.667,285.498 478.5,308.5C 473.833,308.5 469.167,308.5 464.5,308.5C 464.5,284.167 464.5,259.833 464.5,235.5 Z M 367.5,264.5 C 375.091,267.126 376.424,271.626 371.5,278C 363.667,279.5 360.5,276.333 362,268.5C 363.5,266.531 365.333,265.198 367.5,264.5 Z M 172.5,324.5 C 200.5,324.5 228.5,324.5 256.5,324.5C 256.5,353.833 256.5,383.167 256.5,412.5C 227.167,412.5 197.833,412.5 168.5,412.5C 168.333,384.831 168.5,357.165 169,329.5C 169.997,327.677 171.164,326.01 172.5,324.5 Z M 272.5,324.5 C 291.833,324.5 311.167,324.5 330.5,324.5C 330.5,353.833 330.5,383.167 330.5,412.5C 311.167,412.5 291.833,412.5 272.5,412.5C 272.5,383.167 272.5,353.833 272.5,324.5 Z M 346.5,324.5 C 365.833,324.5 385.167,324.5 404.5,324.5C 404.5,333.833 404.5,343.167 404.5,352.5C 385.167,352.5 365.833,352.5 346.5,352.5C 346.5,343.167 346.5,333.833 346.5,324.5 Z M 420.5,324.5 C 439.833,324.5 459.167,324.5 478.5,324.5C 478.5,353.833 478.5,383.167 478.5,412.5C 459.167,412.5 439.833,412.5 420.5,412.5C 420.5,383.167 420.5,353.833 420.5,324.5 Z M 494.5,324.5 C 522.502,324.333 550.502,324.5 578.5,325C 580.049,326.214 581.215,327.714 582,329.5C 582.5,357.165 582.667,384.831 582.5,412.5C 553.167,412.5 523.833,412.5 494.5,412.5C 494.5,383.167 494.5,353.833 494.5,324.5 Z M 210.5,353.5 C 219.987,353.818 225.653,358.651 227.5,368C 225.042,379.727 218.042,384.061 206.5,381C 197.873,374.956 196.373,367.456 202,358.5C 204.682,356.415 207.516,354.748 210.5,353.5 Z M 536.5,353.5 C 550.464,355.628 554.964,363.294 550,376.5C 541.701,384.677 533.701,384.344 526,375.5C 522.203,364.759 525.703,357.426 536.5,353.5 Z M 346.5,368.5 C 365.833,368.5 385.167,368.5 404.5,368.5C 404.5,383.167 404.5,397.833 404.5,412.5C 385.167,412.5 365.833,412.5 346.5,412.5C 346.5,397.833 346.5,383.167 346.5,368.5 Z M 168.5,427.5 C 175.833,427.5 183.167,427.5 190.5,427.5C 190.5,461.833 190.5,496.167 190.5,530.5C 184.824,530.666 179.157,530.499 173.5,530C 170.898,529.065 169.398,527.232 169,524.5C 168.5,492.168 168.333,459.835 168.5,427.5 Z M 205.5,427.5 C 210.167,427.5 214.833,427.5 219.5,427.5C 219.333,445.503 219.5,463.503 220,481.5C 220.785,483.286 221.951,484.786 223.5,486C 227.152,486.499 230.818,486.665 234.5,486.5C 234.5,501.167 234.5,515.833 234.5,530.5C 224.833,530.5 215.167,530.5 205.5,530.5C 205.5,496.167 205.5,461.833 205.5,427.5 Z M 235.5,427.5 C 240.167,427.5 244.833,427.5 249.5,427.5C 249.5,442.167 249.5,456.833 249.5,471.5C 244.833,471.5 240.167,471.5 235.5,471.5C 235.5,456.833 235.5,442.167 235.5,427.5 Z M 265.5,427.5 C 269.833,427.5 274.167,427.5 278.5,427.5C 278.5,461.833 278.5,496.167 278.5,530.5C 269.167,530.5 259.833,530.5 250.5,530.5C 250.5,515.833 250.5,501.167 250.5,486.5C 254.182,486.665 257.848,486.499 261.5,486C 262.333,485.167 263.167,484.333 264,483.5C 265.448,464.888 265.948,446.222 265.5,427.5 Z M 294.5,427.5 C 299.167,427.5 303.833,427.5 308.5,427.5C 308.333,445.836 308.5,464.17 309,482.5C 309.5,484.333 310.667,485.5 312.5,486C 316.152,486.499 319.818,486.665 323.5,486.5C 323.5,501.167 323.5,515.833 323.5,530.5C 313.833,530.5 304.167,530.5 294.5,530.5C 294.5,496.167 294.5,461.833 294.5,427.5 Z M 324.5,427.5 C 329.167,427.5 333.833,427.5 338.5,427.5C 338.5,442.167 338.5,456.833 338.5,471.5C 333.833,471.5 329.167,471.5 324.5,471.5C 324.5,456.833 324.5,442.167 324.5,427.5 Z M 353.5,427.5 C 358.167,427.5 362.833,427.5 367.5,427.5C 367.5,461.833 367.5,496.167 367.5,530.5C 358.167,530.5 348.833,530.5 339.5,530.5C 339.5,515.833 339.5,501.167 339.5,486.5C 343.182,486.665 346.848,486.499 350.5,486C 351.701,485.097 352.535,483.931 353,482.5C 353.5,464.17 353.667,445.836 353.5,427.5 Z M 383.5,427.5 C 388.167,427.5 392.833,427.5 397.5,427.5C 397.333,445.836 397.5,464.17 398,482.5C 398.465,483.931 399.299,485.097 400.5,486C 404.486,486.499 408.486,486.666 412.5,486.5C 412.5,501.167 412.5,515.833 412.5,530.5C 402.833,530.5 393.167,530.5 383.5,530.5C 383.5,496.167 383.5,461.833 383.5,427.5 Z M 412.5,427.5 C 417.167,427.5 421.833,427.5 426.5,427.5C 426.5,442.167 426.5,456.833 426.5,471.5C 421.833,471.5 417.167,471.5 412.5,471.5C 412.5,456.833 412.5,442.167 412.5,427.5 Z M 442.5,427.5 C 447.167,427.5 451.833,427.5 456.5,427.5C 456.5,461.833 456.5,496.167 456.5,530.5C 446.833,530.5 437.167,530.5 427.5,530.5C 427.5,515.833 427.5,501.167 427.5,486.5C 431.182,486.665 434.848,486.499 438.5,486C 440.333,485.5 441.5,484.333 442,482.5C 442.5,464.17 442.667,445.836 442.5,427.5 Z M 472.5,427.5 C 477.167,427.5 481.833,427.5 486.5,427.5C 486.333,446.17 486.5,464.836 487,483.5C 487.833,484.333 488.667,485.167 489.5,486C 493.152,486.499 496.818,486.665 500.5,486.5C 500.5,501.167 500.5,515.833 500.5,530.5C 491.167,530.5 481.833,530.5 472.5,530.5C 472.5,496.167 472.5,461.833 472.5,427.5 Z M 501.5,427.5 C 506.167,427.5 510.833,427.5 515.5,427.5C 515.5,442.167 515.5,456.833 515.5,471.5C 510.833,471.5 506.167,471.5 501.5,471.5C 501.5,456.833 501.5,442.167 501.5,427.5 Z M 531.5,427.5 C 536.167,427.5 540.833,427.5 545.5,427.5C 545.5,461.833 545.5,496.167 545.5,530.5C 535.833,530.5 526.167,530.5 516.5,530.5C 516.5,515.833 516.5,501.167 516.5,486.5C 520.182,486.665 523.848,486.499 527.5,486C 529.049,484.786 530.215,483.286 531,481.5C 531.5,463.503 531.667,445.503 531.5,427.5 Z M 560.5,427.5 C 567.833,427.5 575.167,427.5 582.5,427.5C 582.667,459.835 582.5,492.168 582,524.5C 581.602,527.232 580.102,529.065 577.5,530C 571.843,530.499 566.176,530.666 560.5,530.5C 560.5,496.167 560.5,461.833 560.5,427.5 Z"/></g>
<g><path style="opacity:0.933" fill="#000000" d="M 379.5,234.5 C 386.841,234.334 394.174,234.5 401.5,235C 406.446,239.3 406.779,243.967 402.5,249C 398.605,250.266 394.605,250.766 390.5,250.5C 390.666,259.839 390.5,269.173 390,278.5C 386.461,288.945 379.128,294.279 368,294.5C 351.609,292.416 344.276,283.083 346,266.5C 350.747,252.292 360.414,246.959 375,250.5C 375.333,246.5 375.667,242.5 376,238.5C 376.69,236.65 377.856,235.316 379.5,234.5 Z M 367.5,264.5 C 365.333,265.198 363.5,266.531 362,268.5C 360.5,276.333 363.667,279.5 371.5,278C 376.424,271.626 375.091,267.126 367.5,264.5 Z"/></g>
<g><path style="opacity:0.926" fill="#000000" d="M 204.5,338.5 C 231.123,336.623 243.623,348.957 242,375.5C 233.897,395.964 219.397,402.464 198.5,395C 183.121,384.668 178.954,370.834 186,353.5C 190.592,346.394 196.758,341.394 204.5,338.5 Z M 210.5,353.5 C 207.516,354.748 204.682,356.415 202,358.5C 196.373,367.456 197.873,374.956 206.5,381C 218.042,384.061 225.042,379.727 227.5,368C 225.653,358.651 219.987,353.818 210.5,353.5 Z"/></g>
<g><path style="opacity:0.931" fill="#000000" d="M 289.5,338.5 C 297.507,338.334 305.507,338.5 313.5,339C 316.265,341.995 317.098,345.495 316,349.5C 315.5,351.333 314.333,352.5 312.5,353C 305.167,353.667 297.833,353.667 290.5,353C 287.634,351.607 286.301,349.274 286.5,346C 286.548,343.078 287.548,340.578 289.5,338.5 Z"/></g>
<g><path style="opacity:0.931" fill="#000000" d="M 437.5,338.5 C 445.507,338.334 453.507,338.5 461.5,339C 464.265,341.995 465.098,345.495 464,349.5C 463.5,351.333 462.333,352.5 460.5,353C 453.167,353.667 445.833,353.667 438.5,353C 435.634,351.607 434.301,349.274 434.5,346C 434.548,343.078 435.548,340.578 437.5,338.5 Z"/></g>
<g><path style="opacity:0.926" fill="#000000" d="M 530.5,338.5 C 547.868,335.93 560.035,342.597 567,358.5C 571.288,377.431 564.455,390.264 546.5,397C 527.787,400.563 515.287,393.396 509,375.5C 506.437,357.27 513.603,344.937 530.5,338.5 Z M 536.5,353.5 C 525.703,357.426 522.203,364.759 526,375.5C 533.701,384.344 541.701,384.677 550,376.5C 554.964,363.294 550.464,355.628 536.5,353.5 Z"/></g>
<g><path style="opacity:0.897" fill="#000000" d="M 291.5,367.5 C 298.175,367.334 304.842,367.5 311.5,368C 316.224,370.435 317.724,374.269 316,379.5C 314.786,381.049 313.286,382.215 311.5,383C 304.833,383.667 298.167,383.667 291.5,383C 286.776,380.565 285.276,376.731 287,371.5C 288.397,369.93 289.897,368.596 291.5,367.5 Z"/></g>
<g><path style="opacity:0.897" fill="#000000" d="M 439.5,367.5 C 446.175,367.334 452.842,367.5 459.5,368C 464.224,370.435 465.724,374.269 464,379.5C 462.786,381.049 461.286,382.215 459.5,383C 452.833,383.667 446.167,383.667 439.5,383C 434.776,380.565 433.276,376.731 435,371.5C 436.397,369.93 437.897,368.596 439.5,367.5 Z"/></g>
<g><path style="opacity:0.897" fill="#000000" d="M 364.5,382.5 C 371.841,382.334 379.174,382.5 386.5,383C 390.277,385.955 391.443,389.788 390,394.5C 388.681,396.487 386.848,397.654 384.5,398C 377.418,398.884 370.418,398.551 363.5,397C 359.326,391.882 359.66,387.049 364.5,382.5 Z"/></g>
</svg>
