<?xml version="1.0" encoding="UTF-8"?>
<!DOCTYPE svg PUBLIC "-//W3C//DTD SVG 1.1//EN" "http://www.w3.org/Graphics/SVG/1.1/DTD/svg11.dtd">
<svg xmlns="http://www.w3.org/2000/svg" version="1.1" width="752px" height="752px" style="shape-rendering:geometricPrecision; text-rendering:geometricPrecision; image-rendering:optimizeQuality; fill-rule:evenodd; clip-rule:evenodd" xmlns:xlink="http://www.w3.org/1999/xlink">
<g><path style="opacity:0.941" fill="#000000" d="M 227.5,153.5 C 326.167,153.333 424.834,153.5 523.5,154C 535.711,159.584 540.711,169.084 538.5,182.5C 553.35,180.552 563.183,186.552 568,200.5C 568.667,207.833 568.667,215.167 568,222.5C 543.667,305.5 519.333,388.5 495,471.5C 494.667,477.833 494.333,484.167 494,490.5C 493.697,492.888 492.863,495.055 491.5,497C 496.231,499.956 499.398,504.123 501,509.5C 501.333,516.5 501.667,523.5 502,530.5C 518.137,545.694 520.804,563.027 510,582.5C 498.49,596.34 483.99,600.84 466.5,596C 445.07,585.967 437.57,569.467 444,546.5C 445.123,543.751 446.623,541.251 448.5,539C 441.508,538.5 434.508,538.334 427.5,538.5C 427.666,547.173 427.5,555.84 427,564.5C 425.786,566.049 424.286,567.215 422.5,568C 414.507,568.5 406.507,568.666 398.5,568.5C 398.941,577.276 398.441,585.942 397,594.5C 396.167,595.333 395.333,596.167 394.5,597C 381.833,597.667 369.167,597.667 356.5,597C 355.667,596.167 354.833,595.333 354,594.5C 352.559,585.942 352.059,577.276 352.5,568.5C 344.493,568.666 336.493,568.5 328.5,568C 326.714,567.215 325.214,566.049 324,564.5C 323.5,555.84 323.334,547.173 323.5,538.5C 316.492,538.334 309.492,538.5 302.5,539C 313.57,557.811 311.237,574.811 295.5,590C 285.607,597.064 274.607,599.397 262.5,597C 240.277,588.727 231.444,572.893 236,549.5C 238.098,541.638 242.431,535.305 249,530.5C 249.333,523.5 249.667,516.5 250,509.5C 251.602,504.123 254.769,499.956 259.5,497C 258.283,495.352 257.45,493.519 257,491.5C 256.667,484.833 256.333,478.167 256,471.5C 231.667,388.5 207.333,305.5 183,222.5C 182.333,215.167 182.333,207.833 183,200.5C 187.817,186.552 197.65,180.552 212.5,182.5C 210.419,168.991 215.419,159.324 227.5,153.5 Z M 233.5,168.5 C 328.167,168.333 422.834,168.5 517.5,169C 519.286,169.785 520.786,170.951 522,172.5C 522.498,175.817 522.665,179.15 522.5,182.5C 424.5,182.5 326.5,182.5 228.5,182.5C 228.335,179.15 228.502,175.817 229,172.5C 230.397,170.93 231.897,169.596 233.5,168.5 Z M 202.5,198.5 C 205.833,198.5 209.167,198.5 212.5,198.5C 212.334,207.173 212.5,215.84 213,224.5C 237.511,308.212 262.178,391.879 287,475.5C 288.167,476.667 289.333,477.833 290.5,479C 294.152,479.499 297.818,479.665 301.5,479.5C 301.5,484.167 301.5,488.833 301.5,493.5C 293.493,493.666 285.493,493.5 277.5,493C 275.714,492.215 274.214,491.049 273,489.5C 272.667,482.5 272.333,475.5 272,468.5C 247.464,385.893 223.131,303.226 199,220.5C 198.333,214.5 198.333,208.5 199,202.5C 200.376,201.295 201.542,199.962 202.5,198.5 Z M 228.5,198.5 C 269.833,198.5 311.167,198.5 352.5,198.5C 352.5,203.167 352.5,207.833 352.5,212.5C 311.167,212.5 269.833,212.5 228.5,212.5C 228.5,207.833 228.5,203.167 228.5,198.5 Z M 368.5,198.5 C 373.167,198.5 377.833,198.5 382.5,198.5C 382.5,203.167 382.5,207.833 382.5,212.5C 377.833,212.5 373.167,212.5 368.5,212.5C 368.5,207.833 368.5,203.167 368.5,198.5 Z M 398.5,198.5 C 439.833,198.5 481.167,198.5 522.5,198.5C 522.5,203.167 522.5,207.833 522.5,212.5C 481.167,212.5 439.833,212.5 398.5,212.5C 398.5,207.833 398.5,203.167 398.5,198.5 Z M 538.5,198.5 C 543.849,197.461 548.349,198.795 552,202.5C 552.667,208.5 552.667,214.5 552,220.5C 527.869,303.226 503.536,385.893 479,468.5C 478.667,475.167 478.333,481.833 478,488.5C 477.167,490.667 475.667,492.167 473.5,493C 465.507,493.5 457.507,493.666 449.5,493.5C 449.5,488.833 449.5,484.167 449.5,479.5C 458.723,482.086 464.223,478.753 466,469.5C 489.845,387.788 513.845,306.121 538,224.5C 538.5,215.84 538.666,207.173 538.5,198.5 Z M 230.5,228.5 C 270.997,227.501 311.663,227.168 352.5,227.5C 352.667,276.501 352.5,325.501 352,374.5C 316.176,369.257 286.176,353.257 262,326.5C 259.558,323.952 257.892,320.952 257,317.5C 248.298,287.67 239.465,258.003 230.5,228.5 Z M 368.5,227.5 C 373.167,227.5 377.833,227.5 382.5,227.5C 382.5,306.167 382.5,384.833 382.5,463.5C 377.833,463.5 373.167,463.5 368.5,463.5C 368.5,384.833 368.5,306.167 368.5,227.5 Z M 398.5,227.5 C 439.168,227.333 479.835,227.5 520.5,228C 511.595,257.782 502.762,287.615 494,317.5C 493.108,320.952 491.442,323.952 489,326.5C 464.824,353.257 434.824,369.257 399,374.5C 398.5,325.501 398.333,276.501 398.5,227.5 Z M 268.5,355.5 C 292.99,375.225 320.99,386.559 352.5,389.5C 352.5,400.167 352.5,410.833 352.5,421.5C 329.267,427.068 313.6,441.068 305.5,463.5C 303.5,463.5 301.5,463.5 299.5,463.5C 289.167,427.5 278.833,391.5 268.5,355.5 Z M 481.5,355.5 C 482.097,355.735 482.43,356.235 482.5,357C 471.856,392.43 461.523,427.93 451.5,463.5C 449.5,463.5 447.5,463.5 445.5,463.5C 437.4,441.068 421.733,427.068 398.5,421.5C 398.5,410.833 398.5,400.167 398.5,389.5C 429.848,386.728 457.514,375.395 481.5,355.5 Z M 351.5,437.5 C 352.497,455.993 352.83,474.659 352.5,493.5C 340.5,493.5 328.5,493.5 316.5,493.5C 315.544,466.711 327.211,448.044 351.5,437.5 Z M 398.5,437.5 C 423.555,447.578 435.555,466.244 434.5,493.5C 422.5,493.5 410.5,493.5 398.5,493.5C 398.5,474.833 398.5,456.167 398.5,437.5 Z M 368.5,479.5 C 373.167,479.5 377.833,479.5 382.5,479.5C 382.5,484.167 382.5,488.833 382.5,493.5C 377.833,493.5 373.167,493.5 368.5,493.5C 368.5,488.833 368.5,484.167 368.5,479.5 Z M 268.5,509.5 C 286.833,509.5 305.167,509.5 323.5,509.5C 323.5,514.167 323.5,518.833 323.5,523.5C 304.167,523.5 284.833,523.5 265.5,523.5C 265.335,519.818 265.501,516.152 266,512.5C 267.045,511.627 267.878,510.627 268.5,509.5 Z M 339.5,509.5 C 363.833,509.5 388.167,509.5 412.5,509.5C 412.5,523.833 412.5,538.167 412.5,552.5C 407.833,552.5 403.167,552.5 398.5,552.5C 398.941,543.724 398.441,535.058 397,526.5C 396.167,525.667 395.333,524.833 394.5,524C 381.833,523.333 369.167,523.333 356.5,524C 355.667,524.833 354.833,525.667 354,526.5C 352.559,535.058 352.059,543.724 352.5,552.5C 348.167,552.5 343.833,552.5 339.5,552.5C 339.5,538.167 339.5,523.833 339.5,509.5 Z M 427.5,509.5 C 445.836,509.333 464.17,509.5 482.5,510C 483.333,510.833 484.167,511.667 485,512.5C 485.499,516.152 485.665,519.818 485.5,523.5C 466.167,523.5 446.833,523.5 427.5,523.5C 427.5,518.833 427.5,514.167 427.5,509.5 Z M 269.5,538.5 C 283.581,539.249 291.581,546.582 293.5,560.5C 291.924,573.244 284.757,580.577 272,582.5C 256.274,579.768 249.274,570.435 251,554.5C 254.52,546.006 260.687,540.673 269.5,538.5 Z M 368.5,538.5 C 373.167,538.5 377.833,538.5 382.5,538.5C 382.5,553.167 382.5,567.833 382.5,582.5C 377.833,582.5 373.167,582.5 368.5,582.5C 368.5,567.833 368.5,553.167 368.5,538.5 Z M 476.5,538.5 C 490.614,539.03 498.614,546.196 500.5,560C 497.757,578.408 487.423,585.074 469.5,580C 457.29,572.035 454.456,561.535 461,548.5C 465.239,543.479 470.406,540.146 476.5,538.5 Z"/></g>
<g><path style="opacity:0.872" fill="#000000" d="M 269.5,552.5 C 277.696,552.529 280.863,556.529 279,564.5C 274.333,569.833 269.667,569.833 265,564.5C 263.309,559.131 264.809,555.131 269.5,552.5 Z"/></g>
<g><path style="opacity:0.872" fill="#000000" d="M 476.5,552.5 C 484.696,552.529 487.863,556.529 486,564.5C 481.333,569.833 476.667,569.833 472,564.5C 470.309,559.131 471.809,555.131 476.5,552.5 Z"/></g>
</svg>
