<?xml version="1.0" encoding="UTF-8"?>
<!DOCTYPE svg PUBLIC "-//W3C//DTD SVG 1.1//EN" "http://www.w3.org/Graphics/SVG/1.1/DTD/svg11.dtd">
<svg xmlns="http://www.w3.org/2000/svg" version="1.1" width="752px" height="752px" style="shape-rendering:geometricPrecision; text-rendering:geometricPrecision; image-rendering:optimizeQuality; fill-rule:evenodd; clip-rule:evenodd" xmlns:xlink="http://www.w3.org/1999/xlink">
<g><path style="opacity:0.937" fill="#000000" d="M 344.5,153.5 C 394.168,153.333 443.834,153.5 493.5,154C 506.706,159.58 511.539,169.413 508,183.5C 504.888,191.612 499.054,196.445 490.5,198C 447.501,198.5 404.501,198.667 361.5,198.5C 361.334,208.506 361.5,218.506 362,228.5C 370.388,231.692 377.055,237.026 382,244.5C 428.333,337.167 474.667,429.833 521,522.5C 521.822,524.788 522.489,527.122 523,529.5C 523.667,542.833 523.667,556.167 523,569.5C 519.167,584 510,593.167 495.5,597C 382.5,597.667 269.5,597.667 156.5,597C 155.667,596.167 154.833,595.333 154,594.5C 153.333,581.833 153.333,569.167 154,556.5C 155.008,554.741 156.508,553.574 158.5,553C 263.833,552.667 369.167,552.333 474.5,552C 475.667,550.833 476.833,549.667 478,548.5C 478.667,542.833 478.667,537.167 478,531.5C 438,451.5 398,371.5 358,291.5C 350.392,301.418 340.558,304.251 328.5,300C 324.592,297.968 321.425,295.134 319,291.5C 278.157,367.183 237.824,443.183 198,519.5C 196.833,520.667 195.667,521.833 194.5,523C 181.833,523.667 169.167,523.667 156.5,523C 153.572,519.743 152.738,515.909 154,511.5C 200.667,422.833 247.333,334.167 294,245.5C 299.211,237.622 306.211,231.956 315,228.5C 315.333,214.5 315.667,200.5 316,186.5C 318.571,169.434 328.071,158.434 344.5,153.5 Z M 350.5,168.5 C 396.168,168.333 441.835,168.5 487.5,169C 494.558,172.25 495.225,176.583 489.5,182C 443.167,182.333 396.833,182.667 350.5,183C 348.333,183.833 346.833,185.333 346,187.5C 345.667,196.167 345.333,204.833 345,213.5C 340.667,212.167 336.333,212.167 332,213.5C 331.333,204.5 331.333,195.5 332,186.5C 334.763,176.902 340.93,170.902 350.5,168.5 Z M 335.5,228.5 C 339.639,227.704 342.805,229.037 345,232.5C 345.667,248.833 345.667,265.167 345,281.5C 340.667,288.167 336.333,288.167 332,281.5C 331.333,265.167 331.333,248.833 332,232.5C 332.69,230.65 333.856,229.316 335.5,228.5 Z M 314.5,246.5 C 315.653,252.319 315.819,258.319 315,264.5C 271.706,345.587 228.539,426.754 185.5,508C 181.789,508.825 178.122,508.659 174.5,507.5C 219.255,422.991 263.755,338.325 308,253.5C 309.694,250.642 311.861,248.309 314.5,246.5 Z M 361.5,246.5 C 363.797,248.294 365.963,250.294 368,252.5C 414,344.5 460,436.5 506,528.5C 506.822,530.788 507.489,533.122 508,535.5C 508.667,544.833 508.667,554.167 508,563.5C 505.833,573.667 499.667,579.833 489.5,582C 382.501,582.5 275.501,582.667 168.5,582.5C 168.5,577.833 168.5,573.167 168.5,568.5C 271.167,568.667 373.834,568.5 476.5,568C 489.778,563.463 495.778,554.13 494.5,540C 494.802,534.308 493.969,528.808 492,523.5C 449.178,437.189 405.845,351.189 362,265.5C 361.5,259.175 361.334,252.842 361.5,246.5 Z"/></g>
<g><path style="opacity:0.932" fill="#000000" d="M 551.5,227.5 C 574.458,224.548 589.625,233.881 597,255.5C 597.667,264.833 597.667,274.167 597,283.5C 595,305.5 593,327.5 591,349.5C 591.709,355.432 589.375,359.432 584,361.5C 583.667,438.5 583.333,515.5 583,592.5C 582.215,594.286 581.049,595.786 579.5,597C 566.833,597.667 554.167,597.667 541.5,597C 539.951,595.786 538.785,594.286 538,592.5C 537.667,515.5 537.333,438.5 537,361.5C 534.097,360.931 532.097,359.265 531,356.5C 528.017,327.183 525.183,297.85 522.5,268.5C 522.578,247.795 532.245,234.128 551.5,227.5 Z M 557.5,242.5 C 573.494,243.161 581.828,251.494 582.5,267.5C 580.986,283.491 579.652,299.491 578.5,315.5C 566.5,315.5 554.5,315.5 542.5,315.5C 540.819,297.516 539.653,279.516 539,261.5C 541.348,251.32 547.515,244.987 557.5,242.5 Z M 544.5,331.5 C 555.167,331.5 565.833,331.5 576.5,331.5C 576.331,336.181 575.998,340.848 575.5,345.5C 565.5,345.5 555.5,345.5 545.5,345.5C 545.002,340.848 544.669,336.181 544.5,331.5 Z M 553.5,361.5 C 558.167,361.5 562.833,361.5 567.5,361.5C 567.5,435.167 567.5,508.833 567.5,582.5C 562.833,582.5 558.167,582.5 553.5,582.5C 553.5,508.833 553.5,435.167 553.5,361.5 Z"/></g>
</svg>
