<?xml version="1.0" standalone="no"?>
<!DOCTYPE svg PUBLIC "-//W3C//DTD SVG 20010904//EN"
 "http://www.w3.org/TR/2001/REC-SVG-20010904/DTD/svg10.dtd">
<svg version="1.0" xmlns="http://www.w3.org/2000/svg"
 width="752.000000pt" height="752.000000pt" viewBox="0 0 752.000000 752.000000"
 preserveAspectRatio="xMidYMid meet">

<g transform="translate(0.000000,752.000000) scale(0.100000,-0.100000)"
fill="#000000" stroke="none">
<path d="M3535 5965 c-81 -29 -145 -124 -145 -216 0 -54 48 -139 98 -174 39
-27 53 -30 133 -34 l90 -3 209 -419 210 -419 0 -73 0 -72 -65 61 c-73 69 -191
134 -295 162 -58 15 -123 17 -605 17 -494 0 -546 -2 -605 -18 -235 -67 -422
-254 -480 -483 -19 -74 -20 -115 -20 -1124 0 -1002 1 -1050 19 -1122 64 -250
262 -441 509 -493 109 -22 1495 -22 1604 0 247 52 445 243 509 493 18 72 19
118 19 969 l0 893 62 0 c59 0 67 -3 150 -57 80 -53 88 -61 88 -90 0 -19 8 -41
20 -53 19 -19 33 -20 200 -20 167 0 181 1 200 20 19 19 20 33 20 420 0 387 -1
401 -20 420 -19 19 -33 20 -200 20 -167 0 -181 -1 -200 -20 -12 -12 -20 -34
-20 -52 0 -30 -8 -38 -88 -90 -83 -55 -91 -58 -150 -58 l-62 0 0 175 0 175
210 420 210 420 78 0 c91 0 144 21 186 71 44 52 59 96 54 160 -6 81 -47 144
-117 181 l-53 28 -857 0 c-712 -1 -863 -3 -896 -15z m1755 -155 c27 -27 26
-81 -1 -106 -20 -18 -49 -19 -866 -19 l-845 0 -19 24 c-25 30 -24 76 1 101 20
20 33 20 865 20 832 0 845 0 865 -20z m-320 -275 c0 -2 -90 -185 -200 -405
l-200 -401 0 -189 0 -190 -145 0 -145 0 0 195 0 194 -200 401 -200 400 545 0
c300 0 545 -2 545 -5z m-1188 -916 c129 -50 222 -128 281 -236 l27 -51 -32
-11 c-17 -6 -46 -22 -64 -36 l-32 -25 -30 53 c-37 66 -98 122 -171 156 l-56
26 -535 0 -535 0 -63 -29 c-81 -37 -161 -122 -193 -203 -18 -48 -23 -85 -27
-205 l-4 -148 -69 0 -69 0 0 154 c0 125 4 166 20 218 39 127 141 248 260 308
114 58 134 59 705 57 l520 -2 67 -26z m1528 -489 l0 -300 -70 0 -70 0 0 300 0
300 70 0 70 0 0 -300z m-1617 207 c49 -21 98 -67 118 -112 17 -36 19 -70 19
-307 l0 -267 -26 -20 c-24 -19 -40 -21 -145 -21 l-119 0 0 85 c0 62 3 85 13
85 7 0 29 14 50 31 126 104 102 295 -46 371 -55 28 -162 23 -206 -10 l-30 -22
-47 25 c-63 34 -143 34 -207 1 l-47 -23 -47 24 c-69 35 -164 30 -225 -12 -50
-35 -98 -120 -98 -174 0 -84 51 -171 122 -207 27 -14 28 -17 28 -94 l0 -80
-150 0 -150 0 0 274 c0 304 5 333 63 395 69 72 55 71 605 71 391 0 499 -3 525
-13z m1327 -207 c0 -82 -3 -150 -8 -150 -4 0 -32 17 -62 38 l-55 37 -300 0
c-291 0 -301 -1 -342 -22 -51 -27 -96 -82 -112 -132 -6 -23 -11 -114 -11 -223
0 -181 0 -185 -27 -239 -18 -35 -43 -64 -71 -84 -43 -30 -46 -30 -193 -33
l-149 -3 0 69 0 69 65 6 c70 7 115 25 158 66 58 53 62 68 67 301 5 213 5 215
33 263 15 26 47 60 69 75 l41 27 386 5 386 5 55 38 c30 20 58 37 62 37 5 0 8
-67 8 -150z m-2096 -100 c27 -26 25 -78 -3 -102 -65 -51 -149 20 -110 93 21
41 75 45 113 9z m299 -2 c23 -27 22 -67 -5 -95 -43 -45 -121 -16 -121 45 0 72
79 103 126 50z m270 21 c24 -11 47 -47 47 -73 0 -7 -9 -25 -21 -40 -41 -52
-129 -19 -129 48 0 26 16 49 45 64 25 14 29 14 58 1z m1077 -1032 c0 -788 -2
-900 -16 -948 -53 -180 -193 -318 -369 -364 -88 -23 -1502 -23 -1590 0 -176
46 -316 184 -369 364 -12 42 -16 101 -16 255 l0 201 24 -30 c13 -16 44 -45 69
-64 44 -33 45 -35 52 -103 18 -173 140 -306 310 -337 75 -14 1215 -15 1299 -1
126 20 241 112 288 228 l23 57 3 797 3 797 26 20 c23 19 40 21 144 21 l119 0
0 -893z m-1515 776 l35 -17 0 -83 0 -83 -70 0 -70 0 0 83 0 83 33 17 c17 8 33
16 34 16 1 1 18 -7 38 -16z m299 -4 l36 -21 0 -79 0 -79 -75 0 -75 0 0 79 c0
79 0 79 33 99 41 26 39 26 81 1z m-1004 -109 c0 -61 -3 -80 -14 -80 -7 0 -39
-13 -70 -28 l-56 -29 0 109 0 108 70 0 70 0 0 -80z m300 -289 l0 -68 -64 -5
c-165 -14 -236 -105 -236 -302 0 -200 73 -336 218 -404 l57 -27 545 0 c543 0
545 0 593 22 71 34 150 113 183 186 27 59 29 70 32 225 3 148 5 162 22 162 10
0 44 14 75 30 l57 30 -4 -202 c-4 -183 -7 -209 -28 -263 -65 -167 -195 -286
-361 -330 -82 -22 -1060 -22 -1144 0 -176 46 -316 184 -369 364 -12 43 -16
102 -16 268 0 232 5 260 58 317 51 54 92 66 245 66 l137 0 0 -69z m300 -116
c0 -144 -3 -192 -15 -214 -23 -46 -66 -54 -109 -20 l-26 20 0 200 0 199 75 0
75 0 0 -185z m290 -14 l0 -200 -26 -20 c-43 -34 -86 -26 -109 20 -12 22 -15
70 -15 214 l0 185 75 0 75 0 0 -199z m300 4 c0 -195 0 -196 -25 -220 -13 -14
-36 -25 -50 -25 -14 0 -37 11 -50 25 -25 24 -25 25 -25 220 l0 195 75 0 75 0
0 -195z m-890 -147 c0 -85 17 -128 70 -179 75 -74 172 -87 263 -36 l37 21 38
-21 c20 -12 54 -24 74 -28 45 -8 124 9 157 34 23 18 25 17 70 -8 90 -51 215
-27 276 53 32 42 55 114 55 173 l0 43 70 0 70 0 0 -140 c0 -120 -3 -146 -20
-179 -28 -57 -93 -108 -152 -120 -79 -17 -933 -15 -991 3 -63 19 -102 49 -134
104 -25 42 -28 59 -31 152 -5 152 10 178 106 179 l42 1 0 -52z m1469 -831
c-17 -63 -91 -132 -160 -147 -39 -8 -230 -10 -674 -8 -617 3 -620 3 -661 25
-23 12 -53 35 -66 51 -26 31 -54 90 -46 97 2 3 37 -2 78 -11 62 -13 158 -14
609 -12 530 3 537 4 606 27 99 33 187 84 258 151 l62 58 3 -94 c1 -52 -2 -113
-9 -137z"/>
</g>
</svg>
