<?xml version="1.0" standalone="no"?>
<!DOCTYPE svg PUBLIC "-//W3C//DTD SVG 20010904//EN"
 "http://www.w3.org/TR/2001/REC-SVG-20010904/DTD/svg10.dtd">
<svg version="1.0" xmlns="http://www.w3.org/2000/svg"
 width="752.000000pt" height="752.000000pt" viewBox="0 0 752.000000 752.000000"
 preserveAspectRatio="xMidYMid meet">

<g transform="translate(0.000000,752.000000) scale(0.100000,-0.100000)"
fill="#000000" stroke="none">
<path d="M3069 5953 c-35 -18 -64 -43 -84 -71 -29 -42 -30 -47 -33 -179 -4
-146 8 -201 48 -238 17 -16 20 -31 20 -122 l0 -103 -75 0 -75 0 0 54 c0 47 -4
57 -26 75 -23 18 -41 21 -124 21 -114 0 -169 -16 -219 -63 -73 -69 -91 -173
-47 -261 l24 -48 -25 -47 c-21 -39 -24 -57 -21 -112 4 -79 35 -134 100 -176
39 -26 49 -28 167 -31 155 -4 163 0 171 85 l5 58 108 3 107 3 0 -374 0 -373
-70 -16 c-196 -46 -364 -179 -447 -355 -51 -107 -64 -164 -70 -318 -5 -133 -4
-141 17 -167 15 -19 31 -28 51 -28 18 0 39 -9 54 -25 23 -22 25 -31 25 -125 0
-94 -2 -103 -25 -125 -22 -23 -31 -25 -123 -25 -148 0 -146 2 -150 -192 -6
-276 22 -437 105 -605 114 -230 324 -410 568 -486 502 -157 1031 111 1202 608
37 108 53 240 53 441 0 237 4 231 -150 236 -143 4 -144 4 -148 143 -4 100 -3
105 22 130 15 15 36 25 55 25 20 0 36 9 51 28 21 26 22 35 18 172 -4 129 -8
155 -35 231 -77 221 -257 384 -480 436 l-73 17 0 373 c0 325 2 373 15 373 32
0 55 38 55 90 l0 50 75 0 75 0 0 -48 c0 -35 6 -54 20 -70 19 -20 30 -22 138
-22 130 0 175 14 224 66 63 67 77 176 33 258 l-25 47 22 30 c33 44 38 151 10
206 -31 61 -91 109 -151 122 -75 16 -196 14 -230 -4 -34 -17 -41 -33 -41 -91
l0 -44 -75 0 -75 0 0 29 c0 16 7 34 16 42 8 7 25 31 37 53 19 36 22 57 22 171
0 148 -13 187 -80 243 -55 45 -94 52 -297 52 -181 0 -185 0 -239 -27z m450
-149 c18 -23 21 -41 21 -119 0 -78 -3 -96 -21 -119 l-20 -26 -183 0 c-230 0
-221 -6 -221 147 0 147 -6 143 225 143 l179 0 20 -26z m-59 -639 l0 -225 -145
0 -145 0 0 225 0 225 145 0 145 0 0 -225z m554 214 c37 -17 51 -60 32 -97 -18
-35 -33 -42 -92 -42 l-44 0 0 75 0 75 40 0 c21 0 50 -5 64 -11z m-1294 -214
l0 -75 -44 0 c-59 0 -96 29 -96 75 0 50 31 75 92 75 l48 0 0 -75z m1040 0 l0
-75 -75 0 -75 0 0 75 0 75 75 0 75 0 0 -75z m-740 -150 l0 -76 -72 3 -73 3 -3
73 -3 72 76 0 75 0 0 -75z m1011 57 c29 -24 30 -75 2 -104 -14 -14 -39 -22
-72 -26 l-51 -5 0 77 0 76 49 0 c33 0 56 -6 72 -18z m-1311 -202 l0 -70 -52 0
c-63 0 -88 19 -88 68 0 53 23 72 87 72 l53 0 0 -70z m670 -810 l0 -740 -75 0
-75 0 0 733 c0 404 3 737 7 740 3 4 37 7 75 7 l68 0 0 -740z m-298 -506 l3
-346 24 -19 c21 -17 41 -19 201 -19 l179 0 20 26 c20 26 21 38 21 366 l0 340
38 -6 c75 -13 184 -76 252 -145 101 -103 151 -225 149 -371 l0 -75 -47 -30
c-68 -44 -95 -103 -100 -220 -10 -218 58 -316 232 -332 l66 -6 0 -143 c0 -204
-29 -335 -104 -468 -83 -146 -203 -259 -351 -331 -82 -40 -180 -73 -189 -64
-2 2 9 81 25 174 16 97 29 208 29 258 0 81 -2 90 -25 113 l-25 25 -180 -3
c-99 -2 -180 0 -180 3 0 18 -140 154 -191 185 -32 20 -59 40 -59 43 0 4 26 85
58 181 54 162 60 174 86 181 66 18 89 87 44 129 -27 25 -131 29 -165 5 -16
-11 -40 -72 -89 -219 l-68 -205 -33 -6 c-18 -3 -73 -3 -123 1 l-90 7 0 67 0
67 64 5 c118 10 200 72 227 172 6 23 9 89 7 151 -4 133 -25 182 -100 230 l-47
30 0 70 c-2 228 130 422 340 500 108 40 98 74 101 -321z m-411 -1138 c181 -39
335 -179 389 -354 16 -51 20 -93 20 -204 l0 -139 -22 6 c-13 4 -63 26 -113 51
-162 79 -291 209 -370 372 -37 75 -75 204 -75 254 0 27 1 28 53 28 28 0 82 -7
118 -14z m709 -323 c0 -21 -14 -117 -30 -213 -16 -96 -30 -178 -30 -182 0 -5
-6 -8 -13 -8 -9 0 -23 60 -45 198 -18 108 -32 207 -32 220 0 21 4 22 75 22
l75 0 0 -37z"/>
<path d="M3566 2999 c-51 -40 -19 -129 48 -129 19 0 29 -24 89 -204 37 -112
76 -211 86 -220 12 -11 37 -16 83 -16 55 0 68 4 86 23 42 44 19 111 -41 122
l-33 6 -68 205 c-49 147 -73 208 -89 219 -33 23 -128 20 -161 -6z"/>
<path d="M3041 2844 c-19 -25 -21 -40 -21 -194 0 -154 2 -169 21 -194 l20 -26
253 0 c323 0 296 -21 296 223 0 164 -2 179 -20 197 -19 19 -33 20 -274 20
l-255 0 -20 -26z m419 -194 l0 -70 -145 0 -145 0 0 70 0 70 145 0 145 0 0 -70z"/>
<path d="M4764 4049 c-28 -14 -44 -50 -44 -98 l0 -38 -69 -5 c-85 -6 -149 -40
-189 -100 l-27 -42 -3 -950 c-3 -1059 -6 -1004 65 -1067 50 -44 92 -59 163
-59 l60 0 0 -50 c0 -41 5 -56 25 -75 24 -25 27 -25 200 -25 161 0 177 2 195
20 11 11 22 30 25 42 3 13 4 560 3 1215 l-3 1192 -23 23 c-21 22 -30 23 -190
25 -103 2 -175 -2 -188 -8z m256 -1249 l0 -1110 -75 0 -75 0 0 1110 0 1110 75
0 75 0 0 -1110z m-300 0 l0 -960 -53 0 c-42 0 -58 5 -73 21 -18 20 -19 52 -22
918 -1 493 0 906 3 919 10 42 41 62 95 62 l50 0 0 -960z"/>
</g>
</svg>
