<?xml version="1.0" encoding="UTF-8"?>
<!DOCTYPE svg PUBLIC "-//W3C//DTD SVG 1.1//EN" "http://www.w3.org/Graphics/SVG/1.1/DTD/svg11.dtd">
<svg xmlns="http://www.w3.org/2000/svg" version="1.1" width="752px" height="752px" style="shape-rendering:geometricPrecision; text-rendering:geometricPrecision; image-rendering:optimizeQuality; fill-rule:evenodd; clip-rule:evenodd" xmlns:xlink="http://www.w3.org/1999/xlink">
<g><path style="opacity:0.909" fill="#000000" d="M 340.5,155.5 C 343.654,155.659 346.154,156.993 348,159.5C 348.733,165.826 349.399,172.16 350,178.5C 352.685,174.073 356.518,172.24 361.5,173C 368,179.5 374.5,186 381,192.5C 381.667,194.833 381.667,197.167 381,199.5C 320.5,260 260,320.5 199.5,381C 197.167,381.667 194.833,381.667 192.5,381C 186,374.5 179.5,368 173,361.5C 172.24,356.518 174.073,352.685 178.5,350C 172.16,349.399 165.826,348.733 159.5,348C 154.943,344.671 154.443,340.838 158,336.5C 218.447,275.552 279.28,215.219 340.5,155.5 Z M 335.5,177.5 C 336.117,177.611 336.617,177.944 337,178.5C 337.203,182.421 337.703,186.255 338.5,190C 289,239.5 239.5,289 190,338.5C 186.255,337.703 182.421,337.203 178.5,337C 178.167,336.667 177.833,336.333 177.5,336C 230.368,283.299 283.035,230.465 335.5,177.5 Z M 358.5,188.5 C 361.297,190.795 363.964,193.295 366.5,196C 309.667,252.833 252.833,309.667 196,366.5C 193.5,364 191,361.5 188.5,359C 245.368,302.299 302.035,245.465 358.5,188.5 Z"/></g>
<g><path style="opacity:0.907" fill="#000000" d="M 560.5,160.5 C 583.481,158.314 593.314,168.647 590,191.5C 588.388,198.504 585.888,205.171 582.5,211.5C 583.815,213.316 585.315,214.983 587,216.5C 588.93,222.141 587.097,225.474 581.5,226.5C 578.889,226.444 576.722,225.444 575,223.5C 573.357,225.977 571.524,228.31 569.5,230.5C 573.378,234.386 573.378,238.22 569.5,242C 565.409,243.227 561.909,242.394 559,239.5C 551.561,245.811 543.061,248.645 533.5,248C 493.529,289.638 453.196,330.971 412.5,372C 436.444,407.032 432.777,439.032 401.5,468C 380.368,462.318 365.868,469.818 358,490.5C 356.273,499.985 358.94,507.985 366,514.5C 366.667,516.833 366.667,519.167 366,521.5C 351.924,544.243 333.757,563.077 311.5,578C 279.909,595.471 248.909,594.471 218.5,575C 195.587,559.09 178.087,538.59 166,513.5C 156.179,485.996 159.179,459.996 175,435.5C 189.735,413.762 208.568,396.596 231.5,384C 234.017,383.743 236.35,384.41 238.5,386C 248.512,395.137 259.179,395.804 270.5,388C 278.967,381.889 283.967,373.722 285.5,363.5C 284.603,359.642 283.603,355.809 282.5,352C 282.625,350.373 283.125,348.873 284,347.5C 313.184,318.234 345.017,314.734 379.5,337C 420.667,297.167 461.833,257.333 503,217.5C 502.877,208.204 505.377,199.704 510.5,192C 506.313,181.022 509.647,177.522 520.5,181.5C 522.69,179.476 525.023,177.643 527.5,176C 523.926,172.476 523.593,168.642 526.5,164.5C 528.768,163.456 531.101,163.289 533.5,164C 535.641,165.308 537.641,166.808 539.5,168.5C 546.314,165.012 553.314,162.345 560.5,160.5 Z M 567.5,172.5 C 574.306,172.4 577.973,175.734 578.5,182.5C 574.434,204.03 563.434,220.863 545.5,233C 529.334,236.898 519.334,230.564 515.5,214C 517.605,204.793 522.272,197.126 529.5,191C 540.534,181.316 553.2,175.149 567.5,172.5 Z M 507.5,231.5 C 510.971,235.803 514.971,239.636 519.5,243C 461.833,302.667 404.167,362.333 346.5,422C 345.833,422.667 345.167,422.667 344.5,422C 338.833,416.333 333.167,410.667 327.5,405C 387.395,346.936 447.395,289.102 507.5,231.5 Z M 328.5,335.5 C 343.706,333.683 357.039,337.683 368.5,347.5C 350.152,365.682 331.652,383.682 313,401.5C 312.333,403.833 312.333,406.167 313,408.5C 322.833,418.333 332.667,428.167 342.5,438C 344.833,438.667 347.167,438.667 349.5,438C 367.318,419.348 385.318,400.848 403.5,382.5C 416.06,397.408 418.894,414.075 412,432.5C 408.173,440.656 403.173,447.989 397,454.5C 382.278,450.849 369.445,454.349 358.5,465C 342.453,481.535 340.453,499.535 352.5,519C 340.21,537.624 324.877,553.29 306.5,566C 283.004,580.108 259.004,581.108 234.5,569C 238.714,564.454 242.547,559.621 246,554.5C 249.329,559.057 253.162,559.557 257.5,556C 264.667,548.833 271.833,541.667 279,534.5C 280.422,531.97 280.755,529.303 280,526.5C 264,510.5 248,494.5 232,478.5C 232.156,468.505 232.156,458.505 232,448.5C 228.177,433.156 218.344,424.656 202.5,423C 211.098,414.377 220.431,406.711 230.5,400C 259.601,413.052 281.435,405.219 296,376.5C 298.985,369.01 299.152,361.51 296.5,354C 305.872,345.433 316.539,339.266 328.5,335.5 Z M 191.5,434.5 C 216.105,435.331 224.771,447.664 217.5,471.5C 209.514,478.985 201.681,486.652 194,494.5C 192.195,497.211 192.195,499.878 194,502.5C 207.667,516.167 221.333,529.833 235,543.5C 233.12,550.876 228.953,556.876 222.5,561.5C 202.961,547.735 188.127,530.069 178,508.5C 170.118,487.43 171.784,467.096 183,447.5C 185.844,443.138 188.677,438.805 191.5,434.5 Z M 220.5,486.5 C 235.414,499.912 249.914,513.912 264,528.5C 264.667,529.167 264.667,529.833 264,530.5C 260.5,534 257,537.5 253.5,541C 252.833,541.667 252.167,541.667 251.5,541C 237.667,527.167 223.833,513.333 210,499.5C 209.333,498.833 209.333,498.167 210,497.5C 213.704,493.964 217.204,490.298 220.5,486.5 Z"/></g>
<g><path style="opacity:0.893" fill="#000000" d="M 277.5,418.5 C 293.927,417.752 299.427,425.085 294,440.5C 288.085,444.06 284.252,442.56 282.5,436C 282.645,434.774 282.978,433.607 283.5,432.5C 283,432.167 282.5,431.833 282,431.5C 275.242,435.257 268.742,439.423 262.5,444C 252.841,450.464 243.675,449.964 235,442.5C 229.916,435.189 230.416,428.356 236.5,422C 240.613,419.003 244.78,418.836 249,421.5C 251.813,427.039 250.313,430.872 244.5,433C 245.774,434.221 247.274,435.054 249,435.5C 252.227,434.136 255.394,432.636 258.5,431C 264.59,426.3 270.923,422.134 277.5,418.5 Z"/></g>
<g><path style="opacity:0.895" fill="#000000" d="M 316.5,454.5 C 326.399,454.097 331.732,458.764 332.5,468.5C 332.589,472.067 331.755,475.4 330,478.5C 324.032,485.596 319.199,493.43 315.5,502C 315.946,503.726 316.779,505.226 318,506.5C 319.999,500.465 323.832,498.965 329.5,502C 332.692,508.33 331.359,513.663 325.5,518C 312.203,521.344 304.537,516.177 302.5,502.5C 303.046,498.314 304.213,494.314 306,490.5C 310.631,483.401 315.131,476.234 319.5,469C 319.333,468.5 319.167,468 319,467.5C 311.534,470.036 308.201,467.369 309,459.5C 310.913,456.72 313.413,455.053 316.5,454.5 Z"/></g>
</svg>
